<svg width="27" height="30" viewBox="0 0 27 30" fill="none" xmlns="http://www.w3.org/2000/svg">
<g id="logos:tiktok-icon" clip-path="url(#clip0_1262_4848)">
<path id="Vector" d="M19.7684 10.8022C21.6654 12.1827 23.9893 12.995 26.4993 12.995V8.07809C26.0242 8.07828 25.5504 8.0278 25.0857 7.92747V11.7978C22.576 11.7978 20.2524 10.9856 18.355 9.60519V19.6393C18.355 24.6589 14.3579 28.7277 9.42762 28.7277C7.58802 28.7277 5.87812 28.1615 4.45776 27.1905C6.0789 28.878 8.33969 29.9248 10.8408 29.9248C15.7714 29.9248 19.7686 25.856 19.7686 20.8362V10.8022H19.7684ZM21.5122 5.84164C20.5427 4.7634 19.9061 3.36995 19.7684 1.8294V1.19702H18.4289C18.7661 3.15499 19.9163 4.82775 21.5122 5.84164ZM7.57614 23.3387C7.03444 22.6158 6.74165 21.7312 6.74302 20.8218C6.74302 18.5261 8.57125 16.6646 10.8268 16.6646C11.2471 16.6644 11.665 16.7301 12.0656 16.8594V11.8325C11.5974 11.7673 11.1249 11.7394 10.6527 11.7497V15.6623C10.2518 15.5329 9.83379 15.4673 9.4133 15.4676C7.1578 15.4676 5.32968 17.3288 5.32968 19.6249C5.32968 21.2484 6.24344 22.654 7.57614 23.3387Z" fill="#FF004F"/>
<path id="Vector_2" d="M18.3549 9.60509C20.2524 10.9855 22.5758 11.7977 25.0856 11.7977V7.92737C23.6847 7.62354 22.4445 6.8783 21.5121 5.84164C19.916 4.82764 18.766 3.15488 18.4288 1.19702H14.9104V20.836C14.9024 23.1255 13.0773 24.9793 10.8266 24.9793C9.50035 24.9793 8.32203 24.3357 7.57585 23.3386C6.24335 22.654 5.32949 21.2483 5.32949 19.625C5.32949 17.3292 7.15761 15.4677 9.41311 15.4677C9.84526 15.4677 10.2618 15.5362 10.6525 15.6624V11.7498C5.80876 11.8517 1.91333 15.8808 1.91333 20.8361C1.91333 23.3097 2.88335 25.5522 4.45778 27.1907C5.87813 28.1615 7.58793 28.7279 9.42763 28.7279C14.358 28.7279 18.355 24.6588 18.355 19.6393L18.3549 9.60509Z" fill="black"/>
<path id="Vector_3" d="M25.0857 7.92724V6.88097C23.8224 6.88283 22.5841 6.52267 21.5122 5.84162C22.461 6.89908 23.7103 7.62831 25.0857 7.92745M18.4288 1.1969C18.3967 1.00982 18.372 0.821491 18.3549 0.632379V0H13.4968V19.6391C13.489 21.9285 11.664 23.7822 9.41313 23.7822C8.77503 23.7832 8.14567 23.6313 7.57586 23.3388C8.32204 24.3357 9.50037 24.9791 10.8266 24.9791C13.0772 24.9791 14.9025 23.1256 14.9104 20.836V1.197L18.4288 1.1969ZM10.6528 11.7497V10.6356C10.2468 10.5792 9.83758 10.5509 9.42785 10.551C4.49699 10.551 0.5 14.62 0.5 19.6391C0.5 22.7859 2.07087 25.5592 4.45799 27.1905C2.88357 25.552 1.91355 23.3095 1.91355 20.8359C1.91355 15.8808 5.80888 11.8516 10.6528 11.7497Z" fill="#00F2EA"/>
</g>
<defs>
<clipPath id="clip0_1262_4848">
<rect width="26" height="30" fill="white" transform="translate(0.5)"/>
</clipPath>
</defs>
</svg>
