<svg width="22" height="22" viewBox="0 0 22 22" fill="none" xmlns="http://www.w3.org/2000/svg">
<g id="maki:arrow">
<path id="Vector" d="M12.1631 3.36301C12.4382 3.08806 12.8112 2.93359 13.2001 2.93359C13.589 2.93359 13.962 3.08806 14.237 3.36301L20.837 9.96301C21.112 10.2381 21.2664 10.611 21.2664 10.9999C21.2664 11.3889 21.112 11.7618 20.837 12.0369L14.237 18.6369C13.9604 18.904 13.5899 19.0519 13.2053 19.0485C12.8208 19.0452 12.4529 18.8909 12.181 18.619C11.9091 18.3471 11.7548 17.9792 11.7515 17.5947C11.7481 17.2101 11.896 16.8396 12.1631 16.563L16.1334 12.4666H2.20007C1.81108 12.4666 1.43803 12.3121 1.16298 12.037C0.887922 11.762 0.733398 11.3889 0.733398 10.9999C0.733398 10.611 0.887922 10.2379 1.16298 9.96286C1.43803 9.6878 1.81108 9.53328 2.20007 9.53328H16.1334L12.1631 5.43688C11.8882 5.16184 11.7337 4.78885 11.7337 4.39995C11.7337 4.01104 11.8882 3.63805 12.1631 3.36301Z" fill="white"/>
</g>
</svg>
