<svg width="26" height="30" viewBox="0 0 26 30" fill="none" xmlns="http://www.w3.org/2000/svg">
<g id="logos:tiktok-icon" clip-path="url(#clip0_53_52)">
<path id="Vector" d="M19.2687 10.8024C21.1656 12.183 23.4896 12.9952 25.9995 12.9952V8.07833C25.5245 8.07852 25.0507 8.02804 24.586 7.92771V11.798C22.0762 11.798 19.7526 10.9859 17.8552 9.60544V19.6395C17.8552 24.6591 13.8581 28.728 8.92787 28.728C7.08827 28.728 5.37836 28.1618 3.95801 27.1907C5.57915 28.8783 7.83993 29.9251 10.341 29.9251C15.2717 29.9251 19.2689 25.8562 19.2689 20.8364V10.8024H19.2687ZM21.0125 5.84189C20.043 4.76364 19.4064 3.3702 19.2687 1.82964V1.19727H17.9291C18.2663 3.15523 19.4165 4.82799 21.0125 5.84189ZM7.07638 23.3389C6.53469 22.616 6.24189 21.7314 6.24327 20.822C6.24327 18.5263 8.07149 16.6649 10.3271 16.6649C10.7474 16.6646 11.1652 16.7303 11.5659 16.8596V11.8328C11.0976 11.7675 10.6252 11.7397 10.1529 11.7499V15.6625C9.75206 15.5332 9.33403 15.4675 8.91355 15.4679C6.65805 15.4679 4.82992 17.3291 4.82992 19.6251C4.82992 21.2486 5.74368 22.6542 7.07638 23.3389Z" fill="#FF004F"/>
<path id="Vector_2" d="M17.8546 9.60533C19.7521 10.9857 22.0756 11.7979 24.5854 11.7979V7.92761C23.1844 7.62378 21.9443 6.87854 21.0118 5.84189C19.4158 4.82789 18.2658 3.15513 17.9286 1.19727H14.4101V20.8362C14.4021 23.1257 12.577 24.9795 10.3263 24.9795C9.00011 24.9795 7.82178 24.336 7.0756 23.3388C5.7431 22.6542 4.82924 21.2485 4.82924 19.6252C4.82924 17.3294 6.65737 15.468 8.91287 15.468C9.34502 15.468 9.76152 15.5364 10.1522 15.6626V11.75C5.30852 11.8519 1.41309 15.881 1.41309 20.8363C1.41309 23.31 2.38311 25.5524 3.95753 27.1909C5.37788 28.1618 7.08769 28.7282 8.92739 28.7282C13.8577 28.7282 17.8547 24.659 17.8547 19.6395L17.8546 9.60533Z" fill="black"/>
<path id="Vector_3" d="M24.5857 7.92724V6.88097C23.3224 6.88283 22.0841 6.52267 21.0122 5.84162C21.961 6.89908 23.2103 7.62831 24.5857 7.92745M17.9288 1.1969C17.8967 1.00982 17.872 0.821491 17.8549 0.632379V0H12.9968V19.6391C12.989 21.9285 11.164 23.7822 8.91313 23.7822C8.27503 23.7832 7.64567 23.6313 7.07586 23.3388C7.82204 24.3357 9.00037 24.9791 10.3266 24.9791C12.5772 24.9791 14.4025 23.1256 14.4104 20.836V1.197L17.9288 1.1969ZM10.1528 11.7497V10.6356C9.74684 10.5792 9.33758 10.5509 8.92785 10.551C3.99699 10.551 0 14.62 0 19.6391C0 22.7859 1.57087 25.5592 3.95799 27.1905C2.38357 25.552 1.41355 23.3095 1.41355 20.8359C1.41355 15.8808 5.30888 11.8516 10.1528 11.7497Z" fill="#00F2EA"/>
</g>
<defs>
<clipPath id="clip0_53_52">
<rect width="26" height="30" fill="white"/>
</clipPath>
</defs>
</svg>
