<svg width="20" height="21" viewBox="0 0 20 21" fill="none" xmlns="http://www.w3.org/2000/svg">
<path id="Vector" fill-rule="evenodd" clip-rule="evenodd" d="M14.6877 20.1335C13.2477 20.0805 9.16674 19.5165 4.89274 15.2435C0.619742 10.9695 0.056742 6.88946 0.002742 5.44846C-0.077258 3.25246 1.60474 1.11946 3.54774 0.28646C3.78172 0.185427 4.03794 0.14696 4.29127 0.174835C4.5446 0.20271 4.78633 0.295969 4.99274 0.44546C6.59274 1.61146 7.69674 3.37546 8.64474 4.76246C8.85333 5.06719 8.94251 5.43801 8.8953 5.80426C8.84809 6.17051 8.66778 6.50659 8.38874 6.74846L6.43774 8.19746C6.34348 8.26552 6.27713 8.36549 6.25102 8.47878C6.2249 8.59208 6.24079 8.711 6.29574 8.81346C6.73774 9.61646 7.52374 10.8125 8.42374 11.7125C9.32474 12.6125 10.5767 13.4505 11.4357 13.9425C11.5434 14.0029 11.6702 14.0198 11.79 13.9897C11.9098 13.9596 12.0135 13.8847 12.0797 13.7805L13.3497 11.8475C13.5832 11.5373 13.9277 11.3295 14.3109 11.2676C14.6942 11.2058 15.0865 11.2946 15.4057 11.5155C16.8127 12.4895 18.4547 13.5745 19.6567 15.1135C19.8184 15.3214 19.9212 15.5689 19.9544 15.8301C19.9877 16.0913 19.9501 16.3567 19.8457 16.5985C19.0087 18.5515 16.8907 20.2145 14.6877 20.1335Z" fill="white"/>
</svg>
