<svg width="24" height="24" viewBox="0 0 24 24" fill="none" xmlns="http://www.w3.org/2000/svg">
<g id="material-symbols:chat-outline-rounded">
<path id="Vector" d="M6.02 24C5.44417 24 4.96375 23.769 4.57875 23.307C4.19375 22.845 4.00083 22.268 4 21.576V2.424C4 1.733 4.19292 1.1565 4.57875 0.6945C4.96458 0.2325 5.445 0.001 6.02 0H17.6325C17.9017 0 18.1633 0.0650002 18.4175 0.195C18.6717 0.327 18.8892 0.5015 19.07 0.7185L23.4012 5.916C23.5829 6.134 23.7279 6.395 23.8363 6.699C23.9454 7.004 24 7.318 24 7.641V21.576C24 22.267 23.8075 22.844 23.4225 23.307C23.0375 23.77 22.5567 24.001 21.98 24H6.02ZM6.02 22.5H21.9813C22.2054 22.5 22.3896 22.4135 22.5337 22.2405C22.6779 22.0675 22.75 21.8465 22.75 21.5775V7.5H18.76C18.4692 7.5 18.2283 7.385 18.0375 7.155C17.8467 6.925 17.7508 6.636 17.75 6.288V1.5H6.02C5.795 1.5 5.61042 1.5865 5.46625 1.7595C5.32208 1.9325 5.25 2.154 5.25 2.424V21.5775C5.25 21.8465 5.32208 22.0675 5.46625 22.2405C5.61042 22.4135 5.795 22.5 6.02 22.5ZM19 18C19.1783 18 19.3271 17.9285 19.4463 17.7855C19.5654 17.6425 19.625 17.464 19.625 17.25C19.625 17.036 19.5654 16.8575 19.4463 16.7145C19.3271 16.5715 19.1783 16.5 19 16.5H9C8.8225 16.5 8.67375 16.5715 8.55375 16.7145C8.43375 16.8575 8.37417 17.036 8.375 17.25C8.37583 17.464 8.43542 17.6425 8.55375 17.7855C8.67208 17.9285 8.82083 18 9 18H19ZM13.375 7.5C13.5533 7.5 13.7021 7.4285 13.8213 7.2855C13.9404 7.1425 14 6.964 14 6.75C14 6.536 13.9404 6.3575 13.8213 6.2145C13.7021 6.0715 13.5533 6 13.375 6H9C8.8225 6 8.67375 6.0715 8.55375 6.2145C8.43375 6.3575 8.37417 6.536 8.375 6.75C8.37583 6.964 8.43542 7.1425 8.55375 7.2855C8.67208 7.4285 8.82083 7.5 9 7.5H13.375ZM19 12.75C19.1783 12.75 19.3271 12.6785 19.4463 12.5355C19.5654 12.3925 19.625 12.214 19.625 12C19.625 11.786 19.5654 11.6075 19.4463 11.4645C19.3271 11.3215 19.1783 11.25 19 11.25H9C8.8225 11.25 8.67375 11.3215 8.55375 11.4645C8.43375 11.6075 8.37417 11.786 8.375 12C8.37583 12.214 8.43542 12.3925 8.55375 12.5355C8.67208 12.6785 8.82083 12.75 9 12.75H19Z" fill="white"/>
</g>
</svg>
