<svg width="24" height="25" viewBox="0 0 24 25" fill="none" xmlns="http://www.w3.org/2000/svg">
<g id="material-symbols:chat-outline-rounded" clip-path="url(#clip0_1880_5530)">
<path id="Vector" d="M21.41 12.08L12.41 3.08C12.035 2.70808 11.5281 2.49958 11 2.5H4C3.46957 2.5 2.96086 2.71071 2.58579 3.08579C2.21071 3.46086 2 3.96957 2 4.5V11.5C1.99979 11.7639 2.05182 12.0253 2.15308 12.269C2.25434 12.5127 2.40283 12.7339 2.59 12.92L11.59 21.92C11.965 22.2919 12.4719 22.5004 13 22.5C13.5296 22.4978 14.0367 22.2856 14.41 21.91L21.41 14.91C21.7856 14.5367 21.9978 14.0296 22 13.5C22.0002 13.2361 21.9482 12.9747 21.8469 12.731C21.7457 12.4873 21.5972 12.2661 21.41 12.08ZM13 20.5L4 11.5V4.5H11L20 13.5M6.5 5.5C6.79667 5.5 7.08668 5.58797 7.33336 5.7528C7.58003 5.91762 7.77229 6.15189 7.88582 6.42598C7.99935 6.70006 8.02906 7.00166 7.97118 7.29264C7.9133 7.58361 7.77044 7.85088 7.56066 8.06066C7.35088 8.27044 7.08361 8.4133 6.79264 8.47118C6.50166 8.52906 6.20006 8.49935 5.92598 8.38582C5.65189 8.27229 5.41762 8.08003 5.2528 7.83336C5.08797 7.58668 5 7.29667 5 7C5 6.60218 5.15804 6.22064 5.43934 5.93934C5.72064 5.65804 6.10218 5.5 6.5 5.5Z" fill="white"/>
</g>
<defs>
<clipPath id="clip0_1880_5530">
<rect width="24" height="24" fill="white" transform="translate(0 0.5)"/>
</clipPath>
</defs>
</svg>
