<svg width="27" height="20" viewBox="0 0 27 20" fill="none" xmlns="http://www.w3.org/2000/svg">
<g id="th&#195;&#185;ng r&#195;&#161;c">
<path id="Vector" d="M17 4H0M15.333 6.5L14.873 13.4C14.696 16.054 14.608 17.381 13.743 18.19C12.878 18.999 11.547 19 8.887 19H8.113C5.453 19 4.122 19 3.257 18.19C2.392 17.381 2.303 16.054 2.127 13.4L1.667 6.5M6 9L6.5 14M11 9L10.5 14" stroke="#FF0000" stroke-width="1.5" stroke-linecap="round"/>
<path id="Vector_2" d="M3 4H3.11C3.51245 3.98972 3.90242 3.85822 4.22892 3.62271C4.55543 3.3872 4.80325 3.05864 4.94 2.68L4.974 2.577L5.071 2.286C5.154 2.037 5.196 1.913 5.251 1.807C5.35921 1.59939 5.51451 1.41999 5.70448 1.28316C5.89444 1.14633 6.1138 1.05586 6.345 1.019C6.462 1 6.593 1 6.855 1H10.145C10.407 1 10.538 1 10.655 1.019C10.8862 1.05586 11.1056 1.14633 11.2955 1.28316C11.4855 1.41999 11.6408 1.59939 11.749 1.807C11.804 1.913 11.846 2.037 11.929 2.286L12.026 2.577C12.1527 2.99827 12.4148 3.36601 12.7717 3.62326C13.1285 3.88051 13.5603 4.01293 14 4" stroke="#FF0000" stroke-width="1.5"/>
</g>
</svg>
