<svg width="18" height="14" viewBox="0 0 18 14" fill="none" xmlns="http://www.w3.org/2000/svg">
<g id="Group">
<path id="Vector" d="M16.3015 6.29217L16.3012 6.29173C15.4329 4.77164 13.0673 1.5 8.86463 1.5C4.66138 1.5 2.29656 4.77129 1.42725 6.29171C1.33064 6.46122 1.2823 6.54791 1.2535 6.61923C1.23242 6.6714 1.22861 6.6993 1.23032 6.73701L1.23047 6.74047L1.23046 6.74047C1.23182 6.7761 1.23758 6.80359 1.26448 6.85629C1.30071 6.92724 1.35874 7.01289 1.47277 7.1778L1.47327 7.17852C1.98656 7.92359 2.93578 9.15205 4.2181 10.1898C5.50208 11.2288 7.08063 12.0455 8.86463 12.0455C10.6486 12.0455 12.2272 11.2288 13.5112 10.1898C14.7935 9.15206 15.7427 7.92362 16.256 7.17855L16.3015 6.29217ZM16.3015 6.29217C16.4972 6.63402 16.5022 6.67024 16.4997 6.73858M16.3015 6.29217L16.4997 6.73858M16.4997 6.73858C16.4979 6.77453 16.4915 6.80307 16.4644 6.85595C16.4278 6.92756 16.3696 7.01358 16.256 7.17852L16.4997 6.73858ZM8.86463 9.74679C9.65339 9.74679 10.4099 9.43345 10.9676 8.87571C11.5253 8.31797 11.8387 7.56151 11.8387 6.77275C11.8387 5.98399 11.5253 5.22753 10.9676 4.66979C10.4099 4.11205 9.65339 3.79871 8.86463 3.79871C8.07587 3.79871 7.31941 4.11205 6.76167 4.66979C6.20393 5.22753 5.89059 5.98399 5.89059 6.77275C5.89059 7.56151 6.20393 8.31797 6.76167 8.87571C7.31941 9.43345 8.07587 9.74679 8.86463 9.74679Z" stroke="#797979"/>
<path id="Vector_2" d="M8.86474 1C4.37519 1 1.88054 4.49169 0.994009 6.04373C0.811755 6.36206 0.72104 6.52205 0.730111 6.75956C0.740832 6.99706 0.848041 7.1521 1.06163 7.46218C2.11722 8.99443 4.9838 12.5455 8.86474 12.5455C12.7457 12.5455 15.6123 8.99443 16.6679 7.46218C16.8823 7.1521 16.9895 6.99706 16.9985 6.75956C17.0076 6.52205 16.9177 6.36206 16.7355 6.04373C15.8498 4.49169 13.3543 1 8.86474 1Z" stroke="#797979" stroke-width="1.2"/>
<path id="Vector_3" d="M8.86466 9.2469C10.231 9.2469 11.3387 8.13924 11.3387 6.77286C11.3387 5.40649 10.231 4.29883 8.86466 4.29883C7.49829 4.29883 6.39062 5.40649 6.39062 6.77286C6.39062 8.13924 7.49829 9.2469 8.86466 9.2469Z" stroke="#797979" stroke-width="1.2"/>
</g>
</svg>
