<?xml version="1.0" encoding="utf-8"?>
<!-- Generator: Adobe Illustrator 27.0.0, SVG Export Plug-In . SVG Version: 6.00 Build 0)  -->
<svg version="1.1" id="Layer_1" xmlns="http://www.w3.org/2000/svg" xmlns:xlink="http://www.w3.org/1999/xlink" x="0px" y="0px"
	 viewBox="0 0 300 140" style="enable-background:new 0 0 300 140;" xml:space="preserve">
<style type="text/css">
	.st0{opacity:0.42;fill:none;stroke:#A9A8A9;stroke-width:1.018;stroke-miterlimit:10;enable-background:new    ;}
	.st1{fill:url(#SVGID_1_);}
	
		.st2{fill:none;stroke:url(#SVGID_00000177455493217761488080000015542207038940619680_);stroke-width:1.875;stroke-linecap:round;stroke-linejoin:round;stroke-miterlimit:10;}
	.st3{opacity:0.42;fill:none;stroke:#A9A8A9;stroke-width:0.6749;stroke-miterlimit:10;enable-background:new    ;}
	.st4{fill:#006838;}
</style>
<g>
	<g>
		<line class="st0" x1="17.9" y1="27.6" x2="294.8" y2="27.6"/>
		<line class="st0" x1="17.9" y1="47.3" x2="294.8" y2="47.3"/>
		<line class="st0" x1="17.9" y1="67" x2="294.8" y2="67"/>
		<line class="st0" x1="17.9" y1="86.7" x2="294.8" y2="86.7"/>
		<line class="st0" x1="17.9" y1="106.4" x2="294.8" y2="106.4"/>
		<line class="st0" x1="17.9" y1="126" x2="294.8" y2="126"/>
	</g>
	
		<linearGradient id="SVGID_1_" gradientUnits="userSpaceOnUse" x1="148.425" y1="90.3808" x2="150.6059" y2="3.141" gradientTransform="matrix(1 0 0 -1 0 142)">
		<stop  offset="0" style="stop-color:#61C3A6"/>
		<stop  offset="1" style="stop-color:#FFFFFF"/>
	</linearGradient>
	<polygon class="st1" points="18.7,90.5 75.5,63.8 123.2,84.1 184.9,45.3 222.8,57.4 279,12.3 279,125.9 18.7,125.9 	"/>
	
		<linearGradient id="SVGID_00000131355317035773711810000006338516854469577142_" gradientUnits="userSpaceOnUse" x1="121.4773" y1="91.3306" x2="335.7747" y2="91.3306" gradientTransform="matrix(0.9281 0.3724 0.3724 -0.9281 -97.3373 51.0357)">
		<stop  offset="0" style="stop-color:#0CB7A9"/>
		<stop  offset="1" style="stop-color:#0CB7A9"/>
	</linearGradient>
	
		<polyline style="fill:none;stroke:url(#SVGID_00000131355317035773711810000006338516854469577142_);stroke-width:1.875;stroke-linecap:round;stroke-linejoin:round;stroke-miterlimit:10;" points="
		18.7,90.5 75.5,63.8 123.2,84.1 184.9,45.3 222.8,57.4 279,12.3 	"/>
</g>
<line class="st3" x1="18.4" y1="126" x2="18.4" y2="4.3"/>
<g>
	<path d="M20.8,137.5c-0.1,0-0.2,0-0.3,0c-0.1,0-0.2,0-0.3-0.1v-0.8c0.1,0,0.1,0,0.2,0.1c0.1,0,0.2,0,0.3,0c0.1,0,0.2,0,0.3-0.1
		c0.1-0.1,0.1-0.2,0.2-0.3c0-0.2,0.1-0.4,0.1-0.6v-5.8h0.9v5.8c0,0.5,0,0.8-0.2,1.1c-0.1,0.3-0.3,0.5-0.4,0.6S21.1,137.5,20.8,137.5
		z"/>
	<path d="M24.6,131.2c0.4,0,0.7,0.1,0.9,0.4c0.2,0.3,0.3,0.7,0.3,1.2v3h-0.6l-0.1-0.6h0c-0.1,0.2-0.2,0.3-0.3,0.4
		c-0.1,0.1-0.2,0.2-0.3,0.2s-0.3,0.1-0.5,0.1c-0.3,0-0.4-0.1-0.6-0.2c-0.2-0.1-0.3-0.3-0.3-0.5c-0.1-0.2-0.1-0.4-0.1-0.7
		c0-0.5,0.1-0.8,0.4-1.1c0.3-0.3,0.6-0.4,1.1-0.4l0.5,0v-0.3c0-0.3,0-0.5-0.1-0.7c-0.1-0.1-0.2-0.2-0.4-0.2c-0.1,0-0.3,0-0.4,0.1
		s-0.3,0.1-0.5,0.2l-0.3-0.6c0.2-0.1,0.4-0.2,0.6-0.3C24.1,131.3,24.4,131.2,24.6,131.2z M25,133.7l-0.4,0c-0.3,0-0.5,0.1-0.6,0.2
		c-0.1,0.1-0.2,0.3-0.2,0.6c0,0.2,0,0.4,0.1,0.5c0.1,0.1,0.2,0.2,0.4,0.2c0.2,0,0.4-0.1,0.5-0.3c0.1-0.2,0.2-0.5,0.2-0.8
		C25,134.1,25,133.7,25,133.7z"/>
	<path d="M28.7,131.2c0.4,0,0.7,0.1,0.8,0.4s0.3,0.7,0.3,1.2v3H29V133c0-0.3,0-0.6-0.1-0.8s-0.2-0.3-0.4-0.3c-0.3,0-0.5,0.1-0.6,0.4
		c-0.1,0.2-0.2,0.6-0.2,1.2v2.3h-0.9v-4.5h0.7l0.1,0.6h0c0.1-0.1,0.2-0.3,0.3-0.4c0.1-0.1,0.2-0.2,0.3-0.2
		C28.4,131.3,28.5,131.2,28.7,131.2z"/>
</g>
<g>
	<path d="M180.3,135.8l-1.3-4.7h0c0,0.2,0,0.3,0,0.5c0,0.2,0,0.3,0,0.4c0,0.1,0,0.2,0,0.3v3.5h-0.8v-6h1.3l1.3,4.5h0l1.3-4.5h1.3v6
		h-0.9v-3.5c0-0.1,0-0.2,0-0.3c0-0.1,0-0.3,0-0.4c0-0.2,0-0.3,0-0.5h0l-1.3,4.7L180.3,135.8L180.3,135.8z"/>
	<path d="M185.7,131.2c0.4,0,0.7,0.1,0.9,0.4c0.2,0.3,0.3,0.7,0.3,1.2v3h-0.6l-0.1-0.6h0c-0.1,0.2-0.2,0.3-0.3,0.4
		c-0.1,0.1-0.2,0.2-0.3,0.2c-0.1,0-0.3,0.1-0.5,0.1c-0.3,0-0.4-0.1-0.6-0.2c-0.2-0.1-0.3-0.3-0.3-0.5c-0.1-0.2-0.1-0.4-0.1-0.7
		c0-0.5,0.1-0.8,0.4-1.1c0.3-0.3,0.6-0.4,1.1-0.4l0.5,0v-0.3c0-0.3,0-0.5-0.1-0.7c-0.1-0.1-0.2-0.2-0.4-0.2c-0.1,0-0.3,0-0.4,0.1
		s-0.3,0.1-0.5,0.2l-0.3-0.6c0.2-0.1,0.4-0.2,0.6-0.3C185.3,131.3,185.5,131.2,185.7,131.2z M186.1,133.7l-0.4,0
		c-0.3,0-0.5,0.1-0.6,0.2c-0.1,0.1-0.2,0.3-0.2,0.6c0,0.2,0,0.4,0.1,0.5c0.1,0.1,0.2,0.2,0.4,0.2c0.2,0,0.4-0.1,0.5-0.3
		c0.1-0.2,0.2-0.5,0.2-0.8V133.7z"/>
	<path d="M187.5,131.3h0.9l0.6,2.4c0,0.1,0,0.2,0.1,0.3c0,0.1,0,0.2,0.1,0.3c0,0.1,0,0.2,0,0.3h0c0-0.1,0-0.3,0.1-0.4
		c0-0.2,0.1-0.3,0.1-0.5l0.6-2.4h0.9l-1.4,5.1c-0.1,0.3-0.2,0.6-0.3,0.8c-0.1,0.2-0.3,0.4-0.4,0.5c-0.2,0.1-0.4,0.1-0.6,0.1
		c-0.1,0-0.2,0-0.2,0c-0.1,0-0.2,0-0.2,0V137c0,0,0.1,0,0.2,0c0.1,0,0.1,0,0.2,0c0.1,0,0.2,0,0.3-0.1s0.1-0.1,0.2-0.3
		c0.1-0.1,0.1-0.3,0.2-0.5l0.1-0.5L187.5,131.3z"/>
</g>
<g>
	<path d="M141.5,135.8l-0.4-1.7h-1.4l-0.4,1.7h-1l1.4-6h1.1l1.5,6H141.5z M140.9,133.4l-0.4-1.8c0-0.1,0-0.2-0.1-0.3
		c0-0.1,0-0.2,0-0.3c0-0.1,0-0.2,0-0.3c0,0.1,0,0.2,0,0.3c0,0.1,0,0.2,0,0.3c0,0.1,0,0.2-0.1,0.3l-0.4,1.8L140.9,133.4L140.9,133.4z
		"/>
	<path d="M144.8,131.2c0.4,0,0.8,0.2,1,0.6c0.2,0.4,0.3,1,0.3,1.8c0,0.5,0,0.9-0.2,1.3c-0.1,0.3-0.3,0.6-0.4,0.8
		c-0.2,0.2-0.4,0.3-0.7,0.3c-0.1,0-0.3,0-0.4-0.1c-0.1,0-0.2-0.1-0.3-0.2c-0.1-0.1-0.2-0.2-0.3-0.4h0c0,0.1,0,0.3,0,0.4
		c0,0.1,0,0.2,0,0.3v1.9h-0.9v-6.5h0.7l0.1,0.6h0c0.1-0.2,0.2-0.3,0.3-0.4c0.1-0.1,0.2-0.2,0.3-0.2
		C144.5,131.3,144.6,131.2,144.8,131.2z M144.6,132c-0.2,0-0.3,0-0.4,0.2c-0.1,0.1-0.2,0.3-0.3,0.5c0,0.2-0.1,0.5-0.1,0.8v0.2
		c0,0.3,0,0.6,0.1,0.8c0,0.2,0.1,0.4,0.3,0.5c0.1,0.1,0.3,0.2,0.4,0.2c0.1,0,0.3-0.1,0.4-0.2c0.1-0.1,0.2-0.3,0.2-0.5
		c0-0.2,0.1-0.5,0.1-0.9c0-0.5,0-0.9-0.2-1.2C145,132.1,144.8,132,144.6,132z"/>
	<path d="M148.7,131.2c0.1,0,0.1,0,0.2,0c0.1,0,0.1,0,0.2,0l-0.1,0.9c0,0-0.1,0-0.2,0c-0.1,0-0.1,0-0.2,0c-0.1,0-0.2,0-0.3,0.1
		c-0.1,0.1-0.2,0.2-0.3,0.3c-0.1,0.1-0.1,0.3-0.2,0.4c0,0.2-0.1,0.3,0,0.6v2.3H147v-4.5h0.7l0.1,0.8h0c0.1-0.2,0.1-0.3,0.2-0.4
		c0.1-0.1,0.2-0.2,0.3-0.3C148.4,131.3,148.6,131.2,148.7,131.2z"/>
</g>
<g>
	<path d="M101.9,135.8l-1.3-4.7h0c0,0.2,0,0.3,0,0.5c0,0.2,0,0.3,0,0.4c0,0.1,0,0.2,0,0.3v3.5h-0.8v-6h1.3l1.3,4.5h0l1.3-4.5h1.3v6
		h-0.9v-3.5c0-0.1,0-0.2,0-0.3c0-0.1,0-0.3,0-0.4c0-0.1,0-0.3,0-0.5h0l-1.3,4.7L101.9,135.8L101.9,135.8z"/>
	<path d="M107.3,131.2c0.4,0,0.7,0.1,0.9,0.4c0.2,0.3,0.3,0.7,0.3,1.2v3h-0.6l-0.1-0.6h0c-0.1,0.2-0.2,0.3-0.3,0.4
		c-0.1,0.1-0.2,0.2-0.3,0.2s-0.3,0.1-0.5,0.1c-0.3,0-0.4-0.1-0.6-0.2c-0.2-0.1-0.3-0.3-0.3-0.5s-0.1-0.4-0.1-0.7
		c0-0.5,0.1-0.8,0.4-1.1c0.3-0.2,0.6-0.4,1.1-0.4l0.5,0v-0.3c0-0.3,0-0.5-0.1-0.7c-0.1-0.1-0.2-0.2-0.4-0.2c-0.1,0-0.3,0-0.4,0.1
		s-0.3,0.1-0.5,0.2l-0.3-0.6c0.2-0.1,0.4-0.2,0.6-0.3C106.8,131.3,107,131.2,107.3,131.2z M107.7,133.7l-0.4,0
		c-0.3,0-0.5,0.1-0.6,0.2c-0.1,0.1-0.2,0.3-0.2,0.6c0,0.2,0,0.4,0.1,0.5c0.1,0.1,0.2,0.2,0.4,0.2c0.2,0,0.4-0.1,0.5-0.3
		c0.1-0.2,0.2-0.5,0.2-0.8V133.7z"/>
	<path d="M111.3,131.2c0.1,0,0.1,0,0.2,0c0.1,0,0.1,0,0.2,0l-0.1,0.9c0,0-0.1,0-0.2,0c-0.1,0-0.1,0-0.2,0c-0.1,0-0.2,0-0.3,0.1
		c-0.1,0.1-0.2,0.2-0.3,0.3c-0.1,0.1-0.1,0.3-0.2,0.4s0,0.3,0,0.6v2.3h-0.9v-4.5h0.7l0.1,0.8h0c0.1-0.2,0.1-0.3,0.2-0.4
		c0.1-0.1,0.2-0.2,0.3-0.3C111,131.3,111.1,131.2,111.3,131.2z"/>
</g>
<g>
	<path d="M61.4,135.8h-0.9v-6H63v0.8h-1.6v1.9h1.5v0.8h-1.5V135.8z"/>
	<path d="M65.1,131.2c0.3,0,0.6,0.1,0.8,0.3c0.2,0.2,0.4,0.4,0.5,0.7c0.1,0.3,0.2,0.7,0.2,1.1v0.5h-2.2c0,0.5,0.1,0.8,0.2,1.1
		c0.2,0.2,0.4,0.3,0.7,0.3c0.2,0,0.3,0,0.5-0.1s0.3-0.1,0.5-0.3v0.7c-0.2,0.1-0.3,0.2-0.5,0.2s-0.4,0.1-0.6,0.1
		c-0.4,0-0.7-0.1-1-0.3c-0.3-0.2-0.4-0.5-0.6-0.8c-0.1-0.3-0.2-0.8-0.2-1.2c0-0.5,0.1-0.9,0.2-1.3c0.1-0.4,0.3-0.6,0.5-0.8
		C64.5,131.3,64.7,131.2,65.1,131.2z M65.1,131.9c-0.2,0-0.4,0.1-0.5,0.3c-0.1,0.2-0.2,0.5-0.2,0.9h1.4c0-0.2,0-0.4-0.1-0.6
		c0-0.2-0.1-0.3-0.2-0.4C65.4,132,65.3,131.9,65.1,131.9z"/>
	<path d="M68.2,129.5v1.7c0,0.1,0,0.2,0,0.3c0,0.1,0,0.3,0,0.4h0c0.1-0.2,0.3-0.4,0.4-0.5c0.2-0.1,0.4-0.2,0.6-0.2
		c0.4,0,0.7,0.2,1,0.6c0.2,0.4,0.3,1,0.3,1.7c0,0.5,0,0.9-0.2,1.3c-0.1,0.3-0.3,0.6-0.4,0.8c-0.2,0.2-0.4,0.3-0.7,0.3
		c-0.2,0-0.4,0-0.6-0.1c-0.2-0.1-0.3-0.3-0.4-0.5h0l-0.1,0.6h-0.7v-6.4L68.2,129.5L68.2,129.5z M69,132c-0.2,0-0.3,0.1-0.5,0.2
		c-0.1,0.1-0.2,0.3-0.2,0.5c0,0.2-0.1,0.5-0.1,0.8v0.2c0,0.5,0.1,0.9,0.2,1.1c0.1,0.3,0.3,0.4,0.6,0.4c0.2,0,0.4-0.1,0.5-0.4
		s0.2-0.7,0.2-1.2c0-0.5-0.1-0.9-0.2-1.2S69.2,132,69,132z"/>
</g>
<g>
	<path d="M256.2,137.5c-0.1,0-0.2,0-0.3,0c-0.1,0-0.2,0-0.3-0.1v-0.8c0.1,0,0.1,0,0.2,0.1c0.1,0,0.2,0,0.3,0c0.1,0,0.2,0,0.3-0.1
		c0.1-0.1,0.1-0.2,0.2-0.3c0-0.2,0.1-0.4,0.1-0.6v-5.8h0.9v5.8c0,0.5,0,0.8-0.2,1.1c-0.1,0.3-0.3,0.5-0.4,0.6
		C256.8,137.5,256.5,137.5,256.2,137.5z"/>
	<path d="M261.6,131.3v4.5h-0.7l-0.1-0.6h0c-0.1,0.1-0.1,0.3-0.2,0.4c-0.1,0.1-0.2,0.2-0.3,0.2c-0.1,0-0.3,0.1-0.4,0.1
		c-0.3,0-0.5-0.1-0.6-0.2c-0.2-0.1-0.3-0.3-0.4-0.6c-0.1-0.2-0.1-0.5-0.1-0.9v-3h0.9v2.7c0,0.4,0,0.7,0.1,0.8
		c0.1,0.2,0.2,0.3,0.4,0.3c0.2,0,0.3-0.1,0.5-0.2c0.1-0.1,0.2-0.3,0.2-0.5c0-0.2,0.1-0.5,0.1-0.8v-2.4L261.6,131.3L261.6,131.3z"/>
	<path d="M263.5,135.8h-0.9v-6.4h0.9V135.8z"/>
</g>
<g>
	<path d="M217,137.5c-0.1,0-0.2,0-0.3,0c-0.1,0-0.2,0-0.3-0.1v-0.8c0.1,0,0.1,0,0.2,0.1c0.1,0,0.2,0,0.3,0c0.1,0,0.2,0,0.3-0.1
		c0.1-0.1,0.1-0.2,0.2-0.3c0-0.2,0.1-0.4,0.1-0.6v-5.8h0.9v5.8c0,0.5,0,0.8-0.2,1.1c-0.1,0.3-0.3,0.5-0.4,0.6S217.3,137.5,217,137.5
		z"/>
	<path d="M222.3,131.3v4.5h-0.7l-0.1-0.6h0c-0.1,0.1-0.1,0.3-0.2,0.4c-0.1,0.1-0.2,0.2-0.3,0.2c-0.1,0-0.3,0.1-0.4,0.1
		c-0.3,0-0.5-0.1-0.7-0.2c-0.2-0.1-0.3-0.3-0.4-0.6c-0.1-0.2-0.1-0.5-0.1-0.9v-3h0.9v2.7c0,0.4,0,0.7,0.1,0.8
		c0.1,0.2,0.2,0.3,0.4,0.3c0.2,0,0.3-0.1,0.5-0.2c0.1-0.1,0.2-0.3,0.2-0.5c0-0.2,0.1-0.5,0.1-0.8v-2.4L222.3,131.3L222.3,131.3z"/>
	<path d="M225.2,131.2c0.4,0,0.7,0.1,0.8,0.4s0.3,0.7,0.3,1.2v3h-0.9V133c0-0.3,0-0.6-0.1-0.8c-0.1-0.2-0.2-0.3-0.4-0.3
		c-0.3,0-0.5,0.1-0.6,0.4c-0.1,0.2-0.2,0.6-0.2,1.2v2.3h-0.9v-4.5h0.7l0.1,0.6h0c0.1-0.1,0.2-0.3,0.3-0.4c0.1-0.1,0.2-0.2,0.3-0.2
		C224.9,131.3,225,131.2,225.2,131.2z"/>
</g>
<circle class="st4" cx="22.9" cy="88.2" r="1.8"/>
<circle class="st4" cx="63.4" cy="69.1" r="1.8"/>
<circle class="st4" cx="106.9" cy="77.3" r="1.8"/>
<circle class="st4" cx="144" cy="70.9" r="1.8"/>
<circle class="st4" cx="182" cy="47.1" r="1.8"/>
<circle class="st4" cx="220.7" cy="56.8" r="1.8"/>
<circle class="st4" cx="260.2" cy="27.3" r="1.8"/>
<g>
	<path d="M3.8,108.5H2.9v-3.8c0-0.1,0-0.2,0-0.4c0-0.1,0-0.2,0-0.4c0-0.1,0-0.2,0-0.4c0,0-0.1,0.1-0.1,0.2c-0.1,0.1-0.1,0.1-0.2,0.2
		l-0.5,0.5L1.5,104l1.5-1.5h0.8L3.8,108.5L3.8,108.5z"/>
	<path d="M8.2,105.5c0,0.5,0,0.9-0.1,1.3c0,0.4-0.1,0.7-0.3,1c-0.1,0.3-0.3,0.5-0.5,0.6s-0.4,0.2-0.7,0.2c-0.3,0-0.6-0.1-0.8-0.3
		s-0.4-0.5-0.5-1c-0.1-0.4-0.2-1.1-0.2-1.8c0-0.7,0.1-1.3,0.2-1.7c0.1-0.5,0.3-0.8,0.5-1c0.2-0.2,0.5-0.3,0.9-0.3
		c0.3,0,0.6,0.1,0.9,0.3c0.2,0.2,0.4,0.6,0.5,1C8.2,104.3,8.2,104.8,8.2,105.5z M6,105.5c0,0.5,0,0.9,0.1,1.3c0,0.3,0.1,0.6,0.2,0.8
		c0.1,0.2,0.2,0.3,0.4,0.3c0.2,0,0.3-0.1,0.4-0.3c0.1-0.2,0.2-0.4,0.2-0.8c0-0.3,0.1-0.8,0.1-1.3c0-0.5,0-0.9-0.1-1.3
		c0-0.3-0.1-0.6-0.2-0.8c-0.1-0.2-0.2-0.3-0.4-0.3c-0.2,0-0.3,0.1-0.4,0.3c-0.1,0.2-0.2,0.4-0.2,0.8C6.1,104.6,6,105,6,105.5z"/>
	<path d="M12,105.5c0,0.5,0,0.9-0.1,1.3c0,0.4-0.1,0.7-0.3,1c-0.1,0.3-0.3,0.5-0.5,0.6s-0.4,0.2-0.7,0.2c-0.3,0-0.6-0.1-0.8-0.3
		c-0.2-0.2-0.4-0.5-0.5-1c-0.1-0.4-0.2-1.1-0.2-1.8c0-0.7,0.1-1.3,0.2-1.7c0.1-0.5,0.3-0.8,0.5-1c0.2-0.2,0.5-0.3,0.9-0.3
		c0.3,0,0.6,0.1,0.9,0.3c0.2,0.2,0.4,0.6,0.5,1C11.9,104.3,12,104.8,12,105.5z M9.8,105.5c0,0.5,0,0.9,0.1,1.3
		c0,0.3,0.1,0.6,0.2,0.8c0.1,0.2,0.2,0.3,0.4,0.3s0.3-0.1,0.4-0.3c0.1-0.2,0.2-0.4,0.2-0.8c0-0.3,0.1-0.8,0.1-1.3
		c0-0.5,0-0.9-0.1-1.3c0-0.3-0.1-0.6-0.2-0.8c-0.1-0.2-0.2-0.3-0.4-0.3c-0.2,0-0.3,0.1-0.4,0.3c-0.1,0.2-0.2,0.4-0.2,0.8
		C9.8,104.6,9.8,105,9.8,105.5z"/>
</g>
<g>
	<path d="M12,124.8c0,0.5,0,0.9-0.1,1.3c0,0.4-0.1,0.7-0.3,1c-0.1,0.3-0.3,0.5-0.5,0.6c-0.2,0.1-0.4,0.2-0.7,0.2
		c-0.3,0-0.6-0.1-0.8-0.3c-0.2-0.2-0.4-0.5-0.5-1c-0.1-0.4-0.2-1.1-0.2-1.8c0-0.7,0.1-1.3,0.2-1.7c0.1-0.5,0.3-0.8,0.5-1
		c0.2-0.2,0.5-0.3,0.9-0.3c0.3,0,0.6,0.1,0.9,0.3c0.2,0.2,0.4,0.6,0.5,1C11.9,123.5,12,124.1,12,124.8z M9.8,124.8
		c0,0.5,0,0.9,0.1,1.3c0,0.3,0.1,0.6,0.2,0.8c0.1,0.2,0.2,0.3,0.4,0.3s0.3-0.1,0.4-0.3c0.1-0.2,0.2-0.4,0.2-0.8
		c0-0.3,0.1-0.8,0.1-1.3c0-0.5,0-0.9-0.1-1.3c0-0.3-0.1-0.6-0.2-0.8c-0.1-0.2-0.2-0.3-0.4-0.3c-0.2,0-0.3,0.1-0.4,0.3
		s-0.2,0.4-0.2,0.8C9.8,123.8,9.8,124.2,9.8,124.8z"/>
</g>
<g>
	<path d="M4.4,89.3H1.3v-0.6L2.5,87c0.2-0.3,0.4-0.6,0.6-0.9s0.2-0.5,0.3-0.6c0-0.2,0.1-0.4,0.1-0.6c0-0.3-0.1-0.5-0.2-0.6
		C3.1,84.1,2.9,84,2.7,84c-0.2,0-0.3,0-0.5,0.1c-0.1,0.1-0.3,0.2-0.5,0.4l-0.4-0.6c0.2-0.2,0.3-0.3,0.4-0.4s0.3-0.2,0.5-0.2
		c0.2,0,0.3-0.1,0.5-0.1c0.3,0,0.6,0.1,0.8,0.2C3.8,83.5,4,83.7,4.1,84c0.1,0.2,0.2,0.5,0.2,0.8c0,0.3,0,0.6-0.1,0.8
		c-0.1,0.3-0.2,0.5-0.3,0.8c-0.1,0.3-0.3,0.6-0.6,0.9l-0.9,1.2v0h2V89.3z"/>
	<path d="M8.2,86.3c0,0.5,0,0.9-0.1,1.3c0,0.4-0.1,0.7-0.3,1c-0.1,0.3-0.3,0.5-0.5,0.6c-0.2,0.1-0.4,0.2-0.7,0.2
		c-0.3,0-0.6-0.1-0.8-0.3s-0.4-0.5-0.5-1c-0.1-0.4-0.2-1.1-0.2-1.8c0-0.7,0.1-1.3,0.2-1.7c0.1-0.5,0.3-0.8,0.5-1
		c0.2-0.2,0.5-0.3,0.9-0.3c0.3,0,0.6,0.1,0.9,0.3c0.2,0.2,0.4,0.6,0.5,1C8.2,85.1,8.2,85.6,8.2,86.3z M6,86.3c0,0.5,0,0.9,0.1,1.3
		c0,0.3,0.1,0.6,0.2,0.8s0.2,0.3,0.4,0.3c0.2,0,0.3-0.1,0.4-0.3c0.1-0.2,0.2-0.4,0.2-0.8c0-0.3,0.1-0.8,0.1-1.3c0-0.5,0-0.9-0.1-1.3
		c0-0.3-0.1-0.6-0.2-0.8C7,84.1,6.8,84,6.7,84c-0.2,0-0.3,0.1-0.4,0.3S6.1,84.7,6.1,85C6.1,85.4,6,85.8,6,86.3z"/>
	<path d="M12,86.3c0,0.5,0,0.9-0.1,1.3c0,0.4-0.1,0.7-0.3,1c-0.1,0.3-0.3,0.5-0.5,0.6c-0.2,0.1-0.4,0.2-0.7,0.2
		c-0.3,0-0.6-0.1-0.8-0.3c-0.2-0.2-0.4-0.5-0.5-1c-0.1-0.4-0.2-1.1-0.2-1.8c0-0.7,0.1-1.3,0.2-1.7c0.1-0.5,0.3-0.8,0.5-1
		c0.2-0.2,0.5-0.3,0.9-0.3c0.3,0,0.6,0.1,0.9,0.3c0.2,0.2,0.4,0.6,0.5,1C11.9,85.1,12,85.6,12,86.3z M9.8,86.3c0,0.5,0,0.9,0.1,1.3
		c0,0.3,0.1,0.6,0.2,0.8c0.1,0.2,0.2,0.3,0.4,0.3s0.3-0.1,0.4-0.3c0.1-0.2,0.2-0.4,0.2-0.8c0-0.3,0.1-0.8,0.1-1.3
		c0-0.5,0-0.9-0.1-1.3c0-0.3-0.1-0.6-0.2-0.8c-0.1-0.2-0.2-0.3-0.4-0.3c-0.2,0-0.3,0.1-0.4,0.3S9.9,84.7,9.8,85
		C9.8,85.4,9.8,85.8,9.8,86.3z"/>
</g>
<g>
	<path d="M4.3,65.5c0,0.2,0,0.4-0.1,0.6c-0.1,0.2-0.2,0.3-0.3,0.5c-0.1,0.1-0.3,0.3-0.6,0.3v0C3.7,67,4,67.2,4.2,67.4
		c0.2,0.3,0.3,0.6,0.3,1c0,0.3-0.1,0.7-0.2,0.9c-0.1,0.3-0.3,0.5-0.6,0.6s-0.6,0.2-0.9,0.2c-0.3,0-0.5,0-0.7-0.1
		c-0.2,0-0.4-0.1-0.6-0.2V69c0.2,0.1,0.4,0.2,0.6,0.3s0.4,0.1,0.6,0.1c0.3,0,0.6-0.1,0.7-0.3c0.2-0.2,0.2-0.4,0.2-0.7
		c0-0.2,0-0.4-0.1-0.6S3.2,67.5,3,67.4c-0.2-0.1-0.4-0.1-0.7-0.1H2.1v-0.8h0.3c0.2,0,0.4,0,0.6-0.1s0.3-0.2,0.4-0.4
		c0.1-0.2,0.1-0.3,0.1-0.6c0-0.3-0.1-0.5-0.2-0.6c-0.1-0.1-0.3-0.2-0.6-0.2c-0.1,0-0.2,0-0.3,0c-0.1,0-0.2,0.1-0.3,0.1
		C2,65,1.9,65.1,1.8,65.1l-0.4-0.6c0.2-0.2,0.5-0.3,0.7-0.4S2.6,64,2.9,64c0.5,0,0.8,0.1,1.1,0.4C4.2,64.6,4.3,65,4.3,65.5z"/>
	<path d="M8.2,67.1c0,0.5,0,0.9-0.1,1.3c0,0.4-0.1,0.7-0.3,1c-0.1,0.3-0.3,0.5-0.5,0.6c-0.2,0.1-0.4,0.2-0.7,0.2
		c-0.3,0-0.6-0.1-0.8-0.3c-0.2-0.2-0.4-0.5-0.5-1c-0.1-0.4-0.2-1.1-0.2-1.8c0-0.7,0.1-1.3,0.2-1.7c0.1-0.5,0.3-0.8,0.5-1
		C6,64.1,6.3,64,6.7,64c0.3,0,0.6,0.1,0.9,0.3c0.2,0.2,0.4,0.6,0.5,1C8.2,65.8,8.2,66.4,8.2,67.1z M6,67.1c0,0.5,0,0.9,0.1,1.3
		c0,0.3,0.1,0.6,0.2,0.8s0.2,0.3,0.4,0.3c0.2,0,0.3-0.1,0.4-0.3c0.1-0.2,0.2-0.4,0.2-0.8c0-0.3,0.1-0.8,0.1-1.3c0-0.5,0-0.9-0.1-1.3
		c0-0.3-0.1-0.6-0.2-0.8c-0.1-0.2-0.2-0.3-0.4-0.3c-0.2,0-0.3,0.1-0.4,0.3s-0.2,0.4-0.2,0.8C6.1,66.1,6,66.5,6,67.1z"/>
	<path d="M12,67.1c0,0.5,0,0.9-0.1,1.3c0,0.4-0.1,0.7-0.3,1s-0.3,0.5-0.5,0.6c-0.2,0.1-0.4,0.2-0.7,0.2c-0.3,0-0.6-0.1-0.8-0.3
		c-0.2-0.2-0.4-0.5-0.5-1s-0.2-1.1-0.2-1.8c0-0.7,0.1-1.3,0.2-1.7c0.1-0.5,0.3-0.8,0.5-1c0.2-0.2,0.5-0.3,0.9-0.3
		c0.3,0,0.6,0.1,0.9,0.3c0.2,0.2,0.4,0.6,0.5,1C11.9,65.8,12,66.4,12,67.1z M9.8,67.1c0,0.5,0,0.9,0.1,1.3c0,0.3,0.1,0.6,0.2,0.8
		c0.1,0.2,0.2,0.3,0.4,0.3s0.3-0.1,0.4-0.3c0.1-0.2,0.2-0.4,0.2-0.8c0-0.3,0.1-0.8,0.1-1.3c0-0.5,0-0.9-0.1-1.3
		c0-0.3-0.1-0.6-0.2-0.8c-0.1-0.2-0.2-0.3-0.4-0.3c-0.2,0-0.3,0.1-0.4,0.3s-0.2,0.4-0.2,0.8C9.8,66.1,9.8,66.5,9.8,67.1z"/>
</g>
<g>
	<path d="M4.7,49.5H4.1v1.3H3.2v-1.3h-2v-0.7l2-4h0.9v4h0.6L4.7,49.5L4.7,49.5z M3.2,48.8v-1.9c0-0.1,0-0.1,0-0.2s0-0.2,0-0.3
		s0-0.2,0-0.3s0-0.1,0-0.2h0c0,0.1-0.1,0.3-0.1,0.4c0,0.1-0.1,0.2-0.1,0.3l-1,2.1H3.2z"/>
	<path d="M8.2,47.8c0,0.5,0,0.9-0.1,1.3c0,0.4-0.1,0.7-0.3,1c-0.1,0.3-0.3,0.5-0.5,0.6c-0.2,0.1-0.4,0.2-0.7,0.2
		c-0.3,0-0.6-0.1-0.8-0.3c-0.2-0.2-0.4-0.5-0.5-1c-0.1-0.4-0.2-1.1-0.2-1.8c0-0.7,0.1-1.3,0.2-1.7c0.1-0.5,0.3-0.8,0.5-1
		c0.2-0.2,0.5-0.3,0.9-0.3c0.3,0,0.6,0.1,0.9,0.3c0.2,0.2,0.4,0.6,0.5,1C8.2,46.6,8.2,47.1,8.2,47.8z M6,47.8c0,0.5,0,0.9,0.1,1.3
		c0,0.3,0.1,0.6,0.2,0.8s0.2,0.3,0.4,0.3c0.2,0,0.3-0.1,0.4-0.3c0.1-0.2,0.2-0.4,0.2-0.8c0-0.3,0.1-0.8,0.1-1.3c0-0.5,0-0.9-0.1-1.3
		c0-0.3-0.1-0.6-0.2-0.8c-0.1-0.2-0.2-0.3-0.4-0.3c-0.2,0-0.3,0.1-0.4,0.3s-0.2,0.4-0.2,0.8C6.1,46.9,6,47.3,6,47.8z"/>
	<path d="M12,47.8c0,0.5,0,0.9-0.1,1.3c0,0.4-0.1,0.7-0.3,1s-0.3,0.5-0.5,0.6c-0.2,0.1-0.4,0.2-0.7,0.2c-0.3,0-0.6-0.1-0.8-0.3
		c-0.2-0.2-0.4-0.5-0.5-1c-0.1-0.4-0.2-1.1-0.2-1.8c0-0.7,0.1-1.3,0.2-1.7c0.1-0.5,0.3-0.8,0.5-1c0.2-0.2,0.5-0.3,0.9-0.3
		c0.3,0,0.6,0.1,0.9,0.3c0.2,0.2,0.4,0.6,0.5,1C11.9,46.6,12,47.1,12,47.8z M9.8,47.8c0,0.5,0,0.9,0.1,1.3c0,0.3,0.1,0.6,0.2,0.8
		c0.1,0.2,0.2,0.3,0.4,0.3s0.3-0.1,0.4-0.3c0.1-0.2,0.2-0.4,0.2-0.8c0-0.3,0.1-0.8,0.1-1.3c0-0.5,0-0.9-0.1-1.3
		c0-0.3-0.1-0.6-0.2-0.8c-0.1-0.2-0.2-0.3-0.4-0.3c-0.2,0-0.3,0.1-0.4,0.3s-0.2,0.4-0.2,0.8C9.8,46.9,9.8,47.3,9.8,47.8z"/>
</g>
<g>
	<path d="M3,27.8c0.3,0,0.6,0.1,0.8,0.2c0.2,0.2,0.4,0.4,0.5,0.6c0.1,0.3,0.2,0.6,0.2,0.9c0,0.4-0.1,0.8-0.2,1.1
		c-0.1,0.3-0.3,0.5-0.6,0.7s-0.6,0.3-1,0.3c-0.2,0-0.4,0-0.6-0.1c-0.2,0-0.4-0.1-0.5-0.2v-0.8c0.2,0.1,0.3,0.2,0.5,0.3
		s0.4,0.1,0.6,0.1c0.2,0,0.4,0,0.5-0.2c0.1-0.1,0.3-0.3,0.3-0.4c0.1-0.2,0.1-0.4,0.1-0.6c0-0.3-0.1-0.6-0.2-0.8
		c-0.2-0.2-0.4-0.3-0.7-0.3c-0.1,0-0.3,0-0.4,0c-0.1,0-0.3,0.1-0.4,0.1l-0.3-0.3l0.2-2.9h2.4v0.8H2.5l-0.1,1.5c0.1,0,0.2,0,0.3-0.1
		S2.9,27.8,3,27.8z"/>
	<path d="M8.2,28.6c0,0.5,0,0.9-0.1,1.3c0,0.4-0.1,0.7-0.3,1c-0.1,0.3-0.3,0.5-0.5,0.6c-0.2,0.1-0.4,0.2-0.7,0.2
		c-0.3,0-0.6-0.1-0.8-0.3c-0.2-0.2-0.4-0.5-0.5-1c-0.1-0.4-0.2-1.1-0.2-1.8c0-0.7,0.1-1.3,0.2-1.7c0.1-0.5,0.3-0.8,0.5-1
		c0.2-0.2,0.5-0.3,0.9-0.3c0.3,0,0.6,0.1,0.9,0.3c0.2,0.2,0.4,0.6,0.5,1C8.2,27.3,8.2,27.9,8.2,28.6z M6,28.6c0,0.5,0,0.9,0.1,1.3
		c0,0.3,0.1,0.6,0.2,0.8s0.2,0.3,0.4,0.3c0.2,0,0.3-0.1,0.4-0.3c0.1-0.2,0.2-0.4,0.2-0.8c0-0.3,0.1-0.8,0.1-1.3c0-0.5,0-0.9-0.1-1.3
		c0-0.3-0.1-0.6-0.2-0.8c-0.1-0.2-0.2-0.3-0.4-0.3c-0.2,0-0.3,0.1-0.4,0.3c-0.1,0.2-0.2,0.4-0.2,0.8C6.1,27.7,6,28.1,6,28.6z"/>
	<path d="M12,28.6c0,0.5,0,0.9-0.1,1.3c0,0.4-0.1,0.7-0.3,1s-0.3,0.5-0.5,0.6c-0.2,0.1-0.4,0.2-0.7,0.2c-0.3,0-0.6-0.1-0.8-0.3
		c-0.2-0.2-0.4-0.5-0.5-1s-0.2-1.1-0.2-1.8c0-0.7,0.1-1.3,0.2-1.7c0.1-0.5,0.3-0.8,0.5-1c0.2-0.2,0.5-0.3,0.9-0.3
		c0.3,0,0.6,0.1,0.9,0.3c0.2,0.2,0.4,0.6,0.5,1C11.9,27.3,12,27.9,12,28.6z M9.8,28.6c0,0.5,0,0.9,0.1,1.3c0,0.3,0.1,0.6,0.2,0.8
		c0.1,0.2,0.2,0.3,0.4,0.3s0.3-0.1,0.4-0.3c0.1-0.2,0.2-0.4,0.2-0.8c0-0.3,0.1-0.8,0.1-1.3c0-0.5,0-0.9-0.1-1.3
		c0-0.3-0.1-0.6-0.2-0.8c-0.1-0.2-0.2-0.3-0.4-0.3c-0.2,0-0.3,0.1-0.4,0.3C10,26.7,9.9,27,9.8,27.3C9.8,27.7,9.8,28.1,9.8,28.6z"/>
</g>
<g>
	<path d="M1.6,9.8c0-0.4,0-0.8,0.1-1.2s0.1-0.7,0.2-1c0.1-0.3,0.2-0.5,0.4-0.7c0.2-0.2,0.4-0.4,0.6-0.5c0.2-0.1,0.5-0.2,0.8-0.2
		c0.1,0,0.3,0,0.4,0c0.1,0,0.2,0,0.3,0.1v0.8c-0.1,0-0.2,0-0.3-0.1C4,7.1,3.8,7,3.7,7C3.4,7,3.2,7.1,3,7.3C2.8,7.4,2.7,7.7,2.6,8
		C2.5,8.3,2.4,8.7,2.4,9.2h0c0.1-0.1,0.1-0.3,0.2-0.4C2.8,8.7,2.9,8.6,3,8.6c0.1-0.1,0.3-0.1,0.4-0.1c0.3,0,0.5,0.1,0.7,0.3
		c0.2,0.2,0.3,0.4,0.4,0.7c0.1,0.3,0.1,0.6,0.1,1c0,0.4-0.1,0.7-0.2,1.1C4.4,11.8,4.2,12,4,12.2c-0.2,0.2-0.5,0.3-0.8,0.3
		c-0.3,0-0.5-0.1-0.7-0.2C2.3,12.1,2.1,12,2,11.8c-0.1-0.2-0.2-0.5-0.3-0.8C1.6,10.6,1.6,10.2,1.6,9.8z M3.1,11.6
		c0.2,0,0.3-0.1,0.5-0.3c0.1-0.2,0.2-0.5,0.2-0.9c0-0.4,0-0.7-0.2-0.9C3.5,9.4,3.3,9.3,3.1,9.3c-0.1,0-0.3,0-0.4,0.1
		C2.7,9.5,2.6,9.6,2.5,9.7c0,0.1-0.1,0.3-0.1,0.5c0,0.2,0,0.3,0,0.5c0,0.2,0.1,0.3,0.1,0.5c0,0.1,0.1,0.3,0.2,0.3
		C2.9,11.6,3,11.6,3.1,11.6z"/>
	<path d="M8.4,9.3c0,0.5,0,0.9-0.1,1.3c0,0.4-0.1,0.7-0.3,1c-0.1,0.3-0.3,0.5-0.5,0.6c-0.2,0.1-0.4,0.2-0.7,0.2
		c-0.3,0-0.6-0.1-0.8-0.3c-0.2-0.2-0.4-0.5-0.5-1c-0.1-0.4-0.2-1.1-0.2-1.8c0-0.7,0.1-1.3,0.2-1.7c0.1-0.5,0.3-0.8,0.5-1
		c0.2-0.2,0.5-0.3,0.9-0.3c0.3,0,0.6,0.1,0.9,0.3c0.2,0.2,0.4,0.6,0.5,1C8.3,8.1,8.4,8.7,8.4,9.3z M6.2,9.3c0,0.5,0,0.9,0.1,1.3
		c0,0.3,0.1,0.6,0.2,0.8c0.1,0.2,0.2,0.3,0.4,0.3s0.3-0.1,0.4-0.3c0.1-0.2,0.2-0.4,0.2-0.8c0-0.3,0.1-0.8,0.1-1.3
		c0-0.5,0-0.9-0.1-1.3c0-0.3-0.1-0.6-0.2-0.8C7.1,7.2,7,7.1,6.8,7.1c-0.2,0-0.3,0.1-0.4,0.3C6.4,7.5,6.3,7.7,6.2,8.1
		C6.2,8.4,6.2,8.8,6.2,9.3z"/>
	<path d="M12.1,9.3c0,0.5,0,0.9-0.1,1.3c0,0.4-0.1,0.7-0.3,1c-0.1,0.3-0.3,0.5-0.5,0.6c-0.2,0.1-0.4,0.2-0.7,0.2
		c-0.3,0-0.6-0.1-0.8-0.3c-0.2-0.2-0.4-0.5-0.5-1C9.1,10.7,9,10.1,9,9.4c0-0.7,0.1-1.3,0.2-1.7c0.1-0.5,0.3-0.8,0.5-1
		c0.2-0.2,0.5-0.3,0.9-0.3c0.3,0,0.6,0.1,0.9,0.3c0.2,0.2,0.4,0.6,0.5,1C12.1,8.1,12.1,8.7,12.1,9.3z M9.9,9.3c0,0.5,0,0.9,0.1,1.3
		c0,0.3,0.1,0.6,0.2,0.8c0.1,0.2,0.2,0.3,0.4,0.3s0.3-0.1,0.4-0.3c0.1-0.2,0.2-0.4,0.2-0.8c0-0.3,0.1-0.8,0.1-1.3
		c0-0.5,0-0.9-0.1-1.3c0-0.3-0.1-0.6-0.2-0.8c-0.1-0.2-0.2-0.3-0.4-0.3c-0.2,0-0.3,0.1-0.4,0.3C10.1,7.5,10,7.7,10,8.1
		C10,8.4,9.9,8.8,9.9,9.3z"/>
</g>
<line class="st0" x1="18.4" y1="9.7" x2="295.3" y2="9.7"/>
</svg>
