<?xml version="1.0" encoding="utf-8"?>
<!-- Generator: Adobe Illustrator 27.0.0, SVG Export Plug-In . SVG Version: 6.00 Build 0)  -->
<svg version="1.1" id="Layer_2_00000013159354602356696440000000288919183435973524_"
	 xmlns="http://www.w3.org/2000/svg" xmlns:xlink="http://www.w3.org/1999/xlink" x="0px" y="0px" viewBox="0 0 1200 600"
	 style="enable-background:new 0 0 1200 600;" xml:space="preserve">
<style type="text/css">
	.st0{fill:#E6E7E8;}
	.st1{fill:#BDBDB0;}
	.st2{fill:#00AAE1;}
	.st3{fill:none;stroke:#01A9E1;stroke-width:3.3913;stroke-miterlimit:10;}
</style>
<g>
	<rect x="36.6" y="69.8" class="st0" width="1137.9" height="2.9"/>
</g>
<g>
	<rect x="36.6" y="132.2" class="st0" width="1137.9" height="2.9"/>
</g>
<g>
	<rect x="36.6" y="194.5" class="st0" width="1137.9" height="2.9"/>
</g>
<g>
	<rect x="36.6" y="256.8" class="st0" width="1137.9" height="2.9"/>
</g>
<g>
	<rect x="36.6" y="319.2" class="st0" width="1137.9" height="2.9"/>
</g>
<g>
	<rect x="36.6" y="381.5" class="st0" width="1137.9" height="2.9"/>
</g>
<g>
	<rect x="36.6" y="443.9" class="st0" width="1137.9" height="2.9"/>
</g>
<g>
	<rect x="36.6" y="506.2" class="st0" width="1137.9" height="2.9"/>
</g>
<g>
	<rect x="224.8" y="52.9" class="st0" width="2.9" height="518.5"/>
</g>
<g>
	<rect x="411.9" y="52.9" class="st0" width="2.9" height="518.5"/>
</g>
<g>
	<rect x="599" y="52.9" class="st0" width="2.9" height="518.5"/>
</g>
<g>
	<rect x="786.1" y="52.9" class="st0" width="2.9" height="518.5"/>
</g>
<g>
	<rect x="973.2" y="52.9" class="st0" width="2.9" height="518.5"/>
</g>
<g>
	<g>
		<rect x="1157.7" y="52.9" class="st0" width="2.9" height="518.5"/>
	</g>
</g>
<g>
	<g>
		<g>
			<g>
				<polygon class="st1" points="1193.1,574.3 36.7,574.3 36.7,572.9 35.2,35.8 38.1,35.8 39.6,571.5 1193.1,571.5 				"/>
			</g>
		</g>
	</g>
</g>
<path class="st2" d="M92.9,509.1c0,4-3.2,7.2-7.2,7.2s-7.2-3.2-7.2-7.2s3.2-7.2,7.2-7.2C89.7,501.9,92.9,505.1,92.9,509.1z"/>
<path class="st2" d="M163.9,446.7c0,4-3.2,7.2-7.2,7.2s-7.2-3.2-7.2-7.2s3.2-7.2,7.2-7.2C160.6,439.5,163.9,442.8,163.9,446.7z"/>
<path class="st2" d="M607.6,258.3c0,4-3.2,7.2-7.2,7.2s-7.2-3.2-7.2-7.2s3.2-7.2,7.2-7.2S607.6,254.3,607.6,258.3z"/>
<path class="st2" d="M279.5,226.9c0,4-3.2,7.2-7.2,7.2s-7.2-3.2-7.2-7.2s3.2-7.2,7.2-7.2S279.5,222.9,279.5,226.9z"/>
<path class="st2" d="M420.5,161.9c0,4-3.2,7.2-7.2,7.2s-7.2-3.2-7.2-7.2s3.2-7.2,7.2-7.2S420.5,157.9,420.5,161.9z"/>
<path class="st2" d="M890.2,154.7c0,4-3.2,7.2-7.2,7.2s-7.2-3.2-7.2-7.2s3.2-7.2,7.2-7.2S890.2,150.7,890.2,154.7z"/>
<path class="st2" d="M794.7,258.3c0,4-3.2,7.2-7.2,7.2s-7.2-3.2-7.2-7.2s3.2-7.2,7.2-7.2C791.5,251.1,794.7,254.3,794.7,258.3z"/>
<path class="st2" d="M1089.1,256.8c0,4-3.2,7.2-7.2,7.2s-7.2-3.2-7.2-7.2s3.2-7.2,7.2-7.2C1085.9,249.6,1089.1,252.9,1089.1,256.8z"
	/>
<path class="st2" d="M981.8,320.6c0,4-3.2,7.2-7.2,7.2s-7.2-3.2-7.2-7.2s3.2-7.2,7.2-7.2S981.8,316.6,981.8,320.6z"/>
<path class="st2" d="M233.4,339.9c0,4-3.2,7.2-7.2,7.2s-7.2-3.2-7.2-7.2s3.2-7.2,7.2-7.2S233.4,335.9,233.4,339.9z"/>
<path class="st2" d="M696.3,347.1c0,4-3.2,7.2-7.2,7.2s-7.2-3.2-7.2-7.2s3.2-7.2,7.2-7.2S696.3,343.1,696.3,347.1z"/>
<path class="st2" d="M501.9,289.4c0,4-3.2,7.2-7.2,7.2s-7.2-3.2-7.2-7.2s3.2-7.2,7.2-7.2C498.6,282.2,501.9,285.5,501.9,289.4z"/>
<polyline class="st3" points="39.6,571.5 85.7,509.1 156.7,446.7 226.2,339.9 272.3,226.9 413.3,161.9 494.7,289.4 600.4,258.3 
	689.1,347.1 787.5,258.3 883,154.7 974.6,320.6 1081.9,256.8 1158,154.7 "/>
<g>
	<path d="M30.4,574.8c0,1.2-0.1,2.3-0.2,3.3s-0.4,1.8-0.7,2.5c-0.3,0.7-0.7,1.2-1.2,1.6c-0.5,0.4-1.2,0.6-1.9,0.6
		c-0.9,0-1.6-0.3-2.2-0.8c-0.6-0.5-1.1-1.4-1.4-2.6c-0.3-1.2-0.5-2.8-0.5-4.7c0-1.8,0.1-3.3,0.4-4.5c0.3-1.2,0.7-2.1,1.3-2.7
		c0.6-0.6,1.4-0.9,2.3-0.9c0.9,0,1.7,0.3,2.3,0.9c0.6,0.6,1,1.5,1.3,2.7C30.2,571.6,30.4,573.1,30.4,574.8z M24.6,574.8
		c0,1.3,0.1,2.5,0.2,3.3c0.1,0.9,0.3,1.6,0.5,2c0.3,0.4,0.6,0.7,1,0.7c0.4,0,0.8-0.2,1-0.7c0.2-0.4,0.4-1.1,0.5-2s0.2-2,0.2-3.3
		c0-1.3-0.1-2.4-0.2-3.3c-0.1-0.9-0.3-1.6-0.5-2c-0.2-0.4-0.6-0.7-1-0.7c-0.4,0-0.7,0.2-1,0.7c-0.3,0.4-0.4,1.1-0.5,2
		C24.7,572.4,24.6,573.5,24.6,574.8z"/>
</g>
<g>
	<path d="M227.8,595.3h-8.1v-1.7l3.1-4.4c0.6-0.9,1.1-1.7,1.5-2.3s0.6-1.2,0.7-1.7c0.1-0.5,0.2-1.1,0.2-1.6c0-0.7-0.2-1.2-0.5-1.6
		c-0.3-0.4-0.8-0.6-1.4-0.6c-0.4,0-0.8,0.1-1.2,0.3c-0.4,0.2-0.8,0.5-1.2,1l-1.2-1.6c0.4-0.4,0.8-0.8,1.2-1c0.4-0.3,0.8-0.5,1.2-0.6
		c0.4-0.1,0.9-0.2,1.4-0.2c0.8,0,1.5,0.2,2.1,0.5c0.6,0.3,1.1,0.8,1.4,1.4s0.5,1.3,0.5,2.1c0,0.8-0.1,1.5-0.3,2.1
		c-0.2,0.7-0.5,1.3-0.9,2c-0.4,0.7-0.9,1.5-1.6,2.3l-2.4,3.2v0.1h5.3V595.3z"/>
</g>
<g>
	<path d="M415.7,592H414v3.3h-2.3V592h-5.3v-1.9l5.2-10.6h2.4v10.5h1.6V592z M411.7,590.1v-5c0-0.1,0-0.3,0-0.5c0-0.2,0-0.4,0-0.7
		c0-0.2,0-0.5,0-0.7c0-0.2,0-0.4,0-0.5h-0.1c-0.1,0.3-0.2,0.7-0.3,1c-0.1,0.3-0.2,0.6-0.4,0.9l-2.6,5.5H411.7z"/>
</g>
<g>
	<path d="M594.1,588.7c0-1.1,0.1-2.1,0.2-3.1c0.1-0.9,0.3-1.8,0.6-2.6c0.3-0.8,0.6-1.4,1-1.9s1-0.9,1.6-1.2s1.3-0.4,2.1-0.4
		c0.3,0,0.6,0,1,0.1s0.6,0.1,0.9,0.2v2c-0.3-0.1-0.5-0.1-0.8-0.2c-0.3,0-0.6-0.1-0.9-0.1c-0.7,0-1.3,0.2-1.8,0.6
		c-0.5,0.4-0.9,1-1.2,1.9c-0.3,0.8-0.4,1.9-0.5,3.1h0.1c0.2-0.4,0.4-0.7,0.6-1c0.2-0.3,0.5-0.5,0.8-0.6c0.3-0.1,0.7-0.2,1.1-0.2
		c0.7,0,1.4,0.2,1.8,0.6s0.9,1,1.1,1.8c0.2,0.8,0.4,1.6,0.4,2.6c0,1-0.2,2-0.5,2.8c-0.3,0.8-0.7,1.4-1.3,1.9
		c-0.6,0.5-1.3,0.7-2.2,0.7c-0.7,0-1.3-0.2-1.8-0.5c-0.5-0.3-1-0.7-1.3-1.3s-0.6-1.3-0.8-2.2C594.2,590.8,594.1,589.8,594.1,588.7z
		 M598.2,593.5c0.5,0,0.9-0.3,1.2-0.8c0.3-0.5,0.4-1.3,0.4-2.4c0-1-0.1-1.7-0.4-2.3c-0.3-0.5-0.7-0.8-1.2-0.8c-0.4,0-0.7,0.1-1,0.3
		s-0.5,0.5-0.6,0.9c-0.1,0.4-0.2,0.8-0.2,1.2c0,0.4,0,0.9,0.1,1.3s0.2,0.8,0.3,1.2c0.1,0.4,0.3,0.7,0.5,0.9S597.9,593.5,598.2,593.5
		z"/>
</g>
<g>
	<path d="M789.2,579.4c0.8,0,1.5,0.2,2.1,0.5c0.6,0.3,1,0.7,1.3,1.3s0.5,1.2,0.5,2c0,0.6-0.1,1.1-0.3,1.6c-0.2,0.5-0.4,0.9-0.8,1.3
		c-0.3,0.4-0.8,0.8-1.3,1.1c0.6,0.4,1.1,0.8,1.5,1.2s0.7,0.9,0.9,1.3c0.2,0.5,0.3,1,0.3,1.6c0,0.9-0.2,1.6-0.5,2.2
		c-0.3,0.6-0.8,1.1-1.4,1.5s-1.4,0.5-2.2,0.5c-0.9,0-1.7-0.2-2.3-0.5s-1.1-0.8-1.5-1.4c-0.3-0.6-0.5-1.4-0.5-2.2
		c0-0.6,0.1-1.2,0.3-1.7c0.2-0.5,0.5-1,0.8-1.4c0.4-0.4,0.8-0.8,1.4-1.2c-0.5-0.4-0.9-0.8-1.2-1.2s-0.6-0.9-0.7-1.3
		c-0.2-0.5-0.2-1-0.2-1.5c0-0.8,0.2-1.4,0.5-2c0.3-0.6,0.8-1,1.3-1.3S788.4,579.4,789.2,579.4z M787.2,591.4c0,0.7,0.2,1.2,0.5,1.6
		c0.3,0.4,0.8,0.6,1.4,0.6c0.6,0,1.1-0.2,1.5-0.6c0.3-0.4,0.5-1,0.5-1.7c0-0.3-0.1-0.7-0.2-1s-0.3-0.6-0.5-0.9
		c-0.2-0.3-0.6-0.6-1-0.9l-0.4-0.3c-0.4,0.3-0.8,0.6-1,0.9c-0.3,0.3-0.5,0.6-0.6,1C787.3,590.5,787.2,590.9,787.2,591.4z
		 M789.2,581.3c-0.5,0-0.9,0.2-1.2,0.5c-0.3,0.4-0.4,0.8-0.4,1.4c0,0.4,0.1,0.7,0.2,1s0.3,0.6,0.5,0.9s0.5,0.5,0.9,0.8
		c0.4-0.3,0.7-0.5,0.9-0.8s0.4-0.6,0.5-0.9c0.1-0.3,0.2-0.6,0.2-1c0-0.6-0.1-1.1-0.4-1.5C790.1,581.5,789.7,581.3,789.2,581.3z"/>
</g>
<g>
	<path d="M974.5,595.3h-2.3v-10c0-0.3,0-0.6,0-1c0-0.3,0-0.6,0-1c0-0.3,0-0.6,0-0.9c-0.1,0.1-0.2,0.3-0.4,0.5s-0.3,0.4-0.5,0.6
		l-1.4,1.4l-1.4-1.4l3.9-3.9h2V595.3z"/>
	<path d="M986.2,587.5c0,1.2-0.1,2.3-0.2,3.3s-0.4,1.8-0.7,2.5c-0.3,0.7-0.7,1.2-1.2,1.6c-0.5,0.4-1.2,0.6-1.9,0.6
		c-0.9,0-1.6-0.3-2.2-0.8c-0.6-0.5-1.1-1.4-1.4-2.6c-0.3-1.2-0.5-2.8-0.5-4.7c0-1.8,0.1-3.3,0.4-4.5s0.7-2.1,1.3-2.7
		s1.4-0.9,2.3-0.9c0.9,0,1.7,0.3,2.3,0.9s1,1.5,1.3,2.7C986.1,584.2,986.2,585.7,986.2,587.5z M980.5,587.5c0,1.3,0.1,2.5,0.2,3.3
		s0.3,1.6,0.5,2c0.2,0.4,0.6,0.7,1,0.7c0.4,0,0.8-0.2,1-0.7c0.2-0.4,0.4-1.1,0.5-2s0.2-2,0.2-3.3c0-1.3-0.1-2.4-0.2-3.3
		s-0.3-1.6-0.5-2c-0.2-0.4-0.6-0.7-1-0.7c-0.4,0-0.7,0.2-1,0.7c-0.3,0.4-0.4,1.1-0.5,2C980.5,585,980.5,586.2,980.5,587.5z"/>
</g>
<g>
	<path d="M1155.1,595.3h-2.3v-10c0-0.3,0-0.6,0-1c0-0.3,0-0.6,0-1c0-0.3,0-0.6,0-0.9c-0.1,0.1-0.2,0.3-0.4,0.5s-0.3,0.4-0.5,0.6
		l-1.4,1.4l-1.4-1.4l3.9-3.9h2V595.3z"/>
	<path d="M1166.6,595.3h-8.1v-1.7l3.1-4.4c0.6-0.9,1.1-1.7,1.5-2.3s0.6-1.2,0.7-1.7c0.1-0.5,0.2-1.1,0.2-1.6c0-0.7-0.2-1.2-0.5-1.6
		c-0.3-0.4-0.8-0.6-1.4-0.6c-0.4,0-0.8,0.1-1.2,0.3c-0.4,0.2-0.8,0.5-1.2,1l-1.2-1.6c0.4-0.4,0.8-0.8,1.2-1c0.4-0.3,0.8-0.5,1.2-0.6
		c0.4-0.1,0.9-0.2,1.4-0.2c0.8,0,1.5,0.2,2.1,0.5c0.6,0.3,1.1,0.8,1.4,1.4s0.5,1.3,0.5,2.1c0,0.8-0.1,1.5-0.3,2.1
		c-0.2,0.7-0.5,1.3-0.9,2s-0.9,1.5-1.6,2.3l-2.4,3.2v0.1h5.3V595.3z"/>
</g>
<g>
	<path d="M25.4,505.6c0.8,0,1.4,0.2,2,0.6c0.6,0.4,1,1,1.3,1.7c0.3,0.7,0.5,1.5,0.5,2.5c0,1.1-0.2,2-0.5,2.8s-0.9,1.4-1.6,1.8
		c-0.7,0.4-1.6,0.7-2.6,0.7c-0.6,0-1.2-0.1-1.7-0.2s-1-0.3-1.4-0.5v-2.2c0.4,0.3,0.9,0.5,1.4,0.7s1,0.2,1.5,0.2c0.6,0,1-0.1,1.4-0.4
		c0.4-0.3,0.7-0.7,0.8-1.2c0.2-0.5,0.3-1,0.3-1.6c0-0.9-0.2-1.6-0.6-2.1c-0.4-0.5-1-0.7-1.8-0.7c-0.3,0-0.6,0-1,0.1
		c-0.3,0.1-0.7,0.2-1,0.3l-0.8-0.7l0.5-7.5h6.3v2.1H24l-0.3,4c0.3-0.1,0.6-0.1,0.9-0.2S25.2,505.6,25.4,505.6z"/>
</g>
<g>
	<path d="M17.5,452.3h-2.3v-10c0-0.3,0-0.6,0-1c0-0.3,0-0.6,0-1c0-0.3,0-0.6,0-0.9c-0.1,0.1-0.2,0.3-0.4,0.5s-0.3,0.4-0.5,0.6
		l-1.4,1.4l-1.4-1.4l3.9-3.9h2V452.3z"/>
	<path d="M29.2,444.4c0,1.2-0.1,2.3-0.2,3.3s-0.4,1.8-0.7,2.5c-0.3,0.7-0.7,1.2-1.2,1.6c-0.5,0.4-1.2,0.6-1.9,0.6
		c-0.9,0-1.6-0.3-2.2-0.8c-0.6-0.5-1.1-1.4-1.4-2.6c-0.3-1.2-0.5-2.8-0.5-4.7c0-1.8,0.1-3.3,0.4-4.5c0.3-1.2,0.7-2.1,1.3-2.7
		c0.6-0.6,1.4-0.9,2.3-0.9c0.9,0,1.7,0.3,2.3,0.9c0.6,0.6,1,1.5,1.3,2.7C29.1,441.1,29.2,442.6,29.2,444.4z M23.5,444.4
		c0,1.3,0.1,2.5,0.2,3.3c0.1,0.9,0.3,1.6,0.5,2c0.3,0.4,0.6,0.7,1,0.7c0.4,0,0.8-0.2,1-0.7c0.2-0.4,0.4-1.1,0.5-2s0.2-2,0.2-3.3
		c0-1.3-0.1-2.4-0.2-3.3c-0.1-0.9-0.3-1.6-0.5-2c-0.2-0.4-0.6-0.7-1-0.7c-0.4,0-0.7,0.2-1,0.7c-0.3,0.4-0.4,1.1-0.5,2
		C23.5,442,23.5,443.1,23.5,444.4z"/>
</g>
<g>
	<path d="M17.6,389h-2.3v-10c0-0.3,0-0.6,0-1c0-0.3,0-0.6,0-1c0-0.3,0-0.6,0-0.9c-0.1,0.1-0.2,0.3-0.4,0.5s-0.3,0.4-0.5,0.6
		l-1.4,1.4l-1.4-1.4l3.9-3.9h2V389z"/>
	<path d="M25.4,379.2c0.8,0,1.4,0.2,2,0.6c0.6,0.4,1,1,1.3,1.7c0.3,0.7,0.5,1.5,0.5,2.5c0,1.1-0.2,2-0.5,2.8s-0.9,1.4-1.6,1.8
		c-0.7,0.4-1.6,0.7-2.6,0.7c-0.6,0-1.2-0.1-1.7-0.2s-1-0.3-1.4-0.5v-2.2c0.4,0.3,0.9,0.5,1.4,0.7s1,0.2,1.5,0.2c0.6,0,1-0.1,1.4-0.4
		c0.4-0.3,0.7-0.7,0.8-1.2c0.2-0.5,0.3-1,0.3-1.6c0-0.9-0.2-1.6-0.6-2.1c-0.4-0.5-1-0.7-1.8-0.7c-0.3,0-0.6,0-1,0.1
		c-0.3,0.1-0.7,0.2-1,0.3l-0.8-0.7l0.5-7.5h6.3v2.1H24l-0.3,4c0.3-0.1,0.6-0.1,0.9-0.2C24.9,379.2,25.2,379.2,25.4,379.2z"/>
</g>
<g>
	<path d="M19.2,325.8h-8.1v-1.7l3.1-4.4c0.6-0.9,1.1-1.7,1.5-2.3s0.6-1.2,0.7-1.7c0.1-0.5,0.2-1.1,0.2-1.6c0-0.7-0.2-1.2-0.5-1.6
		c-0.3-0.4-0.8-0.6-1.4-0.6c-0.4,0-0.8,0.1-1.2,0.3c-0.4,0.2-0.8,0.5-1.2,1l-1.2-1.6c0.4-0.4,0.8-0.8,1.2-1c0.4-0.3,0.8-0.5,1.2-0.6
		c0.4-0.1,0.9-0.2,1.4-0.2c0.8,0,1.5,0.2,2.1,0.5c0.6,0.3,1.1,0.8,1.4,1.4s0.5,1.3,0.5,2.1c0,0.8-0.1,1.5-0.3,2.1
		c-0.2,0.7-0.5,1.3-0.9,2c-0.4,0.7-0.9,1.5-1.6,2.3l-2.4,3.2v0.1h5.3V325.8z"/>
	<path d="M29.2,318c0,1.2-0.1,2.3-0.2,3.3s-0.4,1.8-0.7,2.5c-0.3,0.7-0.7,1.2-1.2,1.6c-0.5,0.4-1.2,0.6-1.9,0.6
		c-0.9,0-1.6-0.3-2.2-0.8c-0.6-0.5-1.1-1.4-1.4-2.6c-0.3-1.2-0.5-2.8-0.5-4.7c0-1.8,0.1-3.3,0.4-4.5s0.7-2.1,1.3-2.7
		s1.4-0.9,2.3-0.9c0.9,0,1.7,0.3,2.3,0.9c0.6,0.6,1,1.5,1.3,2.7C29.1,314.7,29.2,316.2,29.2,318z M23.5,318c0,1.3,0.1,2.5,0.2,3.3
		c0.1,0.9,0.3,1.6,0.5,2c0.3,0.4,0.6,0.7,1,0.7c0.4,0,0.8-0.2,1-0.7c0.2-0.4,0.4-1.1,0.5-2s0.2-2,0.2-3.3c0-1.3-0.1-2.4-0.2-3.3
		c-0.1-0.9-0.3-1.6-0.5-2c-0.2-0.4-0.6-0.7-1-0.7c-0.4,0-0.7,0.2-1,0.7c-0.3,0.4-0.4,1.1-0.5,2C23.5,315.6,23.5,316.7,23.5,318z"/>
</g>
<g>
	<path d="M19.3,262.6h-8.1v-1.7l3.1-4.4c0.6-0.9,1.1-1.7,1.5-2.3s0.6-1.2,0.7-1.7c0.1-0.5,0.2-1.1,0.2-1.6c0-0.7-0.2-1.2-0.5-1.6
		c-0.3-0.4-0.8-0.6-1.4-0.6c-0.4,0-0.8,0.1-1.2,0.3c-0.4,0.2-0.8,0.5-1.2,1l-1.2-1.6c0.4-0.4,0.8-0.8,1.2-1c0.4-0.3,0.8-0.5,1.2-0.6
		c0.4-0.1,0.9-0.2,1.4-0.2c0.8,0,1.5,0.2,2.1,0.5c0.6,0.3,1.1,0.8,1.4,1.4s0.5,1.3,0.5,2.1c0,0.8-0.1,1.5-0.3,2.1
		c-0.2,0.7-0.5,1.3-0.9,2c-0.4,0.7-0.9,1.5-1.6,2.3l-2.4,3.2v0.1h5.3V262.6z"/>
	<path d="M25.4,252.7c0.8,0,1.4,0.2,2,0.6c0.6,0.4,1,1,1.3,1.7c0.3,0.7,0.5,1.5,0.5,2.5c0,1.1-0.2,2-0.5,2.8s-0.9,1.4-1.6,1.8
		c-0.7,0.4-1.6,0.7-2.6,0.7c-0.6,0-1.2-0.1-1.7-0.2s-1-0.3-1.4-0.5v-2.2c0.4,0.3,0.9,0.5,1.4,0.7s1,0.2,1.5,0.2c0.6,0,1-0.1,1.4-0.4
		c0.4-0.3,0.7-0.7,0.8-1.2c0.2-0.5,0.3-1,0.3-1.6c0-0.9-0.2-1.6-0.6-2.1c-0.4-0.5-1-0.7-1.8-0.7c-0.3,0-0.6,0-1,0.1
		c-0.3,0.1-0.7,0.2-1,0.3l-0.8-0.7l0.5-7.5h6.3v2.1H24l-0.3,4c0.3-0.1,0.6-0.1,0.9-0.2C24.9,252.7,25.2,252.7,25.4,252.7z"/>
</g>
<g>
	<path d="M18.9,187.3c0,0.6-0.1,1.1-0.3,1.6c-0.2,0.5-0.5,0.9-0.9,1.3c-0.4,0.4-0.9,0.6-1.4,0.9v0.1c0.9,0.2,1.7,0.6,2.2,1.3
		s0.7,1.5,0.7,2.5c0,0.9-0.2,1.7-0.5,2.4c-0.4,0.7-0.9,1.2-1.6,1.6s-1.5,0.6-2.5,0.6c-0.7,0-1.3,0-1.8-0.2s-1.1-0.3-1.6-0.5v-2.2
		c0.5,0.3,1,0.5,1.5,0.7c0.5,0.2,1.1,0.2,1.6,0.2c0.9,0,1.5-0.2,1.9-0.7c0.4-0.5,0.6-1.1,0.6-1.9c0-0.6-0.1-1.1-0.3-1.5
		c-0.2-0.4-0.6-0.7-1-0.9c-0.5-0.2-1-0.3-1.7-0.3h-0.8v-2h0.8c0.6,0,1.1-0.1,1.6-0.3s0.8-0.5,1-0.9c0.2-0.4,0.3-0.9,0.3-1.4
		c0-0.7-0.2-1.2-0.5-1.6c-0.3-0.4-0.8-0.5-1.5-0.5c-0.3,0-0.6,0-0.9,0.1s-0.6,0.2-0.8,0.4c-0.3,0.2-0.5,0.4-0.8,0.6l-1-1.7
		c0.6-0.5,1.2-0.9,1.8-1.1s1.3-0.3,2.1-0.3c1.2,0,2.1,0.3,2.8,1C18.6,185.1,18.9,186,18.9,187.3z"/>
	<path d="M29.2,191.4c0,1.2-0.1,2.3-0.2,3.3s-0.4,1.8-0.7,2.5c-0.3,0.7-0.7,1.2-1.2,1.6c-0.5,0.4-1.2,0.6-1.9,0.6
		c-0.9,0-1.6-0.3-2.2-0.8c-0.6-0.5-1.1-1.4-1.4-2.6c-0.3-1.2-0.5-2.8-0.5-4.7c0-1.8,0.1-3.3,0.4-4.5s0.7-2.1,1.3-2.7
		s1.4-0.9,2.3-0.9c0.9,0,1.7,0.3,2.3,0.9c0.6,0.6,1,1.5,1.3,2.7C29.1,188.1,29.2,189.6,29.2,191.4z M23.5,191.4
		c0,1.3,0.1,2.5,0.2,3.3c0.1,0.9,0.3,1.6,0.5,2c0.3,0.4,0.6,0.7,1,0.7c0.4,0,0.8-0.2,1-0.7c0.2-0.4,0.4-1.1,0.5-2s0.2-2,0.2-3.3
		c0-1.3-0.1-2.4-0.2-3.3c-0.1-0.9-0.3-1.6-0.5-2c-0.2-0.4-0.6-0.7-1-0.7c-0.4,0-0.7,0.2-1,0.7c-0.3,0.4-0.4,1.1-0.5,2
		C23.5,189,23.5,190.1,23.5,191.4z"/>
</g>
<g>
	<path d="M19,124c0,0.6-0.1,1.1-0.3,1.6c-0.2,0.5-0.5,0.9-0.9,1.3c-0.4,0.4-0.9,0.6-1.4,0.9v0.1c0.9,0.2,1.7,0.6,2.2,1.3
		s0.7,1.5,0.7,2.5c0,0.9-0.2,1.7-0.5,2.4c-0.4,0.7-0.9,1.2-1.6,1.6s-1.5,0.6-2.5,0.6c-0.7,0-1.3,0-1.8-0.2s-1.1-0.3-1.6-0.5v-2.2
		c0.5,0.3,1,0.5,1.5,0.7c0.5,0.2,1.1,0.2,1.6,0.2c0.9,0,1.5-0.2,1.9-0.7c0.4-0.5,0.6-1.1,0.6-1.9c0-0.6-0.1-1.1-0.3-1.5
		c-0.2-0.4-0.6-0.7-1-0.9c-0.5-0.2-1-0.3-1.7-0.3H13v-2h0.8c0.6,0,1.1-0.1,1.6-0.3s0.8-0.5,1-0.9c0.2-0.4,0.3-0.9,0.3-1.4
		c0-0.7-0.2-1.2-0.5-1.6c-0.3-0.4-0.8-0.5-1.5-0.5c-0.3,0-0.6,0-0.9,0.1s-0.6,0.2-0.8,0.4c-0.3,0.2-0.5,0.4-0.8,0.6l-1-1.7
		c0.6-0.5,1.2-0.9,1.8-1.1s1.3-0.3,2.1-0.3c1.2,0,2.1,0.3,2.8,1C18.7,121.8,19,122.7,19,124z"/>
	<path d="M25.4,126.1c0.8,0,1.4,0.2,2,0.6c0.6,0.4,1,1,1.3,1.7c0.3,0.7,0.5,1.5,0.5,2.5c0,1.1-0.2,2-0.5,2.8s-0.9,1.4-1.6,1.8
		c-0.7,0.4-1.6,0.7-2.6,0.7c-0.6,0-1.2-0.1-1.7-0.2s-1-0.3-1.4-0.5v-2.2c0.4,0.3,0.9,0.5,1.4,0.7s1,0.2,1.5,0.2c0.6,0,1-0.1,1.4-0.4
		c0.4-0.3,0.7-0.7,0.8-1.2c0.2-0.5,0.3-1,0.3-1.6c0-0.9-0.2-1.6-0.6-2.1c-0.4-0.5-1-0.7-1.8-0.7c-0.3,0-0.6,0-1,0.1
		c-0.3,0.1-0.7,0.2-1,0.3l-0.8-0.7l0.5-7.5h6.3v2.1H24l-0.3,4c0.3-0.1,0.6-0.1,0.9-0.2C24.9,126.2,25.2,126.1,25.4,126.1z"/>
</g>
<g>
	<path d="M20,69.4h-1.6v3.3H16v-3.3h-5.3v-1.9L16,56.9h2.4v10.5H20V69.4z M16,67.4v-5c0-0.1,0-0.3,0-0.5c0-0.2,0-0.4,0-0.7
		c0-0.2,0-0.5,0-0.7c0-0.2,0-0.4,0-0.5H16c-0.1,0.3-0.2,0.7-0.3,1c-0.1,0.3-0.2,0.6-0.4,0.9l-2.6,5.5H16z"/>
	<path d="M29.2,64.8c0,1.2-0.1,2.3-0.2,3.3s-0.4,1.8-0.7,2.5c-0.3,0.7-0.7,1.2-1.2,1.6c-0.5,0.4-1.2,0.6-1.9,0.6
		c-0.9,0-1.6-0.3-2.2-0.8c-0.6-0.5-1.1-1.4-1.4-2.6c-0.3-1.2-0.5-2.8-0.5-4.7c0-1.8,0.1-3.3,0.4-4.5c0.3-1.2,0.7-2.1,1.3-2.7
		c0.6-0.6,1.4-0.9,2.3-0.9c0.9,0,1.7,0.3,2.3,0.9c0.6,0.6,1,1.5,1.3,2.7C29.1,61.6,29.2,63.1,29.2,64.8z M23.5,64.8
		c0,1.3,0.1,2.5,0.2,3.3c0.1,0.9,0.3,1.6,0.5,2c0.3,0.4,0.6,0.7,1,0.7c0.4,0,0.8-0.2,1-0.7c0.2-0.4,0.4-1.1,0.5-2s0.2-2,0.2-3.3
		c0-1.3-0.1-2.4-0.2-3.3c-0.1-0.9-0.3-1.6-0.5-2c-0.2-0.4-0.6-0.7-1-0.7c-0.4,0-0.7,0.2-1,0.7c-0.3,0.4-0.4,1.1-0.5,2
		C23.5,62.4,23.5,63.5,23.5,64.8z"/>
</g>
<g>
	<path d="M25,21.5h-2.8l-5-12H17c0,0.4,0.1,0.9,0.1,1.3c0,0.4,0,0.8,0,1.1c0,0.4,0,0.7,0,1v8.6H15V5.8h2.8l5,11.8h0.1
		c0-0.5,0-0.9-0.1-1.3c0-0.4,0-0.8,0-1.1s0-0.7,0-0.9V5.8H25V21.5z"/>
	<path d="M30.5,26.8c-1.2,0-2.2-0.3-2.9-0.9s-1-1.4-1-2.4c0-0.8,0.2-1.4,0.6-1.9s0.9-0.9,1.6-1c-0.3-0.1-0.6-0.4-0.8-0.7
		c-0.2-0.3-0.3-0.6-0.3-1c0-0.4,0.1-0.8,0.3-1.1c0.2-0.3,0.5-0.6,0.8-0.9c-0.5-0.3-0.8-0.7-1.1-1.3s-0.4-1.3-0.4-2.1
		c0-0.8,0.1-1.5,0.4-2.1c0.3-0.6,0.7-1.1,1.3-1.4c0.5-0.3,1.2-0.5,2-0.5c0.2,0,0.5,0,0.6,0c0.2,0,0.3,0.1,0.5,0.1
		c0.1,0,0.3,0.1,0.4,0.1h3.2v1.4l-1.5,0.2c0.2,0.3,0.3,0.6,0.4,1c0.1,0.4,0.1,0.7,0.1,1.1c0,1.2-0.3,2.2-1,2.9c-0.6,0.7-1.5,1-2.7,1
		c-0.4,0-0.6,0-0.8-0.1c-0.2,0.2-0.3,0.3-0.4,0.5c-0.1,0.2-0.2,0.4-0.2,0.7c0,0.2,0,0.4,0.1,0.5c0.1,0.1,0.2,0.2,0.4,0.3
		c0.2,0.1,0.4,0.1,0.7,0.1h1.8c0.9,0,1.6,0.3,2.1,0.8c0.5,0.5,0.7,1.3,0.7,2.4c0,1.4-0.4,2.4-1.3,3.1C33.4,26.4,32.1,26.8,30.5,26.8
		z M30.7,25.1c0.6,0,1.1-0.1,1.5-0.3c0.4-0.2,0.7-0.4,0.9-0.7c0.2-0.3,0.3-0.7,0.3-1.2c0-0.4-0.1-0.7-0.2-0.9
		c-0.1-0.2-0.3-0.3-0.6-0.4s-0.6-0.1-1-0.1h-1.5c-0.3,0-0.5,0.1-0.7,0.2c-0.2,0.1-0.4,0.3-0.5,0.6c-0.1,0.3-0.2,0.6-0.2,1.1
		c0,0.6,0.2,1,0.5,1.3C29.6,24.9,30.1,25.1,30.7,25.1z M31,15.8c0.4,0,0.8-0.2,1-0.6c0.2-0.4,0.4-1,0.4-1.8c0-0.8-0.1-1.4-0.4-1.8
		c-0.2-0.4-0.6-0.6-1-0.6c-0.4,0-0.8,0.2-1,0.6c-0.2,0.4-0.4,1-0.4,1.8c0,0.7,0.1,1.3,0.3,1.7C30.1,15.6,30.5,15.8,31,15.8z"/>
	<path d="M40.8,9.4c1.1,0,2,0.4,2.5,1.1c0.5,0.7,0.8,1.7,0.8,3.1v8h-1.7l-0.4-1.6H42c-0.2,0.4-0.5,0.7-0.7,1s-0.6,0.5-0.9,0.6
		c-0.3,0.1-0.7,0.2-1.2,0.2c-0.6,0-1.2-0.2-1.6-0.5c-0.4-0.3-0.7-0.8-0.9-1.3c-0.2-0.6-0.3-1.1-0.3-1.8c0-1.2,0.3-2.1,1-2.8
		c0.7-0.6,1.7-1,2.9-1.1l1.4-0.1v-0.6c0-0.8-0.1-1.4-0.3-1.8c-0.2-0.4-0.6-0.6-1.1-0.6c-0.3,0-0.7,0.1-1.1,0.2S38.5,11.8,38,12
		l-0.7-1.7c0.5-0.3,1-0.5,1.6-0.7C39.6,9.5,40.2,9.4,40.8,9.4z M40.4,4.7C40.5,5,40.7,5.4,41,5.8c0.2,0.4,0.5,0.8,0.7,1.2
		c0.2,0.4,0.5,0.7,0.6,1v0.3h-1.5C40.6,8,40.3,7.8,40,7.5c-0.3-0.3-0.6-0.6-0.9-0.9c-0.3-0.3-0.6-0.6-0.8-0.9
		c-0.2-0.3-0.4-0.6-0.6-0.8V4.7H40.4z M41.8,15.8l-0.9,0.1c-0.7,0-1.3,0.2-1.6,0.6c-0.4,0.4-0.5,0.9-0.5,1.6c0,0.6,0.1,1.1,0.3,1.4
		c0.2,0.3,0.5,0.5,0.9,0.5c0.6,0,1-0.3,1.3-0.8c0.3-0.5,0.5-1.3,0.5-2.2V15.8z"/>
	<path d="M51.6,9.4c1,0,1.7,0.3,2.2,1c0.5,0.7,0.8,1.7,0.8,3.1v8h-2.3v-7.4c0-0.9-0.1-1.6-0.3-2c-0.2-0.5-0.6-0.7-1.1-0.7
		c-0.7,0-1.2,0.3-1.5,1C49.1,13,49,14.1,49,15.5v6h-2.3V9.6h1.8l0.2,1.6h0.1c0.2-0.4,0.4-0.7,0.6-1c0.3-0.3,0.6-0.5,0.9-0.6
		C50.8,9.5,51.2,9.4,51.6,9.4z"/>
</g>
</svg>
