<?xml version="1.0" encoding="utf-8"?>
<!-- Generator: Adobe Illustrator 27.0.0, SVG Export Plug-In . SVG Version: 6.00 Build 0)  -->
<svg version="1.1" id="Layer_2_00000013159354602356696440000000288919183435973524_"
	 xmlns="http://www.w3.org/2000/svg" xmlns:xlink="http://www.w3.org/1999/xlink" x="0px" y="0px" viewBox="0 0 1200 600"
	 style="enable-background:new 0 0 1200 600;" xml:space="preserve">
<style type="text/css">
	.st0{fill:#E6E7E8;}
	.st1{fill:#BDBDB0;}
	.st2{fill:#00AAE1;}
	.st3{fill:none;stroke:#01A9E1;stroke-width:3.3913;stroke-miterlimit:10;}
</style>
<g>
	<rect x="26.1" y="69.8" class="st0" width="1137.9" height="2.9"/>
</g>
<g>
	<rect x="26.1" y="132.2" class="st0" width="1137.9" height="2.9"/>
</g>
<g>
	<rect x="26.1" y="194.5" class="st0" width="1137.9" height="2.9"/>
</g>
<g>
	<rect x="26.1" y="256.8" class="st0" width="1137.9" height="2.9"/>
</g>
<g>
	<rect x="26.1" y="319.2" class="st0" width="1137.9" height="2.9"/>
</g>
<g>
	<rect x="26.1" y="381.5" class="st0" width="1137.9" height="2.9"/>
</g>
<g>
	<rect x="26.1" y="443.9" class="st0" width="1137.9" height="2.9"/>
</g>
<g>
	<rect x="26.1" y="506.2" class="st0" width="1137.9" height="2.9"/>
</g>
<g>
	<rect x="214.3" y="52.9" class="st0" width="2.9" height="518.5"/>
</g>
<g>
	<rect x="401.4" y="52.9" class="st0" width="2.9" height="518.5"/>
</g>
<g>
	<rect x="588.5" y="52.9" class="st0" width="2.9" height="518.5"/>
</g>
<g>
	<rect x="775.6" y="52.9" class="st0" width="2.9" height="518.5"/>
</g>
<g>
	<rect x="962.7" y="52.9" class="st0" width="2.9" height="518.5"/>
</g>
<g>
	<g>
		<rect x="1147.2" y="52.9" class="st0" width="2.9" height="518.5"/>
	</g>
</g>
<g>
	<g>
		<g>
			<g>
				<polygon class="st1" points="1182.6,574.3 26.2,574.3 26.2,572.9 24.7,35.8 27.6,35.8 29.1,571.5 1182.6,571.5 				"/>
			</g>
		</g>
	</g>
</g>
<path class="st2" d="M82.4,509.1c0,4-3.2,7.2-7.2,7.2c-4,0-7.2-3.2-7.2-7.2c0-4,3.2-7.2,7.2-7.2C79.2,501.9,82.4,505.1,82.4,509.1z"
	/>
<path class="st2" d="M153.4,446.7c0,4-3.2,7.2-7.2,7.2c-4,0-7.2-3.2-7.2-7.2c0-4,3.2-7.2,7.2-7.2
	C150.1,439.5,153.4,442.8,153.4,446.7z"/>
<path class="st2" d="M597.1,258.3c0,4-3.2,7.2-7.2,7.2s-7.2-3.2-7.2-7.2c0-4,3.2-7.2,7.2-7.2S597.1,254.3,597.1,258.3z"/>
<path class="st2" d="M269,226.9c0,4-3.2,7.2-7.2,7.2c-4,0-7.2-3.2-7.2-7.2c0-4,3.2-7.2,7.2-7.2C265.8,219.7,269,222.9,269,226.9z"/>
<path class="st2" d="M410,161.9c0,4-3.2,7.2-7.2,7.2c-4,0-7.2-3.2-7.2-7.2c0-4,3.2-7.2,7.2-7.2C406.8,154.7,410,157.9,410,161.9z"/>
<path class="st2" d="M879.7,154.7c0,4-3.2,7.2-7.2,7.2s-7.2-3.2-7.2-7.2c0-4,3.2-7.2,7.2-7.2C876.5,147.5,879.7,150.7,879.7,154.7z"
	/>
<path class="st2" d="M784.2,258.3c0,4-3.2,7.2-7.2,7.2s-7.2-3.2-7.2-7.2c0-4,3.2-7.2,7.2-7.2C781,251.1,784.2,254.3,784.2,258.3z"/>
<path class="st2" d="M1078.6,256.8c0,4-3.2,7.2-7.2,7.2c-4,0-7.2-3.2-7.2-7.2c0-4,3.2-7.2,7.2-7.2
	C1075.4,249.6,1078.6,252.9,1078.6,256.8z"/>
<path class="st2" d="M971.3,320.6c0,4-3.2,7.2-7.2,7.2s-7.2-3.2-7.2-7.2c0-4,3.2-7.2,7.2-7.2C968.1,313.4,971.3,316.6,971.3,320.6z"
	/>
<path class="st2" d="M222.9,339.9c0,4-3.2,7.2-7.2,7.2s-7.2-3.2-7.2-7.2c0-4,3.2-7.2,7.2-7.2S222.9,335.9,222.9,339.9z"/>
<path class="st2" d="M685.8,347.1c0,4-3.2,7.2-7.2,7.2s-7.2-3.2-7.2-7.2c0-4,3.2-7.2,7.2-7.2C682.6,339.9,685.8,343.1,685.8,347.1z"
	/>
<path class="st2" d="M491.4,289.4c0,4-3.2,7.2-7.2,7.2c-4,0-7.2-3.2-7.2-7.2s3.2-7.2,7.2-7.2C488.1,282.2,491.4,285.5,491.4,289.4z"
	/>
<polyline class="st3" points="29.1,571.5 75.2,509.1 146.2,446.7 215.7,339.9 261.8,226.9 402.8,161.9 484.2,289.4 589.9,258.3 
	678.6,347.1 777,258.3 872.5,154.7 964.1,320.6 1071.4,256.8 1147.5,154.7 "/>
<g>
	<path d="M11.2,499.1c0.6,0,1,0.1,1.4,0.4c0.4,0.3,0.7,0.7,0.9,1.2c0.2,0.5,0.3,1.1,0.3,1.8c0,0.8-0.1,1.5-0.4,2
		c-0.3,0.6-0.6,1-1.1,1.3c-0.5,0.3-1.1,0.5-1.9,0.5c-0.4,0-0.8,0-1.2-0.1s-0.7-0.2-1-0.4v-1.6c0.3,0.2,0.6,0.4,1,0.5
		c0.4,0.1,0.7,0.2,1.1,0.2c0.4,0,0.8-0.1,1-0.3c0.3-0.2,0.5-0.5,0.6-0.8c0.1-0.4,0.2-0.7,0.2-1.2c0-0.7-0.1-1.2-0.5-1.5
		c-0.3-0.4-0.7-0.5-1.3-0.5c-0.2,0-0.5,0-0.7,0.1s-0.5,0.1-0.7,0.2l-0.6-0.5l0.3-5.4h4.6v1.5h-3.2l-0.2,2.9c0.2-0.1,0.4-0.1,0.6-0.1
		S11,499.1,11.2,499.1z"/>
</g>
<g>
	<path d="M220.6,592.8h-5.8v-1.2l2.2-3.2c0.5-0.6,0.8-1.2,1.1-1.6s0.4-0.9,0.5-1.2c0.1-0.4,0.1-0.8,0.1-1.2c0-0.5-0.1-0.8-0.3-1.1
		c-0.2-0.3-0.6-0.4-1-0.4c-0.3,0-0.6,0.1-0.9,0.2c-0.3,0.1-0.6,0.4-0.9,0.7l-0.8-1.1c0.3-0.3,0.6-0.6,0.8-0.7
		c0.3-0.2,0.6-0.3,0.9-0.4s0.6-0.1,1-0.1c0.6,0,1.1,0.1,1.5,0.4c0.4,0.2,0.8,0.6,1,1c0.2,0.4,0.4,1,0.4,1.5c0,0.6-0.1,1.1-0.2,1.5
		c-0.1,0.5-0.3,1-0.6,1.5c-0.3,0.5-0.7,1-1.1,1.7l-1.7,2.3v0.1h3.8L220.6,592.8L220.6,592.8z"/>
</g>
<g>
	<path d="M408.3,590.2h-1.2v2.4h-1.7v-2.4h-3.8v-1.4l3.7-7.6h1.7v7.6h1.2L408.3,590.2L408.3,590.2z M405.4,588.9v-3.6
		c0-0.1,0-0.2,0-0.4c0-0.2,0-0.3,0-0.5c0-0.2,0-0.3,0-0.5s0-0.3,0-0.4h-0.1c-0.1,0.2-0.2,0.5-0.2,0.7s-0.2,0.4-0.3,0.6l-1.9,4
		L405.4,588.9L405.4,588.9z"/>
</g>
<g>
	<path d="M585.7,588c0-0.8,0-1.5,0.1-2.2c0.1-0.7,0.2-1.3,0.4-1.8c0.2-0.5,0.4-1,0.7-1.4c0.3-0.4,0.7-0.7,1.1-0.9
		c0.4-0.2,0.9-0.3,1.5-0.3c0.2,0,0.5,0,0.7,0c0.2,0,0.4,0.1,0.6,0.1v1.5c-0.2-0.1-0.4-0.1-0.6-0.1c-0.2,0-0.4,0-0.6,0
		c-0.5,0-1,0.1-1.3,0.5c-0.4,0.3-0.6,0.7-0.8,1.3c-0.2,0.6-0.3,1.4-0.3,2.3h0.1c0.1-0.3,0.3-0.5,0.4-0.7c0.2-0.2,0.4-0.3,0.6-0.5
		c0.2-0.1,0.5-0.2,0.8-0.2c0.5,0,1,0.2,1.3,0.5s0.6,0.7,0.8,1.3s0.3,1.2,0.3,1.9c0,0.7-0.1,1.4-0.3,2c-0.2,0.6-0.5,1-0.9,1.3
		c-0.4,0.3-0.9,0.5-1.5,0.5c-0.5,0-0.9-0.1-1.3-0.3c-0.4-0.2-0.7-0.5-0.9-1s-0.5-0.9-0.6-1.6C585.8,589.5,585.7,588.8,585.7,588z
		 M588.7,591.5c0.4,0,0.7-0.2,0.9-0.6c0.2-0.4,0.3-1,0.3-1.7c0-0.7-0.1-1.3-0.3-1.6c-0.2-0.4-0.5-0.6-0.9-0.6
		c-0.3,0-0.5,0.1-0.7,0.2c-0.2,0.2-0.3,0.4-0.4,0.7s-0.1,0.6-0.1,0.9c0,0.3,0,0.6,0.1,0.9c0,0.3,0.1,0.6,0.2,0.9
		c0.1,0.3,0.2,0.5,0.4,0.6C588.2,591.4,588.5,591.5,588.7,591.5z"/>
</g>
<g>
	<path d="M780.6,581.4c0.6,0,1.1,0.1,1.5,0.3c0.4,0.2,0.7,0.5,0.9,0.9s0.3,0.9,0.3,1.4c0,0.4-0.1,0.8-0.2,1.1
		c-0.1,0.4-0.3,0.7-0.6,0.9c-0.2,0.3-0.6,0.5-0.9,0.8c0.4,0.3,0.8,0.6,1.1,0.9s0.5,0.6,0.7,1c0.2,0.4,0.2,0.7,0.2,1.2
		c0,0.6-0.1,1.2-0.4,1.6s-0.6,0.8-1,1.1c-0.5,0.2-1,0.4-1.6,0.4c-0.7,0-1.2-0.1-1.7-0.4s-0.8-0.6-1-1c-0.2-0.5-0.4-1-0.4-1.6
		c0-0.4,0.1-0.8,0.2-1.2c0.1-0.4,0.3-0.7,0.6-1s0.6-0.6,1-0.9c-0.4-0.3-0.6-0.6-0.9-0.9c-0.2-0.3-0.4-0.6-0.5-1
		c-0.1-0.3-0.2-0.7-0.2-1.1c0-0.5,0.1-1,0.3-1.4c0.2-0.4,0.5-0.7,1-0.9C779.5,581.5,780,581.4,780.6,581.4z M779.2,590
		c0,0.5,0.1,0.9,0.4,1.2c0.2,0.3,0.6,0.5,1,0.5c0.5,0,0.8-0.2,1.1-0.5c0.2-0.3,0.4-0.7,0.4-1.2c0-0.2,0-0.5-0.1-0.7
		c-0.1-0.2-0.2-0.5-0.4-0.7c-0.2-0.2-0.4-0.4-0.7-0.7l-0.3-0.2c-0.3,0.2-0.6,0.4-0.8,0.7c-0.2,0.2-0.3,0.5-0.4,0.7
		C779.2,589.4,779.2,589.6,779.2,590z M780.6,582.7c-0.4,0-0.6,0.1-0.8,0.4c-0.2,0.3-0.3,0.6-0.3,1c0,0.3,0,0.5,0.1,0.7
		c0.1,0.2,0.2,0.4,0.4,0.6s0.4,0.4,0.6,0.6c0.3-0.2,0.5-0.4,0.7-0.6c0.2-0.2,0.3-0.4,0.4-0.6s0.1-0.5,0.1-0.7c0-0.4-0.1-0.8-0.3-1.1
		C781.2,582.9,780.9,582.7,780.6,582.7z"/>
</g>
<g>
	<path d="M962,592.8h-1.7v-7.2c0-0.2,0-0.5,0-0.7c0-0.2,0-0.5,0-0.7c0-0.2,0-0.5,0-0.7c-0.1,0.1-0.1,0.2-0.3,0.3
		c-0.1,0.1-0.2,0.3-0.4,0.4l-1,1l-1-1l2.8-2.8h1.5L962,592.8L962,592.8z"/>
	<path d="M970.5,587.2c0,0.9,0,1.7-0.1,2.4c-0.1,0.7-0.3,1.3-0.5,1.8c-0.2,0.5-0.5,0.9-0.9,1.2c-0.4,0.3-0.8,0.4-1.4,0.4
		c-0.6,0-1.2-0.2-1.6-0.6c-0.4-0.4-0.8-1-1-1.8c-0.2-0.8-0.3-2-0.3-3.4c0-1.3,0.1-2.4,0.3-3.3c0.2-0.9,0.5-1.5,1-1.9
		c0.4-0.4,1-0.6,1.6-0.6c0.7,0,1.2,0.2,1.6,0.6s0.7,1.1,1,1.9C970.3,584.8,970.5,585.9,970.5,587.2z M966.3,587.2c0,1,0,1.8,0.1,2.4
		c0.1,0.6,0.2,1.1,0.4,1.4c0.2,0.3,0.4,0.5,0.7,0.5c0.3,0,0.5-0.2,0.7-0.5c0.2-0.3,0.3-0.8,0.4-1.4c0.1-0.6,0.1-1.4,0.1-2.4
		c0-0.9,0-1.7-0.1-2.4c-0.1-0.6-0.2-1.1-0.4-1.4c-0.2-0.3-0.4-0.5-0.7-0.5c-0.3,0-0.5,0.2-0.7,0.5c-0.2,0.3-0.3,0.8-0.4,1.4
		C966.4,585.4,966.3,586.2,966.3,587.2z"/>
</g>
<g>
	<path d="M1147.9,592.8h-1.7v-7.2c0-0.2,0-0.5,0-0.7c0-0.2,0-0.5,0-0.7c0-0.2,0-0.5,0-0.7c-0.1,0.1-0.1,0.2-0.3,0.3
		s-0.2,0.3-0.4,0.4l-1,1l-1-1l2.8-2.8h1.5L1147.9,592.8L1147.9,592.8z"/>
	<path d="M1156.1,592.8h-5.8v-1.2l2.2-3.2c0.5-0.6,0.8-1.2,1.1-1.6c0.2-0.5,0.4-0.9,0.5-1.2s0.1-0.8,0.1-1.2c0-0.5-0.1-0.8-0.3-1.1
		c-0.2-0.3-0.6-0.4-1-0.4c-0.3,0-0.6,0.1-0.9,0.2c-0.3,0.1-0.6,0.4-0.9,0.7l-0.8-1.1c0.3-0.3,0.6-0.6,0.8-0.7
		c0.3-0.2,0.6-0.3,0.9-0.4c0.3-0.1,0.6-0.1,1-0.1c0.6,0,1.1,0.1,1.5,0.4c0.4,0.2,0.8,0.6,1,1c0.2,0.4,0.4,1,0.4,1.5
		c0,0.6-0.1,1.1-0.2,1.5c-0.1,0.5-0.3,1-0.6,1.5c-0.3,0.5-0.7,1-1.1,1.7l-1.7,2.3v0.1h3.8L1156.1,592.8L1156.1,592.8z"/>
</g>
<g>
	<path d="M6.5,439.5H4.8v-7.2c0-0.2,0-0.5,0-0.7c0-0.2,0-0.5,0-0.7c0-0.2,0-0.5,0-0.7c-0.1,0.1-0.1,0.2-0.3,0.3s-0.2,0.3-0.4,0.4
		l-1,1l-1-1l2.8-2.8h1.5L6.5,439.5L6.5,439.5z"/>
	<path d="M14.9,433.9c0,0.9,0,1.7-0.1,2.4c-0.1,0.7-0.3,1.3-0.5,1.8s-0.5,0.9-0.9,1.2c-0.4,0.3-0.8,0.4-1.4,0.4
		c-0.6,0-1.2-0.2-1.6-0.6c-0.4-0.4-0.8-1-1-1.8c-0.2-0.8-0.3-2-0.3-3.4c0-1.3,0.1-2.4,0.3-3.3c0.2-0.9,0.5-1.5,1-1.9s1-0.6,1.6-0.6
		s1.2,0.2,1.6,0.6s0.7,1.1,1,1.9C14.8,431.5,14.9,432.6,14.9,433.9z M10.8,433.9c0,1,0,1.8,0.1,2.4c0.1,0.6,0.2,1.1,0.4,1.4
		c0.2,0.3,0.4,0.5,0.7,0.5c0.3,0,0.5-0.2,0.7-0.5c0.2-0.3,0.3-0.8,0.4-1.4c0.1-0.6,0.1-1.4,0.1-2.4c0-0.9,0-1.7-0.1-2.4
		c-0.1-0.6-0.2-1.1-0.4-1.4c-0.2-0.3-0.4-0.5-0.7-0.5c-0.3,0-0.5,0.2-0.7,0.5c-0.2,0.3-0.3,0.8-0.4,1.4
		C10.8,432.1,10.8,432.9,10.8,433.9z"/>
</g>
<g>
	<path d="M6.6,381.5H4.9v-7.2c0-0.2,0-0.5,0-0.7c0-0.2,0-0.5,0-0.7c0-0.2,0-0.5,0-0.7c-0.1,0.1-0.1,0.2-0.3,0.3
		c-0.1,0.1-0.2,0.3-0.4,0.4l-1,1l-1-1l2.8-2.8h1.5L6.6,381.5L6.6,381.5z"/>
	<path d="M12.2,374.4c0.6,0,1,0.1,1.4,0.4s0.7,0.7,0.9,1.2c0.2,0.5,0.3,1.1,0.3,1.8c0,0.8-0.1,1.5-0.4,2c-0.3,0.6-0.6,1-1.1,1.3
		c-0.5,0.3-1.1,0.5-1.9,0.5c-0.4,0-0.8,0-1.2-0.1c-0.4-0.1-0.7-0.2-1-0.4v-1.6c0.3,0.2,0.6,0.4,1,0.5c0.4,0.1,0.7,0.2,1.1,0.2
		c0.4,0,0.8-0.1,1-0.3c0.3-0.2,0.5-0.5,0.6-0.8c0.1-0.4,0.2-0.7,0.2-1.2c0-0.7-0.1-1.2-0.5-1.5c-0.3-0.4-0.7-0.5-1.3-0.5
		c-0.2,0-0.5,0-0.7,0.1s-0.5,0.1-0.7,0.2l-0.6-0.5l0.3-5.4h4.6v1.5h-3.2l-0.2,2.9c0.2-0.1,0.4-0.1,0.6-0.1
		C11.8,374.4,12,374.4,12.2,374.4z"/>
</g>
<g>
	<path d="M7.7,319.2H1.9V318l2.2-3.2c0.5-0.6,0.8-1.2,1.1-1.6c0.2-0.5,0.4-0.9,0.5-1.2c0.1-0.4,0.1-0.8,0.1-1.2
		c0-0.5-0.1-0.8-0.3-1.1c-0.2-0.3-0.6-0.4-1-0.4c-0.3,0-0.6,0.1-0.9,0.2c-0.3,0.1-0.6,0.4-0.9,0.7L1.9,309c0.3-0.3,0.6-0.6,0.8-0.7
		c0.3-0.2,0.6-0.3,0.9-0.4c0.3-0.1,0.6-0.1,1-0.1c0.6,0,1.1,0.1,1.5,0.4c0.4,0.2,0.8,0.6,1,1s0.4,1,0.4,1.5c0,0.6-0.1,1.1-0.2,1.5
		c-0.1,0.5-0.3,1-0.6,1.5c-0.3,0.5-0.7,1-1.1,1.7l-1.7,2.3v0.1h3.8L7.7,319.2L7.7,319.2z"/>
	<path d="M14.9,313.5c0,0.9,0,1.7-0.1,2.4c-0.1,0.7-0.3,1.3-0.5,1.8c-0.2,0.5-0.5,0.9-0.9,1.2c-0.4,0.3-0.8,0.4-1.4,0.4
		c-0.6,0-1.2-0.2-1.6-0.6c-0.4-0.4-0.8-1-1-1.8c-0.2-0.8-0.3-2-0.3-3.4c0-1.3,0.1-2.4,0.3-3.3c0.2-0.9,0.5-1.5,1-1.9
		c0.4-0.4,1-0.6,1.6-0.6s1.2,0.2,1.6,0.6s0.7,1.1,1,1.9C14.8,311.2,14.9,312.2,14.9,313.5z M10.8,313.5c0,1,0,1.8,0.1,2.4
		c0.1,0.6,0.2,1.1,0.4,1.4c0.2,0.3,0.4,0.5,0.7,0.5c0.3,0,0.5-0.2,0.7-0.5c0.2-0.3,0.3-0.8,0.4-1.4c0.1-0.6,0.1-1.4,0.1-2.4
		c0-0.9,0-1.7-0.1-2.4c-0.1-0.6-0.2-1.1-0.4-1.4c-0.2-0.3-0.4-0.5-0.7-0.5c-0.3,0-0.5,0.2-0.7,0.5c-0.2,0.3-0.3,0.8-0.4,1.4
		C10.8,311.8,10.8,312.6,10.8,313.5z"/>
</g>
<g>
	<path d="M7.7,256.8H1.9v-1.2l2.2-3.2c0.5-0.6,0.8-1.2,1.1-1.6c0.2-0.5,0.4-0.9,0.5-1.2s0.1-0.8,0.1-1.2c0-0.5-0.1-0.8-0.3-1.1
		c-0.2-0.3-0.6-0.4-1-0.4c-0.3,0-0.6,0.1-0.9,0.2c-0.3,0.1-0.6,0.4-0.9,0.7L2,246.6c0.3-0.3,0.6-0.6,0.8-0.7
		c0.3-0.2,0.6-0.3,0.9-0.4c0.3-0.1,0.6-0.1,1-0.1c0.6,0,1.1,0.1,1.5,0.4c0.4,0.2,0.8,0.6,1,1c0.2,0.4,0.4,1,0.4,1.5
		c0,0.6-0.1,1.1-0.2,1.5s-0.3,1-0.6,1.5c-0.3,0.5-0.7,1-1.1,1.7l-1.7,2.3v0.1h3.8L7.7,256.8L7.7,256.8z"/>
	<path d="M12.2,249.8c0.6,0,1,0.1,1.4,0.4c0.4,0.3,0.7,0.7,0.9,1.2s0.3,1.1,0.3,1.8c0,0.8-0.1,1.5-0.4,2c-0.3,0.6-0.6,1-1.1,1.3
		c-0.5,0.3-1.1,0.5-1.9,0.5c-0.4,0-0.8,0-1.2-0.1c-0.4-0.1-0.7-0.2-1-0.4v-1.6c0.3,0.2,0.6,0.4,1,0.5c0.4,0.1,0.7,0.2,1.1,0.2
		c0.4,0,0.8-0.1,1-0.3c0.3-0.2,0.5-0.5,0.6-0.8c0.1-0.4,0.2-0.7,0.2-1.2c0-0.7-0.1-1.2-0.5-1.5c-0.3-0.4-0.7-0.5-1.3-0.5
		c-0.2,0-0.5,0-0.7,0.1s-0.5,0.1-0.7,0.2l-0.6-0.5l0.3-5.4h4.6v1.5h-3.2l-0.2,2.9c0.2-0.1,0.4-0.1,0.6-0.1S12,249.8,12.2,249.8z"/>
</g>
<g>
	<path d="M7.5,185.3c0,0.4-0.1,0.8-0.2,1.2c-0.1,0.4-0.4,0.7-0.6,0.9c-0.3,0.3-0.6,0.5-1,0.6v0.1c0.7,0.1,1.2,0.5,1.5,0.9
		c0.4,0.5,0.5,1.1,0.5,1.8c0,0.7-0.1,1.2-0.4,1.7c-0.3,0.5-0.6,0.9-1.1,1.1c-0.5,0.3-1.1,0.4-1.8,0.4c-0.5,0-0.9,0-1.3-0.1
		c-0.4-0.1-0.8-0.2-1.2-0.4V192c0.4,0.2,0.7,0.4,1.1,0.5s0.8,0.2,1.1,0.2c0.6,0,1.1-0.2,1.4-0.5c0.3-0.4,0.4-0.8,0.4-1.4
		c0-0.4-0.1-0.8-0.2-1.1c-0.2-0.3-0.4-0.5-0.7-0.6c-0.3-0.1-0.7-0.2-1.2-0.2H3.2v-1.4h0.6c0.4,0,0.8-0.1,1.1-0.2s0.5-0.4,0.7-0.7
		c0.2-0.3,0.2-0.6,0.2-1c0-0.5-0.1-0.9-0.4-1.1S4.9,184,4.4,184c-0.2,0-0.4,0-0.6,0.1c-0.2,0.1-0.4,0.1-0.6,0.3
		c-0.2,0.1-0.4,0.3-0.6,0.4l-0.7-1.2c0.4-0.4,0.9-0.6,1.3-0.8c0.5-0.2,0.9-0.2,1.5-0.2c0.9,0,1.5,0.2,2,0.7
		C7.3,183.7,7.5,184.4,7.5,185.3z"/>
	<path d="M14.9,188.3c0,0.9,0,1.7-0.1,2.4c-0.1,0.7-0.3,1.3-0.5,1.8s-0.5,0.9-0.9,1.2c-0.4,0.3-0.8,0.4-1.4,0.4
		c-0.6,0-1.2-0.2-1.6-0.6c-0.4-0.4-0.8-1-1-1.8c-0.2-0.8-0.3-2-0.3-3.4c0-1.3,0.1-2.4,0.3-3.3s0.5-1.5,1-1.9s1-0.6,1.6-0.6
		s1.2,0.2,1.6,0.6c0.4,0.4,0.7,1.1,1,1.9S14.9,187,14.9,188.3z M10.8,188.3c0,1,0,1.8,0.1,2.4c0.1,0.6,0.2,1.1,0.4,1.4
		c0.2,0.3,0.4,0.5,0.7,0.5c0.3,0,0.5-0.2,0.7-0.5c0.2-0.3,0.3-0.8,0.4-1.4s0.1-1.4,0.1-2.4c0-0.9,0-1.7-0.1-2.4
		c-0.1-0.6-0.2-1.1-0.4-1.4c-0.2-0.3-0.4-0.5-0.7-0.5c-0.3,0-0.5,0.2-0.7,0.5c-0.2,0.3-0.3,0.8-0.4,1.4
		C10.8,186.6,10.8,187.4,10.8,188.3z"/>
</g>
<g>
	<path d="M8.3,67.4H7.1v2.4H5.4v-2.4H1.6v-1.4l3.7-7.6h1.7V66h1.2L8.3,67.4L8.3,67.4z M5.4,66v-3.6c0-0.1,0-0.2,0-0.4s0-0.3,0-0.5
		c0-0.2,0-0.3,0-0.5s0-0.3,0-0.4H5.4c-0.1,0.2-0.2,0.5-0.2,0.7S5,61.8,4.9,62L3,66L5.4,66L5.4,66z"/>
	<path d="M14.9,64.2c0,0.9,0,1.7-0.1,2.4c-0.1,0.7-0.3,1.3-0.5,1.8c-0.2,0.5-0.5,0.9-0.9,1.2C13,69.8,12.5,70,12,70
		c-0.6,0-1.2-0.2-1.6-0.6c-0.4-0.4-0.8-1-1-1.8c-0.2-0.8-0.3-2-0.3-3.4c0-1.3,0.1-2.4,0.3-3.3c0.2-0.9,0.5-1.5,1-1.9s1-0.6,1.6-0.6
		s1.2,0.2,1.6,0.6s0.7,1.1,1,1.9S14.9,62.9,14.9,64.2z M10.8,64.2c0,1,0,1.8,0.1,2.4c0.1,0.6,0.2,1.1,0.4,1.4
		c0.2,0.3,0.4,0.5,0.7,0.5c0.3,0,0.5-0.2,0.7-0.5c0.2-0.3,0.3-0.8,0.4-1.4c0.1-0.6,0.1-1.4,0.1-2.4c0-0.9,0-1.7-0.1-2.4
		c-0.1-0.6-0.2-1.1-0.4-1.4c-0.2-0.3-0.4-0.5-0.7-0.5c-0.3,0-0.5,0.2-0.7,0.5c-0.2,0.3-0.3,0.8-0.4,1.4
		C10.8,62.4,10.8,63.2,10.8,64.2z"/>
</g>
<g>
	<path d="M7.6,123.5c0,0.4-0.1,0.8-0.2,1.2c-0.1,0.4-0.4,0.7-0.6,0.9c-0.3,0.3-0.6,0.5-1,0.6v0.1c0.7,0.1,1.2,0.5,1.5,0.9
		c0.4,0.5,0.5,1.1,0.5,1.8c0,0.7-0.1,1.2-0.4,1.7c-0.3,0.5-0.6,0.9-1.1,1.1c-0.5,0.3-1.1,0.4-1.8,0.4c-0.5,0-0.9,0-1.3-0.1
		c-0.4-0.1-0.8-0.2-1.2-0.4v-1.6c0.4,0.2,0.7,0.4,1.1,0.5s0.8,0.2,1.1,0.2c0.6,0,1.1-0.2,1.4-0.5c0.3-0.4,0.4-0.8,0.4-1.4
		c0-0.4-0.1-0.8-0.2-1.1c-0.2-0.3-0.4-0.5-0.7-0.6S4.3,127,3.8,127H3.2v-1.4h0.6c0.4,0,0.8-0.1,1.1-0.2c0.3-0.2,0.5-0.4,0.7-0.7
		c0.2-0.3,0.2-0.6,0.2-1c0-0.5-0.1-0.9-0.4-1.1c-0.2-0.3-0.6-0.4-1.1-0.4c-0.2,0-0.4,0-0.6,0.1c-0.2,0.1-0.4,0.1-0.6,0.3
		c-0.2,0.1-0.4,0.3-0.6,0.4L2,121.7c0.4-0.4,0.9-0.6,1.3-0.8c0.5-0.2,0.9-0.2,1.5-0.2c0.9,0,1.5,0.2,2,0.7
		C7.3,121.9,7.6,122.6,7.6,123.5z"/>
	<path d="M12.2,125.1c0.6,0,1,0.1,1.4,0.4c0.4,0.3,0.7,0.7,0.9,1.2c0.2,0.5,0.3,1.1,0.3,1.8c0,0.8-0.1,1.5-0.4,2
		c-0.3,0.6-0.6,1-1.1,1.3c-0.5,0.3-1.1,0.5-1.9,0.5c-0.4,0-0.8,0-1.2-0.1c-0.4-0.1-0.7-0.2-1-0.4v-1.6c0.3,0.2,0.6,0.4,1,0.5
		c0.4,0.1,0.7,0.2,1.1,0.2c0.4,0,0.8-0.1,1-0.3c0.3-0.2,0.5-0.5,0.6-0.8c0.1-0.4,0.2-0.7,0.2-1.2c0-0.7-0.1-1.2-0.5-1.5
		c-0.3-0.4-0.7-0.5-1.3-0.5c-0.2,0-0.5,0-0.7,0.1c-0.2,0-0.5,0.1-0.7,0.2l-0.6-0.5l0.3-5.4h4.6v1.5h-3.2l-0.2,2.9
		c0.2-0.1,0.4-0.1,0.6-0.1S12,125.1,12.2,125.1z"/>
</g>
<g>
	<path d="M19.4,19.1h-2l-3.6-8.6h-0.1c0,0.3,0,0.6,0.1,0.9c0,0.3,0,0.6,0,0.8c0,0.2,0,0.5,0,0.7v6.2h-1.6V7.8h2l3.6,8.5h0.1
		c0-0.3,0-0.6,0-0.9s0-0.6,0-0.8c0-0.2,0-0.5,0-0.7v-6h1.6V19.1z"/>
	<path d="M23.4,22.9c-0.9,0-1.6-0.2-2.1-0.6s-0.7-1-0.7-1.8c0-0.5,0.1-1,0.4-1.4c0.3-0.4,0.7-0.6,1.1-0.7c-0.2-0.1-0.4-0.3-0.6-0.5
		c-0.2-0.2-0.2-0.5-0.2-0.8c0-0.3,0.1-0.6,0.2-0.8c0.1-0.2,0.3-0.5,0.6-0.7c-0.3-0.2-0.6-0.5-0.8-1c-0.2-0.4-0.3-0.9-0.3-1.5
		c0-0.6,0.1-1.1,0.3-1.5c0.2-0.4,0.5-0.8,0.9-1c0.4-0.2,0.9-0.3,1.4-0.3c0.2,0,0.3,0,0.5,0c0.1,0,0.2,0,0.3,0.1
		c0.1,0,0.2,0.1,0.3,0.1h2.3v1L26,11.8c0.1,0.2,0.2,0.4,0.3,0.7c0.1,0.3,0.1,0.5,0.1,0.8c0,0.9-0.2,1.6-0.7,2.1
		c-0.5,0.5-1.1,0.8-1.9,0.8c-0.3,0-0.5,0-0.6-0.1c-0.1,0.1-0.2,0.2-0.3,0.4c-0.1,0.1-0.1,0.3-0.1,0.5c0,0.1,0,0.3,0.1,0.4
		s0.2,0.2,0.3,0.2c0.1,0.1,0.3,0.1,0.5,0.1H25c0.7,0,1.2,0.2,1.5,0.6s0.5,0.9,0.5,1.7c0,1-0.3,1.7-0.9,2.3S24.6,22.9,23.4,22.9z
		 M23.6,21.7c0.4,0,0.8-0.1,1.1-0.2c0.3-0.1,0.5-0.3,0.6-0.5c0.1-0.2,0.2-0.5,0.2-0.9c0-0.3,0-0.5-0.1-0.6s-0.2-0.2-0.4-0.3
		s-0.4-0.1-0.7-0.1h-1.1c-0.2,0-0.4,0-0.5,0.1c-0.2,0.1-0.3,0.2-0.4,0.4s-0.1,0.5-0.1,0.8c0,0.4,0.1,0.7,0.4,0.9
		C22.8,21.6,23.1,21.7,23.6,21.7z M23.8,15c0.3,0,0.6-0.1,0.7-0.4c0.2-0.3,0.3-0.7,0.3-1.3c0-0.6-0.1-1-0.3-1.3
		c-0.2-0.3-0.4-0.4-0.7-0.4c-0.3,0-0.6,0.1-0.7,0.5c-0.2,0.3-0.3,0.7-0.3,1.3c0,0.5,0.1,0.9,0.2,1.2C23.2,14.8,23.4,15,23.8,15z"/>
	<path d="M30.8,10.4c0.8,0,1.4,0.2,1.8,0.8c0.4,0.5,0.6,1.3,0.6,2.2v5.7H32L31.7,18h0c-0.2,0.3-0.3,0.5-0.5,0.7s-0.4,0.4-0.7,0.5
		s-0.5,0.1-0.8,0.1c-0.5,0-0.8-0.1-1.1-0.4c-0.3-0.2-0.5-0.6-0.6-1c-0.1-0.4-0.2-0.8-0.2-1.3c0-0.9,0.2-1.5,0.7-2s1.2-0.7,2.1-0.8
		l1-0.1v-0.5c0-0.6-0.1-1-0.2-1.3c-0.2-0.3-0.4-0.4-0.8-0.4c-0.2,0-0.5,0-0.8,0.1c-0.3,0.1-0.6,0.2-0.9,0.4l-0.5-1.2
		c0.4-0.2,0.7-0.4,1.2-0.5C29.9,10.5,30.4,10.4,30.8,10.4z M30.5,7c0.1,0.2,0.2,0.5,0.4,0.8c0.2,0.3,0.3,0.6,0.5,0.9
		s0.3,0.5,0.5,0.7v0.2h-1.1c-0.1-0.1-0.3-0.3-0.5-0.5c-0.2-0.2-0.4-0.4-0.6-0.6c-0.2-0.2-0.4-0.5-0.6-0.7s-0.3-0.4-0.4-0.6V7L30.5,7
		L30.5,7z M31.6,15l-0.7,0c-0.5,0-0.9,0.2-1.2,0.4c-0.3,0.3-0.4,0.6-0.4,1.1c0,0.5,0.1,0.8,0.2,1c0.2,0.2,0.4,0.3,0.7,0.3
		c0.4,0,0.7-0.2,0.9-0.6c0.2-0.4,0.4-0.9,0.4-1.6C31.6,15.8,31.6,15,31.6,15z"/>
	<path d="M38.6,10.4c0.7,0,1.2,0.2,1.6,0.7c0.4,0.5,0.6,1.2,0.6,2.2v5.8h-1.6v-5.3c0-0.6-0.1-1.1-0.2-1.5c-0.1-0.3-0.4-0.5-0.8-0.5
		c-0.5,0-0.8,0.2-1.1,0.7c-0.2,0.5-0.3,1.2-0.3,2.3v4.3h-1.6v-8.6h1.3l0.2,1.2h0.1c0.1-0.3,0.3-0.5,0.5-0.7s0.4-0.4,0.6-0.5
		C38,10.5,38.3,10.4,38.6,10.4z"/>
</g>
<g>
	<path d="M17.6,583.7c0,0.9,0,1.7-0.1,2.4c-0.1,0.7-0.3,1.3-0.5,1.8c-0.2,0.5-0.5,0.9-0.9,1.2c-0.4,0.3-0.8,0.4-1.4,0.4
		c-0.6,0-1.2-0.2-1.6-0.6c-0.4-0.4-0.8-1-1-1.8c-0.2-0.8-0.3-2-0.3-3.4c0-1.3,0.1-2.4,0.3-3.3c0.2-0.9,0.5-1.5,1-1.9
		c0.4-0.4,1-0.6,1.6-0.6s1.2,0.2,1.6,0.6c0.4,0.4,0.7,1.1,1,1.9C17.5,581.4,17.6,582.4,17.6,583.7z M13.5,583.7c0,1,0,1.8,0.1,2.4
		c0.1,0.6,0.2,1.1,0.4,1.4s0.4,0.5,0.7,0.5c0.3,0,0.5-0.2,0.7-0.5c0.2-0.3,0.3-0.8,0.4-1.4c0.1-0.6,0.1-1.4,0.1-2.4
		c0-0.9,0-1.7-0.1-2.4c-0.1-0.6-0.2-1.1-0.4-1.4c-0.2-0.3-0.4-0.5-0.7-0.5c-0.3,0-0.5,0.2-0.7,0.5c-0.2,0.3-0.3,0.8-0.4,1.4
		C13.5,582,13.5,582.8,13.5,583.7z"/>
</g>
</svg>
