<svg width="28" height="28" viewBox="0 0 28 28" fill="none" xmlns="http://www.w3.org/2000/svg">
<g id="ic:round-search">
<path id="Vector" d="M18.0835 16.3333H17.1619L16.8352 16.0183C17.5643 15.1713 18.0972 14.1735 18.3957 13.0965C18.6942 12.0195 18.7509 10.8898 18.5619 9.7883C18.0135 6.54497 15.3069 3.95497 12.0402 3.5583C10.8918 3.41301 9.7253 3.53237 8.63008 3.90724C7.53485 4.28211 6.5399 4.90256 5.72135 5.72111C4.9028 6.53966 4.28236 7.53461 3.90749 8.62983C3.53261 9.72506 3.41326 10.8915 3.55855 12.04C3.95521 15.3066 6.54521 18.0133 9.78855 18.5616C10.8901 18.7507 12.0197 18.6939 13.0968 18.3954C14.1738 18.0969 15.1715 17.5641 16.0185 16.835L16.3335 17.1616V18.0833L21.2919 23.0416C21.7702 23.52 22.5519 23.52 23.0302 23.0416C23.5085 22.5633 23.5085 21.7816 23.0302 21.3033L18.0835 16.3333ZM11.0835 16.3333C8.17855 16.3333 5.83355 13.9883 5.83355 11.0833C5.83355 8.1783 8.17855 5.8333 11.0835 5.8333C13.9885 5.8333 16.3335 8.1783 16.3335 11.0833C16.3335 13.9883 13.9885 16.3333 11.0835 16.3333Z" fill="#FF7F3F"/>
</g>
</svg>
