<svg width="22" height="25" viewBox="0 0 22 25" fill="none" xmlns="http://www.w3.org/2000/svg">
<g id="Group">
<path id="Vector" d="M4.34851 7.85807C4.53154 6.06087 5.31715 4.40027 6.55495 3.19416C7.79276 1.98805 9.39579 1.32117 11.0572 1.32117C12.7186 1.32117 14.3216 1.98805 15.5594 3.19416C16.7972 4.40027 17.5828 6.06087 17.7658 7.85807L18.0704 10.8381L18.0776 10.9131C18.2336 12.3913 18.6759 13.8167 19.3754 15.0951L19.4116 15.1609L20.1088 16.4273C20.7432 17.5767 21.0598 18.1514 20.9909 18.6235C20.9454 18.9369 20.7973 19.2218 20.574 19.4258C20.2369 19.7335 19.6206 19.7335 18.3894 19.7335H3.72502C2.49252 19.7335 1.87627 19.7335 1.54035 19.4271C1.31633 19.223 1.1678 18.9376 1.12227 18.6235C1.0546 18.1514 1.37118 17.5767 2.00435 16.4273L2.70397 15.1595L2.74022 15.0938C3.43907 13.8156 3.88097 12.3907 4.03677 10.9131L4.04402 10.8381L4.34851 7.85807Z" stroke="black"/>
<path id="Vector_2" d="M7.55566 20.2675C7.76229 21.2459 8.21783 22.1112 8.851 22.7267C9.48416 23.3448 10.2599 23.6788 11.0574 23.6788C11.8549 23.6788 12.6307 23.3448 13.2638 22.728C13.897 22.1099 14.3513 21.2459 14.5592 20.2675" stroke="black" stroke-linecap="round"/>
</g>
</svg>
