<?xml version="1.0" encoding="utf-8"?>
<!-- Generator: Adobe Illustrator 27.0.0, SVG Export Plug-In . SVG Version: 6.00 Build 0)  -->
<svg version="1.1" id="Layer_1" xmlns="http://www.w3.org/2000/svg" xmlns:xlink="http://www.w3.org/1999/xlink" x="0px" y="0px"
	 viewBox="0 0 300 140" style="enable-background:new 0 0 300 140;" xml:space="preserve">
<style type="text/css">
	.st0{opacity:0.42;fill:none;stroke:#A9A8A9;stroke-width:1.0109;stroke-miterlimit:10;enable-background:new    ;}
	.st1{opacity:0.42;fill:none;stroke:#A9A8A9;stroke-width:0.6703;stroke-miterlimit:10;enable-background:new    ;}
	.st2{fill:url(#SVGID_1_);}
	.st3{fill:url(#SVGID_00000139988901642333648160000012481353593115661743_);}
	.st4{fill:url(#SVGID_00000063629071986982341600000002554778391514333367_);}
	.st5{fill:url(#SVGID_00000097464397566027903090000011391033111951344316_);}
	.st6{fill:url(#SVGID_00000145036596518753704650000009879364774606333366_);}
	.st7{fill:url(#SVGID_00000018233454925064523210000009004664990875610814_);}
	.st8{fill:url(#SVGID_00000024723236468214431580000010484387281034875533_);}
	.st9{fill:url(#SVGID_00000028302997534682112460000003174278998134009732_);}
	.st10{fill:url(#SVGID_00000178898770834094329660000004447714488739294115_);}
	.st11{fill:url(#SVGID_00000168086814676927736760000017341564600069364403_);}
</style>
<g>
	<g>
		<line class="st0" x1="22.9" y1="30" x2="297.9" y2="30"/>
		<line class="st0" x1="22.9" y1="49.5" x2="297.9" y2="49.5"/>
		<line class="st0" x1="22.9" y1="69.1" x2="297.9" y2="69.1"/>
		<line class="st0" x1="22.9" y1="88.6" x2="297.9" y2="88.6"/>
		<line class="st0" x1="22.9" y1="108.2" x2="297.9" y2="108.2"/>
		<line class="st0" x1="22.9" y1="127.7" x2="297.9" y2="127.7"/>
	</g>
</g>
<line class="st1" x1="23.4" y1="6.8" x2="23.4" y2="127.7"/>
<g>
	<g>
		<path d="M8.9,110.3H8v-3.8c0-0.1,0-0.2,0-0.4c0-0.1,0-0.2,0-0.4c0-0.1,0-0.2,0-0.4c0,0-0.1,0.1-0.1,0.2c-0.1,0.1-0.1,0.1-0.2,0.2
			l-0.5,0.5l-0.5-0.5l1.5-1.5h0.8L8.9,110.3L8.9,110.3z"/>
		<path d="M13.3,107.3c0,0.5,0,0.9-0.1,1.3c0,0.4-0.1,0.7-0.3,1c-0.1,0.3-0.3,0.5-0.5,0.6c-0.2,0.1-0.4,0.2-0.7,0.2
			c-0.3,0-0.6-0.1-0.8-0.3c-0.2-0.2-0.4-0.5-0.5-1c-0.1-0.4-0.2-1-0.2-1.8c0-0.7,0.1-1.3,0.2-1.7c0.1-0.5,0.3-0.8,0.5-1
			c0.2-0.2,0.5-0.3,0.9-0.3s0.6,0.1,0.9,0.3c0.2,0.2,0.4,0.6,0.5,1C13.2,106.1,13.3,106.7,13.3,107.3z M11.1,107.3
			c0,0.5,0,0.9,0.1,1.3c0,0.3,0.1,0.6,0.2,0.7c0.1,0.2,0.2,0.2,0.4,0.2s0.3-0.1,0.4-0.2c0.1-0.2,0.2-0.4,0.2-0.7
			c0-0.3,0.1-0.7,0.1-1.3c0-0.5,0-0.9-0.1-1.2c0-0.3-0.1-0.6-0.2-0.8c-0.1-0.2-0.2-0.2-0.4-0.2c-0.2,0-0.3,0.1-0.4,0.2
			c-0.1,0.2-0.2,0.4-0.2,0.7C11.1,106.4,11.1,106.8,11.1,107.3z"/>
		<path d="M17,107.3c0,0.5,0,0.9-0.1,1.3c0,0.4-0.1,0.7-0.3,1s-0.3,0.5-0.5,0.6c-0.2,0.1-0.4,0.2-0.7,0.2c-0.3,0-0.6-0.1-0.8-0.3
			c-0.2-0.2-0.4-0.5-0.5-1c-0.1-0.4-0.2-1-0.2-1.8c0-0.7,0.1-1.3,0.2-1.7c0.1-0.5,0.3-0.8,0.5-1c0.2-0.2,0.5-0.3,0.9-0.3
			c0.3,0,0.6,0.1,0.9,0.3c0.2,0.2,0.4,0.6,0.5,1S17,106.7,17,107.3z M14.8,107.3c0,0.5,0,0.9,0.1,1.3c0,0.3,0.1,0.6,0.2,0.7
			c0.1,0.2,0.2,0.2,0.4,0.2s0.3-0.1,0.4-0.2c0.1-0.2,0.2-0.4,0.2-0.7c0-0.3,0.1-0.7,0.1-1.3c0-0.5,0-0.9-0.1-1.2
			c0-0.3-0.1-0.6-0.2-0.8c-0.1-0.2-0.2-0.2-0.4-0.2c-0.2,0-0.3,0.1-0.4,0.2c-0.1,0.2-0.2,0.4-0.2,0.7
			C14.9,106.4,14.8,106.8,14.8,107.3z"/>
	</g>
	<g>
		<path d="M17,126.4c0,0.5,0,0.9-0.1,1.3c0,0.4-0.1,0.7-0.3,1s-0.3,0.5-0.5,0.6c-0.2,0.1-0.4,0.2-0.7,0.2c-0.3,0-0.6-0.1-0.8-0.3
			c-0.2-0.2-0.4-0.5-0.5-1c-0.1-0.4-0.2-1-0.2-1.8c0-0.7,0.1-1.3,0.2-1.7c0.1-0.5,0.3-0.8,0.5-1c0.2-0.2,0.5-0.3,0.9-0.3
			c0.3,0,0.6,0.1,0.9,0.3c0.2,0.2,0.4,0.6,0.5,1S17,125.8,17,126.4z M14.8,126.4c0,0.5,0,0.9,0.1,1.3c0,0.3,0.1,0.6,0.2,0.7
			c0.1,0.2,0.2,0.2,0.4,0.2s0.3-0.1,0.4-0.2c0.1-0.2,0.2-0.4,0.2-0.7c0-0.3,0.1-0.7,0.1-1.3c0-0.5,0-0.9-0.1-1.2
			c0-0.3-0.1-0.6-0.2-0.8s-0.2-0.2-0.4-0.2c-0.2,0-0.3,0.1-0.4,0.2c-0.1,0.2-0.2,0.4-0.2,0.7C14.9,125.5,14.8,125.9,14.8,126.4z"/>
	</g>
	<g>
		<path d="M9.5,91.2H6.4v-0.6l1.2-1.7c0.2-0.3,0.4-0.6,0.5-0.9c0.1-0.2,0.2-0.5,0.3-0.6c0-0.2,0.1-0.4,0.1-0.6
			c0-0.2-0.1-0.5-0.2-0.6S8,86,7.8,86c-0.2,0-0.3,0-0.5,0.1c-0.1,0.1-0.3,0.2-0.5,0.4l-0.4-0.6c0.2-0.2,0.3-0.3,0.4-0.4
			c0.1-0.1,0.3-0.2,0.5-0.2c0.2,0,0.3-0.1,0.5-0.1c0.3,0,0.6,0.1,0.8,0.2s0.4,0.3,0.5,0.5c0.1,0.2,0.2,0.5,0.2,0.8
			c0,0.3,0,0.6-0.1,0.8c-0.1,0.2-0.2,0.5-0.3,0.8c-0.1,0.3-0.3,0.5-0.6,0.9l-0.9,1.2v0h2L9.5,91.2L9.5,91.2z"/>
		<path d="M13.3,88.2c0,0.5,0,0.9-0.1,1.3c0,0.4-0.1,0.7-0.3,1c-0.1,0.3-0.3,0.5-0.5,0.6c-0.2,0.1-0.4,0.2-0.7,0.2
			c-0.3,0-0.6-0.1-0.8-0.3c-0.2-0.2-0.4-0.5-0.5-1c-0.1-0.4-0.2-1-0.2-1.8c0-0.7,0.1-1.3,0.2-1.7c0.1-0.5,0.3-0.8,0.5-1
			c0.2-0.2,0.5-0.3,0.9-0.3s0.6,0.1,0.9,0.3c0.2,0.2,0.4,0.6,0.5,1C13.2,87,13.3,87.6,13.3,88.2z M11.1,88.2c0,0.5,0,0.9,0.1,1.3
			c0,0.3,0.1,0.6,0.2,0.7c0.1,0.2,0.2,0.2,0.4,0.2s0.3-0.1,0.4-0.2c0.1-0.2,0.2-0.4,0.2-0.7c0-0.3,0.1-0.7,0.1-1.3
			c0-0.5,0-0.9-0.1-1.2c0-0.3-0.1-0.6-0.2-0.8C12,86.1,11.9,86,11.7,86c-0.2,0-0.3,0.1-0.4,0.2c-0.1,0.2-0.2,0.4-0.2,0.7
			C11.1,87.3,11.1,87.7,11.1,88.2z"/>
		<path d="M17,88.2c0,0.5,0,0.9-0.1,1.3c0,0.4-0.1,0.7-0.3,1c-0.1,0.3-0.3,0.5-0.5,0.6c-0.2,0.1-0.4,0.2-0.7,0.2
			c-0.3,0-0.6-0.1-0.8-0.3c-0.2-0.2-0.4-0.5-0.5-1c-0.1-0.4-0.2-1-0.2-1.8c0-0.7,0.1-1.3,0.2-1.7c0.1-0.5,0.3-0.8,0.5-1
			c0.2-0.2,0.5-0.3,0.9-0.3c0.3,0,0.6,0.1,0.9,0.3c0.2,0.2,0.4,0.6,0.5,1S17,87.6,17,88.2z M14.8,88.2c0,0.5,0,0.9,0.1,1.3
			c0,0.3,0.1,0.6,0.2,0.7c0.1,0.2,0.2,0.2,0.4,0.2s0.3-0.1,0.4-0.2c0.1-0.2,0.2-0.4,0.2-0.7c0-0.3,0.1-0.7,0.1-1.3
			c0-0.5,0-0.9-0.1-1.2c0-0.3-0.1-0.6-0.2-0.8c-0.1-0.2-0.2-0.2-0.4-0.2c-0.2,0-0.3,0.1-0.4,0.2c-0.1,0.2-0.2,0.4-0.2,0.7
			C14.9,87.3,14.8,87.7,14.8,88.2z"/>
	</g>
	<g>
		<path d="M9.4,67.6c0,0.2,0,0.4-0.1,0.6c-0.1,0.2-0.2,0.3-0.3,0.5c-0.1,0.1-0.3,0.2-0.5,0.3v0c0.4,0.1,0.6,0.2,0.8,0.5
			c0.2,0.2,0.3,0.6,0.3,1c0,0.3-0.1,0.7-0.2,0.9C9.2,71.6,9,71.8,8.7,72c-0.3,0.1-0.6,0.2-0.9,0.2c-0.2,0-0.5,0-0.7-0.1
			S6.7,72,6.5,71.9v-0.8c0.2,0.1,0.4,0.2,0.6,0.2s0.4,0.1,0.6,0.1c0.3,0,0.6-0.1,0.7-0.3c0.2-0.2,0.2-0.4,0.2-0.7
			c0-0.2,0-0.4-0.1-0.6c-0.1-0.2-0.2-0.3-0.4-0.3c-0.2-0.1-0.4-0.1-0.7-0.1H7.2v-0.7h0.3c0.2,0,0.4,0,0.6-0.1
			c0.2-0.1,0.3-0.2,0.4-0.4c0.1-0.2,0.1-0.3,0.1-0.5c0-0.3-0.1-0.5-0.2-0.6c-0.1-0.1-0.3-0.2-0.5-0.2c-0.1,0-0.2,0-0.3,0
			c-0.1,0-0.2,0.1-0.3,0.1S7,67.2,6.9,67.2l-0.4-0.6c0.2-0.2,0.5-0.3,0.7-0.4s0.5-0.1,0.8-0.1c0.5,0,0.8,0.1,1.1,0.4
			C9.3,66.7,9.4,67.1,9.4,67.6z"/>
		<path d="M13.3,69.1c0,0.5,0,0.9-0.1,1.3c0,0.4-0.1,0.7-0.3,1c-0.1,0.3-0.3,0.5-0.5,0.6c-0.2,0.1-0.4,0.2-0.7,0.2
			c-0.3,0-0.6-0.1-0.8-0.3c-0.2-0.2-0.4-0.5-0.5-1c-0.1-0.4-0.2-1-0.2-1.8c0-0.7,0.1-1.3,0.2-1.7c0.1-0.5,0.3-0.8,0.5-1
			c0.2-0.2,0.5-0.3,0.9-0.3s0.6,0.1,0.9,0.3c0.2,0.2,0.4,0.6,0.5,1C13.2,67.9,13.3,68.5,13.3,69.1z M11.1,69.1c0,0.5,0,0.9,0.1,1.3
			c0,0.3,0.1,0.6,0.2,0.7c0.1,0.2,0.2,0.2,0.4,0.2s0.3-0.1,0.4-0.2c0.1-0.2,0.2-0.4,0.2-0.7c0-0.3,0.1-0.7,0.1-1.3
			c0-0.5,0-0.9-0.1-1.2c0-0.3-0.1-0.6-0.2-0.8c-0.1-0.2-0.2-0.2-0.4-0.2c-0.2,0-0.3,0.1-0.4,0.2c-0.1,0.2-0.2,0.4-0.2,0.7
			C11.1,68.2,11.1,68.6,11.1,69.1z"/>
		<path d="M17,69.1c0,0.5,0,0.9-0.1,1.3c0,0.4-0.1,0.7-0.3,1c-0.1,0.3-0.3,0.5-0.5,0.6c-0.2,0.1-0.4,0.2-0.7,0.2
			c-0.3,0-0.6-0.1-0.8-0.3c-0.2-0.2-0.4-0.5-0.5-1c-0.1-0.4-0.2-1-0.2-1.8c0-0.7,0.1-1.3,0.2-1.7c0.1-0.5,0.3-0.8,0.5-1
			c0.2-0.2,0.5-0.3,0.9-0.3c0.3,0,0.6,0.1,0.9,0.3c0.2,0.2,0.4,0.6,0.5,1S17,68.5,17,69.1z M14.8,69.1c0,0.5,0,0.9,0.1,1.3
			c0,0.3,0.1,0.6,0.2,0.7c0.1,0.2,0.2,0.2,0.4,0.2s0.3-0.1,0.4-0.2c0.1-0.2,0.2-0.4,0.2-0.7c0-0.3,0.1-0.7,0.1-1.3
			c0-0.5,0-0.9-0.1-1.2c0-0.3-0.1-0.6-0.2-0.8c-0.1-0.2-0.2-0.2-0.4-0.2c-0.2,0-0.3,0.1-0.4,0.2c-0.1,0.2-0.2,0.4-0.2,0.7
			C14.9,68.2,14.8,68.6,14.8,69.1z"/>
	</g>
	<g>
		<path d="M9.8,51.7H9.2V53H8.3v-1.3h-2V51l2-4h0.9v4h0.6L9.8,51.7L9.8,51.7z M8.3,51v-1.9c0-0.1,0-0.1,0-0.2c0-0.1,0-0.2,0-0.3
			c0-0.1,0-0.2,0-0.2c0-0.1,0-0.1,0-0.2h0c0,0.1-0.1,0.2-0.1,0.4c0,0.1-0.1,0.2-0.1,0.3l-1,2.1H8.3z"/>
		<path d="M13.3,50c0,0.5,0,0.9-0.1,1.3c0,0.4-0.1,0.7-0.3,1c-0.1,0.3-0.3,0.5-0.5,0.6c-0.2,0.1-0.4,0.2-0.7,0.2
			c-0.3,0-0.6-0.1-0.8-0.3c-0.2-0.2-0.4-0.5-0.5-1c-0.1-0.4-0.2-1-0.2-1.8c0-0.7,0.1-1.3,0.2-1.7c0.1-0.5,0.3-0.8,0.5-1
			c0.2-0.2,0.5-0.3,0.9-0.3s0.6,0.1,0.9,0.3c0.2,0.2,0.4,0.6,0.5,1C13.2,48.8,13.3,49.4,13.3,50z M11.1,50c0,0.5,0,0.9,0.1,1.3
			c0,0.3,0.1,0.6,0.2,0.7c0.1,0.2,0.2,0.2,0.4,0.2s0.3-0.1,0.4-0.2c0.1-0.2,0.2-0.4,0.2-0.7c0-0.3,0.1-0.7,0.1-1.3
			c0-0.5,0-0.9-0.1-1.2c0-0.3-0.1-0.6-0.2-0.8c-0.1-0.2-0.2-0.2-0.4-0.2c-0.2,0-0.3,0.1-0.4,0.2c-0.1,0.2-0.2,0.4-0.2,0.7
			C11.1,49.1,11.1,49.5,11.1,50z"/>
		<path d="M17,50c0,0.5,0,0.9-0.1,1.3c0,0.4-0.1,0.7-0.3,1s-0.3,0.5-0.5,0.6c-0.2,0.1-0.4,0.2-0.7,0.2c-0.3,0-0.6-0.1-0.8-0.3
			c-0.2-0.2-0.4-0.5-0.5-1c-0.1-0.4-0.2-1-0.2-1.8c0-0.7,0.1-1.3,0.2-1.7c0.1-0.5,0.3-0.8,0.5-1c0.2-0.2,0.5-0.3,0.9-0.3
			c0.3,0,0.6,0.1,0.9,0.3c0.2,0.2,0.4,0.6,0.5,1C17,48.8,17,49.4,17,50z M14.8,50c0,0.5,0,0.9,0.1,1.3c0,0.3,0.1,0.6,0.2,0.7
			c0.1,0.2,0.2,0.2,0.4,0.2s0.3-0.1,0.4-0.2c0.1-0.2,0.2-0.4,0.2-0.7c0-0.3,0.1-0.7,0.1-1.3c0-0.5,0-0.9-0.1-1.2
			c0-0.3-0.1-0.6-0.2-0.8c-0.1-0.2-0.2-0.2-0.4-0.2c-0.2,0-0.3,0.1-0.4,0.2c-0.1,0.2-0.2,0.4-0.2,0.7C14.9,49.1,14.8,49.5,14.8,50z"
			/>
	</g>
	<g>
		<path d="M8.1,30.2c0.3,0,0.5,0.1,0.8,0.2c0.2,0.2,0.4,0.4,0.5,0.6s0.2,0.6,0.2,0.9c0,0.4-0.1,0.8-0.2,1.1
			c-0.1,0.3-0.3,0.5-0.6,0.7c-0.3,0.2-0.6,0.2-1,0.2c-0.2,0-0.4,0-0.6-0.1c-0.2,0-0.4-0.1-0.5-0.2v-0.8c0.2,0.1,0.3,0.2,0.5,0.2
			c0.2,0.1,0.4,0.1,0.6,0.1c0.2,0,0.4,0,0.5-0.2c0.1-0.1,0.2-0.2,0.3-0.4c0.1-0.2,0.1-0.4,0.1-0.6c0-0.3-0.1-0.6-0.2-0.8
			C8.3,31,8,30.9,7.7,30.9c-0.1,0-0.2,0-0.4,0C7.2,31,7.1,31,7,31.1l-0.3-0.3L6.8,28h2.4v0.8H7.6l-0.1,1.5c0.1,0,0.2,0,0.3-0.1
			C7.9,30.2,8,30.2,8.1,30.2z"/>
		<path d="M13.3,30.9c0,0.5,0,0.9-0.1,1.3c0,0.4-0.1,0.7-0.3,1c-0.1,0.3-0.3,0.5-0.5,0.6C12.3,33.9,12,34,11.7,34
			c-0.3,0-0.6-0.1-0.8-0.3c-0.2-0.2-0.4-0.5-0.5-1c-0.1-0.4-0.2-1-0.2-1.8c0-0.7,0.1-1.3,0.2-1.7c0.1-0.5,0.3-0.8,0.5-1
			c0.2-0.2,0.5-0.3,0.9-0.3s0.6,0.1,0.9,0.3c0.2,0.2,0.4,0.6,0.5,1C13.2,29.7,13.3,30.3,13.3,30.9z M11.1,30.9c0,0.5,0,0.9,0.1,1.3
			c0,0.3,0.1,0.6,0.2,0.7c0.1,0.2,0.2,0.2,0.4,0.2s0.3-0.1,0.4-0.2c0.1-0.2,0.2-0.4,0.2-0.7c0-0.3,0.1-0.7,0.1-1.3
			c0-0.5,0-0.9-0.1-1.2c0-0.3-0.1-0.6-0.2-0.8s-0.2-0.2-0.4-0.2c-0.2,0-0.3,0.1-0.4,0.2c-0.1,0.2-0.2,0.4-0.2,0.7
			C11.1,30,11.1,30.4,11.1,30.9z"/>
		<path d="M17,30.9c0,0.5,0,0.9-0.1,1.3c0,0.4-0.1,0.7-0.3,1c-0.1,0.3-0.3,0.5-0.5,0.6C16,33.9,15.8,34,15.5,34
			c-0.3,0-0.6-0.1-0.8-0.3c-0.2-0.2-0.4-0.5-0.5-1c-0.1-0.4-0.2-1-0.2-1.8c0-0.7,0.1-1.3,0.2-1.7c0.1-0.5,0.3-0.8,0.5-1
			c0.2-0.2,0.5-0.3,0.9-0.3c0.3,0,0.6,0.1,0.9,0.3c0.2,0.2,0.4,0.6,0.5,1S17,30.3,17,30.9z M14.8,30.9c0,0.5,0,0.9,0.1,1.3
			c0,0.3,0.1,0.6,0.2,0.7c0.1,0.2,0.2,0.2,0.4,0.2s0.3-0.1,0.4-0.2c0.1-0.2,0.2-0.4,0.2-0.7c0-0.3,0.1-0.7,0.1-1.3
			c0-0.5,0-0.9-0.1-1.2c0-0.3-0.1-0.6-0.2-0.8s-0.2-0.2-0.4-0.2c-0.2,0-0.3,0.1-0.4,0.2c-0.1,0.2-0.2,0.4-0.2,0.7
			C14.9,30,14.8,30.4,14.8,30.9z"/>
	</g>
	<g>
		<path d="M6.7,12.3c0-0.4,0-0.8,0.1-1.2s0.1-0.7,0.2-1C7,9.9,7.2,9.6,7.3,9.4c0.2-0.2,0.4-0.4,0.6-0.5c0.2-0.1,0.5-0.2,0.8-0.2
			c0.1,0,0.2,0,0.4,0c0.1,0,0.2,0,0.3,0.1v0.8c-0.1,0-0.2,0-0.3-0.1s-0.2,0-0.3,0c-0.3,0-0.5,0.1-0.7,0.2c-0.2,0.2-0.3,0.4-0.4,0.7
			c-0.1,0.3-0.2,0.7-0.2,1.2h0c0.1-0.1,0.1-0.3,0.2-0.4c0.1-0.1,0.2-0.2,0.3-0.2C8.2,11,8.3,11,8.5,11c0.3,0,0.5,0.1,0.7,0.2
			c0.2,0.2,0.3,0.4,0.4,0.7s0.1,0.6,0.1,1c0,0.4-0.1,0.7-0.2,1c-0.1,0.3-0.3,0.5-0.5,0.7c-0.2,0.2-0.5,0.2-0.8,0.2
			c-0.2,0-0.5-0.1-0.7-0.2c-0.2-0.1-0.4-0.3-0.5-0.5C7,14,6.9,13.7,6.8,13.4C6.7,13.1,6.7,12.7,6.7,12.3z M8.2,14.1
			c0.2,0,0.3-0.1,0.5-0.3s0.2-0.5,0.2-0.9c0-0.4,0-0.7-0.2-0.9c-0.1-0.2-0.3-0.3-0.5-0.3c-0.1,0-0.3,0-0.4,0.1
			c-0.1,0.1-0.2,0.2-0.2,0.3s-0.1,0.3-0.1,0.5c0,0.2,0,0.3,0,0.5c0,0.2,0.1,0.3,0.1,0.5c0,0.1,0.1,0.2,0.2,0.3
			C8,14.1,8.1,14.1,8.2,14.1z"/>
		<path d="M13.4,11.8c0,0.5,0,0.9-0.1,1.3c0,0.4-0.1,0.7-0.3,1c-0.1,0.3-0.3,0.5-0.5,0.6c-0.2,0.1-0.4,0.2-0.7,0.2
			c-0.3,0-0.6-0.1-0.8-0.3c-0.2-0.2-0.4-0.5-0.5-1c-0.1-0.4-0.2-1-0.2-1.8c0-0.7,0.1-1.3,0.2-1.7c0.1-0.5,0.3-0.8,0.5-1
			c0.2-0.2,0.5-0.3,0.9-0.3c0.3,0,0.6,0.1,0.9,0.3c0.2,0.2,0.4,0.6,0.5,1C13.4,10.6,13.4,11.2,13.4,11.8z M11.2,11.8
			c0,0.5,0,0.9,0.1,1.3c0,0.3,0.1,0.6,0.2,0.7c0.1,0.2,0.2,0.2,0.4,0.2s0.3-0.1,0.4-0.2c0.1-0.2,0.2-0.4,0.2-0.7
			c0-0.3,0.1-0.7,0.1-1.3c0-0.5,0-0.9-0.1-1.2c0-0.3-0.1-0.6-0.2-0.8S12,9.6,11.9,9.6c-0.2,0-0.3,0.1-0.4,0.2
			c-0.1,0.2-0.2,0.4-0.2,0.7S11.2,11.3,11.2,11.8z"/>
		<path d="M17.1,11.8c0,0.5,0,0.9-0.1,1.3c0,0.4-0.1,0.7-0.3,1s-0.3,0.5-0.5,0.6c-0.2,0.1-0.4,0.2-0.7,0.2c-0.3,0-0.6-0.1-0.8-0.3
			c-0.2-0.2-0.4-0.5-0.5-1c-0.1-0.4-0.2-1-0.2-1.8c0-0.7,0.1-1.3,0.2-1.7c0.1-0.5,0.3-0.8,0.5-1c0.2-0.2,0.5-0.3,0.9-0.3
			s0.6,0.1,0.9,0.3c0.2,0.2,0.4,0.6,0.5,1C17.1,10.6,17.1,11.2,17.1,11.8z M15,11.8c0,0.5,0,0.9,0.1,1.3c0,0.3,0.1,0.6,0.2,0.7
			c0.1,0.2,0.2,0.2,0.4,0.2s0.3-0.1,0.4-0.2c0.1-0.2,0.2-0.4,0.2-0.7c0-0.3,0.1-0.7,0.1-1.3c0-0.5,0-0.9-0.1-1.2
			c0-0.3-0.1-0.6-0.2-0.8s-0.2-0.2-0.4-0.2c-0.2,0-0.3,0.1-0.4,0.2c-0.1,0.2-0.2,0.4-0.2,0.7C15,10.9,15,11.3,15,11.8z"/>
	</g>
</g>
<line class="st0" x1="23.4" y1="12.2" x2="298.4" y2="12.2"/>
<g>
	<path d="M35.9,133.2c0,0.2,0,0.4-0.1,0.5c-0.1,0.2-0.2,0.3-0.3,0.4c-0.1,0.1-0.3,0.2-0.5,0.3v0c0.3,0.1,0.5,0.2,0.7,0.4
		c0.2,0.2,0.2,0.5,0.2,0.8c0,0.3-0.1,0.6-0.2,0.8s-0.3,0.4-0.5,0.5c-0.2,0.1-0.5,0.2-0.8,0.2c-0.2,0-0.4,0-0.6,0
		c-0.2,0-0.3-0.1-0.5-0.2v-0.7c0.2,0.1,0.3,0.2,0.5,0.2c0.2,0,0.3,0.1,0.5,0.1c0.3,0,0.5-0.1,0.6-0.2c0.1-0.2,0.2-0.4,0.2-0.6
		c0-0.2,0-0.3-0.1-0.5s-0.2-0.2-0.3-0.3c-0.2-0.1-0.3-0.1-0.6-0.1H34v-0.6h0.3c0.2,0,0.4,0,0.5-0.1c0.1-0.1,0.2-0.2,0.3-0.3
		c0.1-0.1,0.1-0.3,0.1-0.5c0-0.2-0.1-0.4-0.2-0.5s-0.3-0.2-0.5-0.2c-0.1,0-0.2,0-0.3,0c-0.1,0-0.2,0.1-0.3,0.1
		c-0.1,0-0.2,0.1-0.3,0.2l-0.3-0.5c0.2-0.2,0.4-0.3,0.6-0.4c0.2-0.1,0.4-0.1,0.7-0.1c0.4,0,0.7,0.1,0.9,0.3
		C35.8,132.4,35.9,132.8,35.9,133.2z"/>
</g>
<g>
	<path d="M57.5,134.9c0-0.4,0-0.7,0.1-1c0-0.3,0.1-0.6,0.2-0.8c0.1-0.2,0.2-0.5,0.3-0.6c0.1-0.2,0.3-0.3,0.5-0.4
		c0.2-0.1,0.4-0.1,0.7-0.1c0.1,0,0.2,0,0.3,0s0.2,0,0.3,0.1v0.7c-0.1,0-0.2,0-0.3,0c-0.1,0-0.2,0-0.3,0c-0.2,0-0.4,0.1-0.6,0.2
		c-0.2,0.1-0.3,0.3-0.4,0.6c-0.1,0.3-0.1,0.6-0.2,1h0c0-0.1,0.1-0.2,0.2-0.3c0.1-0.1,0.2-0.2,0.3-0.2c0.1,0,0.2-0.1,0.3-0.1
		c0.2,0,0.4,0.1,0.6,0.2s0.3,0.3,0.4,0.6c0.1,0.2,0.1,0.5,0.1,0.8c0,0.3,0,0.6-0.1,0.9c-0.1,0.3-0.2,0.5-0.4,0.6s-0.4,0.2-0.7,0.2
		c-0.2,0-0.4,0-0.6-0.1c-0.2-0.1-0.3-0.2-0.4-0.4c-0.1-0.2-0.2-0.4-0.3-0.7C57.5,135.6,57.5,135.2,57.5,134.9z M58.8,136.5
		c0.2,0,0.3-0.1,0.4-0.3c0.1-0.2,0.1-0.4,0.1-0.8c0-0.3,0-0.6-0.1-0.7s-0.2-0.2-0.4-0.2c-0.1,0-0.2,0-0.3,0.1
		c-0.1,0.1-0.2,0.2-0.2,0.3c0,0.1-0.1,0.3-0.1,0.4c0,0.1,0,0.3,0,0.4c0,0.1,0.1,0.3,0.1,0.4s0.1,0.2,0.2,0.3
		C58.6,136.4,58.7,136.5,58.8,136.5z"/>
</g>
<g>
	<path d="M88.2,134.1c0,0.4,0,0.7-0.1,1c0,0.3-0.1,0.6-0.2,0.8s-0.2,0.5-0.3,0.6s-0.3,0.3-0.5,0.4c-0.2,0.1-0.4,0.1-0.7,0.1
		c-0.1,0-0.2,0-0.3,0c-0.1,0-0.2,0-0.3,0v-0.7c0.1,0,0.2,0,0.3,0.1c0.1,0,0.2,0,0.3,0c0.3,0,0.5-0.1,0.6-0.2s0.3-0.4,0.4-0.7
		c0.1-0.3,0.1-0.6,0.1-0.9h0c0,0.1-0.1,0.2-0.2,0.3c-0.1,0.1-0.2,0.2-0.3,0.2c-0.1,0-0.2,0.1-0.3,0.1c-0.2,0-0.4-0.1-0.6-0.2
		s-0.3-0.3-0.4-0.6c-0.1-0.2-0.1-0.5-0.1-0.8c0-0.3,0-0.6,0.1-0.9c0.1-0.3,0.2-0.5,0.4-0.6c0.2-0.1,0.4-0.2,0.7-0.2
		c0.2,0,0.4,0,0.6,0.1c0.2,0.1,0.3,0.2,0.4,0.4c0.1,0.2,0.2,0.4,0.3,0.7S88.2,133.7,88.2,134.1z M86.8,132.6c-0.2,0-0.3,0.1-0.4,0.3
		c-0.1,0.2-0.1,0.4-0.1,0.8c0,0.3,0,0.6,0.1,0.7s0.2,0.2,0.4,0.2c0.1,0,0.2,0,0.3-0.1c0.1-0.1,0.2-0.2,0.2-0.3
		c0-0.1,0.1-0.3,0.1-0.4c0-0.1,0-0.2,0-0.4c0-0.1,0-0.3-0.1-0.4c0-0.1-0.1-0.2-0.2-0.3C87.1,132.6,87,132.6,86.8,132.6z"/>
</g>
<g>
	<path d="M109.8,137.1h-0.7v-3.2c0-0.1,0-0.2,0-0.3s0-0.2,0-0.3s0-0.2,0-0.3c0,0-0.1,0.1-0.1,0.2c0,0.1-0.1,0.1-0.2,0.2l-0.5,0.5
		l-0.4-0.5l1.2-1.3h0.7C109.8,132,109.8,137.1,109.8,137.1z"/>
	<path d="M113.5,137.1h-2.6v-0.5l1-1.4c0.2-0.3,0.4-0.5,0.5-0.7c0.1-0.2,0.2-0.4,0.2-0.6c0-0.2,0.1-0.3,0.1-0.5c0-0.2,0-0.4-0.2-0.5
		c-0.1-0.1-0.2-0.2-0.5-0.2c-0.1,0-0.3,0-0.4,0.1c-0.1,0.1-0.2,0.2-0.4,0.3l-0.4-0.5c0.1-0.1,0.2-0.2,0.4-0.3
		c0.1-0.1,0.3-0.1,0.4-0.2c0.1,0,0.3-0.1,0.5-0.1c0.3,0,0.5,0.1,0.7,0.2c0.2,0.1,0.3,0.3,0.5,0.5c0.1,0.2,0.2,0.4,0.2,0.7
		c0,0.2,0,0.5-0.1,0.7c-0.1,0.2-0.2,0.4-0.3,0.7c-0.1,0.2-0.3,0.5-0.5,0.7l-0.8,1v0h1.7L113.5,137.1L113.5,137.1z"/>
</g>
<g>
	<path d="M134.4,137h-0.7v-3.2c0-0.1,0-0.2,0-0.3c0-0.1,0-0.2,0-0.3c0-0.1,0-0.2,0-0.3c0,0-0.1,0.1-0.1,0.2c0,0.1-0.1,0.1-0.2,0.2
		l-0.5,0.5l-0.4-0.5l1.2-1.3h0.7L134.4,137L134.4,137z"/>
	<path d="M136.9,133.8c0.2,0,0.5,0.1,0.7,0.2c0.2,0.1,0.3,0.3,0.4,0.5s0.2,0.5,0.2,0.8c0,0.3-0.1,0.7-0.2,0.9s-0.3,0.5-0.5,0.6
		c-0.2,0.1-0.5,0.2-0.9,0.2c-0.2,0-0.4,0-0.5-0.1s-0.3-0.1-0.4-0.2v-0.7c0.1,0.1,0.3,0.2,0.5,0.2s0.3,0.1,0.5,0.1
		c0.2,0,0.3,0,0.5-0.1c0.1-0.1,0.2-0.2,0.3-0.4c0.1-0.2,0.1-0.3,0.1-0.5c0-0.3-0.1-0.5-0.2-0.7c-0.1-0.2-0.3-0.2-0.6-0.2
		c-0.1,0-0.2,0-0.3,0c-0.1,0-0.2,0-0.3,0.1l-0.3-0.2l0.2-2.4h2.1v0.7h-1.4l-0.1,1.3c0.1,0,0.2,0,0.3,0S136.8,133.8,136.9,133.8z"/>
</g>
<g>
	<path d="M159.8,137.1h-0.8v-3.2c0-0.1,0-0.2,0-0.3s0-0.2,0-0.3s0-0.2,0-0.3c0,0-0.1,0.1-0.1,0.2c0,0.1-0.1,0.1-0.2,0.2l-0.5,0.5
		l-0.4-0.5l1.2-1.3h0.7L159.8,137.1L159.8,137.1z"/>
	<path d="M162.3,131.9c0.3,0,0.5,0,0.7,0.1s0.3,0.2,0.4,0.4c0.1,0.2,0.1,0.4,0.1,0.6c0,0.2,0,0.4-0.1,0.5c-0.1,0.2-0.1,0.3-0.2,0.4
		c-0.1,0.1-0.3,0.2-0.4,0.3c0.2,0.1,0.3,0.3,0.5,0.4c0.1,0.1,0.2,0.3,0.3,0.4c0.1,0.2,0.1,0.3,0.1,0.5c0,0.3-0.1,0.5-0.2,0.7
		c-0.1,0.2-0.3,0.4-0.5,0.5c-0.2,0.1-0.4,0.2-0.7,0.2c-0.3,0-0.5-0.1-0.7-0.2c-0.2-0.1-0.4-0.3-0.5-0.5s-0.2-0.4-0.2-0.7
		c0-0.2,0-0.4,0.1-0.5c0.1-0.2,0.2-0.3,0.3-0.5c0.1-0.1,0.3-0.3,0.5-0.4c-0.2-0.1-0.3-0.2-0.4-0.4s-0.2-0.3-0.2-0.4
		c0-0.1-0.1-0.3-0.1-0.5c0-0.2,0-0.5,0.2-0.6s0.2-0.3,0.4-0.4C161.8,131.9,162.1,131.9,162.3,131.9z M161.7,135.8
		c0,0.2,0.1,0.4,0.2,0.5c0.1,0.1,0.3,0.2,0.5,0.2c0.2,0,0.4-0.1,0.5-0.2c0.1-0.1,0.2-0.3,0.2-0.5c0-0.1,0-0.2-0.1-0.3
		c0-0.1-0.1-0.2-0.2-0.3c-0.1-0.1-0.2-0.2-0.3-0.3l-0.1-0.1c-0.1,0.1-0.2,0.2-0.3,0.3c-0.1,0.1-0.2,0.2-0.2,0.3
		S161.7,135.6,161.7,135.8z M162.3,132.5c-0.2,0-0.3,0.1-0.4,0.2c-0.1,0.1-0.1,0.3-0.1,0.5c0,0.1,0,0.2,0.1,0.3
		c0,0.1,0.1,0.2,0.2,0.3c0.1,0.1,0.2,0.2,0.3,0.2c0.1-0.1,0.2-0.2,0.3-0.3c0.1-0.1,0.1-0.2,0.2-0.3c0-0.1,0.1-0.2,0.1-0.3
		c0-0.2,0-0.4-0.1-0.5C162.6,132.6,162.5,132.5,162.3,132.5z"/>
</g>
<g>
	<path d="M188.6,137.1H186v-0.5l1-1.4c0.2-0.3,0.4-0.5,0.5-0.7c0.1-0.2,0.2-0.4,0.2-0.6c0-0.2,0.1-0.3,0.1-0.5c0-0.2,0-0.4-0.2-0.5
		c-0.1-0.1-0.2-0.2-0.5-0.2c-0.1,0-0.3,0-0.4,0.1c-0.1,0.1-0.2,0.2-0.4,0.3l-0.4-0.5c0.1-0.1,0.2-0.2,0.4-0.3
		c0.1-0.1,0.3-0.1,0.4-0.2c0.1,0,0.3-0.1,0.5-0.1c0.3,0,0.5,0.1,0.7,0.2c0.2,0.1,0.3,0.3,0.5,0.5c0.1,0.2,0.2,0.4,0.2,0.7
		c0,0.2,0,0.5-0.1,0.7c-0.1,0.2-0.2,0.4-0.3,0.7c-0.1,0.2-0.3,0.5-0.5,0.7l-0.8,1v0h1.7L188.6,137.1L188.6,137.1z"/>
	<path d="M191.3,137.1h-0.7v-3.2c0-0.1,0-0.2,0-0.3s0-0.2,0-0.3s0-0.2,0-0.3c0,0-0.1,0.1-0.1,0.2c0,0.1-0.1,0.1-0.2,0.2l-0.5,0.5
		l-0.4-0.5l1.2-1.3h0.7L191.3,137.1L191.3,137.1z"/>
</g>
<g>
	<path d="M212.2,137.1h-2.6v-0.5l1-1.4c0.2-0.3,0.4-0.5,0.5-0.7c0.1-0.2,0.2-0.4,0.2-0.6s0.1-0.3,0.1-0.5c0-0.2,0-0.4-0.2-0.5
		c-0.1-0.1-0.2-0.2-0.5-0.2c-0.1,0-0.3,0-0.4,0.1c-0.1,0.1-0.2,0.2-0.4,0.3l-0.4-0.5c0.1-0.1,0.2-0.2,0.4-0.3
		c0.1-0.1,0.3-0.1,0.4-0.2c0.1,0,0.3-0.1,0.5-0.1c0.3,0,0.5,0.1,0.7,0.2c0.2,0.1,0.3,0.3,0.5,0.5c0.1,0.2,0.2,0.4,0.2,0.7
		c0,0.2,0,0.5-0.1,0.7c-0.1,0.2-0.2,0.4-0.3,0.7c-0.1,0.2-0.3,0.5-0.5,0.7l-0.8,1v0h1.7L212.2,137.1L212.2,137.1z"/>
	<path d="M215.6,136h-0.5v1.1h-0.7V136h-1.7v-0.6l1.7-3.4h0.8v3.4h0.5V136z M214.3,135.3v-1.6c0,0,0-0.1,0-0.2c0-0.1,0-0.1,0-0.2
		c0-0.1,0-0.1,0-0.2c0-0.1,0-0.1,0-0.2h0c0,0.1-0.1,0.2-0.1,0.3c0,0.1-0.1,0.2-0.1,0.3l-0.8,1.8L214.3,135.3L214.3,135.3z"/>
</g>
<g>
	<path d="M236.6,137.1H234v-0.5l1-1.4c0.2-0.3,0.4-0.5,0.5-0.7c0.1-0.2,0.2-0.4,0.2-0.6s0.1-0.3,0.1-0.5c0-0.2,0-0.4-0.2-0.5
		c-0.1-0.1-0.2-0.2-0.5-0.2c-0.1,0-0.3,0-0.4,0.1c-0.1,0.1-0.2,0.2-0.4,0.3l-0.4-0.5c0.1-0.1,0.2-0.2,0.4-0.3
		c0.1-0.1,0.3-0.1,0.4-0.2c0.1,0,0.3-0.1,0.5-0.1c0.3,0,0.5,0.1,0.7,0.2c0.2,0.1,0.3,0.3,0.5,0.5c0.1,0.2,0.2,0.4,0.2,0.7
		c0,0.2,0,0.5-0.1,0.7c-0.1,0.2-0.2,0.4-0.3,0.7c-0.1,0.2-0.3,0.5-0.5,0.7l-0.8,1v0h1.7L236.6,137.1L236.6,137.1z"/>
	<path d="M237.6,137.1l1.5-4.4h-1.9V132h2.7v0.5l-1.5,4.5L237.6,137.1L237.6,137.1z"/>
</g>
<g>
	<path d="M261.2,133.2c0,0.2,0,0.4-0.1,0.5s-0.2,0.3-0.3,0.4c-0.1,0.1-0.3,0.2-0.5,0.3v0c0.3,0.1,0.5,0.2,0.7,0.4s0.2,0.5,0.2,0.8
		c0,0.3-0.1,0.6-0.2,0.8s-0.3,0.4-0.5,0.5c-0.2,0.1-0.5,0.2-0.8,0.2c-0.2,0-0.4,0-0.6,0c-0.2,0-0.3-0.1-0.5-0.2v-0.7
		c0.2,0.1,0.3,0.2,0.5,0.2s0.3,0.1,0.5,0.1c0.3,0,0.5-0.1,0.6-0.2c0.1-0.2,0.2-0.4,0.2-0.6c0-0.2,0-0.3-0.1-0.5
		c-0.1-0.1-0.2-0.2-0.3-0.3c-0.2-0.1-0.3-0.1-0.6-0.1h-0.2v-0.6h0.3c0.2,0,0.4,0,0.5-0.1c0.1-0.1,0.2-0.2,0.3-0.3
		c0.1-0.1,0.1-0.3,0.1-0.5c0-0.2-0.1-0.4-0.2-0.5s-0.3-0.2-0.5-0.2c-0.1,0-0.2,0-0.3,0s-0.2,0.1-0.3,0.1c-0.1,0-0.2,0.1-0.3,0.2
		l-0.3-0.5c0.2-0.2,0.4-0.3,0.6-0.4c0.2-0.1,0.4-0.1,0.7-0.1c0.4,0,0.7,0.1,0.9,0.3C261.1,132.4,261.2,132.8,261.2,133.2z"/>
	<path d="M264.5,134.5c0,0.4,0,0.8-0.1,1.1c0,0.3-0.1,0.6-0.2,0.8c-0.1,0.2-0.2,0.4-0.4,0.5c-0.2,0.1-0.4,0.2-0.6,0.2
		c-0.3,0-0.5-0.1-0.7-0.2s-0.3-0.5-0.4-0.8c-0.1-0.4-0.2-0.9-0.2-1.5c0-0.6,0-1.1,0.1-1.5c0.1-0.4,0.2-0.7,0.4-0.9
		c0.2-0.2,0.4-0.3,0.7-0.3c0.3,0,0.5,0.1,0.7,0.3c0.2,0.2,0.3,0.5,0.4,0.9C264.5,133.5,264.5,133.9,264.5,134.5z M262.6,134.5
		c0,0.4,0,0.8,0.1,1.1c0,0.3,0.1,0.5,0.2,0.6c0.1,0.1,0.2,0.2,0.3,0.2c0.1,0,0.2-0.1,0.3-0.2c0.1-0.1,0.1-0.4,0.2-0.6
		c0-0.3,0-0.6,0-1.1c0-0.4,0-0.8-0.1-1.1c0-0.3-0.1-0.5-0.2-0.7c-0.1-0.2-0.2-0.2-0.3-0.2c-0.1,0-0.2,0.1-0.3,0.2s-0.1,0.4-0.2,0.6
		C262.7,133.7,262.6,134.1,262.6,134.5z"/>
</g>
<g>
	
		<linearGradient id="SVGID_1_" gradientUnits="userSpaceOnUse" x1="38.2411" y1="-38.9342" x2="31.5971" y2="186.9604" gradientTransform="matrix(1 0 0 -1 0 142)">
		<stop  offset="0" style="stop-color:#00A597"/>
		<stop  offset="1" style="stop-color:#FFFFFF"/>
	</linearGradient>
	<rect x="23.4" y="89.2" class="st2" width="25.3" height="38.1"/>
	
		<linearGradient id="SVGID_00000032641664087043828320000006602063100770243511_" gradientUnits="userSpaceOnUse" x1="140.0831" y1="-34.9354" x2="133.4391" y2="190.959" gradientTransform="matrix(1 0 0 -1 0 142)">
		<stop  offset="0" style="stop-color:#00A597"/>
		<stop  offset="1" style="stop-color:#FFFFFF"/>
	</linearGradient>
	
		<rect x="124.1" y="2.9" style="fill:url(#SVGID_00000032641664087043828320000006602063100770243511_);" width="25.3" height="124.4"/>
	
		<linearGradient id="SVGID_00000025444531929099591640000009908997597347402116_" gradientUnits="userSpaceOnUse" x1="88.8828" y1="-36.4413" x2="82.2387" y2="189.4537" gradientTransform="matrix(1 0 0 -1 0 142)">
		<stop  offset="0" style="stop-color:#00A597"/>
		<stop  offset="1" style="stop-color:#FFFFFF"/>
	</linearGradient>
	
		<rect x="73.4" y="41" style="fill:url(#SVGID_00000025444531929099591640000009908997597347402116_);" width="25.3" height="86.3"/>
	
		<linearGradient id="SVGID_00000147184197714547186620000014723454896997802120_" gradientUnits="userSpaceOnUse" x1="60.7742" y1="4.6405" x2="60.7742" y2="131.0947" gradientTransform="matrix(1 0 0 -1 0 142)">
		<stop  offset="0" style="stop-color:#61C3A6"/>
		<stop  offset="1" style="stop-color:#FFFFFF"/>
	</linearGradient>
	
		<rect x="48.1" y="67.1" style="fill:url(#SVGID_00000147184197714547186620000014723454896997802120_);" width="25.3" height="60.2"/>
	
		<linearGradient id="SVGID_00000038402140252299932020000011152933153808249478_" gradientUnits="userSpaceOnUse" x1="111.4579" y1="4.6405" x2="111.4579" y2="131.0946" gradientTransform="matrix(1 0 0 -1 0 142)">
		<stop  offset="0" style="stop-color:#61C3A6"/>
		<stop  offset="1" style="stop-color:#FFFFFF"/>
	</linearGradient>
	
		<rect x="98.8" y="93.2" style="fill:url(#SVGID_00000038402140252299932020000011152933153808249478_);" width="25.3" height="34.1"/>
	
		<linearGradient id="SVGID_00000039830182202053633620000007408355080538806719_" gradientUnits="userSpaceOnUse" x1="162.1297" y1="4.6405" x2="162.1297" y2="131.1064" gradientTransform="matrix(1 0 0 -1 0 142)">
		<stop  offset="0" style="stop-color:#61C3A6"/>
		<stop  offset="1" style="stop-color:#FFFFFF"/>
	</linearGradient>
	
		<rect x="149.5" y="109.3" style="fill:url(#SVGID_00000039830182202053633620000007408355080538806719_);" width="25.3" height="18.1"/>
	
		<linearGradient id="SVGID_00000090974409332120059170000005889158206686737838_" gradientUnits="userSpaceOnUse" x1="188.8198" y1="-34.5054" x2="182.1758" y2="191.3891" gradientTransform="matrix(1 0 0 -1 0 142)">
		<stop  offset="0" style="stop-color:#00A597"/>
		<stop  offset="1" style="stop-color:#FFFFFF"/>
	</linearGradient>
	
		<rect x="174.1" y="89.2" style="fill:url(#SVGID_00000090974409332120059170000005889158206686737838_);" width="25.3" height="38.1"/>
	
		<linearGradient id="SVGID_00000077301886993445472530000000888239808559856575_" gradientUnits="userSpaceOnUse" x1="239.4615" y1="-32.0125" x2="232.8175" y2="193.8826" gradientTransform="matrix(1 0 0 -1 0 142)">
		<stop  offset="0" style="stop-color:#00A597"/>
		<stop  offset="1" style="stop-color:#FFFFFF"/>
	</linearGradient>
	
		<rect x="224.2" y="41" style="fill:url(#SVGID_00000077301886993445472530000000888239808559856575_);" width="25.3" height="86.3"/>
	
		<linearGradient id="SVGID_00000181791938189583724050000008973314819389211808_" gradientUnits="userSpaceOnUse" x1="211.4831" y1="4.6405" x2="211.4831" y2="131.0947" gradientTransform="matrix(1 0 0 -1 0 142)">
		<stop  offset="0" style="stop-color:#61C3A6"/>
		<stop  offset="1" style="stop-color:#FFFFFF"/>
	</linearGradient>
	
		<rect x="198.8" y="67.1" style="fill:url(#SVGID_00000181791938189583724050000008973314819389211808_);" width="25.3" height="60.2"/>
	
		<linearGradient id="SVGID_00000118394600615051032950000009639990610398363019_" gradientUnits="userSpaceOnUse" x1="262.1668" y1="4.6405" x2="262.1668" y2="131.0946" gradientTransform="matrix(1 0 0 -1 0 142)">
		<stop  offset="0" style="stop-color:#61C3A6"/>
		<stop  offset="1" style="stop-color:#FFFFFF"/>
	</linearGradient>
	
		<rect x="249.5" y="93.2" style="fill:url(#SVGID_00000118394600615051032950000009639990610398363019_);" width="25.3" height="34.1"/>
</g>
</svg>
