<?xml version="1.0" encoding="utf-8"?>
<!-- Generator: Adobe Illustrator 27.0.0, SVG Export Plug-In . SVG Version: 6.00 Build 0)  -->
<svg version="1.1" id="Layer_1" xmlns="http://www.w3.org/2000/svg" xmlns:xlink="http://www.w3.org/1999/xlink" x="0px" y="0px"
	 viewBox="0 0 310 140" style="enable-background:new 0 0 310 140;" xml:space="preserve">
<style type="text/css">
	.st0{opacity:0.42;fill:none;stroke:#A9A8A9;stroke-width:0.9695;stroke-miterlimit:10;enable-background:new    ;}
	.st1{fill:url(#SVGID_1_);}
	.st2{fill:url(#SVGID_00000029041949282481929580000008554093602412317314_);}
	.st3{fill:url(#SVGID_00000030486053965667788770000007162923745860304031_);}
	.st4{fill:url(#SVGID_00000177460213338381418420000016396300037480267945_);}
	.st5{fill:url(#SVGID_00000086679797551240646410000014437243848077239486_);}
	.st6{fill:url(#SVGID_00000044869718335387049190000005215648380172223130_);}
	.st7{fill:url(#SVGID_00000132073178479217343700000006995136699300397206_);}
	.st8{fill:url(#SVGID_00000161617076045614558480000011122069931311123586_);}
	.st9{fill:url(#SVGID_00000047759371272645693140000009336015252418431159_);}
	.st10{fill:url(#SVGID_00000060020208092803950250000016348445286838936194_);}
	.st11{fill:url(#SVGID_00000176025985126948306930000000283131584273640882_);}
	.st12{fill:url(#SVGID_00000054963668847133873530000016408129098549678527_);}
	.st13{fill:url(#SVGID_00000080903411136102638770000003543349743302038463_);}
	.st14{fill:url(#SVGID_00000149383341274479190620000006059859374446251399_);}
	.st15{fill:url(#SVGID_00000160894846296539735450000016775907087583194507_);}
	.st16{fill:url(#SVGID_00000062183181318768143020000006468786855625089666_);}
	.st17{fill:url(#SVGID_00000017476265507476569230000002488686935829963403_);}
	.st18{fill:url(#SVGID_00000042720337785750562370000006097411955808204191_);}
	.st19{fill:url(#SVGID_00000157293508110716619200000004638920055009821873_);}
	.st20{fill:url(#SVGID_00000003825899896094544280000014590792523997256882_);}
	.st21{fill:url(#SVGID_00000043458159200004489290000017765176020134204844_);}
	.st22{fill:url(#SVGID_00000103258832166089866840000006295534166877029797_);}
	.st23{fill:url(#SVGID_00000166665774852209367700000002514759932167544965_);}
	.st24{fill:url(#SVGID_00000092435592879209989620000004457724980628104100_);}
	.st25{fill:url(#SVGID_00000137813529540268808760000007678315813264810385_);}
	.st26{fill:url(#SVGID_00000049907429546642341440000006576421251981312172_);}
	.st27{fill:url(#SVGID_00000107550874349380311210000007623820601285963419_);}
	.st28{fill:url(#SVGID_00000037673093014965004720000017151732780778097810_);}
	.st29{fill:url(#SVGID_00000107559811794580844480000002715843824142766241_);}
	.st30{fill:url(#SVGID_00000031201717125699740440000017026805459512632979_);}
	.st31{fill:url(#SVGID_00000028292148190402403750000009658490597682255294_);}
	.st32{fill:url(#SVGID_00000152240426389613282000000015003423424492571542_);}
	.st33{fill:url(#SVGID_00000116944527530367289370000005672489443016906149_);}
	.st34{fill:url(#SVGID_00000031165057127718983190000003368272102659734165_);}
	.st35{fill:url(#SVGID_00000005977245886712972260000010104797678273835907_);}
	.st36{fill:url(#SVGID_00000142880713076700885880000013526265898819279025_);}
	.st37{fill:url(#SVGID_00000087374098748832724250000002458353422419427714_);}
	.st38{fill:url(#SVGID_00000044867719493511357170000008445917482241615524_);}
	.st39{fill:url(#SVGID_00000031198011175633090630000010235787868963119785_);}
	.st40{fill:url(#SVGID_00000183246571401979153120000014591869005624780989_);}
	.st41{fill:url(#SVGID_00000075869245234764259560000010222796681322947984_);}
	.st42{fill:url(#SVGID_00000065785171831573398950000005142054197971805351_);}
	.st43{fill:url(#SVGID_00000125589848084823774920000015410483088529869736_);}
	.st44{fill:url(#SVGID_00000021811045961788136680000012033674682786173100_);}
	.st45{fill:url(#SVGID_00000181790031300225009550000003533257639901695658_);}
	.st46{fill:url(#SVGID_00000011711017648250914350000016398783039971307411_);}
	.st47{fill:url(#SVGID_00000109023893999318317420000003946495708194395817_);}
	.st48{fill:url(#SVGID_00000090991514650975166510000006728937290441735591_);}
	.st49{opacity:0.42;fill:none;stroke:#A9A8A9;stroke-width:0.5767;stroke-miterlimit:10;enable-background:new    ;}
</style>
<g>
	<g>
		<line class="st0" x1="14.1" y1="48.2" x2="308" y2="48.2"/>
		<line class="st0" x1="14.1" y1="65" x2="308" y2="65"/>
		<line class="st0" x1="14.1" y1="81.8" x2="308" y2="81.8"/>
		<line class="st0" x1="14.1" y1="98.6" x2="308" y2="98.6"/>
		<line class="st0" x1="14.1" y1="115.5" x2="308" y2="115.5"/>
		<line class="st0" x1="14.1" y1="132.3" x2="308" y2="132.3"/>
	</g>
</g>
<g>
	
		<linearGradient id="SVGID_1_" gradientUnits="userSpaceOnUse" x1="19.8454" y1="1.664" x2="27.5039" y2="190.7735" gradientTransform="matrix(1 0 0 -1 0 142)">
		<stop  offset="0" style="stop-color:#7DCBB4"/>
		<stop  offset="1" style="stop-color:#FFFFFF"/>
	</linearGradient>
	<rect x="19.2" y="38.7" class="st1" width="5.8" height="93"/>
	
		<linearGradient id="SVGID_00000014614324493874785330000003074424744760800191_" gradientUnits="userSpaceOnUse" x1="31.2985" y1="1.051" x2="38.9545" y2="190.0973" gradientTransform="matrix(1 0 0 -1 0 142)">
		<stop  offset="0" style="stop-color:#7DCBB4"/>
		<stop  offset="1" style="stop-color:#FFFFFF"/>
	</linearGradient>
	<rect x="30" y="70.1" style="fill:url(#SVGID_00000014614324493874785330000003074424744760800191_);" width="5.8" height="61.6"/>
	
		<linearGradient id="SVGID_00000170239318260871744680000018282072857122369953_" gradientUnits="userSpaceOnUse" x1="16.7069" y1="80.196" x2="12.4451" y2="145.1887" gradientTransform="matrix(1 0 0 -1 0 142)">
		<stop  offset="0" style="stop-color:#00A597"/>
		<stop  offset="1" style="stop-color:#FFFFFF"/>
	</linearGradient>
	
		<rect x="14.1" y="1.1" style="fill:url(#SVGID_00000170239318260871744680000018282072857122369953_);" width="5.8" height="130.6"/>
	
		<linearGradient id="SVGID_00000183223269510643956140000014904102881781859228_" gradientUnits="userSpaceOnUse" x1="27.0211" y1="81.112" x2="22.7597" y2="146.0985" gradientTransform="matrix(1 0 0 -1 0 142)">
		<stop  offset="0" style="stop-color:#00A597"/>
		<stop  offset="1" style="stop-color:#FFFFFF"/>
	</linearGradient>
	
		<rect x="25" y="15.8" style="fill:url(#SVGID_00000183223269510643956140000014904102881781859228_);" width="5.8" height="115.9"/>
</g>
<g>
	
		<linearGradient id="SVGID_00000151502454202360163180000010200551995919001508_" gradientUnits="userSpaceOnUse" x1="77.5162" y1="-1.2613" x2="85.1763" y2="187.8841" gradientTransform="matrix(1 0 0 -1 0 142)">
		<stop  offset="0" style="stop-color:#7DCBB4"/>
		<stop  offset="1" style="stop-color:#FFFFFF"/>
	</linearGradient>
	<polygon style="fill:url(#SVGID_00000151502454202360163180000010200551995919001508_);" points="77.7,131.7 83.5,131.7 83.5,1.1 
		77.7,1.1 	"/>
	
		<linearGradient id="SVGID_00000057863333692784498480000010111158570999333542_" gradientUnits="userSpaceOnUse" x1="66.9822" y1="-0.6817" x2="74.6417" y2="188.4529" gradientTransform="matrix(1 0 0 -1 0 142)">
		<stop  offset="0" style="stop-color:#7DCBB4"/>
		<stop  offset="1" style="stop-color:#FFFFFF"/>
	</linearGradient>
	<polygon style="fill:url(#SVGID_00000057863333692784498480000010111158570999333542_);" points="66.9,131.7 72.7,131.7 72.7,15.8 
		66.9,15.8 	"/>
	
		<linearGradient id="SVGID_00000111891633111639457540000006073980423584911003_" gradientUnits="userSpaceOnUse" x1="73.7188" y1="84.8624" x2="69.4583" y2="149.835" gradientTransform="matrix(1 0 0 -1 0 142)">
		<stop  offset="0" style="stop-color:#00A597"/>
		<stop  offset="1" style="stop-color:#FFFFFF"/>
	</linearGradient>
	<polygon style="fill:url(#SVGID_00000111891633111639457540000006073980423584911003_);" points="72.7,131.7 78.5,131.7 78.5,38.7 
		72.7,38.7 	"/>
	
		<linearGradient id="SVGID_00000022554736319847382210000009241984172506082229_" gradientUnits="userSpaceOnUse" x1="61.192" y1="83.802" x2="56.9339" y2="148.7395" gradientTransform="matrix(1 0 0 -1 0 142)">
		<stop  offset="0" style="stop-color:#00A597"/>
		<stop  offset="1" style="stop-color:#FFFFFF"/>
	</linearGradient>
	<polygon style="fill:url(#SVGID_00000022554736319847382210000009241984172506082229_);" points="61.1,131.7 66.9,131.7 66.9,70.1 
		61.1,70.1 	"/>
</g>
<g>
	
		<linearGradient id="SVGID_00000089573918829021684310000005394549986830771891_" gradientUnits="userSpaceOnUse" x1="44.1716" y1="0.4446" x2="51.8203" y2="189.311" gradientTransform="matrix(1 0 0 -1 0 142)">
		<stop  offset="0" style="stop-color:#7DCBB4"/>
		<stop  offset="1" style="stop-color:#FFFFFF"/>
	</linearGradient>
	
		<rect x="42.3" y="100.3" style="fill:url(#SVGID_00000089573918829021684310000005394549986830771891_);" width="5.8" height="31.3"/>
	
		<linearGradient id="SVGID_00000112610407186704841930000011315880509556321441_" gradientUnits="userSpaceOnUse" x1="54.8086" y1="-0.1203" x2="62.4659" y2="188.9619" gradientTransform="matrix(1 0 0 -1 0 142)">
		<stop  offset="0" style="stop-color:#7DCBB4"/>
		<stop  offset="1" style="stop-color:#FFFFFF"/>
	</linearGradient>
	<polygon style="fill:url(#SVGID_00000112610407186704841930000011315880509556321441_);" points="53.9,131.7 59.7,131.7 59.7,55.4 
		53.9,55.4 	"/>
	
		<linearGradient id="SVGID_00000168100354306291945290000014927537873253635978_" gradientUnits="userSpaceOnUse" x1="37.9393" y1="81.949" x2="33.6798" y2="146.9066" gradientTransform="matrix(1 0 0 -1 0 142)">
		<stop  offset="0" style="stop-color:#00A597"/>
		<stop  offset="1" style="stop-color:#FFFFFF"/>
	</linearGradient>
	
		<rect x="37.2" y="55.4" style="fill:url(#SVGID_00000168100354306291945290000014927537873253635978_);" width="5.8" height="76.2"/>
	
		<linearGradient id="SVGID_00000011028626260938486940000018228009319527589508_" gradientUnits="userSpaceOnUse" x1="47.7457" y1="82.7758" x2="43.4898" y2="147.6781" gradientTransform="matrix(1 0 0 -1 0 142)">
		<stop  offset="0" style="stop-color:#00A597"/>
		<stop  offset="1" style="stop-color:#FFFFFF"/>
	</linearGradient>
	<polygon style="fill:url(#SVGID_00000011028626260938486940000018228009319527589508_);" points="48.1,131.7 53.9,131.7 53.9,85.7 
		48.1,85.7 	"/>
</g>
<g>
	
		<linearGradient id="SVGID_00000168805930061665744170000008623043088022331557_" gradientUnits="userSpaceOnUse" x1="91.0991" y1="-1.8807" x2="98.7576" y2="187.2289" gradientTransform="matrix(1 0 0 -1 0 142)">
		<stop  offset="0" style="stop-color:#7DCBB4"/>
		<stop  offset="1" style="stop-color:#FFFFFF"/>
	</linearGradient>
	<rect x="90.6" y="38.7" style="fill:url(#SVGID_00000168805930061665744170000008623043088022331557_);" width="5.8" height="93"/>
	
		<linearGradient id="SVGID_00000122713483376463541320000002779627722757344447_" gradientUnits="userSpaceOnUse" x1="102.7056" y1="-2.4927" x2="110.3616" y2="186.5536" gradientTransform="matrix(1 0 0 -1 0 142)">
		<stop  offset="0" style="stop-color:#7DCBB4"/>
		<stop  offset="1" style="stop-color:#FFFFFF"/>
	</linearGradient>
	
		<rect x="101.6" y="70.1" style="fill:url(#SVGID_00000122713483376463541320000002779627722757344447_);" width="5.8" height="61.6"/>
	
		<linearGradient id="SVGID_00000080920238959146436480000003029055811649794436_" gradientUnits="userSpaceOnUse" x1="87.1566" y1="85.9197" x2="82.8948" y2="150.9124" gradientTransform="matrix(1 0 0 -1 0 142)">
		<stop  offset="0" style="stop-color:#00A597"/>
		<stop  offset="1" style="stop-color:#FFFFFF"/>
	</linearGradient>
	
		<rect x="84.9" y="1.1" style="fill:url(#SVGID_00000080920238959146436480000003029055811649794436_);" width="5.8" height="130.6"/>
	
		<linearGradient id="SVGID_00000038395049594483397290000014275379029189265839_" gradientUnits="userSpaceOnUse" x1="98.0431" y1="86.8351" x2="93.7818" y2="151.8216" gradientTransform="matrix(1 0 0 -1 0 142)">
		<stop  offset="0" style="stop-color:#00A597"/>
		<stop  offset="1" style="stop-color:#FFFFFF"/>
	</linearGradient>
	
		<rect x="96.4" y="15.8" style="fill:url(#SVGID_00000038395049594483397290000014275379029189265839_);" width="5.8" height="115.9"/>
</g>
<g>
	
		<linearGradient id="SVGID_00000099640044156765084500000004863039582133927578_" gradientUnits="userSpaceOnUse" x1="115.8753" y1="-3.0955" x2="123.524" y2="185.7711" gradientTransform="matrix(1 0 0 -1 0 142)">
		<stop  offset="0" style="stop-color:#7DCBB4"/>
		<stop  offset="1" style="stop-color:#FFFFFF"/>
	</linearGradient>
	
		<rect x="114.2" y="100.3" style="fill:url(#SVGID_00000099640044156765084500000004863039582133927578_);" width="5.8" height="31.3"/>
	
		<linearGradient id="SVGID_00000054961498745703130100000011996109889501897142_" gradientUnits="userSpaceOnUse" x1="122.5356" y1="80.196" x2="118.2738" y2="145.1888" gradientTransform="matrix(1 0 0 -1 0 142)">
		<stop  offset="0" style="stop-color:#00A597"/>
		<stop  offset="1" style="stop-color:#FFFFFF"/>
	</linearGradient>
	
		<rect x="119.9" y="1.1" style="fill:url(#SVGID_00000054961498745703130100000011996109889501897142_);" width="5.8" height="130.6"/>
	
		<linearGradient id="SVGID_00000057116701344708004420000008287955071614731954_" gradientUnits="userSpaceOnUse" x1="109.1149" y1="87.6699" x2="104.8554" y2="152.6276" gradientTransform="matrix(1 0 0 -1 0 142)">
		<stop  offset="0" style="stop-color:#00A597"/>
		<stop  offset="1" style="stop-color:#FFFFFF"/>
	</linearGradient>
	
		<rect x="108.8" y="55.4" style="fill:url(#SVGID_00000057116701344708004420000008287955071614731954_);" width="5.8" height="76.2"/>
	
		<linearGradient id="SVGID_00000150812319170016158400000006557336754231503539_" gradientUnits="userSpaceOnUse" x1="126.3894" y1="1.6643" x2="134.048" y2="190.7737" gradientTransform="matrix(1 0 0 -1 0 142)">
		<stop  offset="0" style="stop-color:#7DCBB4"/>
		<stop  offset="1" style="stop-color:#FFFFFF"/>
	</linearGradient>
	
		<rect x="125.7" y="38.7" style="fill:url(#SVGID_00000150812319170016158400000006557336754231503539_);" width="5.8" height="93"/>
</g>
<g>
	
		<linearGradient id="SVGID_00000091015718833418943790000004467643184958568116_" gradientUnits="userSpaceOnUse" x1="134.996" y1="81.112" x2="130.7346" y2="146.0986" gradientTransform="matrix(1 0 0 -1 0 142)">
		<stop  offset="0" style="stop-color:#00A597"/>
		<stop  offset="1" style="stop-color:#FFFFFF"/>
	</linearGradient>
	
		<rect x="132.9" y="15.8" style="fill:url(#SVGID_00000091015718833418943790000004467643184958568116_);" width="5.8" height="115.9"/>
	
		<linearGradient id="SVGID_00000091714381997136671760000015960857656659442315_" gradientUnits="userSpaceOnUse" x1="145.2091" y1="81.9489" x2="140.9495" y2="146.9066" gradientTransform="matrix(1 0 0 -1 0 142)">
		<stop  offset="0" style="stop-color:#00A597"/>
		<stop  offset="1" style="stop-color:#FFFFFF"/>
	</linearGradient>
	
		<rect x="144.5" y="55.4" style="fill:url(#SVGID_00000091714381997136671760000015960857656659442315_);" width="5.8" height="76.2"/>
	
		<linearGradient id="SVGID_00000031165362426163359170000015206453563583567774_" gradientUnits="userSpaceOnUse" x1="139.999" y1="1.0507" x2="147.6551" y2="190.097" gradientTransform="matrix(1 0 0 -1 0 142)">
		<stop  offset="0" style="stop-color:#7DCBB4"/>
		<stop  offset="1" style="stop-color:#FFFFFF"/>
	</linearGradient>
	
		<rect x="138.7" y="70.1" style="fill:url(#SVGID_00000031165362426163359170000015206453563583567774_);" width="5.8" height="61.6"/>
	
		<linearGradient id="SVGID_00000165940889659269662590000000918448472323610557_" gradientUnits="userSpaceOnUse" x1="152.1568" y1="0.4449" x2="159.8055" y2="189.3113" gradientTransform="matrix(1 0 0 -1 0 142)">
		<stop  offset="0" style="stop-color:#7DCBB4"/>
		<stop  offset="1" style="stop-color:#FFFFFF"/>
	</linearGradient>
	
		<rect x="150.3" y="100.3" style="fill:url(#SVGID_00000165940889659269662590000000918448472323610557_);" width="5.8" height="31.3"/>
</g>
<g>
	
		<linearGradient id="SVGID_00000094598463585342034880000013114818685804482717_" gradientUnits="userSpaceOnUse" x1="169.1771" y1="83.8015" x2="164.9189" y2="148.739" gradientTransform="matrix(1 0 0 -1 0 142)">
		<stop  offset="0" style="stop-color:#00A597"/>
		<stop  offset="1" style="stop-color:#FFFFFF"/>
	</linearGradient>
	<polygon style="fill:url(#SVGID_00000094598463585342034880000013114818685804482717_);" points="169.1,131.7 174.9,131.7 
		174.9,70.1 169.1,70.1 	"/>
	
		<linearGradient id="SVGID_00000135661144677382179680000006401198184244899255_" gradientUnits="userSpaceOnUse" x1="157.1616" y1="82.7758" x2="152.9057" y2="147.678" gradientTransform="matrix(1 0 0 -1 0 142)">
		<stop  offset="0" style="stop-color:#00A597"/>
		<stop  offset="1" style="stop-color:#FFFFFF"/>
	</linearGradient>
	<polygon style="fill:url(#SVGID_00000135661144677382179680000006401198184244899255_);" points="157.5,131.7 163.3,131.7 
		163.3,85.7 157.5,85.7 	"/>
	
		<linearGradient id="SVGID_00000147179873459262366120000017783370311934102188_" gradientUnits="userSpaceOnUse" x1="174.9724" y1="-0.6817" x2="182.632" y2="188.453" gradientTransform="matrix(1 0 0 -1 0 142)">
		<stop  offset="0" style="stop-color:#7DCBB4"/>
		<stop  offset="1" style="stop-color:#FFFFFF"/>
	</linearGradient>
	<polygon style="fill:url(#SVGID_00000147179873459262366120000017783370311934102188_);" points="174.9,131.7 180.7,131.7 
		180.7,15.8 174.9,15.8 	"/>
	
		<linearGradient id="SVGID_00000049900669155071141700000002103109397501767067_" gradientUnits="userSpaceOnUse" x1="164.2245" y1="-0.1203" x2="171.8819" y2="188.962" gradientTransform="matrix(1 0 0 -1 0 142)">
		<stop  offset="0" style="stop-color:#7DCBB4"/>
		<stop  offset="1" style="stop-color:#FFFFFF"/>
	</linearGradient>
	<polygon style="fill:url(#SVGID_00000049900669155071141700000002103109397501767067_);" points="163.3,131.7 169.1,131.7 
		169.1,55.4 163.3,55.4 	"/>
</g>
<g>
	
		<linearGradient id="SVGID_00000124154533983009261260000012053217559024786593_" gradientUnits="userSpaceOnUse" x1="242.6847" y1="81.1119" x2="238.4233" y2="146.0985" gradientTransform="matrix(1 0 0 -1 0 142)">
		<stop  offset="0" style="stop-color:#00A597"/>
		<stop  offset="1" style="stop-color:#FFFFFF"/>
	</linearGradient>
	
		<rect x="240.6" y="15.8" style="fill:url(#SVGID_00000124154533983009261260000012053217559024786593_);" width="5.8" height="115.9"/>
	
		<linearGradient id="SVGID_00000134223053675459975680000006409533911587582391_" gradientUnits="userSpaceOnUse" x1="231.9952" y1="85.9197" x2="227.7335" y2="150.9124" gradientTransform="matrix(1 0 0 -1 0 142)">
		<stop  offset="0" style="stop-color:#00A597"/>
		<stop  offset="1" style="stop-color:#FFFFFF"/>
	</linearGradient>
	
		<rect x="229.8" y="1.1" style="fill:url(#SVGID_00000134223053675459975680000006409533911587582391_);" width="5.8" height="130.6"/>
	
		<linearGradient id="SVGID_00000147218237179150580250000000048232407948991626_" gradientUnits="userSpaceOnUse" x1="236.2244" y1="1.6643" x2="243.8829" y2="190.7738" gradientTransform="matrix(1 0 0 -1 0 142)">
		<stop  offset="0" style="stop-color:#7DCBB4"/>
		<stop  offset="1" style="stop-color:#FFFFFF"/>
	</linearGradient>
	
		<rect x="235.6" y="38.7" style="fill:url(#SVGID_00000147218237179150580250000000048232407948991626_);" width="5.8" height="93"/>
	
		<linearGradient id="SVGID_00000117651898958182172750000002792525122503729305_" gradientUnits="userSpaceOnUse" x1="247.6878" y1="1.0508" x2="255.3437" y2="190.0971" gradientTransform="matrix(1 0 0 -1 0 142)">
		<stop  offset="0" style="stop-color:#7DCBB4"/>
		<stop  offset="1" style="stop-color:#FFFFFF"/>
	</linearGradient>
	
		<rect x="246.4" y="70.1" style="fill:url(#SVGID_00000117651898958182172750000002792525122503729305_);" width="5.8" height="61.6"/>
</g>
<g>
	
		<linearGradient id="SVGID_00000039119458934065469800000003658085904465099439_" gradientUnits="userSpaceOnUse" x1="290.8235" y1="84.8622" x2="286.563" y2="149.8349" gradientTransform="matrix(1 0 0 -1 0 142)">
		<stop  offset="0" style="stop-color:#00A597"/>
		<stop  offset="1" style="stop-color:#FFFFFF"/>
	</linearGradient>
	<polygon style="fill:url(#SVGID_00000039119458934065469800000003658085904465099439_);" points="289.8,131.7 295.6,131.7 
		295.6,38.7 289.8,38.7 	"/>
	
		<linearGradient id="SVGID_00000067920719249416024280000014486667703366396081_" gradientUnits="userSpaceOnUse" x1="278.2966" y1="83.8018" x2="274.0384" y2="148.7393" gradientTransform="matrix(1 0 0 -1 0 142)">
		<stop  offset="0" style="stop-color:#00A597"/>
		<stop  offset="1" style="stop-color:#FFFFFF"/>
	</linearGradient>
	<polygon style="fill:url(#SVGID_00000067920719249416024280000014486667703366396081_);" points="278.2,131.7 284,131.7 284,70.1 
		278.2,70.1 	"/>
	
		<linearGradient id="SVGID_00000149375427001967554360000009770491896726804358_" gradientUnits="userSpaceOnUse" x1="295.3414" y1="-1.2612" x2="303.0014" y2="187.8842" gradientTransform="matrix(1 0 0 -1 0 142)">
		<stop  offset="0" style="stop-color:#7DCBB4"/>
		<stop  offset="1" style="stop-color:#FFFFFF"/>
	</linearGradient>
	<polygon style="fill:url(#SVGID_00000149375427001967554360000009770491896726804358_);" points="295.6,131.7 301.4,131.7 
		301.4,1.1 295.6,1.1 	"/>
	
		<linearGradient id="SVGID_00000052813037178667508510000003355262618992571283_" gradientUnits="userSpaceOnUse" x1="284.0868" y1="-0.6816" x2="291.7464" y2="188.453" gradientTransform="matrix(1 0 0 -1 0 142)">
		<stop  offset="0" style="stop-color:#7DCBB4"/>
		<stop  offset="1" style="stop-color:#FFFFFF"/>
	</linearGradient>
	<polygon style="fill:url(#SVGID_00000052813037178667508510000003355262618992571283_);" points="284,131.7 289.8,131.7 
		289.8,15.8 284,15.8 	"/>
</g>
<g>
	
		<linearGradient id="SVGID_00000104686331660353047260000006337638754250530995_" gradientUnits="userSpaceOnUse" x1="254.3286" y1="81.9492" x2="250.0691" y2="146.9069" gradientTransform="matrix(1 0 0 -1 0 142)">
		<stop  offset="0" style="stop-color:#00A597"/>
		<stop  offset="1" style="stop-color:#FFFFFF"/>
	</linearGradient>
	
		<rect x="253.6" y="55.4" style="fill:url(#SVGID_00000104686331660353047260000006337638754250530995_);" width="5.8" height="76.2"/>
	
		<linearGradient id="SVGID_00000031927892193351263650000004255806734575684768_" gradientUnits="userSpaceOnUse" x1="264.8503" y1="82.7757" x2="260.5945" y2="147.6779" gradientTransform="matrix(1 0 0 -1 0 142)">
		<stop  offset="0" style="stop-color:#00A597"/>
		<stop  offset="1" style="stop-color:#FFFFFF"/>
	</linearGradient>
	<polygon style="fill:url(#SVGID_00000031927892193351263650000004255806734575684768_);" points="265.2,131.7 271,131.7 271,85.7 
		265.2,85.7 	"/>
	
		<linearGradient id="SVGID_00000037685878839799223540000016586804241827362718_" gradientUnits="userSpaceOnUse" x1="261.2763" y1="0.4447" x2="268.925" y2="189.3111" gradientTransform="matrix(1 0 0 -1 0 142)">
		<stop  offset="0" style="stop-color:#7DCBB4"/>
		<stop  offset="1" style="stop-color:#FFFFFF"/>
	</linearGradient>
	
		<rect x="259.4" y="100.3" style="fill:url(#SVGID_00000037685878839799223540000016586804241827362718_);" width="5.8" height="31.3"/>
	
		<linearGradient id="SVGID_00000177455242383622226190000009111176205890589870_" gradientUnits="userSpaceOnUse" x1="271.9132" y1="-0.1202" x2="279.5707" y2="188.9621" gradientTransform="matrix(1 0 0 -1 0 142)">
		<stop  offset="0" style="stop-color:#7DCBB4"/>
		<stop  offset="1" style="stop-color:#FFFFFF"/>
	</linearGradient>
	<polygon style="fill:url(#SVGID_00000177455242383622226190000009111176205890589870_);" points="271,131.7 276.8,131.7 
		276.8,55.4 271,55.4 	"/>
</g>
<g>
	
		<linearGradient id="SVGID_00000071558867744170634590000007784671346043594156_" gradientUnits="userSpaceOnUse" x1="183.1348" y1="84.8623" x2="178.8744" y2="149.835" gradientTransform="matrix(1 0 0 -1 0 142)">
		<stop  offset="0" style="stop-color:#00A597"/>
		<stop  offset="1" style="stop-color:#FFFFFF"/>
	</linearGradient>
	<polygon style="fill:url(#SVGID_00000071558867744170634590000007784671346043594156_);" points="182.1,131.7 187.9,131.7 
		187.9,38.7 182.1,38.7 	"/>
	
		<linearGradient id="SVGID_00000144304357399365681970000005036642111449579152_" gradientUnits="userSpaceOnUse" x1="195.1519" y1="85.9199" x2="190.8902" y2="150.9126" gradientTransform="matrix(1 0 0 -1 0 142)">
		<stop  offset="0" style="stop-color:#00A597"/>
		<stop  offset="1" style="stop-color:#FFFFFF"/>
	</linearGradient>
	
		<rect x="192.9" y="1.1" style="fill:url(#SVGID_00000144304357399365681970000005036642111449579152_);" width="5.8" height="130.6"/>
	
		<linearGradient id="SVGID_00000058568492633264940000000005917333807455263630_" gradientUnits="userSpaceOnUse" x1="187.6476" y1="-1.261" x2="195.3076" y2="187.8843" gradientTransform="matrix(1 0 0 -1 0 142)">
		<stop  offset="0" style="stop-color:#7DCBB4"/>
		<stop  offset="1" style="stop-color:#FFFFFF"/>
	</linearGradient>
	<polygon style="fill:url(#SVGID_00000058568492633264940000000005917333807455263630_);" points="187.9,131.7 193.7,131.7 
		193.7,1.1 187.9,1.1 	"/>
	
		<linearGradient id="SVGID_00000062170914464451549370000012176084968791955895_" gradientUnits="userSpaceOnUse" x1="199.2375" y1="-1.8805" x2="206.8961" y2="187.229" gradientTransform="matrix(1 0 0 -1 0 142)">
		<stop  offset="0" style="stop-color:#7DCBB4"/>
		<stop  offset="1" style="stop-color:#FFFFFF"/>
	</linearGradient>
	
		<rect x="198.7" y="38.7" style="fill:url(#SVGID_00000062170914464451549370000012176084968791955895_);" width="5.8" height="93"/>
</g>
<g>
	
		<linearGradient id="SVGID_00000114764057964349711290000006139557501329623683_" gradientUnits="userSpaceOnUse" x1="207.6123" y1="86.8353" x2="203.3508" y2="151.8219" gradientTransform="matrix(1 0 0 -1 0 142)">
		<stop  offset="0" style="stop-color:#00A597"/>
		<stop  offset="1" style="stop-color:#FFFFFF"/>
	</linearGradient>
	
		<rect x="205.9" y="15.8" style="fill:url(#SVGID_00000114764057964349711290000006139557501329623683_);" width="5.8" height="115.9"/>
	
		<linearGradient id="SVGID_00000038403630526001484900000015055406103577333179_" gradientUnits="userSpaceOnUse" x1="217.1" y1="87.6694" x2="212.8404" y2="152.6271" gradientTransform="matrix(1 0 0 -1 0 142)">
		<stop  offset="0" style="stop-color:#00A597"/>
		<stop  offset="1" style="stop-color:#FFFFFF"/>
	</linearGradient>
	
		<rect x="216.8" y="55.4" style="fill:url(#SVGID_00000038403630526001484900000015055406103577333179_);" width="5.8" height="76.2"/>
	
		<linearGradient id="SVGID_00000072262723686283265510000008217093517426725287_" gradientUnits="userSpaceOnUse" x1="212.8471" y1="-2.4928" x2="220.5032" y2="186.5535" gradientTransform="matrix(1 0 0 -1 0 142)">
		<stop  offset="0" style="stop-color:#7DCBB4"/>
		<stop  offset="1" style="stop-color:#FFFFFF"/>
	</linearGradient>
	
		<rect x="211.7" y="70.1" style="fill:url(#SVGID_00000072262723686283265510000008217093517426725287_);" width="5.8" height="61.6"/>
	
		<linearGradient id="SVGID_00000041254349786007817450000010909206646628294328_" gradientUnits="userSpaceOnUse" x1="224.2896" y1="-3.0956" x2="231.9384" y2="185.771" gradientTransform="matrix(1 0 0 -1 0 142)">
		<stop  offset="0" style="stop-color:#7DCBB4"/>
		<stop  offset="1" style="stop-color:#FFFFFF"/>
	</linearGradient>
	
		<rect x="222.6" y="100.3" style="fill:url(#SVGID_00000041254349786007817450000010909206646628294328_);" width="5.8" height="31.3"/>
</g>
<line class="st49" x1="14.6" y1="28.2" x2="14.6" y2="132.3"/>
<line class="st0" x1="14.7" y1="32.9" x2="308.6" y2="32.9"/>
<g>
	<path d="M25.3,138.8h-0.7V136c0-0.1,0-0.2,0-0.3c0-0.1,0-0.2,0-0.3c0-0.1,0-0.2,0-0.3c0,0-0.1,0.1-0.1,0.1c0,0.1-0.1,0.1-0.2,0.2
		l-0.4,0.4l-0.4-0.4l1.1-1.1h0.6C25.3,134.4,25.3,138.8,25.3,138.8z"/>
</g>
<g>
	<path d="M50.5,138.8h-2.2v-0.5l0.8-1.2c0.2-0.2,0.3-0.5,0.4-0.6s0.2-0.3,0.2-0.5c0-0.1,0.1-0.3,0.1-0.5c0-0.2,0-0.3-0.1-0.4
		c-0.1-0.1-0.2-0.2-0.4-0.2c-0.1,0-0.2,0-0.3,0.1c-0.1,0.1-0.2,0.1-0.3,0.3l-0.3-0.4c0.1-0.1,0.2-0.2,0.3-0.3s0.2-0.1,0.3-0.2
		c0.1,0,0.3-0.1,0.4-0.1c0.2,0,0.4,0.1,0.6,0.1s0.3,0.2,0.4,0.4c0.1,0.2,0.1,0.4,0.1,0.6c0,0.2,0,0.4-0.1,0.6
		c-0.1,0.2-0.1,0.4-0.2,0.6c-0.1,0.2-0.3,0.4-0.4,0.6l-0.7,0.9v0h1.5L50.5,138.8L50.5,138.8z"/>
</g>
<g>
	<path d="M74,135.5c0,0.2,0,0.3-0.1,0.5s-0.1,0.3-0.2,0.4s-0.2,0.2-0.4,0.2v0c0.3,0.1,0.5,0.2,0.6,0.4c0.1,0.2,0.2,0.4,0.2,0.7
		c0,0.3-0.1,0.5-0.2,0.7s-0.2,0.3-0.4,0.4c-0.2,0.1-0.4,0.2-0.7,0.2c-0.2,0-0.3,0-0.5,0c-0.2,0-0.3-0.1-0.4-0.2v-0.6
		c0.1,0.1,0.3,0.1,0.4,0.2c0.2,0,0.3,0.1,0.4,0.1c0.2,0,0.4-0.1,0.5-0.2c0.1-0.1,0.2-0.3,0.2-0.5c0-0.2,0-0.3-0.1-0.4
		s-0.2-0.2-0.3-0.2s-0.3-0.1-0.5-0.1h-0.2v-0.6h0.2c0.2,0,0.3,0,0.4-0.1c0.1-0.1,0.2-0.2,0.3-0.3s0.1-0.2,0.1-0.4
		c0-0.2-0.1-0.3-0.1-0.4s-0.2-0.2-0.4-0.2c-0.1,0-0.2,0-0.2,0s-0.2,0.1-0.2,0.1c-0.1,0-0.2,0.1-0.2,0.2l-0.3-0.5
		c0.2-0.1,0.3-0.2,0.5-0.3c0.2-0.1,0.4-0.1,0.6-0.1c0.3,0,0.6,0.1,0.8,0.3S74,135.1,74,135.5z"/>
</g>
<g>
	<path d="M97.6,137.9h-0.5v0.9h-0.6v-0.9H95v-0.5l1.5-2.9h0.7v2.9h0.5C97.6,137.3,97.6,137.9,97.6,137.9z M96.5,137.3v-1.4
		c0,0,0-0.1,0-0.2c0-0.1,0-0.1,0-0.2c0-0.1,0-0.1,0-0.2c0-0.1,0-0.1,0-0.1h0c0,0.1-0.1,0.2-0.1,0.3c0,0.1-0.1,0.2-0.1,0.2l-0.7,1.5
		L96.5,137.3L96.5,137.3z"/>
</g>
<g>
	<path d="M119.9,136c0.2,0,0.4,0.1,0.6,0.2c0.2,0.1,0.3,0.3,0.4,0.5c0.1,0.2,0.1,0.4,0.1,0.7c0,0.3-0.1,0.6-0.2,0.8
		c-0.1,0.2-0.2,0.4-0.4,0.5s-0.4,0.2-0.7,0.2c-0.2,0-0.3,0-0.5-0.1c-0.1,0-0.3-0.1-0.4-0.1V138c0.1,0.1,0.2,0.1,0.4,0.2
		s0.3,0.1,0.4,0.1c0.2,0,0.3,0,0.4-0.1c0.1-0.1,0.2-0.2,0.2-0.3s0.1-0.3,0.1-0.5c0-0.3-0.1-0.4-0.2-0.6c-0.1-0.1-0.3-0.2-0.5-0.2
		c-0.1,0-0.2,0-0.3,0c-0.1,0-0.2,0-0.3,0.1l-0.2-0.2l0.1-2.1h1.8v0.6h-1.2l-0.1,1.1c0.1,0,0.2,0,0.2,0S119.8,136,119.9,136z"/>
</g>
<g>
	<path d="M143.6,136.9c0-0.3,0-0.6,0.1-0.9c0-0.3,0.1-0.5,0.2-0.7c0.1-0.2,0.2-0.4,0.3-0.5s0.3-0.3,0.4-0.3c0.2-0.1,0.4-0.1,0.6-0.1
		c0.1,0,0.2,0,0.3,0c0.1,0,0.2,0,0.2,0.1v0.6c-0.1,0-0.1,0-0.2,0c-0.1,0-0.2,0-0.2,0c-0.2,0-0.4,0.1-0.5,0.2s-0.2,0.3-0.3,0.5
		c-0.1,0.2-0.1,0.5-0.1,0.9h0c0-0.1,0.1-0.2,0.2-0.3c0.1-0.1,0.1-0.1,0.2-0.2c0.1,0,0.2-0.1,0.3-0.1c0.2,0,0.4,0.1,0.5,0.2
		c0.1,0.1,0.2,0.3,0.3,0.5c0.1,0.2,0.1,0.4,0.1,0.7c0,0.3,0,0.5-0.1,0.8c-0.1,0.2-0.2,0.4-0.4,0.5s-0.4,0.2-0.6,0.2
		c-0.2,0-0.4,0-0.5-0.1c-0.1-0.1-0.3-0.2-0.4-0.4c-0.1-0.2-0.2-0.4-0.2-0.6C143.6,137.5,143.6,137.3,143.6,136.9z M144.8,138.3
		c0.1,0,0.3-0.1,0.3-0.2c0.1-0.1,0.1-0.4,0.1-0.7c0-0.3,0-0.5-0.1-0.6s-0.2-0.2-0.3-0.2c-0.1,0-0.2,0-0.3,0.1
		c-0.1,0.1-0.1,0.2-0.2,0.3c0,0.1-0.1,0.2-0.1,0.3s0,0.2,0,0.4s0.1,0.2,0.1,0.3c0,0.1,0.1,0.2,0.2,0.2
		C144.6,138.2,144.7,138.3,144.8,138.3z"/>
</g>
<g>
	<path d="M168.3,138.8l1.3-3.8H168v-0.6h2.3v0.5l-1.3,3.9L168.3,138.8L168.3,138.8z"/>
</g>
<g>
	<path d="M193.2,134.4c0.2,0,0.4,0,0.6,0.1c0.2,0.1,0.3,0.2,0.4,0.4s0.1,0.3,0.1,0.6c0,0.2,0,0.3-0.1,0.4s-0.1,0.3-0.2,0.4
		c-0.1,0.1-0.2,0.2-0.4,0.3c0.2,0.1,0.3,0.2,0.4,0.3c0.1,0.1,0.2,0.2,0.3,0.4c0.1,0.1,0.1,0.3,0.1,0.4c0,0.2-0.1,0.4-0.1,0.6
		s-0.2,0.3-0.4,0.4s-0.4,0.1-0.6,0.1c-0.3,0-0.5-0.1-0.6-0.1s-0.3-0.2-0.4-0.4c-0.1-0.2-0.1-0.4-0.1-0.6c0-0.2,0-0.3,0.1-0.5
		c0.1-0.1,0.1-0.3,0.2-0.4c0.1-0.1,0.2-0.2,0.4-0.3c-0.1-0.1-0.2-0.2-0.3-0.3s-0.2-0.2-0.2-0.4c0-0.1-0.1-0.3-0.1-0.4
		c0-0.2,0-0.4,0.1-0.6c0.1-0.2,0.2-0.3,0.4-0.4C192.8,134.4,193,134.4,193.2,134.4z M192.7,137.7c0,0.2,0.1,0.3,0.1,0.5
		c0.1,0.1,0.2,0.2,0.4,0.2c0.2,0,0.3-0.1,0.4-0.2c0.1-0.1,0.1-0.3,0.1-0.5c0-0.1,0-0.2-0.1-0.3c0-0.1-0.1-0.2-0.2-0.3
		c-0.1-0.1-0.2-0.2-0.3-0.3l-0.1-0.1c-0.1,0.1-0.2,0.2-0.3,0.3c-0.1,0.1-0.1,0.2-0.2,0.3C192.7,137.5,192.7,137.6,192.7,137.7z
		 M193.2,134.9c-0.1,0-0.2,0.1-0.3,0.1c-0.1,0.1-0.1,0.2-0.1,0.4c0,0.1,0,0.2,0.1,0.3c0,0.1,0.1,0.2,0.2,0.2s0.1,0.1,0.2,0.2
		c0.1-0.1,0.2-0.2,0.3-0.2c0.1-0.1,0.1-0.2,0.1-0.2c0-0.1,0.1-0.2,0.1-0.3c0-0.2,0-0.3-0.1-0.4C193.4,134.9,193.3,134.9,193.2,134.9
		z"/>
</g>
<g>
	<path d="M219.3,136.3c0,0.3,0,0.6-0.1,0.9c0,0.3-0.1,0.5-0.2,0.7c-0.1,0.2-0.2,0.4-0.3,0.5s-0.3,0.3-0.4,0.3s-0.4,0.1-0.6,0.1
		c-0.1,0-0.2,0-0.3,0c-0.1,0-0.2,0-0.2,0v-0.6c0.1,0,0.1,0,0.2,0.1c0.1,0,0.2,0,0.3,0c0.2,0,0.4-0.1,0.5-0.2
		c0.1-0.1,0.2-0.3,0.3-0.6c0.1-0.2,0.1-0.5,0.1-0.8h0c0,0.1-0.1,0.2-0.2,0.3c-0.1,0.1-0.1,0.1-0.2,0.2c-0.1,0-0.2,0.1-0.3,0.1
		c-0.2,0-0.4-0.1-0.5-0.2c-0.1-0.1-0.2-0.3-0.3-0.5c-0.1-0.2-0.1-0.4-0.1-0.7c0-0.3,0-0.5,0.1-0.8c0.1-0.2,0.2-0.4,0.4-0.5
		s0.4-0.2,0.6-0.2c0.2,0,0.3,0,0.5,0.1c0.1,0.1,0.3,0.2,0.4,0.4s0.2,0.4,0.2,0.6C219.2,135.7,219.3,136,219.3,136.3z M218.1,134.9
		c-0.1,0-0.3,0.1-0.3,0.2c-0.1,0.1-0.1,0.4-0.1,0.7c0,0.3,0,0.5,0.1,0.6s0.2,0.2,0.3,0.2c0.1,0,0.2,0,0.3-0.1
		c0.1-0.1,0.1-0.2,0.2-0.3c0-0.1,0.1-0.2,0.1-0.3c0-0.1,0-0.2,0-0.3c0-0.1,0-0.2-0.1-0.3c0-0.1-0.1-0.2-0.1-0.3
		S218.2,134.9,218.1,134.9z"/>
</g>
<g>
	<path d="M241.1,138.8h-0.6V136c0-0.1,0-0.2,0-0.3c0-0.1,0-0.2,0-0.3c0-0.1,0-0.2,0-0.3c0,0-0.1,0.1-0.1,0.1s-0.1,0.1-0.2,0.2
		l-0.4,0.4l-0.4-0.4l1.1-1.1h0.6L241.1,138.8L241.1,138.8z"/>
	<path d="M244.3,136.6c0,0.3,0,0.7-0.1,0.9c0,0.3-0.1,0.5-0.2,0.7s-0.2,0.3-0.3,0.5c-0.1,0.1-0.3,0.2-0.5,0.2
		c-0.2,0-0.4-0.1-0.6-0.2c-0.2-0.1-0.3-0.4-0.4-0.7c-0.1-0.3-0.1-0.8-0.1-1.3c0-0.5,0-0.9,0.1-1.3c0.1-0.3,0.2-0.6,0.4-0.7
		c0.2-0.2,0.4-0.2,0.6-0.2c0.3,0,0.5,0.1,0.6,0.3c0.2,0.2,0.3,0.4,0.4,0.8C244.3,135.7,244.3,136.1,244.3,136.6z M242.7,136.6
		c0,0.4,0,0.7,0.1,0.9c0,0.2,0.1,0.4,0.2,0.6s0.2,0.2,0.3,0.2c0.1,0,0.2-0.1,0.3-0.2c0.1-0.1,0.1-0.3,0.2-0.6s0-0.6,0-0.9
		c0-0.4,0-0.7-0.1-0.9c0-0.2-0.1-0.4-0.2-0.6c-0.1-0.1-0.2-0.2-0.3-0.2c-0.1,0-0.2,0.1-0.3,0.2s-0.1,0.3-0.2,0.6
		C242.7,135.9,242.7,136.2,242.7,136.6z"/>
</g>
<g>
	<path d="M265.1,138.8h-0.6V136c0-0.1,0-0.2,0-0.3c0-0.1,0-0.2,0-0.3c0-0.1,0-0.2,0-0.3c0,0-0.1,0.1-0.1,0.1s-0.1,0.1-0.2,0.2
		l-0.4,0.4l-0.4-0.4l1.1-1.1h0.6V138.8z"/>
	<path d="M267.8,138.8h-0.6V136c0-0.1,0-0.2,0-0.3c0-0.1,0-0.2,0-0.3c0-0.1,0-0.2,0-0.3c0,0-0.1,0.1-0.1,0.1s-0.1,0.1-0.2,0.2
		l-0.4,0.4l-0.4-0.4l1.1-1.1h0.6V138.8z"/>
</g>
<g>
	<path d="M288.9,138.8h-0.6v-2.8c0-0.1,0-0.2,0-0.3s0-0.2,0-0.3c0-0.1,0-0.2,0-0.3c0,0-0.1,0.1-0.1,0.1c0,0.1-0.1,0.1-0.2,0.2
		l-0.4,0.4l-0.4-0.4l1.1-1.1h0.6V138.8z"/>
	<path d="M292.1,138.8h-2.2v-0.5l0.8-1.2c0.2-0.2,0.3-0.5,0.4-0.6s0.2-0.3,0.2-0.5s0.1-0.3,0.1-0.5c0-0.2,0-0.3-0.1-0.4
		c-0.1-0.1-0.2-0.2-0.4-0.2c-0.1,0-0.2,0-0.3,0.1c-0.1,0.1-0.2,0.1-0.3,0.3l-0.3-0.4c0.1-0.1,0.2-0.2,0.3-0.3s0.2-0.1,0.3-0.2
		c0.1,0,0.3-0.1,0.4-0.1c0.2,0,0.4,0.1,0.6,0.1s0.3,0.2,0.4,0.4c0.1,0.2,0.1,0.4,0.1,0.6c0,0.2,0,0.4-0.1,0.6
		c-0.1,0.2-0.1,0.4-0.2,0.6c-0.1,0.2-0.3,0.4-0.4,0.6l-0.7,0.9v0h1.5L292.1,138.8L292.1,138.8z"/>
</g>
<g>
	<path d="M12,131.7c0,0.3,0,0.7-0.1,0.9c0,0.3-0.1,0.5-0.2,0.7c-0.1,0.2-0.2,0.3-0.3,0.5c-0.1,0.1-0.3,0.2-0.5,0.2
		c-0.2,0-0.4-0.1-0.6-0.2c-0.2-0.1-0.3-0.4-0.4-0.7c-0.1-0.3-0.1-0.8-0.1-1.3c0-0.5,0-0.9,0.1-1.3c0.1-0.3,0.2-0.6,0.4-0.7
		c0.2-0.2,0.4-0.2,0.6-0.2s0.5,0.1,0.6,0.3s0.3,0.4,0.4,0.8S12,131.2,12,131.7z M10.4,131.7c0,0.4,0,0.7,0.1,0.9
		c0,0.2,0.1,0.4,0.2,0.6s0.2,0.2,0.3,0.2c0.1,0,0.2-0.1,0.3-0.2c0.1-0.1,0.1-0.3,0.2-0.6c0-0.2,0-0.6,0-0.9c0-0.4,0-0.7-0.1-0.9
		c0-0.2-0.1-0.4-0.2-0.6c-0.1-0.1-0.2-0.2-0.3-0.2c-0.1,0-0.2,0.1-0.3,0.2s-0.1,0.3-0.2,0.6C10.4,131,10.4,131.3,10.4,131.7z"/>
</g>
<g>
	<path d="M3.3,117.2H2.6v-2.8c0-0.1,0-0.2,0-0.3c0-0.1,0-0.2,0-0.3c0-0.1,0-0.2,0-0.3c0,0-0.1,0.1-0.1,0.1s-0.1,0.1-0.2,0.2L2,114.3
		l-0.4-0.4l1.1-1.1h0.6C3.3,112.9,3.3,117.2,3.3,117.2z"/>
	<path d="M6.5,115c0,0.3,0,0.7-0.1,0.9c0,0.3-0.1,0.5-0.2,0.7c-0.1,0.2-0.2,0.3-0.3,0.5c-0.1,0.1-0.3,0.2-0.5,0.2
		c-0.2,0-0.4-0.1-0.6-0.2c-0.2-0.1-0.3-0.4-0.4-0.7s-0.1-0.8-0.1-1.3c0-0.5,0-0.9,0.1-1.3s0.2-0.6,0.4-0.7c0.2-0.2,0.4-0.2,0.6-0.2
		c0.3,0,0.5,0.1,0.6,0.3s0.3,0.4,0.4,0.8C6.5,114.1,6.5,114.5,6.5,115z M4.9,115c0,0.4,0,0.7,0.1,0.9c0,0.2,0.1,0.4,0.2,0.6
		c0.1,0.1,0.2,0.2,0.3,0.2c0.1,0,0.2-0.1,0.3-0.2c0.1-0.1,0.1-0.3,0.2-0.6c0-0.2,0-0.6,0-0.9c0-0.4,0-0.7-0.1-0.9
		c0-0.2-0.1-0.4-0.2-0.6c-0.1-0.1-0.2-0.2-0.3-0.2c-0.1,0-0.2,0.1-0.3,0.2c-0.1,0.1-0.1,0.3-0.2,0.6C4.9,114.3,4.9,114.7,4.9,115z"
		/>
	<path d="M9.3,115c0,0.3,0,0.7-0.1,0.9c0,0.3-0.1,0.5-0.2,0.7c-0.1,0.2-0.2,0.3-0.3,0.5c-0.1,0.1-0.3,0.2-0.5,0.2
		c-0.2,0-0.4-0.1-0.6-0.2c-0.2-0.1-0.3-0.4-0.4-0.7S7,115.6,7,115c0-0.5,0-0.9,0.1-1.3s0.2-0.6,0.4-0.7c0.2-0.2,0.4-0.2,0.6-0.2
		c0.3,0,0.5,0.1,0.6,0.3s0.3,0.4,0.4,0.8C9.2,114.1,9.3,114.5,9.3,115z M7.7,115c0,0.4,0,0.7,0.1,0.9c0,0.2,0.1,0.4,0.2,0.6
		c0.1,0.1,0.2,0.2,0.3,0.2c0.1,0,0.2-0.1,0.3-0.2c0.1-0.1,0.1-0.3,0.2-0.6c0-0.2,0-0.6,0-0.9c0-0.4,0-0.7-0.1-0.9
		c0-0.2-0.1-0.4-0.2-0.6c-0.1-0.1-0.2-0.2-0.3-0.2c-0.1,0-0.2,0.1-0.3,0.2c-0.1,0.1-0.1,0.3-0.2,0.6C7.7,114.3,7.7,114.7,7.7,115z"
		/>
	<path d="M12,115c0,0.3,0,0.7-0.1,0.9c0,0.3-0.1,0.5-0.2,0.7c-0.1,0.2-0.2,0.3-0.3,0.5c-0.1,0.1-0.3,0.2-0.5,0.2
		c-0.2,0-0.4-0.1-0.6-0.2c-0.2-0.1-0.3-0.4-0.4-0.7s-0.1-0.8-0.1-1.3c0-0.5,0-0.9,0.1-1.3s0.2-0.6,0.4-0.7c0.2-0.2,0.4-0.2,0.6-0.2
		s0.5,0.1,0.6,0.3s0.3,0.4,0.4,0.8C12,114.1,12,114.5,12,115z M10.4,115c0,0.4,0,0.7,0.1,0.9c0,0.2,0.1,0.4,0.2,0.6s0.2,0.2,0.3,0.2
		c0.1,0,0.2-0.1,0.3-0.2c0.1-0.1,0.1-0.3,0.2-0.6c0-0.2,0-0.6,0-0.9c0-0.4,0-0.7-0.1-0.9c0-0.2-0.1-0.4-0.2-0.6
		c-0.1-0.1-0.2-0.2-0.3-0.2c-0.1,0-0.2,0.1-0.3,0.2s-0.1,0.3-0.2,0.6C10.4,114.3,10.4,114.7,10.4,115z"/>
</g>
<g>
	<path d="M3.7,100.6H1.5v-0.5l0.8-1.2c0.2-0.2,0.3-0.5,0.4-0.6s0.2-0.3,0.2-0.5C3,97.6,3,97.5,3,97.3c0-0.2,0-0.3-0.1-0.4
		c-0.1-0.1-0.2-0.2-0.4-0.2c-0.1,0-0.2,0-0.3,0.1c-0.1,0.1-0.2,0.1-0.3,0.3l-0.3-0.4c0.1-0.1,0.2-0.2,0.3-0.3
		c0.1-0.1,0.2-0.1,0.3-0.2c0.1,0,0.3-0.1,0.4-0.1c0.2,0,0.4,0.1,0.6,0.1c0.2,0.1,0.3,0.2,0.4,0.4c0.1,0.2,0.1,0.4,0.1,0.6
		c0,0.2,0,0.4-0.1,0.6c-0.1,0.2-0.1,0.4-0.2,0.6c-0.1,0.2-0.3,0.4-0.4,0.6L2.3,100v0h1.5L3.7,100.6L3.7,100.6z"/>
	<path d="M6.5,98.4c0,0.3,0,0.7-0.1,0.9c0,0.3-0.1,0.5-0.2,0.7c-0.1,0.2-0.2,0.3-0.3,0.5c-0.1,0.1-0.3,0.2-0.5,0.2
		c-0.2,0-0.4-0.1-0.6-0.2c-0.2-0.1-0.3-0.4-0.4-0.7S4.3,99,4.3,98.4c0-0.5,0-0.9,0.1-1.3s0.2-0.6,0.4-0.7c0.2-0.2,0.4-0.2,0.6-0.2
		c0.3,0,0.5,0.1,0.6,0.3c0.2,0.2,0.3,0.4,0.4,0.8C6.5,97.5,6.5,97.9,6.5,98.4z M4.9,98.4c0,0.4,0,0.7,0.1,0.9c0,0.2,0.1,0.4,0.2,0.6
		c0.1,0.1,0.2,0.2,0.3,0.2c0.1,0,0.2-0.1,0.3-0.2c0.1-0.1,0.1-0.3,0.2-0.6c0-0.2,0-0.6,0-0.9c0-0.4,0-0.7-0.1-0.9
		c0-0.2-0.1-0.4-0.2-0.6c-0.1-0.1-0.2-0.2-0.3-0.2c-0.1,0-0.2,0.1-0.3,0.2C5.1,97,5,97.2,5,97.5C4.9,97.7,4.9,98,4.9,98.4z"/>
	<path d="M9.3,98.4c0,0.3,0,0.7-0.1,0.9c0,0.3-0.1,0.5-0.2,0.7c-0.1,0.2-0.2,0.3-0.3,0.5c-0.1,0.1-0.3,0.2-0.5,0.2
		c-0.2,0-0.4-0.1-0.6-0.2c-0.2-0.1-0.3-0.4-0.4-0.7S7,99,7,98.4c0-0.5,0-0.9,0.1-1.3s0.2-0.6,0.4-0.7c0.2-0.2,0.4-0.2,0.6-0.2
		c0.3,0,0.5,0.1,0.6,0.3c0.2,0.2,0.3,0.4,0.4,0.8C9.2,97.5,9.3,97.9,9.3,98.4z M7.7,98.4c0,0.4,0,0.7,0.1,0.9c0,0.2,0.1,0.4,0.2,0.6
		c0.1,0.1,0.2,0.2,0.3,0.2c0.1,0,0.2-0.1,0.3-0.2c0.1-0.1,0.1-0.3,0.2-0.6c0-0.2,0-0.6,0-0.9c0-0.4,0-0.7-0.1-0.9
		c0-0.2-0.1-0.4-0.2-0.6c-0.1-0.1-0.2-0.2-0.3-0.2c-0.1,0-0.2,0.1-0.3,0.2c-0.1,0.1-0.1,0.3-0.2,0.6C7.7,97.7,7.7,98,7.7,98.4z"/>
	<path d="M12,98.4c0,0.3,0,0.7-0.1,0.9c0,0.3-0.1,0.5-0.2,0.7c-0.1,0.2-0.2,0.3-0.3,0.5c-0.1,0.1-0.3,0.2-0.5,0.2
		c-0.2,0-0.4-0.1-0.6-0.2c-0.2-0.1-0.3-0.4-0.4-0.7S9.8,99,9.8,98.4c0-0.5,0-0.9,0.1-1.3s0.2-0.6,0.4-0.7c0.2-0.2,0.4-0.2,0.6-0.2
		s0.5,0.1,0.6,0.3c0.2,0.2,0.3,0.4,0.4,0.8C12,97.5,12,97.9,12,98.4z M10.4,98.4c0,0.4,0,0.7,0.1,0.9c0,0.2,0.1,0.4,0.2,0.6
		s0.2,0.2,0.3,0.2c0.1,0,0.2-0.1,0.3-0.2c0.1-0.1,0.1-0.3,0.2-0.6c0-0.2,0-0.6,0-0.9c0-0.4,0-0.7-0.1-0.9c0-0.2-0.1-0.4-0.2-0.6
		c-0.1-0.1-0.2-0.2-0.3-0.2c-0.1,0-0.2,0.1-0.3,0.2c-0.1,0.1-0.1,0.3-0.2,0.6C10.4,97.7,10.4,98,10.4,98.4z"/>
</g>
<g>
	<path d="M3.7,80.6c0,0.2,0,0.3-0.1,0.5c-0.1,0.1-0.1,0.3-0.2,0.4c-0.1,0.1-0.2,0.2-0.4,0.2v0c0.3,0.1,0.5,0.2,0.6,0.4
		c0.1,0.2,0.2,0.4,0.2,0.7c0,0.3-0.1,0.5-0.2,0.7c-0.1,0.2-0.2,0.3-0.4,0.4C3,84,2.7,84,2.5,84c-0.2,0-0.3,0-0.5,0
		c-0.2,0-0.3-0.1-0.4-0.2v-0.6c0.1,0.1,0.3,0.1,0.4,0.2s0.3,0.1,0.4,0.1c0.2,0,0.4-0.1,0.5-0.2s0.2-0.3,0.2-0.5c0-0.2,0-0.3-0.1-0.4
		c-0.1-0.1-0.2-0.2-0.3-0.2C2.6,82,2.4,82,2.2,82H2v-0.6h0.2c0.2,0,0.3,0,0.4-0.1s0.2-0.2,0.3-0.3C3,81,3,80.8,3,80.7
		c0-0.2-0.1-0.3-0.1-0.4c-0.1-0.1-0.2-0.2-0.4-0.2c-0.1,0-0.2,0-0.2,0c-0.1,0-0.2,0.1-0.2,0.1c-0.1,0-0.2,0.1-0.2,0.2l-0.3-0.5
		c0.2-0.1,0.3-0.2,0.5-0.3s0.4-0.1,0.6-0.1c0.3,0,0.6,0.1,0.8,0.3S3.7,80.3,3.7,80.6z"/>
	<path d="M6.5,81.8c0,0.3,0,0.7-0.1,0.9c0,0.3-0.1,0.5-0.2,0.7c-0.1,0.2-0.2,0.3-0.3,0.5C5.8,84,5.6,84,5.4,84
		c-0.2,0-0.4-0.1-0.6-0.2c-0.2-0.1-0.3-0.4-0.4-0.7s-0.1-0.8-0.1-1.3c0-0.5,0-0.9,0.1-1.3s0.2-0.6,0.4-0.7c0.2-0.2,0.4-0.2,0.6-0.2
		c0.3,0,0.5,0.1,0.6,0.3c0.2,0.2,0.3,0.4,0.4,0.8C6.5,80.9,6.5,81.3,6.5,81.8z M4.9,81.8c0,0.4,0,0.7,0.1,0.9c0,0.2,0.1,0.4,0.2,0.6
		c0.1,0.1,0.2,0.2,0.3,0.2c0.1,0,0.2-0.1,0.3-0.2c0.1-0.1,0.1-0.3,0.2-0.6c0-0.2,0-0.6,0-0.9c0-0.4,0-0.7-0.1-0.9
		c0-0.2-0.1-0.4-0.2-0.6c-0.1-0.1-0.2-0.2-0.3-0.2c-0.1,0-0.2,0.1-0.3,0.2C5.1,80.4,5,80.6,5,80.8C4.9,81.1,4.9,81.4,4.9,81.8z"/>
	<path d="M9.3,81.8c0,0.3,0,0.7-0.1,0.9c0,0.3-0.1,0.5-0.2,0.7c-0.1,0.2-0.2,0.3-0.3,0.5C8.5,84,8.4,84,8.1,84
		c-0.2,0-0.4-0.1-0.6-0.2c-0.2-0.1-0.3-0.4-0.4-0.7S7,82.3,7,81.8c0-0.5,0-0.9,0.1-1.3s0.2-0.6,0.4-0.7c0.2-0.2,0.4-0.2,0.6-0.2
		c0.3,0,0.5,0.1,0.6,0.3c0.2,0.2,0.3,0.4,0.4,0.8C9.2,80.9,9.3,81.3,9.3,81.8z M7.7,81.8c0,0.4,0,0.7,0.1,0.9c0,0.2,0.1,0.4,0.2,0.6
		c0.1,0.1,0.2,0.2,0.3,0.2c0.1,0,0.2-0.1,0.3-0.2c0.1-0.1,0.1-0.3,0.2-0.6c0-0.2,0-0.6,0-0.9c0-0.4,0-0.7-0.1-0.9
		c0-0.2-0.1-0.4-0.2-0.6c-0.1-0.1-0.2-0.2-0.3-0.2c-0.1,0-0.2,0.1-0.3,0.2c-0.1,0.1-0.1,0.3-0.2,0.6C7.7,81.1,7.7,81.4,7.7,81.8z"/>
	<path d="M12,81.8c0,0.3,0,0.7-0.1,0.9c0,0.3-0.1,0.5-0.2,0.7c-0.1,0.2-0.2,0.3-0.3,0.5C11.3,84,11.1,84,10.9,84
		c-0.2,0-0.4-0.1-0.6-0.2c-0.2-0.1-0.3-0.4-0.4-0.7s-0.1-0.8-0.1-1.3c0-0.5,0-0.9,0.1-1.3s0.2-0.6,0.4-0.7c0.2-0.2,0.4-0.2,0.6-0.2
		s0.5,0.1,0.6,0.3c0.2,0.2,0.3,0.4,0.4,0.8C12,80.9,12,81.3,12,81.8z M10.4,81.8c0,0.4,0,0.7,0.1,0.9c0,0.2,0.1,0.4,0.2,0.6
		s0.2,0.2,0.3,0.2c0.1,0,0.2-0.1,0.3-0.2c0.1-0.1,0.1-0.3,0.2-0.6c0-0.2,0-0.6,0-0.9c0-0.4,0-0.7-0.1-0.9c0-0.2-0.1-0.4-0.2-0.6
		c-0.1-0.1-0.2-0.2-0.3-0.2c-0.1,0-0.2,0.1-0.3,0.2c-0.1,0.1-0.1,0.3-0.2,0.6C10.4,81.1,10.4,81.4,10.4,81.8z"/>
</g>
<g>
	<path d="M3.9,66.4H3.5v0.9H2.9v-0.9H1.4v-0.5l1.5-2.9h0.7v2.9H4L3.9,66.4L3.9,66.4z M2.9,65.9v-1.4c0,0,0-0.1,0-0.2
		c0-0.1,0-0.1,0-0.2c0-0.1,0-0.1,0-0.2c0-0.1,0-0.1,0-0.1h0c0,0.1-0.1,0.2-0.1,0.3c0,0.1-0.1,0.2-0.1,0.2l-0.7,1.5L2.9,65.9
		L2.9,65.9z"/>
	<path d="M6.5,65.1c0,0.3,0,0.7-0.1,0.9c0,0.3-0.1,0.5-0.2,0.7c-0.1,0.2-0.2,0.3-0.3,0.5c-0.1,0.1-0.3,0.2-0.5,0.2
		c-0.2,0-0.4-0.1-0.6-0.2c-0.2-0.1-0.3-0.4-0.4-0.7s-0.1-0.8-0.1-1.3c0-0.5,0-0.9,0.1-1.3s0.2-0.6,0.4-0.7s0.4-0.2,0.6-0.2
		c0.3,0,0.5,0.1,0.6,0.3c0.2,0.2,0.3,0.4,0.4,0.8S6.5,64.6,6.5,65.1z M4.9,65.1c0,0.4,0,0.7,0.1,0.9c0,0.2,0.1,0.4,0.2,0.6
		c0.1,0.1,0.2,0.2,0.3,0.2c0.1,0,0.2-0.1,0.3-0.2c0.1-0.1,0.1-0.3,0.2-0.6c0-0.2,0-0.6,0-0.9c0-0.4,0-0.7-0.1-0.9
		c0-0.2-0.1-0.4-0.2-0.6c-0.1-0.1-0.2-0.2-0.3-0.2c-0.1,0-0.2,0.1-0.3,0.2C5.1,63.8,5,64,5,64.2C4.9,64.5,4.9,64.8,4.9,65.1z"/>
	<path d="M9.3,65.1c0,0.3,0,0.7-0.1,0.9c0,0.3-0.1,0.5-0.2,0.7c-0.1,0.2-0.2,0.3-0.3,0.5c-0.1,0.1-0.3,0.2-0.5,0.2
		c-0.2,0-0.4-0.1-0.6-0.2c-0.2-0.1-0.3-0.4-0.4-0.7S7,65.7,7,65.2c0-0.5,0-0.9,0.1-1.3s0.2-0.6,0.4-0.7c0.2-0.2,0.4-0.2,0.6-0.2
		c0.3,0,0.5,0.1,0.6,0.3c0.2,0.2,0.3,0.4,0.4,0.8S9.3,64.6,9.3,65.1z M7.7,65.1c0,0.4,0,0.7,0.1,0.9c0,0.2,0.1,0.4,0.2,0.6
		c0.1,0.1,0.2,0.2,0.3,0.2c0.1,0,0.2-0.1,0.3-0.2c0.1-0.1,0.1-0.3,0.2-0.6c0-0.2,0-0.6,0-0.9c0-0.4,0-0.7-0.1-0.9
		c0-0.2-0.1-0.4-0.2-0.6c-0.1-0.1-0.2-0.2-0.3-0.2c-0.1,0-0.2,0.1-0.3,0.2c-0.1,0.1-0.1,0.3-0.2,0.6C7.7,64.5,7.7,64.8,7.7,65.1z"/>
	<path d="M12,65.1c0,0.3,0,0.7-0.1,0.9c0,0.3-0.1,0.5-0.2,0.7c-0.1,0.2-0.2,0.3-0.3,0.5c-0.1,0.1-0.3,0.2-0.5,0.2
		c-0.2,0-0.4-0.1-0.6-0.2c-0.2-0.1-0.3-0.4-0.4-0.7s-0.1-0.8-0.1-1.3c0-0.5,0-0.9,0.1-1.3s0.2-0.6,0.4-0.7c0.2-0.2,0.4-0.2,0.6-0.2
		s0.5,0.1,0.6,0.3c0.2,0.2,0.3,0.4,0.4,0.8S12,64.6,12,65.1z M10.4,65.1c0,0.4,0,0.7,0.1,0.9c0,0.2,0.1,0.4,0.2,0.6s0.2,0.2,0.3,0.2
		c0.1,0,0.2-0.1,0.3-0.2c0.1-0.1,0.1-0.3,0.2-0.6c0-0.2,0-0.6,0-0.9c0-0.4,0-0.7-0.1-0.9c0-0.2-0.1-0.4-0.2-0.6
		c-0.1-0.1-0.2-0.2-0.3-0.2c-0.1,0-0.2,0.1-0.3,0.2s-0.1,0.3-0.2,0.6C10.4,64.5,10.4,64.8,10.4,65.1z"/>
</g>
<g>
	<path d="M2.7,48c0.2,0,0.4,0.1,0.6,0.2c0.2,0.1,0.3,0.3,0.4,0.5c0.1,0.2,0.1,0.4,0.1,0.7c0,0.3-0.1,0.6-0.2,0.8s-0.2,0.4-0.4,0.5
		c-0.2,0.1-0.4,0.2-0.7,0.2c-0.2,0-0.3,0-0.5-0.1s-0.3-0.1-0.4-0.2v-0.6C1.7,50,1.8,50.1,2,50.1c0.1,0.1,0.3,0.1,0.4,0.1
		c0.2,0,0.3,0,0.4-0.1C2.9,50,3,49.9,3,49.7c0.1-0.1,0.1-0.3,0.1-0.5c0-0.3-0.1-0.4-0.2-0.6c-0.1-0.1-0.3-0.2-0.5-0.2
		c-0.1,0-0.2,0-0.3,0c-0.1,0-0.2,0-0.3,0.1l-0.2-0.2l0.1-2.1h1.8v0.6H2.3L2.2,48c0.1,0,0.2,0,0.2,0C2.6,48,2.6,48,2.7,48z"/>
	<path d="M6.5,48.5c0,0.3,0,0.7-0.1,0.9S6.4,50,6.3,50.1c-0.1,0.2-0.2,0.3-0.3,0.5c-0.1,0.1-0.3,0.2-0.5,0.2c-0.2,0-0.4-0.1-0.6-0.2
		c-0.2-0.1-0.3-0.4-0.4-0.7s-0.1-0.8-0.1-1.3c0-0.5,0-0.9,0.1-1.3s0.2-0.6,0.4-0.7s0.4-0.2,0.6-0.2c0.3,0,0.5,0.1,0.6,0.3
		c0.2,0.2,0.3,0.4,0.4,0.8S6.5,48,6.5,48.5z M4.9,48.5c0,0.4,0,0.7,0.1,0.9c0,0.2,0.1,0.4,0.2,0.6c0.1,0.1,0.2,0.2,0.3,0.2
		c0.1,0,0.2-0.1,0.3-0.2c0.1-0.1,0.1-0.3,0.2-0.6c0-0.2,0-0.6,0-0.9c0-0.4,0-0.7-0.1-0.9c0-0.2-0.1-0.4-0.2-0.6
		c-0.1-0.1-0.2-0.2-0.3-0.2c-0.1,0-0.2,0.1-0.3,0.2C5.1,47.2,5,47.3,5,47.6C4.9,47.8,4.9,48.1,4.9,48.5z"/>
	<path d="M9.3,48.5c0,0.3,0,0.7-0.1,0.9S9.1,50,9,50.1c-0.1,0.2-0.2,0.3-0.3,0.5c-0.1,0.1-0.3,0.2-0.5,0.2c-0.2,0-0.4-0.1-0.6-0.2
		c-0.2-0.1-0.3-0.4-0.4-0.7S7,49.1,7,48.5c0-0.5,0-0.9,0.1-1.3s0.2-0.6,0.4-0.7c0.2-0.2,0.4-0.2,0.6-0.2c0.3,0,0.5,0.1,0.6,0.3
		c0.2,0.2,0.3,0.4,0.4,0.8S9.3,48,9.3,48.5z M7.7,48.5c0,0.4,0,0.7,0.1,0.9c0,0.2,0.1,0.4,0.2,0.6c0.1,0.1,0.2,0.2,0.3,0.2
		c0.1,0,0.2-0.1,0.3-0.2c0.1-0.1,0.1-0.3,0.2-0.6c0-0.2,0-0.6,0-0.9c0-0.4,0-0.7-0.1-0.9c0-0.2-0.1-0.4-0.2-0.6
		c-0.1-0.1-0.2-0.2-0.3-0.2c-0.1,0-0.2,0.1-0.3,0.2c-0.1,0.1-0.1,0.3-0.2,0.6C7.7,47.8,7.7,48.1,7.7,48.5z"/>
	<path d="M12,48.5c0,0.3,0,0.7-0.1,0.9s-0.1,0.5-0.2,0.7c-0.1,0.2-0.2,0.3-0.3,0.5c-0.1,0.1-0.3,0.2-0.5,0.2c-0.2,0-0.4-0.1-0.6-0.2
		c-0.2-0.1-0.3-0.4-0.4-0.7s-0.1-0.8-0.1-1.3c0-0.5,0-0.9,0.1-1.3s0.2-0.6,0.4-0.7c0.2-0.2,0.4-0.2,0.6-0.2s0.5,0.1,0.6,0.3
		c0.2,0.2,0.3,0.4,0.4,0.8S12,48,12,48.5z M10.4,48.5c0,0.4,0,0.7,0.1,0.9c0,0.2,0.1,0.4,0.2,0.6s0.2,0.2,0.3,0.2
		c0.1,0,0.2-0.1,0.3-0.2c0.1-0.1,0.1-0.3,0.2-0.6c0-0.2,0-0.6,0-0.9c0-0.4,0-0.7-0.1-0.9c0-0.2-0.1-0.4-0.2-0.6
		c-0.1-0.1-0.2-0.2-0.3-0.2c-0.1,0-0.2,0.1-0.3,0.2s-0.1,0.3-0.2,0.6C10.4,47.8,10.4,48.1,10.4,48.5z"/>
</g>
<g>
	<path d="M1.5,32.2c0-0.3,0-0.6,0.1-0.9c0-0.3,0.1-0.5,0.2-0.7s0.2-0.4,0.3-0.5c0.1-0.2,0.3-0.3,0.4-0.3c0.2-0.1,0.4-0.1,0.6-0.1
		c0.1,0,0.2,0,0.3,0c0.1,0,0.2,0,0.2,0.1v0.6c-0.1,0-0.1,0-0.2,0c-0.1,0-0.2,0-0.2,0c-0.2,0-0.4,0.1-0.5,0.2s-0.2,0.3-0.3,0.5
		c-0.1,0.2-0.1,0.5-0.1,0.9h0c0-0.1,0.1-0.2,0.2-0.3c0.1-0.1,0.1-0.1,0.2-0.2c0.1,0,0.2-0.1,0.3-0.1c0.2,0,0.4,0.1,0.5,0.2
		c0.1,0.1,0.2,0.3,0.3,0.5s0.1,0.4,0.1,0.7c0,0.3,0,0.5-0.1,0.8s-0.2,0.4-0.4,0.5c-0.2,0.1-0.4,0.2-0.6,0.2c-0.2,0-0.4,0-0.5-0.1
		c-0.1-0.1-0.3-0.2-0.4-0.4S1.6,33.2,1.6,33C1.5,32.8,1.5,32.5,1.5,32.2z M2.7,33.6c0.1,0,0.3-0.1,0.3-0.2c0.1-0.1,0.1-0.4,0.1-0.7
		c0-0.3,0-0.5-0.1-0.6c-0.1-0.1-0.2-0.2-0.3-0.2c-0.1,0-0.2,0-0.3,0.1c-0.1,0.1-0.1,0.2-0.2,0.3s-0.1,0.2-0.1,0.3c0,0.1,0,0.2,0,0.4
		s0.1,0.2,0.1,0.3s0.1,0.2,0.2,0.2S2.6,33.6,2.7,33.6z"/>
	<path d="M6.5,31.9c0,0.3,0,0.7-0.1,0.9c0,0.3-0.1,0.5-0.2,0.7c-0.1,0.2-0.2,0.3-0.3,0.5c-0.1,0.1-0.3,0.2-0.5,0.2
		c-0.2,0-0.4-0.1-0.6-0.2c-0.2-0.1-0.3-0.4-0.4-0.7s-0.1-0.8-0.1-1.3c0-0.5,0-0.9,0.1-1.3s0.2-0.6,0.4-0.7s0.4-0.2,0.6-0.2
		c0.3,0,0.5,0.1,0.6,0.3s0.3,0.4,0.4,0.8C6.5,31,6.5,31.4,6.5,31.9z M4.9,31.9c0,0.4,0,0.7,0.1,0.9c0,0.2,0.1,0.4,0.2,0.6
		c0.1,0.1,0.2,0.2,0.3,0.2c0.1,0,0.2-0.1,0.3-0.2c0.1-0.1,0.1-0.3,0.2-0.6c0-0.2,0-0.6,0-0.9c0-0.4,0-0.7-0.1-0.9
		c0-0.2-0.1-0.4-0.2-0.6c-0.1-0.1-0.2-0.2-0.3-0.2c-0.1,0-0.2,0.1-0.3,0.2C5.1,30.5,5,30.7,5,30.9C4.9,31.2,4.9,31.5,4.9,31.9z"/>
	<path d="M9.3,31.9c0,0.3,0,0.7-0.1,0.9c0,0.3-0.1,0.5-0.2,0.7c-0.1,0.2-0.2,0.3-0.3,0.5c-0.1,0.1-0.3,0.2-0.5,0.2
		c-0.2,0-0.4-0.1-0.6-0.2c-0.2-0.1-0.3-0.4-0.4-0.7S7,32.4,7,31.9c0-0.5,0-0.9,0.1-1.3s0.2-0.6,0.4-0.7c0.2-0.2,0.4-0.2,0.6-0.2
		c0.3,0,0.5,0.1,0.6,0.3s0.3,0.4,0.4,0.8C9.2,31,9.3,31.4,9.3,31.9z M7.7,31.9c0,0.4,0,0.7,0.1,0.9c0,0.2,0.1,0.4,0.2,0.6
		c0.1,0.1,0.2,0.2,0.3,0.2c0.1,0,0.2-0.1,0.3-0.2c0.1-0.1,0.1-0.3,0.2-0.6c0-0.2,0-0.6,0-0.9c0-0.4,0-0.7-0.1-0.9
		c0-0.2-0.1-0.4-0.2-0.6c-0.1-0.1-0.2-0.2-0.3-0.2c-0.1,0-0.2,0.1-0.3,0.2c-0.1,0.1-0.1,0.3-0.2,0.6C7.7,31.2,7.7,31.5,7.7,31.9z"/>
	<path d="M12,31.9c0,0.3,0,0.7-0.1,0.9c0,0.3-0.1,0.5-0.2,0.7c-0.1,0.2-0.2,0.3-0.3,0.5c-0.1,0.1-0.3,0.2-0.5,0.2
		c-0.2,0-0.4-0.1-0.6-0.2c-0.2-0.1-0.3-0.4-0.4-0.7s-0.1-0.8-0.1-1.3c0-0.5,0-0.9,0.1-1.3s0.2-0.6,0.4-0.7c0.2-0.2,0.4-0.2,0.6-0.2
		s0.5,0.1,0.6,0.3s0.3,0.4,0.4,0.8C12,31,12,31.4,12,31.9z M10.4,31.9c0,0.4,0,0.7,0.1,0.9c0,0.2,0.1,0.4,0.2,0.6
		c0.1,0.1,0.2,0.2,0.3,0.2c0.1,0,0.2-0.1,0.3-0.2c0.1-0.1,0.1-0.3,0.2-0.6c0-0.2,0-0.6,0-0.9c0-0.4,0-0.7-0.1-0.9
		c0-0.2-0.1-0.4-0.2-0.6c-0.1-0.1-0.2-0.2-0.3-0.2c-0.1,0-0.2,0.1-0.3,0.2c-0.1,0.1-0.1,0.3-0.2,0.6C10.4,31.2,10.4,31.5,10.4,31.9z
		"/>
</g>
</svg>
