<svg width="23" height="23" viewBox="0 0 23 23" fill="none" xmlns="http://www.w3.org/2000/svg">
<g id="Group">
<g id="Vector">
<mask id="path-1-inside-1_75_2261" fill="white">
<path d="M4.16015 13.8548H4.93944C4.93936 13.7033 4.89509 13.555 4.81204 13.4282C4.729 13.3014 4.61078 13.2016 4.47187 13.141L4.16015 13.8548ZM18.707 13.8548L18.3953 13.141C18.2564 13.2016 18.1381 13.3014 18.0551 13.4282C17.972 13.555 17.9278 13.7033 17.9277 13.8548H18.707ZM15.33 5.9746C15.33 6.18128 15.4121 6.3795 15.5583 6.52564C15.7044 6.67179 15.9027 6.75389 16.1093 6.75389C16.316 6.75389 16.5142 6.67179 16.6604 6.52564C16.8065 6.3795 16.8886 6.18128 16.8886 5.9746H15.33ZM5.9785 5.9746C5.9785 6.18128 6.06061 6.3795 6.20675 6.52564C6.3529 6.67179 6.55112 6.75389 6.7578 6.75389C6.96448 6.75389 7.1627 6.67179 7.30884 6.52564C7.45499 6.3795 7.53709 6.18128 7.53709 5.9746H5.9785ZM6.23827 3.11718C4.65371 3.11718 3.13404 3.74665 2.01359 4.8671C0.893136 5.98755 0.263672 7.50722 0.263672 9.09178H1.82226C1.82226 7.92058 2.28752 6.79735 3.11568 5.96919C3.94384 5.14103 5.06707 4.67577 6.23827 4.67577V3.11718ZM16.6289 4.67577C17.8001 4.67577 18.9233 5.14103 19.7515 5.96919C20.5796 6.79735 21.0449 7.92058 21.0449 9.09178H22.6035C22.6035 7.50722 21.974 5.98755 20.8535 4.8671C19.7331 3.74665 18.2134 3.11718 16.6289 3.11718V4.67577ZM14.5507 20.7812H8.31639V22.3398H14.5507V20.7812ZM8.31639 20.7812C7.31473 20.7812 6.64142 20.7791 6.13956 20.7116C5.66055 20.6472 5.45482 20.536 5.31974 20.3999L4.21834 21.5034C4.69111 21.9761 5.28025 22.1684 5.93278 22.2567C6.56245 22.3419 7.35838 22.3398 8.31639 22.3398V20.7812ZM3.38085 17.4043C3.38085 18.3623 3.37877 19.1582 3.46398 19.7879C3.55126 20.4404 3.74452 21.0295 4.2173 21.5023L5.31974 20.4009C5.18466 20.2658 5.07348 20.0601 5.00802 19.5801C4.94152 19.0792 4.93944 18.4059 4.93944 17.4043H3.38085ZM17.9277 17.4043C17.9277 18.4059 17.9256 19.0792 17.8581 19.5811C17.7937 20.0601 17.6825 20.2658 17.5464 20.4009L18.6498 21.5023C19.1226 21.0295 19.3148 20.4404 19.4032 19.7879C19.4884 19.1582 19.4863 18.3623 19.4863 17.4043H17.9277ZM14.5507 22.3398C15.5088 22.3398 16.3047 22.3419 16.9344 22.2567C17.5869 22.1694 18.1771 21.9761 18.6498 21.5023L17.5474 20.4009C17.4123 20.536 17.2066 20.6472 16.7265 20.7126C16.2257 20.7791 15.5524 20.7812 14.5507 20.7812V22.3398ZM6.23827 4.67577C6.45993 4.67577 6.67744 4.6917 6.8908 4.72357L7.11835 3.1816C6.82688 3.13937 6.53278 3.11784 6.23827 3.11718V4.67577ZM11.4336 2.0181e-07C10.2934 -0.000309845 9.18181 0.356637 8.25499 1.02068C7.32816 1.68472 6.63269 2.62248 6.26632 3.70217L7.74179 4.203C8.00353 3.43165 8.50043 2.76172 9.16262 2.28739C9.82482 1.81306 10.619 1.55818 11.4336 1.55859V2.0181e-07ZM6.26632 3.70217C6.07616 4.26705 5.97895 4.85904 5.9785 5.45507H7.53709C7.53709 5.01554 7.60983 4.59472 7.74283 4.203L6.26632 3.70217ZM16.6289 3.11718C16.3303 3.11718 16.037 3.13865 15.7488 3.1816L15.9774 4.72357C16.193 4.69057 16.4108 4.67459 16.6289 4.67577V3.11718ZM11.4336 1.55859C12.2479 1.5584 13.0419 1.81338 13.7039 2.28769C14.3659 2.762 14.8626 3.43181 15.1243 4.203L16.5998 3.70217C16.2335 2.62265 15.5382 1.68501 14.6115 1.02098C13.6849 0.356955 12.5736 -9.26703e-05 11.4336 2.0181e-07V1.55859ZM15.1243 4.203C15.2573 4.59472 15.33 5.01554 15.33 5.45507H16.8886C16.8886 4.84306 16.7868 4.25391 16.5998 3.70217L15.1243 4.203ZM4.93944 17.4043V13.8548H3.38085V17.4043H4.93944ZM4.47187 13.141C3.68405 12.7972 3.01371 12.2309 2.54306 11.5116C2.0724 10.7923 1.8219 9.95135 1.82226 9.09178H0.263672C0.263462 10.2545 0.602516 11.392 1.23927 12.3648C1.87602 13.3377 2.78279 14.1036 3.84843 14.5687L4.47187 13.141ZM17.9277 13.8548V17.4043H19.4863V13.8548H17.9277ZM21.0449 9.09178C21.0452 9.95135 20.7947 10.7923 20.3241 11.5116C19.8534 12.2309 19.1831 12.7972 18.3953 13.141L19.0187 14.5687C20.0843 14.1036 20.9911 13.3377 21.6279 12.3648C22.2646 11.392 22.6037 10.2545 22.6035 9.09178H21.0449ZM15.33 5.45507V5.9746H16.8886V5.45507H15.33ZM5.9785 5.45507V5.9746H7.53709V5.45507H5.9785Z"/>
</mask>
<path d="M4.16015 13.8548H4.93944C4.93936 13.7033 4.89509 13.555 4.81204 13.4282C4.729 13.3014 4.61078 13.2016 4.47187 13.141L4.16015 13.8548ZM18.707 13.8548L18.3953 13.141C18.2564 13.2016 18.1381 13.3014 18.0551 13.4282C17.972 13.555 17.9278 13.7033 17.9277 13.8548H18.707ZM15.33 5.9746C15.33 6.18128 15.4121 6.3795 15.5583 6.52564C15.7044 6.67179 15.9027 6.75389 16.1093 6.75389C16.316 6.75389 16.5142 6.67179 16.6604 6.52564C16.8065 6.3795 16.8886 6.18128 16.8886 5.9746H15.33ZM5.9785 5.9746C5.9785 6.18128 6.06061 6.3795 6.20675 6.52564C6.3529 6.67179 6.55112 6.75389 6.7578 6.75389C6.96448 6.75389 7.1627 6.67179 7.30884 6.52564C7.45499 6.3795 7.53709 6.18128 7.53709 5.9746H5.9785ZM6.23827 3.11718C4.65371 3.11718 3.13404 3.74665 2.01359 4.8671C0.893136 5.98755 0.263672 7.50722 0.263672 9.09178H1.82226C1.82226 7.92058 2.28752 6.79735 3.11568 5.96919C3.94384 5.14103 5.06707 4.67577 6.23827 4.67577V3.11718ZM16.6289 4.67577C17.8001 4.67577 18.9233 5.14103 19.7515 5.96919C20.5796 6.79735 21.0449 7.92058 21.0449 9.09178H22.6035C22.6035 7.50722 21.974 5.98755 20.8535 4.8671C19.7331 3.74665 18.2134 3.11718 16.6289 3.11718V4.67577ZM14.5507 20.7812H8.31639V22.3398H14.5507V20.7812ZM8.31639 20.7812C7.31473 20.7812 6.64142 20.7791 6.13956 20.7116C5.66055 20.6472 5.45482 20.536 5.31974 20.3999L4.21834 21.5034C4.69111 21.9761 5.28025 22.1684 5.93278 22.2567C6.56245 22.3419 7.35838 22.3398 8.31639 22.3398V20.7812ZM3.38085 17.4043C3.38085 18.3623 3.37877 19.1582 3.46398 19.7879C3.55126 20.4404 3.74452 21.0295 4.2173 21.5023L5.31974 20.4009C5.18466 20.2658 5.07348 20.0601 5.00802 19.5801C4.94152 19.0792 4.93944 18.4059 4.93944 17.4043H3.38085ZM17.9277 17.4043C17.9277 18.4059 17.9256 19.0792 17.8581 19.5811C17.7937 20.0601 17.6825 20.2658 17.5464 20.4009L18.6498 21.5023C19.1226 21.0295 19.3148 20.4404 19.4032 19.7879C19.4884 19.1582 19.4863 18.3623 19.4863 17.4043H17.9277ZM14.5507 22.3398C15.5088 22.3398 16.3047 22.3419 16.9344 22.2567C17.5869 22.1694 18.1771 21.9761 18.6498 21.5023L17.5474 20.4009C17.4123 20.536 17.2066 20.6472 16.7265 20.7126C16.2257 20.7791 15.5524 20.7812 14.5507 20.7812V22.3398ZM6.23827 4.67577C6.45993 4.67577 6.67744 4.6917 6.8908 4.72357L7.11835 3.1816C6.82688 3.13937 6.53278 3.11784 6.23827 3.11718V4.67577ZM11.4336 2.0181e-07C10.2934 -0.000309845 9.18181 0.356637 8.25499 1.02068C7.32816 1.68472 6.63269 2.62248 6.26632 3.70217L7.74179 4.203C8.00353 3.43165 8.50043 2.76172 9.16262 2.28739C9.82482 1.81306 10.619 1.55818 11.4336 1.55859V2.0181e-07ZM6.26632 3.70217C6.07616 4.26705 5.97895 4.85904 5.9785 5.45507H7.53709C7.53709 5.01554 7.60983 4.59472 7.74283 4.203L6.26632 3.70217ZM16.6289 3.11718C16.3303 3.11718 16.037 3.13865 15.7488 3.1816L15.9774 4.72357C16.193 4.69057 16.4108 4.67459 16.6289 4.67577V3.11718ZM11.4336 1.55859C12.2479 1.5584 13.0419 1.81338 13.7039 2.28769C14.3659 2.762 14.8626 3.43181 15.1243 4.203L16.5998 3.70217C16.2335 2.62265 15.5382 1.68501 14.6115 1.02098C13.6849 0.356955 12.5736 -9.26703e-05 11.4336 2.0181e-07V1.55859ZM15.1243 4.203C15.2573 4.59472 15.33 5.01554 15.33 5.45507H16.8886C16.8886 4.84306 16.7868 4.25391 16.5998 3.70217L15.1243 4.203ZM4.93944 17.4043V13.8548H3.38085V17.4043H4.93944ZM4.47187 13.141C3.68405 12.7972 3.01371 12.2309 2.54306 11.5116C2.0724 10.7923 1.8219 9.95135 1.82226 9.09178H0.263672C0.263462 10.2545 0.602516 11.392 1.23927 12.3648C1.87602 13.3377 2.78279 14.1036 3.84843 14.5687L4.47187 13.141ZM17.9277 13.8548V17.4043H19.4863V13.8548H17.9277ZM21.0449 9.09178C21.0452 9.95135 20.7947 10.7923 20.3241 11.5116C19.8534 12.2309 19.1831 12.7972 18.3953 13.141L19.0187 14.5687C20.0843 14.1036 20.9911 13.3377 21.6279 12.3648C22.2646 11.392 22.6037 10.2545 22.6035 9.09178H21.0449ZM15.33 5.45507V5.9746H16.8886V5.45507H15.33ZM5.9785 5.45507V5.9746H7.53709V5.45507H5.9785Z" fill="#EA5C2B"/>
<path d="M18.707 17.9043H19.4863V16.9043H18.707V17.9043ZM16.8886 5.4746H15.33V6.4746H16.8886V5.4746ZM7.53709 5.4746H5.9785V6.4746H7.53709V5.4746ZM0.263672 9.59178H1.82226V8.59178H0.263672V9.59178ZM6.73827 4.67577V3.11718H5.73827V4.67577H6.73827ZM21.0449 9.59178H22.6035V8.59178H21.0449V9.59178ZM16.1289 3.11718V4.67577H17.1289V3.11718H16.1289ZM7.81639 20.7812V22.3398H8.81639V20.7812H7.81639ZM15.0507 22.3398V20.7812H14.0507V22.3398H15.0507ZM4.93944 16.9043H3.38085V17.9043H4.93944V16.9043ZM19.4863 16.9043H17.9277V17.9043H19.4863V16.9043ZM11.9336 1.55859V2.0181e-07H10.9336V1.55859H11.9336ZM5.9785 5.95507H7.53709V4.95507H5.9785V5.95507ZM15.285 4.67647L16.7605 4.17564L16.4391 3.2287L14.9636 3.72953L15.285 4.67647ZM15.33 5.95507H16.8886V4.95507H15.33V5.95507ZM4.16015 13.8548L3.24372 13.4546L2.63228 14.8548H4.16015V13.8548ZM4.93944 13.8548H5.93944L5.93944 13.8543L4.93944 13.8548ZM18.707 13.8548V14.8548H20.2349L19.6234 13.4546L18.707 13.8548ZM17.9277 13.8548L16.9277 13.8543V13.8548H17.9277ZM5.9785 5.9746H4.9785H5.9785ZM6.23827 3.11718L6.24051 2.11718H6.23827V3.11718ZM0.263672 9.09178L1.26367 9.09196V9.09178H0.263672ZM1.82226 9.09178L2.82226 9.0922V9.09178H1.82226ZM6.23827 4.67577V3.67577V4.67577ZM16.6289 4.67577L16.6234 5.67577H16.6289V4.67577ZM21.0449 9.09178H20.0449V9.0922L21.0449 9.09178ZM22.6035 9.09178H21.6035V9.09196L22.6035 9.09178ZM16.6289 3.11718V2.11718V3.11718ZM6.13956 20.7116L6.27293 19.7205L6.27285 19.7205L6.13956 20.7116ZM5.31974 20.3999L6.02955 19.6955L5.32179 18.9823L4.61197 19.6934L5.31974 20.3999ZM4.21834 21.5034L3.51056 20.7969L2.80479 21.504L3.51123 22.2105L4.21834 21.5034ZM5.93278 22.2567L5.79866 23.2476L5.79869 23.2476L5.93278 22.2567ZM3.46398 19.7879L4.45515 19.6553L4.45495 19.6538L3.46398 19.7879ZM4.2173 21.5023L3.51019 22.2094L4.21696 22.9162L4.92407 22.2098L4.2173 21.5023ZM5.31974 20.4009L6.02651 21.1084L6.73429 20.4012L6.02685 19.6938L5.31974 20.4009ZM5.00802 19.5801L4.01672 19.7117L4.01719 19.7152L5.00802 19.5801ZM17.8581 19.5811L16.867 19.4477L16.867 19.4478L17.8581 19.5811ZM17.5464 20.4009L16.842 19.6911L16.1288 20.3989L16.8399 21.1087L17.5464 20.4009ZM19.4032 19.7879L20.3941 19.922L20.3941 19.922L19.4032 19.7879ZM16.9344 22.2567L16.8018 21.2655L16.8003 21.2657L16.9344 22.2567ZM17.5474 20.4009L18.2542 19.6935L17.5471 18.987L16.8403 19.6938L17.5474 20.4009ZM16.7265 20.7126L16.8582 21.7039L16.8617 21.7035L16.7265 20.7126ZM6.8908 4.72357L6.74309 5.7126L7.73384 5.86057L7.88008 4.86956L6.8908 4.72357ZM7.11835 3.1816L8.10764 3.3276L8.25401 2.33572L7.26176 2.19194L7.11835 3.1816ZM11.4336 2.0181e-07L11.4333 1H11.4337L11.4336 2.0181e-07ZM6.26632 3.70217L5.31935 3.38084L5.31859 3.38312L6.26632 3.70217ZM7.74179 4.203L7.42036 5.14993L8.36739 5.47139L8.68875 4.52433L7.74179 4.203ZM11.4336 1.55859L11.4331 2.55859H11.4338L11.4336 1.55859ZM5.9785 5.45507L4.9785 5.45431V5.45507H5.9785ZM7.74283 4.203L8.68974 4.5245L9.01133 3.57731L8.06405 3.25599L7.74283 4.203ZM15.7488 3.1816L15.6014 2.19253L14.6131 2.33982L14.7596 3.32825L15.7488 3.1816ZM15.9774 4.72357L14.9882 4.87021L15.1355 5.86409L16.1287 5.71205L15.9774 4.72357ZM15.1243 4.203L14.1773 4.52433L14.1774 4.5245L15.1243 4.203ZM16.5998 3.70217L17.5468 3.38113L17.5467 3.38084L16.5998 3.70217ZM3.38085 13.8548V12.8548H2.38085V13.8548H3.38085ZM3.84843 14.5687L3.44843 15.4852L4.36476 15.8851L4.76486 14.9689L3.84843 14.5687ZM19.4863 13.8548H20.4863V12.8548H19.4863V13.8548ZM19.0187 14.5687L18.1023 14.9689L18.5024 15.8851L19.4187 15.4852L19.0187 14.5687ZM4.16015 14.8548H4.93944V12.8548H4.16015V14.8548ZM5.93944 13.8543C5.93926 13.5083 5.83818 13.1698 5.64856 12.8803L3.97552 13.9762C3.952 13.9403 3.93947 13.8983 3.93944 13.8553L5.93944 13.8543ZM5.64856 12.8803C5.45894 12.5908 5.18903 12.3629 4.87187 12.2245L4.07187 14.0575C4.03253 14.0403 3.99905 14.0121 3.97552 13.9762L5.64856 12.8803ZM3.55543 12.7408L3.24372 13.4546L5.07658 14.255L5.3883 13.5412L3.55543 12.7408ZM19.6234 13.4546L19.3117 12.7408L17.4788 13.5412L17.7906 14.255L19.6234 13.4546ZM17.9953 12.2245C17.6781 12.3629 17.4082 12.5908 17.2186 12.8803L18.8916 13.9762C18.8681 14.0121 18.8346 14.0403 18.7953 14.0575L17.9953 12.2245ZM17.2186 12.8803C17.029 13.1698 16.9279 13.5083 16.9277 13.8543L18.9277 13.8553C18.9277 13.8983 18.9151 13.9403 18.8916 13.9762L17.2186 12.8803ZM17.9277 14.8548H18.707V12.8548H17.9277V14.8548ZM14.33 5.9746C14.33 6.4465 14.5175 6.89907 14.8512 7.23275L16.2654 5.81853C16.3068 5.85992 16.33 5.91606 16.33 5.9746H14.33ZM14.8512 7.23275C15.1849 7.56643 15.6374 7.75389 16.1093 7.75389V5.75389C16.1679 5.75389 16.224 5.77714 16.2654 5.81853L14.8512 7.23275ZM16.1093 7.75389C16.5812 7.75389 17.0338 7.56643 17.3675 7.23275L15.9533 5.81853C15.9947 5.77714 16.0508 5.75389 16.1093 5.75389V7.75389ZM17.3675 7.23275C17.7012 6.89906 17.8886 6.44649 17.8886 5.9746H15.8886C15.8886 5.91606 15.9119 5.85993 15.9533 5.81853L17.3675 7.23275ZM4.9785 5.9746C4.9785 6.44649 5.16596 6.89907 5.49965 7.23275L6.91386 5.81853C6.95525 5.85993 6.9785 5.91606 6.9785 5.9746H4.9785ZM5.49965 7.23275C5.83333 7.56643 6.2859 7.75389 6.7578 7.75389V5.75389C6.81633 5.75389 6.87247 5.77714 6.91386 5.81853L5.49965 7.23275ZM6.7578 7.75389C7.2297 7.75389 7.68227 7.56643 8.01595 7.23275L6.60174 5.81853C6.64313 5.77714 6.69926 5.75389 6.7578 5.75389V7.75389ZM8.01595 7.23275C8.34963 6.89907 8.53709 6.4465 8.53709 5.9746H6.53709C6.53709 5.91606 6.56035 5.85992 6.60174 5.81853L8.01595 7.23275ZM6.23827 2.11718C4.38849 2.11718 2.61447 2.852 1.30648 4.15999L2.7207 5.57421C3.65362 4.64129 4.91892 4.11718 6.23827 4.11718V2.11718ZM1.30648 4.15999C-0.00150675 5.46798 -0.736328 7.242 -0.736328 9.09178H1.26367C1.26367 7.77243 1.78778 6.50712 2.7207 5.57421L1.30648 4.15999ZM2.82226 9.09178C2.82226 8.1858 3.18216 7.31692 3.82279 6.6763L2.40857 5.26208C1.39288 6.27778 0.822262 7.65536 0.822262 9.09178H2.82226ZM3.82279 6.6763C4.46341 6.03567 5.33229 5.67577 6.23827 5.67577V3.67577C4.80185 3.67577 3.42427 4.24638 2.40857 5.26208L3.82279 6.6763ZM16.6289 5.67577C17.5349 5.67577 18.4037 6.03567 19.0444 6.6763L20.4586 5.26208C19.4429 4.24638 18.0653 3.67577 16.6289 3.67577V5.67577ZM19.0444 6.6763C19.685 7.31692 20.0449 8.1858 20.0449 9.09178H22.0449C22.0449 7.65536 21.4743 6.27778 20.4586 5.26208L19.0444 6.6763ZM23.6035 9.09178C23.6035 7.242 22.8686 5.46798 21.5607 4.15999L20.1464 5.57421C21.0794 6.50712 21.6035 7.77243 21.6035 9.09178H23.6035ZM21.5607 4.15999C20.2527 2.852 18.4786 2.11718 16.6289 2.11718V4.11718C17.9482 4.11718 19.2135 4.64129 20.1464 5.57421L21.5607 4.15999ZM14.5507 19.7812H8.31639V21.7812H14.5507V19.7812ZM8.31639 23.3398H14.5507V21.3398H8.31639V23.3398ZM8.31639 19.7812C7.28621 19.7812 6.69255 19.777 6.27293 19.7205L6.00618 21.7027C6.5903 21.7813 7.34326 21.7812 8.31639 21.7812V19.7812ZM6.27285 19.7205C6.08422 19.6951 6.00401 19.6672 5.9819 19.6581C5.97347 19.6547 5.97922 19.6562 5.99291 19.6654C6.00733 19.675 6.02032 19.6862 6.02955 19.6955L4.60993 21.1043C4.96282 21.4599 5.41698 21.6234 6.00627 21.7027L6.27285 19.7205ZM4.61197 19.6934L3.51056 20.7969L4.92611 22.2098L6.02751 21.1063L4.61197 19.6934ZM3.51123 22.2105C4.20152 22.9008 5.03766 23.1446 5.79866 23.2476L6.06691 21.2657C5.52285 21.1921 5.18069 21.0515 4.92544 20.7962L3.51123 22.2105ZM5.79869 23.2476C6.51095 23.344 7.38662 23.3398 8.31639 23.3398V21.3398C7.33013 21.3398 6.61396 21.3397 6.06688 21.2657L5.79869 23.2476ZM2.38085 17.4043C2.38085 18.334 2.37663 19.2097 2.47301 19.922L4.45495 19.6538C4.38092 19.1067 4.38085 18.3905 4.38085 17.4043H2.38085ZM2.4728 19.9204C2.57493 20.684 2.8204 21.5196 3.51019 22.2094L4.9244 20.7952C4.66865 20.5394 4.52759 20.1968 4.45515 19.6553L2.4728 19.9204ZM4.92407 22.2098L6.02651 21.1084L4.61297 19.6935L3.51052 20.7949L4.92407 22.2098ZM6.02685 19.6938C6.03588 19.7028 6.04669 19.7155 6.05598 19.7295C6.06479 19.7427 6.0661 19.748 6.06239 19.739C6.05284 19.7158 6.02469 19.6344 5.99885 19.4449L4.01719 19.7152C4.09757 20.3046 4.2609 20.7563 4.61263 21.108L6.02685 19.6938ZM5.99932 19.4484C5.9436 19.0288 5.93944 18.4341 5.93944 17.4043H3.93944C3.93944 18.3777 3.93944 19.1297 4.01672 19.7117L5.99932 19.4484ZM16.9277 17.4043C16.9277 18.4344 16.9235 19.0281 16.867 19.4477L18.8491 19.7145C18.9278 19.1303 18.9277 18.3774 18.9277 17.4043H16.9277ZM16.867 19.4478C16.8416 19.6364 16.8137 19.7166 16.8046 19.7388C16.8011 19.7472 16.8027 19.7414 16.8119 19.7277C16.8215 19.7133 16.8327 19.7003 16.842 19.6911L18.2508 21.1107C18.6064 20.7578 18.7699 20.3037 18.8492 19.7144L16.867 19.4478ZM16.8399 21.1087L17.9434 22.2101L19.3563 20.7945L18.2528 19.6931L16.8399 21.1087ZM19.3569 22.2094C20.0472 21.5191 20.2911 20.683 20.3941 19.922L18.4122 19.6537C18.3386 20.1978 18.198 20.54 17.9427 20.7952L19.3569 22.2094ZM20.3941 19.922C20.4905 19.2097 20.4863 18.334 20.4863 17.4043H18.4863C18.4863 18.3905 18.4862 19.1067 18.4122 19.6538L20.3941 19.922ZM14.5507 23.3398C15.4805 23.3398 16.3562 23.344 17.0684 23.2476L16.8003 21.2657C16.2532 21.3397 15.537 21.3398 14.5507 21.3398V23.3398ZM17.0669 23.2478C17.83 23.1458 18.6675 22.9004 19.3577 22.2086L17.942 20.796C17.6866 21.0519 17.3438 21.193 16.8018 21.2655L17.0669 23.2478ZM19.3566 20.7949L18.2542 19.6935L16.8406 21.1083L17.9431 22.2098L19.3566 20.7949ZM16.8403 19.6938C16.8493 19.6848 16.862 19.674 16.876 19.6647C16.8892 19.6559 16.8944 19.6545 16.8854 19.6583C16.8622 19.6678 16.7809 19.696 16.5914 19.7218L16.8617 21.7035C17.4511 21.6231 17.9028 21.4598 18.2545 21.108L16.8403 19.6938ZM16.5949 19.7213C16.1753 19.777 15.5806 19.7812 14.5507 19.7812V21.7812C15.5242 21.7812 16.2761 21.7812 16.8582 21.7039L16.5949 19.7213ZM6.23827 5.67577C6.41185 5.67577 6.57996 5.68823 6.74309 5.7126L7.03851 3.73454C6.77493 3.69517 6.50802 3.67577 6.23827 3.67577V5.67577ZM7.88008 4.86956L8.10764 3.3276L6.12907 3.03561L5.90151 4.57757L7.88008 4.86956ZM7.26176 2.19194C6.92353 2.14293 6.58226 2.11795 6.24051 2.11718L6.23603 4.11718C6.4833 4.11773 6.73023 4.13581 6.97495 4.17127L7.26176 2.19194ZM11.4338 -1C10.0847 -1.00037 8.7693 -0.577986 7.67257 0.207787L8.8374 1.83357C9.59432 1.29126 10.5021 0.999747 11.4333 1L11.4338 -1ZM7.67257 0.207787C6.57584 0.993559 5.75289 2.10322 5.31936 3.38084L7.21329 4.02351C7.5125 3.14174 8.08047 2.37589 8.8374 1.83357L7.67257 0.207787ZM5.9449 4.64911L7.42036 5.14993L8.06321 3.25606L6.58775 2.75524L5.9449 4.64911ZM8.68875 4.52433C8.88332 3.95094 9.25269 3.45294 9.74494 3.10035L8.5803 1.47443C7.74816 2.07049 7.12374 2.91235 6.79482 3.88167L8.68875 4.52433ZM9.74494 3.10035C10.2372 2.74775 10.8276 2.55829 11.4331 2.55859L11.4341 0.558591C10.4105 0.558078 9.41245 0.878366 8.5803 1.47443L9.74494 3.10035ZM5.31859 3.38312C5.09389 4.05056 4.97904 4.75006 4.9785 5.45431L6.9785 5.45582C6.97887 4.96803 7.05842 4.48353 7.21406 4.02123L5.31859 3.38312ZM8.53709 5.45507C8.53709 5.12663 8.59133 4.81434 8.68974 4.5245L6.79592 3.8815C6.62833 4.37511 6.53709 4.90446 6.53709 5.45507H8.53709ZM8.06405 3.25599L6.58754 2.75517L5.9451 4.64918L7.42161 5.15L8.06405 3.25599ZM16.6289 2.11718C16.2822 2.11718 15.9395 2.14213 15.6014 2.19253L15.8962 4.17068C16.1344 4.13518 16.3784 4.11718 16.6289 4.11718V2.11718ZM14.7596 3.32825L14.9882 4.87021L16.9666 4.57692L16.738 3.03496L14.7596 3.32825ZM16.1287 5.71205C16.2924 5.68699 16.4578 5.67486 16.6234 5.67576L16.6343 3.67579C16.3638 3.67432 16.0935 3.69414 15.8261 3.73508L16.1287 5.71205ZM11.4338 2.55859C12.0392 2.55845 12.6294 2.74799 13.1215 3.10057L14.2863 1.47481C13.4544 0.878766 12.4567 0.558351 11.4333 0.558591L11.4338 2.55859ZM13.1215 3.10057C13.6136 3.45316 13.9828 3.95107 14.1773 4.52433L16.0713 3.88167C15.7424 2.91256 15.1182 2.07085 14.2863 1.47481L13.1215 3.10057ZM17.5467 3.38084C17.1133 2.10342 16.2905 0.993899 15.194 0.208145L14.029 1.83382C14.7858 2.37612 15.3536 3.14188 15.6528 4.02351L17.5467 3.38084ZM15.194 0.208145C14.0975 -0.57761 12.7824 -1.00011 11.4335 -1L11.4337 1C12.3647 0.999924 13.2723 1.29152 14.029 1.83382L15.194 0.208145ZM14.1774 4.5245C14.2758 4.81434 14.33 5.12663 14.33 5.45507H16.33C16.33 4.90446 16.2388 4.37511 16.0712 3.8815L14.1774 4.5245ZM17.8886 5.45507C17.8886 4.73135 17.7681 4.03386 17.5468 3.38113L15.6527 4.02321C15.8055 4.47397 15.8886 4.95477 15.8886 5.45507H17.8886ZM5.93944 17.4043V13.8548H3.93944V17.4043H5.93944ZM4.93944 12.8548H3.38085V14.8548H4.93944V12.8548ZM2.38085 13.8548V17.4043H4.38085V13.8548H2.38085ZM4.87187 12.2245C4.26245 11.9585 3.74391 11.5205 3.37983 10.9641L1.70628 12.0592C2.28351 12.9413 3.10565 13.6358 4.07187 14.0575L4.87187 12.2245ZM3.37983 10.9641C3.01576 10.4077 2.82198 9.75713 2.82226 9.0922L0.822262 9.09135C0.821813 10.1456 1.12905 11.177 1.70628 12.0592L3.37983 10.9641ZM-0.736328 9.0916C-0.736573 10.4489 -0.34077 11.7768 0.402558 12.9125L2.07598 11.8172C1.5458 11.0072 1.2635 10.0601 1.26367 9.09196L-0.736328 9.0916ZM0.402558 12.9125C1.14588 14.0481 2.20443 14.9423 3.44843 15.4852L4.24843 13.6521C3.36116 13.2649 2.60615 12.6272 2.07598 11.8172L0.402558 12.9125ZM4.76486 14.9689L5.3883 13.5412L3.55543 12.7408L2.932 14.1685L4.76486 14.9689ZM16.9277 13.8548V17.4043H18.9277V13.8548H16.9277ZM20.4863 17.4043V13.8548H18.4863V17.4043H20.4863ZM19.4863 12.8548H17.9277V14.8548H19.4863V12.8548ZM20.0449 9.0922C20.0452 9.75713 19.8514 10.4077 19.4873 10.9641L21.1609 12.0592C21.7381 11.177 22.0453 10.1456 22.0449 9.09135L20.0449 9.0922ZM19.4873 10.9641C19.1232 11.5205 18.6047 11.9585 17.9953 12.2245L18.7953 14.0575C19.7615 13.6358 20.5836 12.9413 21.1609 12.0592L19.4873 10.9641ZM17.4788 13.5412L18.1023 14.9689L19.9351 14.1685L19.3117 12.7408L17.4788 13.5412ZM19.4187 15.4852C20.6627 14.9423 21.7213 14.0481 22.4646 12.9125L20.7912 11.8172C20.261 12.6272 19.506 13.2649 18.6187 13.6521L19.4187 15.4852ZM22.4646 12.9125C23.2079 11.7768 23.6037 10.4489 23.6035 9.0916L21.6035 9.09196C21.6036 10.0601 21.3213 11.0072 20.7912 11.8172L22.4646 12.9125ZM14.33 5.45507V5.9746H16.33V5.45507H14.33ZM17.8886 5.9746V5.45507H15.8886V5.9746H17.8886ZM4.9785 5.45507V5.9746H6.9785V5.45507H4.9785ZM8.53709 5.9746V5.45507H6.53709V5.9746H8.53709Z" fill="#EA5C2B" mask="url(#path-1-inside-1_75_2261)"/>
</g>
<g id="Vector_2">
<path d="M4.16016 17.4043H18.707H4.16016Z" fill="#EA5C2B"/>
<path d="M4.16016 17.4043H18.707" stroke="#EA5C2B" stroke-width="1.5" stroke-linecap="round" stroke-linejoin="round"/>
</g>
</g>
</svg>
