<svg width="41" height="41" viewBox="0 0 41 41" fill="none" xmlns="http://www.w3.org/2000/svg">
<g id="Group">
<path id="Vector" d="M40.0834 20.5003C40.0834 9.68445 31.316 0.916992 20.5001 0.916992C9.68421 0.916992 0.916748 9.68445 0.916748 20.5003C0.916748 31.3162 9.68421 40.0837 20.5001 40.0837C31.316 40.0837 40.0834 31.3162 40.0834 20.5003Z" fill="#D9D9D9"/>
<path id="Vector_2" d="M13.1933 13.6408C15.8175 12.0311 18.1087 12.6813 19.4874 13.7133C20.0514 14.1363 20.3334 14.3498 20.4999 14.3498C20.6663 14.3498 20.9483 14.1363 21.5123 13.7133C22.889 12.6793 25.1822 12.0291 27.8064 13.6408C31.2531 15.7558 32.0325 22.7275 24.0856 28.6123C22.5698 29.7325 21.8139 30.2926 20.4999 30.2926C19.1878 30.2926 18.4299 29.7325 16.9161 28.6123C8.96527 22.7275 9.74665 15.7539 13.1933 13.6408Z" fill="#6F6F6F" stroke="#D9D9D9" stroke-width="2.1875" stroke-linecap="round" stroke-linejoin="round"/>
</g>
</svg>
