<svg width="47" height="47" viewBox="0 0 47 47" fill="none" xmlns="http://www.w3.org/2000/svg">
<path d="M43.0834 23.5003C43.0834 12.6845 34.316 3.91699 23.5001 3.91699C12.6842 3.91699 3.91675 12.6845 3.91675 23.5003C3.91675 34.3162 12.6842 43.0837 23.5001 43.0837C34.316 43.0837 43.0834 34.3162 43.0834 23.5003Z" fill="#FFBF9F"/>
<path d="M16.1933 16.6408C18.8175 15.0311 21.1087 15.6813 22.4874 16.7133C23.0514 17.1363 23.3334 17.3498 23.4999 17.3498C23.6663 17.3498 23.9483 17.1363 24.5123 16.7133C25.889 15.6793 28.1822 15.0291 30.8064 16.6408C34.2531 18.7558 35.0325 25.7275 27.0856 31.6123C25.5698 32.7325 24.8139 33.2926 23.4999 33.2926C22.1878 33.2926 21.4299 32.7325 19.9161 31.6123C11.9653 25.7275 12.7466 18.7539 16.1933 16.6408Z" fill="#EA5C2B" stroke="#FFBF9F" stroke-width="2.1875" stroke-linecap="round" stroke-linejoin="round"/>
</svg>
