<svg width="26" height="20" viewBox="0 0 26 20" fill="none" xmlns="http://www.w3.org/2000/svg">
<g id="Vector">
<mask id="path-1-inside-1_75_2241" fill="white">
<path d="M3.68681 4.98558C3.68681 4.4499 3.7941 3.91947 4.00254 3.42457C4.21098 2.92967 4.51649 2.47999 4.90164 2.10121C5.28678 1.72243 5.74402 1.42197 6.24724 1.21697C6.75045 1.01198 7.2898 0.906469 7.83448 0.906469C8.37916 0.906469 8.9185 1.01198 9.42172 1.21697C9.92494 1.42197 10.3822 1.72243 10.7673 2.10121C11.1525 2.47999 11.458 2.92967 11.6664 3.42457C11.8749 3.91947 11.9821 4.4499 11.9821 4.98558C11.9821 6.06742 11.5452 7.10496 10.7673 7.86994C9.98948 8.63492 8.93451 9.06469 7.83448 9.06469C6.73445 9.06469 5.67947 8.63492 4.90164 7.86994C4.1238 7.10496 3.68681 6.06742 3.68681 4.98558ZM7.83448 0C6.49 0 5.20058 0.525265 4.24989 1.46024C3.2992 2.39522 2.76511 3.66332 2.76511 4.98558C2.76511 6.30783 3.2992 7.57594 4.24989 8.51091C5.20058 9.44589 6.49 9.97115 7.83448 9.97115C9.17896 9.97115 10.4684 9.44589 11.4191 8.51091C12.3698 7.57594 12.9038 6.30783 12.9038 4.98558C12.9038 3.66332 12.3698 2.39522 11.4191 1.46024C10.4684 0.525265 9.17896 0 7.83448 0ZM16.5907 6.34528C16.5907 5.62405 16.882 4.93236 17.4005 4.42237C17.9191 3.91238 18.6224 3.62587 19.3558 3.62587C20.0891 3.62587 20.7924 3.91238 21.311 4.42237C21.8296 4.93236 22.1209 5.62405 22.1209 6.34528C22.1209 7.06651 21.8296 7.7582 21.311 8.26819C20.7924 8.77818 20.0891 9.06469 19.3558 9.06469C18.6224 9.06469 17.9191 8.77818 17.4005 8.26819C16.882 7.7582 16.5907 7.06651 16.5907 6.34528ZM19.3558 2.71941C18.378 2.71941 17.4402 3.10142 16.7488 3.7814C16.0574 4.46138 15.669 5.38364 15.669 6.34528C15.669 7.30692 16.0574 8.22918 16.7488 8.90916C17.4402 9.58914 18.378 9.97115 19.3558 9.97115C20.3336 9.97115 21.2713 9.58914 21.9627 8.90916C22.6542 8.22918 23.0426 7.30692 23.0426 6.34528C23.0426 5.38364 22.6542 4.46138 21.9627 3.7814C21.2713 3.10142 20.3336 2.71941 19.3558 2.71941ZM2.76511 11.7841C2.03176 11.7841 1.32844 12.0706 0.809882 12.5806C0.291323 13.0906 0 13.7823 0 14.5035C0 15.5151 0.38435 16.8875 1.58441 18.0052C2.78723 19.1256 4.75599 19.9423 7.83356 19.9423C10.9111 19.9423 12.8817 19.1265 14.0845 18.0052C15.2846 16.8875 15.669 15.5151 15.669 14.5035C15.669 13.7823 15.3776 13.0906 14.8591 12.5806C14.3405 12.0706 13.6372 11.7841 12.9038 11.7841H2.76511ZM0.921703 14.5035C0.921703 14.0227 1.11592 13.5615 1.46162 13.2216C1.80733 12.8816 2.27621 12.6906 2.76511 12.6906H12.9038C13.3927 12.6906 13.8616 12.8816 14.2073 13.2216C14.553 13.5615 14.7473 14.0227 14.7473 14.5035C14.7473 15.3048 14.4403 16.4252 13.4513 17.3471C12.4651 18.2662 10.7471 19.0358 7.83448 19.0358C4.9219 19.0358 3.20384 18.2653 2.21762 17.3471C1.22863 16.4252 0.921703 15.3048 0.921703 14.5035ZM16.5566 16.8494C16.4398 17.1226 16.2979 17.3945 16.1307 17.6653C16.9842 17.9526 18.0451 18.1294 19.3558 18.1294C21.9753 18.1294 23.5965 17.425 24.5671 16.534C25.5275 15.6529 25.8077 14.625 25.8077 14.0503C25.8077 13.4492 25.5649 12.8728 25.1328 12.4478C24.7007 12.0228 24.1146 11.7841 23.5034 11.7841H15.9952C16.2423 12.056 16.4533 12.3606 16.6202 12.6906H23.5034C23.8701 12.6906 24.2218 12.8338 24.481 13.0888C24.7403 13.3438 24.886 13.6896 24.886 14.0503C24.886 14.3829 24.7053 15.1679 23.9376 15.8723C23.1808 16.5675 21.8057 17.2229 19.3558 17.2229C18.199 17.2229 17.2819 17.077 16.5566 16.8494Z"/>
</mask>
<path d="M3.68681 4.98558C3.68681 4.4499 3.7941 3.91947 4.00254 3.42457C4.21098 2.92967 4.51649 2.47999 4.90164 2.10121C5.28678 1.72243 5.74402 1.42197 6.24724 1.21697C6.75045 1.01198 7.2898 0.906469 7.83448 0.906469C8.37916 0.906469 8.9185 1.01198 9.42172 1.21697C9.92494 1.42197 10.3822 1.72243 10.7673 2.10121C11.1525 2.47999 11.458 2.92967 11.6664 3.42457C11.8749 3.91947 11.9821 4.4499 11.9821 4.98558C11.9821 6.06742 11.5452 7.10496 10.7673 7.86994C9.98948 8.63492 8.93451 9.06469 7.83448 9.06469C6.73445 9.06469 5.67947 8.63492 4.90164 7.86994C4.1238 7.10496 3.68681 6.06742 3.68681 4.98558ZM7.83448 0C6.49 0 5.20058 0.525265 4.24989 1.46024C3.2992 2.39522 2.76511 3.66332 2.76511 4.98558C2.76511 6.30783 3.2992 7.57594 4.24989 8.51091C5.20058 9.44589 6.49 9.97115 7.83448 9.97115C9.17896 9.97115 10.4684 9.44589 11.4191 8.51091C12.3698 7.57594 12.9038 6.30783 12.9038 4.98558C12.9038 3.66332 12.3698 2.39522 11.4191 1.46024C10.4684 0.525265 9.17896 0 7.83448 0ZM16.5907 6.34528C16.5907 5.62405 16.882 4.93236 17.4005 4.42237C17.9191 3.91238 18.6224 3.62587 19.3558 3.62587C20.0891 3.62587 20.7924 3.91238 21.311 4.42237C21.8296 4.93236 22.1209 5.62405 22.1209 6.34528C22.1209 7.06651 21.8296 7.7582 21.311 8.26819C20.7924 8.77818 20.0891 9.06469 19.3558 9.06469C18.6224 9.06469 17.9191 8.77818 17.4005 8.26819C16.882 7.7582 16.5907 7.06651 16.5907 6.34528ZM19.3558 2.71941C18.378 2.71941 17.4402 3.10142 16.7488 3.7814C16.0574 4.46138 15.669 5.38364 15.669 6.34528C15.669 7.30692 16.0574 8.22918 16.7488 8.90916C17.4402 9.58914 18.378 9.97115 19.3558 9.97115C20.3336 9.97115 21.2713 9.58914 21.9627 8.90916C22.6542 8.22918 23.0426 7.30692 23.0426 6.34528C23.0426 5.38364 22.6542 4.46138 21.9627 3.7814C21.2713 3.10142 20.3336 2.71941 19.3558 2.71941ZM2.76511 11.7841C2.03176 11.7841 1.32844 12.0706 0.809882 12.5806C0.291323 13.0906 0 13.7823 0 14.5035C0 15.5151 0.38435 16.8875 1.58441 18.0052C2.78723 19.1256 4.75599 19.9423 7.83356 19.9423C10.9111 19.9423 12.8817 19.1265 14.0845 18.0052C15.2846 16.8875 15.669 15.5151 15.669 14.5035C15.669 13.7823 15.3776 13.0906 14.8591 12.5806C14.3405 12.0706 13.6372 11.7841 12.9038 11.7841H2.76511ZM0.921703 14.5035C0.921703 14.0227 1.11592 13.5615 1.46162 13.2216C1.80733 12.8816 2.27621 12.6906 2.76511 12.6906H12.9038C13.3927 12.6906 13.8616 12.8816 14.2073 13.2216C14.553 13.5615 14.7473 14.0227 14.7473 14.5035C14.7473 15.3048 14.4403 16.4252 13.4513 17.3471C12.4651 18.2662 10.7471 19.0358 7.83448 19.0358C4.9219 19.0358 3.20384 18.2653 2.21762 17.3471C1.22863 16.4252 0.921703 15.3048 0.921703 14.5035ZM16.5566 16.8494C16.4398 17.1226 16.2979 17.3945 16.1307 17.6653C16.9842 17.9526 18.0451 18.1294 19.3558 18.1294C21.9753 18.1294 23.5965 17.425 24.5671 16.534C25.5275 15.6529 25.8077 14.625 25.8077 14.0503C25.8077 13.4492 25.5649 12.8728 25.1328 12.4478C24.7007 12.0228 24.1146 11.7841 23.5034 11.7841H15.9952C16.2423 12.056 16.4533 12.3606 16.6202 12.6906H23.5034C23.8701 12.6906 24.2218 12.8338 24.481 13.0888C24.7403 13.3438 24.886 13.6896 24.886 14.0503C24.886 14.3829 24.7053 15.1679 23.9376 15.8723C23.1808 16.5675 21.8057 17.2229 19.3558 17.2229C18.199 17.2229 17.2819 17.077 16.5566 16.8494Z" fill="#EA5C2B"/>
<path d="M3.68681 4.98558H5.68681H3.68681ZM7.83448 0.906469V-1.09353V0.906469ZM11.9821 4.98558H9.98214H11.9821ZM7.83448 9.06469V7.06469V9.06469ZM7.83448 0V-2V0ZM2.76511 4.98558H0.76511H2.76511ZM16.5907 6.34528H14.5907H16.5907ZM19.3558 3.62587V1.62587V3.62587ZM22.1209 6.34528H24.1209H22.1209ZM19.3558 2.71941V0.719406V2.71941ZM19.3558 9.97115V11.9712V9.97115ZM2.76511 11.7841V9.78409V11.7841ZM0 14.5035H-2H0ZM1.58441 18.0052L2.94759 16.5417L2.94749 16.5416L1.58441 18.0052ZM14.0845 18.0052L12.7215 16.5416L12.7208 16.5423L14.0845 18.0052ZM15.669 14.5035H17.669H15.669ZM12.9038 11.7841V9.78409V11.7841ZM13.4513 17.3471L14.8149 18.8102L14.815 18.8101L13.4513 17.3471ZM2.21762 17.3471L0.853912 18.8101L0.854745 18.8108L2.21762 17.3471ZM16.5566 16.8494L17.1551 14.9411L15.4286 14.3996L14.7175 16.0634L16.5566 16.8494ZM16.1307 17.6653L14.4289 16.6146L13.1062 18.7573L15.4926 19.5607L16.1307 17.6653ZM24.5671 16.534L23.215 15.0602L23.2145 15.0607L24.5671 16.534ZM15.9952 11.7841V9.78409H11.4766L14.5148 13.1288L15.9952 11.7841ZM16.6202 12.6906L14.8353 13.593L15.3903 14.6906H16.6202V12.6906ZM23.9376 15.8723L22.5856 14.3985L22.5844 14.3995L23.9376 15.8723ZM5.68681 4.98558C5.68681 4.71722 5.74052 4.45067 5.84573 4.20088L2.15935 2.64826C1.84768 3.38827 1.68681 4.18259 1.68681 4.98558H5.68681ZM5.84573 4.20088C5.95097 3.951 6.10613 3.72178 6.30402 3.52716L3.49926 0.675263C2.92685 1.23821 2.47098 1.90834 2.15935 2.64826L5.84573 4.20088ZM6.30402 3.52716C6.50197 3.33248 6.73878 3.17631 7.00177 3.06918L5.49271 -0.635239C4.74925 -0.332381 4.07159 0.112385 3.49926 0.675263L6.30402 3.52716ZM7.00177 3.06918C7.26481 2.96203 7.54786 2.90647 7.83448 2.90647V-1.09353C7.03174 -1.09353 6.2361 -0.938073 5.49271 -0.635239L7.00177 3.06918ZM7.83448 2.90647C8.1211 2.90647 8.40415 2.96203 8.66719 3.06918L10.1763 -0.635239C9.43286 -0.938073 8.63722 -1.09353 7.83448 -1.09353V2.90647ZM8.66719 3.06918C8.93017 3.17631 9.16698 3.33248 9.36494 3.52716L12.1697 0.675263C11.5974 0.112386 10.9197 -0.332381 10.1763 -0.635239L8.66719 3.06918ZM9.36494 3.52716C9.56283 3.72178 9.71799 3.951 9.82323 4.20088L13.5096 2.64826C13.198 1.90833 12.7421 1.23821 12.1697 0.675263L9.36494 3.52716ZM9.82323 4.20088C9.92844 4.45067 9.98214 4.71721 9.98214 4.98558H13.9821C13.9821 4.18259 13.8213 3.38827 13.5096 2.64826L9.82323 4.20088ZM9.98214 4.98558C9.98214 5.52613 9.76411 6.05142 9.36494 6.44399L12.1697 9.29589C13.3262 8.1585 13.9821 6.60872 13.9821 4.98558H9.98214ZM9.36494 6.44399C8.96464 6.83768 8.41473 7.06469 7.83448 7.06469V11.0647C9.45428 11.0647 11.0143 10.4322 12.1697 9.29589L9.36494 6.44399ZM7.83448 7.06469C7.25423 7.06469 6.70432 6.83768 6.30402 6.44399L3.49926 9.29589C4.65463 10.4322 6.21467 11.0647 7.83448 11.0647V7.06469ZM6.30402 6.44399C5.90484 6.05142 5.68681 5.52613 5.68681 4.98558H1.68681C1.68681 6.60872 2.34275 8.1585 3.49926 9.29589L6.30402 6.44399ZM7.83448 -2C5.97022 -2 4.17574 -1.27198 2.84751 0.0342927L5.65227 2.88619C6.22543 2.32251 7.00977 2 7.83448 2V-2ZM2.84751 0.0342927C1.51816 1.34168 0.76511 3.12203 0.76511 4.98558H4.76511C4.76511 4.20461 5.08025 3.44876 5.65227 2.88619L2.84751 0.0342927ZM0.76511 4.98558C0.76511 6.84913 1.51816 8.62948 2.84751 9.93686L5.65227 7.08496C5.08025 6.52239 4.76511 5.76654 4.76511 4.98558H0.76511ZM2.84751 9.93686C4.17574 11.2431 5.97022 11.9712 7.83448 11.9712V7.97115C7.00977 7.97115 6.22543 7.64864 5.65227 7.08496L2.84751 9.93686ZM7.83448 11.9712C9.69873 11.9712 11.4932 11.2431 12.8214 9.93686L10.0167 7.08496C9.44353 7.64864 8.65918 7.97115 7.83448 7.97115V11.9712ZM12.8214 9.93686C14.1508 8.62948 14.9038 6.84912 14.9038 4.98558H10.9038C10.9038 5.76654 10.5887 6.5224 10.0167 7.08496L12.8214 9.93686ZM14.9038 4.98558C14.9038 3.12203 14.1508 1.34168 12.8214 0.0342927L10.0167 2.88619C10.5887 3.44876 10.9038 4.20461 10.9038 4.98558H14.9038ZM12.8214 0.0342927C11.4932 -1.27198 9.69873 -2 7.83448 -2V2C8.65918 2 9.44353 2.32251 10.0167 2.88619L12.8214 0.0342927ZM18.5907 6.34528C18.5907 6.16534 18.663 5.9859 18.8029 5.84832L15.9982 2.99642C15.1009 3.87882 14.5907 5.08276 14.5907 6.34528H18.5907ZM18.8029 5.84832C18.9439 5.70963 19.1422 5.62587 19.3558 5.62587V1.62587C18.1026 1.62587 16.8943 2.11514 15.9982 2.99642L18.8029 5.84832ZM19.3558 5.62587C19.5693 5.62587 19.7676 5.70963 19.9086 5.84832L22.7134 2.99642C21.8173 2.11514 20.6089 1.62587 19.3558 1.62587V5.62587ZM19.9086 5.84832C20.0485 5.9859 20.1209 6.16534 20.1209 6.34528H24.1209C24.1209 5.08276 23.6106 3.87882 22.7134 2.99642L19.9086 5.84832ZM20.1209 6.34528C20.1209 6.52522 20.0485 6.70466 19.9086 6.84224L22.7134 9.69414C23.6106 8.81174 24.1209 7.6078 24.1209 6.34528H20.1209ZM19.9086 6.84224C19.7676 6.98093 19.5693 7.06469 19.3558 7.06469V11.0647C20.6089 11.0647 21.8173 10.5754 22.7134 9.69414L19.9086 6.84224ZM19.3558 7.06469C19.1422 7.06469 18.9439 6.98093 18.8029 6.84224L15.9982 9.69414C16.8943 10.5754 18.1026 11.0647 19.3558 11.0647V7.06469ZM18.8029 6.84224C18.663 6.70466 18.5907 6.52522 18.5907 6.34528H14.5907C14.5907 7.6078 15.1009 8.81174 15.9982 9.69414L18.8029 6.84224ZM19.3558 0.719406C17.8582 0.719406 16.4154 1.30417 15.3464 2.35545L18.1512 5.20735C18.4651 4.89866 18.8977 4.71941 19.3558 4.71941V0.719406ZM15.3464 2.35545C14.2763 3.40784 13.669 4.84235 13.669 6.34528H17.669C17.669 5.92493 17.8384 5.51492 18.1512 5.20735L15.3464 2.35545ZM13.669 6.34528C13.669 7.84821 14.2763 9.28272 15.3464 10.3351L18.1512 7.48321C17.8384 7.17564 17.669 6.76563 17.669 6.34528H13.669ZM15.3464 10.3351C16.4154 11.3864 17.8582 11.9712 19.3558 11.9712V7.97115C18.8977 7.97115 18.4651 7.7919 18.1512 7.48321L15.3464 10.3351ZM19.3558 11.9712C20.8533 11.9712 22.2962 11.3864 23.3651 10.3351L20.5604 7.48321C20.2465 7.7919 19.8138 7.97115 19.3558 7.97115V11.9712ZM23.3651 10.3351C24.4352 9.28272 25.0426 7.84821 25.0426 6.34528H21.0426C21.0426 6.76563 20.8731 7.17564 20.5604 7.48321L23.3651 10.3351ZM25.0426 6.34528C25.0426 4.84235 24.4352 3.40784 23.3651 2.35545L20.5604 5.20735C20.8731 5.51492 21.0426 5.92493 21.0426 6.34528H25.0426ZM23.3651 2.35545C22.2962 1.30417 20.8533 0.719406 19.3558 0.719406V4.71941C19.8138 4.71941 20.2465 4.89866 20.5604 5.20735L23.3651 2.35545ZM2.76511 9.78409C1.51198 9.78409 0.303598 10.2734 -0.592498 11.1546L2.21226 14.0065C2.35328 13.8678 2.55153 13.7841 2.76511 13.7841V9.78409ZM-0.592498 11.1546C-1.48972 12.037 -2 13.241 -2 14.5035H2C2 14.3236 2.07237 14.1441 2.21226 14.0065L-0.592498 11.1546ZM-2 14.5035C-2 15.9906 -1.43978 17.9217 0.221322 19.4687L2.94749 16.5416C2.20848 15.8533 2 15.0397 2 14.5035H-2ZM0.221228 19.4687C1.89534 21.028 4.40767 21.9423 7.83356 21.9423V17.9423C5.10431 17.9423 3.67912 17.2231 2.94759 16.5417L0.221228 19.4687ZM7.83356 21.9423C11.2583 21.9423 13.7734 21.0295 15.4483 19.4681L12.7208 16.5423C11.9901 17.2234 10.5639 17.9423 7.83356 17.9423V21.9423ZM15.4476 19.4687C17.1087 17.9217 17.669 15.9906 17.669 14.5035H13.669C13.669 15.0397 13.4605 15.8533 12.7215 16.5416L15.4476 19.4687ZM17.669 14.5035C17.669 13.241 17.1587 12.037 16.2615 11.1546L13.4567 14.0065C13.5966 14.1441 13.669 14.3236 13.669 14.5035H17.669ZM16.2615 11.1546C15.3654 10.2734 14.157 9.78409 12.9038 9.78409V13.7841C13.1174 13.7841 13.3157 13.8678 13.4567 14.0065L16.2615 11.1546ZM12.9038 9.78409H2.76511V13.7841H12.9038V9.78409ZM2.9217 14.5035C2.9217 14.564 2.89697 14.6151 2.864 14.6475L0.0592447 11.7956C-0.665128 12.508 -1.0783 13.4814 -1.0783 14.5035H2.9217ZM2.864 14.6475C2.83217 14.6788 2.79599 14.6906 2.76511 14.6906V10.6906C1.75643 10.6906 0.782487 11.0843 0.0592447 11.7956L2.864 14.6475ZM2.76511 14.6906H12.9038V10.6906H2.76511V14.6906ZM12.9038 14.6906C12.873 14.6906 12.8368 14.6788 12.805 14.6475L15.6097 11.7956C14.8865 11.0843 13.9125 10.6906 12.9038 10.6906V14.6906ZM12.805 14.6475C12.772 14.6151 12.7473 14.564 12.7473 14.5035H16.7473C16.7473 13.4814 16.3341 12.508 15.6097 11.7956L12.805 14.6475ZM12.7473 14.5035C12.7473 14.8279 12.6171 15.3905 12.0876 15.8841L14.815 18.8101C16.2635 17.4599 16.7473 15.7818 16.7473 14.5035H12.7473ZM12.0877 15.884C11.573 16.3637 10.3989 17.0358 7.83448 17.0358V21.0358C11.0953 21.0358 13.3572 20.1688 14.8149 18.8102L12.0877 15.884ZM7.83448 17.0358C5.27093 17.0358 4.09592 16.3632 3.58049 15.8833L0.854745 18.8108C2.31176 20.1674 4.57286 21.0358 7.83448 21.0358V17.0358ZM3.58132 15.8841C3.05182 15.3905 2.9217 14.8279 2.9217 14.5035H-1.0783C-1.0783 15.7818 -0.594556 17.4599 0.853912 18.8101L3.58132 15.8841ZM14.7175 16.0634C14.6425 16.2389 14.5474 16.4226 14.4289 16.6146L17.8326 18.7159C18.0483 18.3664 18.2371 18.0063 18.3956 17.6355L14.7175 16.0634ZM15.4926 19.5607C16.5859 19.9288 17.8674 20.1294 19.3558 20.1294V16.1294C18.2228 16.1294 17.3825 15.9764 16.7689 15.7698L15.4926 19.5607ZM19.3558 20.1294C22.3346 20.1294 24.4876 19.322 25.9197 18.0072L23.2145 15.0607C22.7054 15.5281 21.6159 16.1294 19.3558 16.1294V20.1294ZM25.9191 18.0078C27.3042 16.737 27.8077 15.1691 27.8077 14.0503H23.8077C23.8077 14.0414 23.8031 14.1726 23.7123 14.3824C23.6279 14.5772 23.4776 14.8193 23.215 15.0602L25.9191 18.0078ZM27.8077 14.0503C27.8077 12.9079 27.346 11.8193 26.5352 11.0219L23.7304 13.8738C23.7839 13.9264 23.8077 13.9905 23.8077 14.0503H27.8077ZM26.5352 11.0219C25.7255 10.2256 24.6343 9.78409 23.5034 9.78409V13.7841C23.5948 13.7841 23.6758 13.8201 23.7304 13.8738L26.5352 11.0219ZM23.5034 9.78409H15.9952V13.7841H23.5034V9.78409ZM14.5148 13.1288C14.6435 13.2705 14.7513 13.4269 14.8353 13.593L18.405 11.7881C18.1553 11.2943 17.841 10.8415 17.4757 10.4393L14.5148 13.1288ZM16.6202 14.6906H23.5034V10.6906H16.6202V14.6906ZM23.5034 14.6906C23.3503 14.6906 23.1969 14.6311 23.0787 14.5148L25.8834 11.6629C25.2466 11.0366 24.3899 10.6906 23.5034 10.6906V14.6906ZM23.0787 14.5148C22.9593 14.3973 22.886 14.2309 22.886 14.0503H26.886C26.886 13.1484 26.5214 12.2903 25.8834 11.6629L23.0787 14.5148ZM22.886 14.0503C22.886 13.966 22.8957 13.9319 22.8926 13.9461C22.8908 13.9539 22.8835 13.983 22.8644 14.027C22.828 14.1111 22.75 14.2476 22.5856 14.3985L25.2896 17.3461C26.4821 16.2521 26.886 14.9271 26.886 14.0503H22.886ZM22.5844 14.3995C22.2893 14.6707 21.4462 15.2229 19.3558 15.2229V19.2229C22.1651 19.2229 24.0724 18.4644 25.2907 17.345L22.5844 14.3995ZM19.3558 15.2229C18.3652 15.2229 17.6545 15.0977 17.1551 14.9411L15.958 18.7578C16.9094 19.0562 18.0329 19.2229 19.3558 19.2229V15.2229Z" fill="#EA5C2B" mask="url(#path-1-inside-1_75_2241)"/>
</g>
</svg>
