<svg width="35" height="35" viewBox="0 0 35 35" fill="none" xmlns="http://www.w3.org/2000/svg">
<g id="ri:bowl-line">
<path id="Vector" d="M11.6667 2.18783C11.6667 1.80105 11.513 1.43012 11.2395 1.15663C10.966 0.883138 10.5951 0.729492 10.2083 0.729492C9.82155 0.729492 9.45062 0.883138 9.17713 1.15663C8.90364 1.43012 8.74999 1.80105 8.74999 2.18783V3.67241C8.75582 3.73658 8.75728 3.76428 8.44812 4.07345L8.41895 4.10262C8.02957 4.49053 7.29166 5.22553 7.29166 6.56283V8.02116C7.29166 8.40793 7.4453 8.77887 7.71879 9.05236C7.99228 9.32585 8.36322 9.47949 8.74999 9.47949C9.13676 9.47949 9.5077 9.32585 9.78119 9.05236C10.0547 8.77887 10.2083 8.40793 10.2083 8.02116V6.53658C10.2025 6.47241 10.201 6.4447 10.5102 6.13553L10.5394 6.10637C10.9287 5.71845 11.6667 4.98345 11.6667 3.64616V2.18783ZM27.7083 2.18783C27.7083 1.80105 27.5547 1.43012 27.2812 1.15663C27.0077 0.883138 26.6368 0.729492 26.25 0.729492C25.8632 0.729492 25.4923 0.883138 25.2188 1.15663C24.9453 1.43012 24.7917 1.80105 24.7917 2.18783V3.67241C24.7975 3.73658 24.7989 3.76428 24.4898 4.07345L24.4606 4.10262C24.0712 4.49053 23.3333 5.22553 23.3333 6.56283V8.02116C23.3333 8.40793 23.487 8.77887 23.7605 9.05236C24.0339 9.32585 24.4049 9.47949 24.7917 9.47949C25.1784 9.47949 25.5494 9.32585 25.8229 9.05236C26.0963 8.77887 26.25 8.40793 26.25 8.02116V6.53658C26.2442 6.47241 26.2427 6.4447 26.5519 6.13553L26.581 6.10637C26.9704 5.71845 27.7083 4.98345 27.7083 3.64616V2.18783ZM18.2292 0.729492C18.6159 0.729492 18.9869 0.883138 19.2604 1.15663C19.5338 1.43012 19.6875 1.80105 19.6875 2.18783V3.64616C19.6875 4.98199 18.9496 5.71699 18.5602 6.10637L18.531 6.13553C18.2219 6.4447 18.2248 6.47241 18.2277 6.53658L18.2292 6.56283V8.02116C18.2292 8.40793 18.0755 8.77887 17.802 9.05236C17.5285 9.32585 17.1576 9.47949 16.7708 9.47949C16.384 9.47949 16.0131 9.32585 15.7396 9.05236C15.4661 8.77887 15.3125 8.40793 15.3125 8.02116V6.56283C15.3125 5.22699 16.0504 4.49199 16.4398 4.10262L16.4689 4.07345C16.7781 3.76428 16.7752 3.73658 16.7723 3.67241L16.7708 3.64616V2.18783C16.7708 1.80105 16.9245 1.43012 17.198 1.15663C17.4714 0.883138 17.8424 0.729492 18.2292 0.729492ZM5.83332 14.5837H29.1667C29.1667 17.6779 27.9375 20.6453 25.7496 22.8332C23.5616 25.0212 20.5942 26.2503 17.5 26.2503C14.4058 26.2503 11.4383 25.0212 9.25041 22.8332C7.06249 20.6453 5.83332 17.6779 5.83332 14.5837ZM4.37499 11.667C3.98822 11.667 3.61728 11.8206 3.34379 12.0941C3.0703 12.3676 2.91666 12.7386 2.91666 13.1253V14.5837C2.91666 20.5628 6.51582 25.7034 11.6667 27.9537V29.167C11.6667 29.5538 11.8203 29.9247 12.0938 30.1982C12.3673 30.4717 12.7382 30.6253 13.125 30.6253H21.875C22.2618 30.6253 22.6327 30.4717 22.9062 30.1982C23.1797 29.9247 23.3333 29.5538 23.3333 29.167V27.9537C28.4842 25.7034 32.0833 20.5643 32.0833 14.5837V13.1253C32.0833 12.7386 31.9297 12.3676 31.6562 12.0941C31.3827 11.8206 31.0118 11.667 30.625 11.667H4.37499Z" fill="#EA5C2B"/>
</g>
</svg>
