<svg width="33" height="22" viewBox="0 0 33 22" fill="none" xmlns="http://www.w3.org/2000/svg">
<g id="Group">
<path id="Vector" d="M16.5 1.38721L17.8913 7.01637C18.0086 7.49087 18.2814 7.91241 18.6663 8.21374C19.0511 8.51507 19.5258 8.67882 20.0146 8.67887H28.1667" stroke="black" stroke-width="2.1875" stroke-linecap="round" stroke-linejoin="round"/>
<path id="Vector_2" d="M1.91675 1.38721H18.059C20.318 1.38721 21.4467 1.38721 22.4049 1.89179C23.3615 2.39637 24.0003 3.32825 25.2778 5.19054C26.1717 6.49721 27.1124 7.44512 28.4336 8.2895C29.7636 9.13825 30.3965 9.55387 30.7465 10.2203C31.0834 10.8576 31.0834 11.613 31.0834 13.1253C31.0834 15.1189 31.0834 16.1149 30.4811 16.7478L30.4024 16.8266C29.7709 17.4289 28.7734 17.4289 26.7813 17.4289M6.29175 17.4289C5.82508 17.4289 5.39487 17.4289 5.16883 17.3807C4.94133 17.3312 4.72841 17.2349 4.30112 17.0439L1.91675 15.9705C1.91675 11.3126 2.61529 8.62346 3.52966 6.41846C4.12758 4.97179 4.428 4.24846 4.30258 3.60387C4.18154 2.96221 2.64591 1.38721 2.64591 1.38721M12.1251 17.4289H20.8751" stroke="black" stroke-width="2.1875" stroke-linecap="round" stroke-linejoin="round"/>
<path id="Vector_3" d="M23.7917 20.3455C25.4025 20.3455 26.7083 19.0397 26.7083 17.4289C26.7083 15.818 25.4025 14.5122 23.7917 14.5122C22.1808 14.5122 20.875 15.818 20.875 17.4289C20.875 19.0397 22.1808 20.3455 23.7917 20.3455Z" stroke="black" stroke-width="2.1875" stroke-linecap="round" stroke-linejoin="round"/>
<path id="Vector_4" d="M9.20841 20.3455C10.8192 20.3455 12.1251 19.0397 12.1251 17.4289C12.1251 15.818 10.8192 14.5122 9.20841 14.5122C7.59758 14.5122 6.29175 15.818 6.29175 17.4289C6.29175 19.0397 7.59758 20.3455 9.20841 20.3455Z" stroke="black" stroke-width="2.1875" stroke-linecap="round" stroke-linejoin="round"/>
</g>
</svg>
