<svg width="49" height="50" viewBox="0 0 49 50" fill="none" xmlns="http://www.w3.org/2000/svg">
<g id="mdi:cash-on-delivery">
<path id="Vector" d="M37.7708 34.9372C36.3417 34.9372 35.3208 33.7122 35.3208 32.4872C35.3208 31.058 36.5458 30.0372 37.7708 30.0372C38.9958 30.0372 40.2208 31.2622 40.2208 32.4872C40.425 33.7122 39.2 34.9372 37.7708 34.9372ZM37.7708 25.1372C33.8917 25.1372 30.625 28.4039 30.625 32.283C30.625 37.5914 37.7708 45.5539 37.7708 45.5539C37.7708 45.5539 44.9167 37.5914 44.9167 32.283C44.9167 28.4039 41.65 25.1372 37.7708 25.1372ZM30.4208 23.708C29.8083 21.0539 27.3583 19.0122 24.5 19.0122C21.0292 19.0122 18.375 21.6664 18.375 25.1372C18.375 28.608 21.0292 31.2622 24.5 31.2622C25.3167 31.2622 25.9292 31.058 26.5417 30.8539C26.95 27.9955 28.3792 25.5455 30.4208 23.708ZM26.5417 33.3039H14.2917C14.2917 32.2209 13.8615 31.1823 13.0957 30.4165C12.3299 29.6507 11.2913 29.2205 10.2083 29.2205V21.0539C11.2913 21.0539 12.3299 20.6237 13.0957 19.8579C13.8615 19.0921 14.2917 18.0535 14.2917 16.9705H34.7083C34.7083 18.0535 35.1385 19.0921 35.9043 19.8579C36.6701 20.6237 37.7087 21.0539 38.7917 21.0539C38.7917 21.0539 40.8333 21.0539 42.875 22.2789V12.8872H6.125V37.3872H27.5625C27.1542 35.958 26.7458 34.733 26.5417 33.3039Z" fill="black"/>
</g>
</svg>
