<svg width="36" height="36" viewBox="0 0 36 36" fill="none" xmlns="http://www.w3.org/2000/svg">
<g id="Group">
<g id="Group_2">
<path id="Vector" fill-rule="evenodd" clip-rule="evenodd" d="M12.8726 1.18457C10.3641 1.68898 9.43709 2.83415 9.53252 4.47008C9.65521 6.77403 12.1909 11.1638 13.4043 13.1133C15.5174 16.5351 18.0258 19.6161 20.8069 22.4654C23.0563 24.6875 24.4741 25.1783 26.8871 21.8928C28.9457 19.1799 30.8406 16.4942 32.4629 13.1269C33.1718 11.6546 33.8398 10.0459 34.426 8.23273C35.0532 6.11965 34.835 4.25195 32.7628 2.88867C34.7532 3.8566 35.6257 5.6425 35.7484 7.61926C35.8711 9.52785 35.2986 11.6 34.8623 13.1269C33.7853 16.9305 32.3948 20.7613 30.6361 24.2104C29.3137 26.8143 27.6233 29.9498 25.9328 32.2674C22.1974 37.407 18.6256 35.7437 14.4267 32.2674C11.7683 30.0589 9.20536 27.2778 7.01048 24.224C4.78833 21.1566 2.34804 16.6033 0.902964 13.0997C-1.07379 8.31454 0.466716 5.86064 2.90699 4.3065C5.59265 2.60239 9.62796 1.63445 12.8726 1.18457Z" fill="url(#paint0_linear_1705_4911)"/>
<path id="Vector_2" fill-rule="evenodd" clip-rule="evenodd" d="M12.791 12.104C16.6764 11.5178 26.7783 10.8907 30.3228 12.7312C31.5088 13.3446 31.5361 14.1762 31.4271 15.1169C31.7815 14.4762 32.1223 13.8081 32.4631 13.1265C33.1721 11.6542 33.8401 10.0455 34.4263 8.23232C35.0534 6.11924 34.8353 4.25155 32.7631 2.88827H32.7494C31.986 2.49291 31.0999 2.193 30.3092 1.96124C27.978 1.2796 25.3877 1.00693 22.7838 0.816072C21.7068 0.734276 20.589 0.747925 19.4438 0.747925C17.3853 0.747925 15.1222 0.884242 12.8728 1.18416C10.3644 1.68858 9.43732 2.83374 9.53275 4.46968C9.64181 6.4328 11.4959 9.90915 12.791 12.104Z" fill="url(#paint1_linear_1705_4911)"/>
</g>
</g>
<defs>
<linearGradient id="paint0_linear_1705_4911" x1="31.4088" y1="23.0596" x2="2.88599" y2="3.08772" gradientUnits="userSpaceOnUse">
<stop stop-color="#006840"/>
<stop offset="0.4" stop-color="#007A48"/>
<stop offset="1" stop-color="#86C440"/>
</linearGradient>
<linearGradient id="paint1_linear_1705_4911" x1="13.5188" y1="1.00626" x2="30.3975" y2="12.8247" gradientUnits="userSpaceOnUse">
<stop stop-color="#006840"/>
<stop offset="0.3" stop-color="#007A48"/>
<stop offset="1" stop-color="#86C440"/>
</linearGradient>
</defs>
</svg>
