<svg width="32" height="22" viewBox="0 0 32 22" fill="none" xmlns="http://www.w3.org/2000/svg">
<path id="Vector" d="M18.7779 1.6665H5.889C4.38744 1.6665 3.63666 1.6665 3.04378 1.91139C2.65286 2.07351 2.29772 2.31104 1.99861 2.61042C1.69951 2.9098 1.46231 3.26517 1.30055 3.65623C1.05566 4.2475 1.05566 4.99828 1.05566 6.49984C2.33754 6.49984 3.56692 7.00906 4.47335 7.91549C5.37977 8.82191 5.889 10.0513 5.889 11.3332C5.889 12.615 5.37977 13.8444 4.47335 14.7509C3.56692 15.6573 2.33754 16.1665 1.05566 16.1665C1.05566 17.6681 1.05566 18.4188 1.30055 19.0101C1.46231 19.4012 1.69951 19.7565 1.99861 20.0559C2.29772 20.3553 2.65286 20.5928 3.04378 20.7549C3.63666 20.9998 4.38744 20.9998 5.889 20.9998H18.7779M18.7779 1.6665H25.2223C26.7239 1.6665 27.4747 1.6665 28.0659 1.91139C28.4572 2.07333 28.8126 2.31078 29.112 2.61017C29.4114 2.90956 29.6488 3.26502 29.8108 3.65623C30.0557 4.2475 30.0557 4.99828 30.0557 6.49984C28.7738 6.49984 27.5444 7.00906 26.638 7.91549C25.7316 8.82191 25.2223 10.0513 25.2223 11.3332C25.2223 12.615 25.7316 13.8444 26.638 14.7509C27.5444 15.6573 28.7738 16.1665 30.0557 16.1665C30.0557 17.6681 30.0557 18.4188 29.8108 19.0101C29.6488 19.4013 29.4114 19.7568 29.112 20.0562C28.8126 20.3556 28.4572 20.593 28.0659 20.7549C27.4747 20.9998 26.7239 20.9998 25.2223 20.9998H18.7779M18.7779 1.6665V20.9998" stroke="black" stroke-width="2" stroke-linecap="round" stroke-linejoin="round"/>
</svg>
