<svg width="32" height="33" viewBox="0 0 32 33" fill="none" xmlns="http://www.w3.org/2000/svg">
<g id="arcticons:nextcloud-cookbook">
<path id="Vector" d="M8.48676 3.16602V29.1993H6.9001C6.55229 29.1907 6.22165 29.0463 5.97876 28.7972C5.73588 28.5481 5.59999 28.2139 5.6001 27.866V4.46602C5.60855 4.1239 5.74823 3.79812 5.99022 3.55613C6.2322 3.31414 6.55798 3.17447 6.9001 3.16602H8.48676ZM8.48676 3.16602V29.166H25.1001C25.4537 29.166 25.7929 29.0255 26.0429 28.7755C26.293 28.5254 26.4334 28.1863 26.4334 27.8327V4.46602C26.4247 4.1182 26.2804 3.78757 26.0313 3.54468C25.7822 3.3018 25.448 3.16591 25.1001 3.16602H8.48676ZM14.5268 11.8593V8.99935M13.0268 11.9927V8.99935M15.9334 11.8593V8.99935M17.4468 11.9927V8.99935" stroke="#EA5C2B" stroke-width="0.666667" stroke-linecap="round" stroke-linejoin="round"/>
<path id="Vector_2" d="M17.4466 11.9924C17.4156 12.5575 17.1692 13.0893 16.7581 13.4784C16.3471 13.8674 15.8026 14.0843 15.2366 14.0843C14.6706 14.0843 14.1261 13.8674 13.7151 13.4784C13.304 13.0893 13.0577 12.5575 13.0266 11.9924M15.2333 23.3324V14.239M21.8533 23.3324V8.99902C18.5199 10.2457 18.6866 16.499 21.8533 18.0657" stroke="#EA5C2B" stroke-width="0.666667" stroke-linecap="round" stroke-linejoin="round"/>
</g>
</svg>
