<svg width="22" height="21" viewBox="0 0 22 21" fill="none" xmlns="http://www.w3.org/2000/svg">
<g id="Group">
<path id="Vector" d="M5.2915 5.79175H4.24984C3.6973 5.79175 3.1674 6.01124 2.7767 6.40194C2.386 6.79264 2.1665 7.32255 2.1665 7.87508V17.2501C2.1665 17.8026 2.386 18.3325 2.7767 18.7232C3.1674 19.1139 3.6973 19.3334 4.24984 19.3334H13.6248C14.1774 19.3334 14.7073 19.1139 15.098 18.7232C15.4887 18.3325 15.7082 17.8026 15.7082 17.2501V16.2084" stroke="black" stroke-width="2.91667" stroke-linecap="round" stroke-linejoin="round"/>
<path id="Vector_2" d="M14.6667 3.70845L17.7917 6.83344M19.2344 5.35949C19.6446 4.94923 19.8751 4.3928 19.8751 3.81261C19.8751 3.23242 19.6446 2.67599 19.2344 2.26574C18.8241 1.85548 18.2677 1.625 17.6875 1.625C17.1073 1.625 16.5509 1.85548 16.1406 2.26574L7.375 11.0001V14.1251H10.5L19.2344 5.35949Z" stroke="black" stroke-width="2.91667" stroke-linecap="round" stroke-linejoin="round"/>
</g>
</svg>
