<svg width="24" height="24" viewBox="0 0 24 24" fill="none" xmlns="http://www.w3.org/2000/svg">
<path d="M12 19C11.1615 19 10.3305 18.8213 9.53259 18.4776C8.73464 18.1339 8.00259 17.632 7.38078 16.9939C6.75897 16.3559 6.25812 15.6239 5.91823 14.8259C5.57835 14.028 5.4 13.1971 5.4 12.3585C5.4 11.52 5.57869 10.689 5.92235 9.89106C6.26601 9.09312 6.76792 8.36106 7.40598 7.73924C8.04404 7.11743 8.77609 6.61658 9.57404 6.2767C10.372 5.93681 11.2029 5.75846 12.0415 5.75846C12.88 5.75846 13.711 5.93715 14.5089 6.28081C15.3069 6.62447 16.0389 7.12638 16.6608 7.76444C17.2826 8.4025 17.7834 9.13455 18.1233 9.9325C18.4632 10.7305 18.6415 11.5614 18.6415 12.4C18.6415 13.2385 18.4628 14.0695 18.1192 14.8674C17.7755 15.6654 17.2736 16.3974 16.6355 17.0192C15.9974 17.6411 15.2654 18.1419 14.4674 18.4818C13.6695 18.8217 12.8385 19 12 19ZM12 7.4C10.5615 7.4 9.2123 7.95846 8.20384 8.96692C7.19538 9.97538 6.63692 11.3246 6.63692 12.7631C6.63692 14.2015 7.19538 15.5508 8.20384 16.5592C9.2123 17.5677 10.5615 18.1261 12 18.1261C13.4385 18.1261 14.7877 17.5677 15.7962 16.5592C16.8046 15.5508 17.3631 14.2015 17.3631 12.7631C17.3631 11.3246 16.8046 9.97538 15.7962 8.96692C14.7877 7.95846 13.4385 7.4 12 7.4Z" fill="#666666"/>
<path d="M4.4 4.4L19.6 19.6" stroke="#666666" stroke-width="1.5" stroke-linecap="round" stroke-linejoin="round"/>
<path d="M15.7692 15.7692C15.1923 16.3462 14.4 16.6346 13.6077 16.6346C12.8154 16.6346 12.0231 16.3462 11.4462 15.7692C10.8692 15.1923 10.5808 14.4 10.5808 13.6077C10.5808 12.8154 10.8692 12.0231 11.4462 11.4462" stroke="#666666" stroke-width="1.5" stroke-linecap="round" stroke-linejoin="round"/>
</svg>
