<svg width="36" height="36" viewBox="0 0 36 36" fill="none" xmlns="http://www.w3.org/2000/svg">
<g id="zondicons:close-outline">
<path id="Vector" d="M6.1277 30.8727C4.45627 29.2584 3.12308 27.3273 2.20593 25.1923C1.28877 23.0572 0.806009 20.7609 0.785817 18.4372C0.765625 16.1136 1.2084 13.8092 2.08832 11.6585C2.96824 9.50782 4.26767 7.55391 5.91079 5.91079C7.55391 4.26767 9.50782 2.96824 11.6585 2.08832C13.8092 1.2084 16.1136 0.765625 18.4372 0.785817C20.7609 0.806009 23.0572 1.28877 25.1923 2.20593C27.3273 3.12308 29.2584 4.45627 30.8727 6.1277C34.0605 9.42824 35.8244 13.8488 35.7845 18.4372C35.7446 23.0257 33.9042 27.4149 30.6595 30.6595C27.4149 33.9042 23.0257 35.7446 18.4372 35.7845C13.8488 35.8244 9.42824 34.0605 6.1277 30.8727ZM8.5952 28.4052C11.2222 31.0322 14.7851 32.508 18.5002 32.508C22.2153 32.508 25.7782 31.0322 28.4052 28.4052C31.0322 25.7782 32.508 22.2153 32.508 18.5002C32.508 14.7851 31.0322 11.2222 28.4052 8.5952C25.7782 5.96823 22.2153 4.49241 18.5002 4.49241C14.7851 4.49241 11.2222 5.96823 8.5952 8.5952C5.96823 11.2222 4.49241 14.7851 4.49241 18.5002C4.49241 22.2153 5.96823 25.7782 8.5952 28.4052ZM25.9202 13.5477L20.9677 18.5002L25.9202 23.4527L23.4527 25.9202L18.5002 20.9677L13.5477 25.9202L11.0802 23.4527L16.0327 18.5002L11.0802 13.5477L13.5477 11.0802L18.5002 16.0327L23.4527 11.0802L25.9202 13.5477Z" fill="#EA5C2B"/>
</g>
</svg>
