<svg width="25" height="24" viewBox="0 0 25 24" fill="none" xmlns="http://www.w3.org/2000/svg">
<g id="mynaui:heart-solid">
<path id="Vector" d="M12.0383 23.8452C12.1944 23.952 12.381 24.0094 12.5722 24.0094C12.7635 24.0094 12.9501 23.952 13.1062 23.8452L12.5729 23.1168L13.1074 23.8452L13.1173 23.8381L13.1432 23.8202L13.2417 23.7512C13.3271 23.6917 13.4482 23.6048 13.6051 23.4905C15.4354 22.1557 17.1631 20.6944 18.7746 19.118C20.1887 17.728 21.6261 16.1035 22.7149 14.3802C23.7989 12.6664 24.5822 10.7812 24.5822 8.89132C24.5822 6.64794 23.8617 4.89489 22.5868 3.70477C21.3182 2.52179 19.6061 1.99219 17.8077 1.99219C15.683 1.99219 13.8071 2.98356 12.5729 4.51167C11.3387 2.98356 9.46151 1.99219 7.338 1.99219C3.54427 1.99219 0.563477 5.13292 0.563477 8.89132C0.563477 10.7812 1.34809 12.6652 2.43078 14.3802C3.51963 16.1035 4.95706 17.728 6.37109 19.1192C8.08912 20.7987 9.93894 22.3473 11.904 23.7512L12.0026 23.8202L12.0284 23.8381L12.0383 23.8452Z" fill="#6F6F6E"/>
</g>
</svg>
