<svg width="30" height="30" viewBox="0 0 30 30" fill="none" xmlns="http://www.w3.org/2000/svg">
<circle cx="15" cy="15" r="15" fill="#EA5C2B"/>
<path d="M16.6917 11.0228C16.8089 11.14 16.8747 11.299 16.8747 11.4647C16.8747 11.6304 16.8089 11.7894 16.6917 11.9066L13.598 15.0003L16.6917 18.0941C16.8056 18.212 16.8686 18.3698 16.8671 18.5337C16.8657 18.6976 16.8 18.8543 16.6841 18.9702C16.5682 19.0861 16.4115 19.1518 16.2476 19.1533C16.0837 19.1547 15.9258 19.0917 15.808 18.9778L12.2723 15.4422C12.1552 15.325 12.0894 15.1661 12.0894 15.0003C12.0894 14.8346 12.1552 14.6757 12.2723 14.5585L15.808 11.0228C15.9252 10.9057 16.0841 10.8398 16.2498 10.8398C16.4156 10.8398 16.5745 10.9057 16.6917 11.0228Z" fill="white"/>
</svg>
