<svg width="25" height="24" viewBox="0 0 25 24" fill="none" xmlns="http://www.w3.org/2000/svg">
<g id="cuida:arrow-right-outline">
<path id="Vector" fill-rule="evenodd" clip-rule="evenodd" d="M19 12.214C19 11.9488 18.8946 11.6944 18.7071 11.5069C18.5196 11.3193 18.2652 11.214 18 11.214H5.5C5.23478 11.214 4.98043 11.3193 4.79289 11.5069C4.60536 11.6944 4.5 11.9488 4.5 12.214C4.5 12.4792 4.60536 12.7336 4.79289 12.9211C4.98043 13.1086 5.23478 13.214 5.5 13.214H18C18.2652 13.214 18.5196 13.1086 18.7071 12.9211C18.8946 12.7336 19 12.4792 19 12.214Z" fill="#EA5C2B"/>
<path id="Vector_2" fill-rule="evenodd" clip-rule="evenodd" d="M20.5001 12.2139C20.5 11.9488 20.3946 11.6944 20.2071 11.5069L15.7071 7.00695C15.6148 6.91144 15.5045 6.83526 15.3825 6.78285C15.2605 6.73044 15.1293 6.70285 14.9965 6.7017C14.8637 6.70054 14.732 6.72585 14.6091 6.77613C14.4862 6.82641 14.3746 6.90066 14.2807 6.99455C14.1868 7.08845 14.1125 7.2001 14.0623 7.32299C14.012 7.44589 13.9867 7.57757 13.9878 7.71035C13.989 7.84313 14.0166 7.97435 14.069 8.09635C14.1214 8.21836 14.1976 8.3287 14.2931 8.42095L18.0861 12.2139L14.2931 16.0069C14.1054 16.1945 14 16.4488 13.9999 16.7141C13.9998 16.9794 14.1051 17.2338 14.2926 17.4214C14.4801 17.6091 14.7345 17.7146 14.9997 17.7147C15.265 17.7147 15.5194 17.6095 15.7071 17.4219L20.2071 12.9219C20.3001 12.829 20.3738 12.7186 20.4241 12.5971C20.4744 12.4756 20.5002 12.3454 20.5001 12.2139Z" fill="#EA5C2B"/>
</g>
</svg>
