<svg width="17" height="17" viewBox="0 0 17 17" fill="none" xmlns="http://www.w3.org/2000/svg">
<g id="icon right">
<path id="Vector" d="M5.79303 2.13605C5.60556 2.32358 5.50024 2.57788 5.50024 2.84305C5.50024 3.10821 5.60556 3.36252 5.79303 3.55005L10.743 8.50005L5.79303 13.45C5.61087 13.6387 5.51008 13.8913 5.51236 14.1535C5.51463 14.4156 5.6198 14.6665 5.80521 14.8519C5.99062 15.0373 6.24143 15.1424 6.50363 15.1447C6.76583 15.147 7.01843 15.0462 7.20703 14.864L12.864 9.20705C13.0515 9.01952 13.1568 8.76521 13.1568 8.50005C13.1568 8.23488 13.0515 7.98058 12.864 7.79305L7.20703 2.13605C7.0195 1.94858 6.76519 1.84326 6.50003 1.84326C6.23487 1.84326 5.98056 1.94858 5.79303 2.13605Z" fill="black"/>
</g>
</svg>
