<svg width="35" height="36" viewBox="0 0 35 36" fill="none" xmlns="http://www.w3.org/2000/svg">
<path d="M17.5 19.458C19.9162 19.458 21.875 17.4993 21.875 15.083C21.875 12.6668 19.9162 10.708 17.5 10.708C15.0838 10.708 13.125 12.6668 13.125 15.083C13.125 17.4993 15.0838 19.458 17.5 19.458Z" stroke="#F24822" stroke-width="2.91667" stroke-linecap="round" stroke-linejoin="round"/>
<path d="M17.5 3.4165C14.4058 3.4165 11.4383 4.64567 9.2504 6.83359C7.06248 9.02152 5.83331 11.989 5.83331 15.0832C5.83331 17.8423 6.41956 19.6478 8.02081 21.6457L17.5 32.5832L26.9791 21.6457C28.5804 19.6478 29.1666 17.8423 29.1666 15.0832C29.1666 11.989 27.9375 9.02152 25.7496 6.83359C23.5616 4.64567 20.5942 3.4165 17.5 3.4165Z" stroke="#F24822" stroke-width="2.91667" stroke-linecap="round" stroke-linejoin="round"/>
</svg>
