<svg width="25" height="30" viewBox="0 0 25 30" fill="none" xmlns="http://www.w3.org/2000/svg">
<g id="Group">
<path id="Vector" fill-rule="evenodd" clip-rule="evenodd" d="M20.5 9.49984C21.5203 9.49978 22.502 9.8896 23.2443 10.5895C23.9867 11.2895 24.4335 12.2466 24.4933 13.2652L24.5 13.4998V17.4998C24.5 18.3532 23.9947 19.0185 23.324 19.3225L23.1667 19.3852V24.1665C23.1669 24.8393 22.9128 25.4873 22.4553 25.9806C21.9979 26.4739 21.3709 26.776 20.7 26.8265L20.5 26.8332H4.5C3.82723 26.8334 3.17924 26.5793 2.68594 26.1218C2.19263 25.6644 1.89046 25.0374 1.84 24.3665L1.83333 24.1665V19.3865C1.47347 19.261 1.1573 19.0346 0.922543 18.7344C0.687786 18.4341 0.544346 18.0727 0.509333 17.6932L0.5 17.4998V13.4998C0.499943 12.4796 0.889767 11.4978 1.58971 10.7555C2.28966 10.0132 3.24681 9.56636 4.26533 9.5065L4.5 9.49984H20.5ZM20.4107 18.4332C20.2038 18.278 19.9563 18.1862 19.6983 18.1692C19.4402 18.1521 19.1828 18.2105 18.9573 18.3372L18.8107 18.4332L18.456 18.6998C17.8017 19.1908 17.0126 19.4694 16.1951 19.498C15.3776 19.5266 14.571 19.3039 13.884 18.8598L13.656 18.6998L13.3 18.4332C13.0932 18.278 12.8456 18.1862 12.5876 18.1692C12.3296 18.1521 12.0721 18.2105 11.8467 18.3372L11.7 18.4332L11.344 18.6998C10.6898 19.1905 9.90102 19.4689 9.08379 19.4975C8.26656 19.5261 7.4602 19.3036 6.77333 18.8598L6.544 18.6998L6.18933 18.4332C5.98249 18.278 5.73497 18.1862 5.47693 18.1692C5.21889 18.1521 4.96146 18.2105 4.736 18.3372L4.58933 18.4332L4.5 18.4998V24.1665H20.5V18.4998L20.4107 18.4332ZM20.5 12.1665H4.5C4.14638 12.1665 3.80724 12.307 3.55719 12.557C3.30714 12.8071 3.16667 13.1462 3.16667 13.4998V16.1732C3.85546 15.713 4.67012 15.4781 5.49816 15.5008C6.3262 15.5235 7.12677 15.8027 7.78933 16.2998L8.144 16.5665C8.37479 16.7396 8.65551 16.8332 8.944 16.8332C9.23249 16.8332 9.5132 16.7396 9.744 16.5665L10.1 16.2998C10.7924 15.7806 11.6345 15.4998 12.5 15.4998C13.3655 15.4998 14.2076 15.7806 14.9 16.2998L15.256 16.5665C15.4868 16.7396 15.7675 16.8332 16.056 16.8332C16.3445 16.8332 16.6252 16.7396 16.856 16.5665L17.2107 16.2998C17.8732 15.8027 18.6738 15.5235 19.5018 15.5008C20.3299 15.4781 21.1445 15.713 21.8333 16.1732V13.4998C21.8333 13.1462 21.6929 12.8071 21.4428 12.557C21.1928 12.307 20.8536 12.1665 20.5 12.1665ZM13.3 0.433171C13.8505 0.864581 14.3622 1.34329 14.8293 1.86384C15.528 2.64917 16.5 3.97317 16.5 5.49984C16.5 6.5607 16.0786 7.57812 15.3284 8.32827C14.5783 9.07841 13.5609 9.49984 12.5 9.49984C11.4391 9.49984 10.4217 9.07841 9.67157 8.32827C8.92143 7.57812 8.5 6.5607 8.5 5.49984C8.5 3.97317 9.47333 2.64917 10.1707 1.86384C10.6378 1.34329 11.1495 0.864581 11.7 0.433171C11.9308 0.260074 12.2115 0.166504 12.5 0.166504C12.7885 0.166504 13.0692 0.260074 13.3 0.433171ZM12.5 3.2785C12.3839 3.39413 12.2714 3.5133 12.1627 3.63584C11.528 4.3505 11.1667 5.0265 11.1667 5.49984C11.1667 5.85346 11.3071 6.1926 11.5572 6.44265C11.8072 6.69269 12.1464 6.83317 12.5 6.83317C12.8536 6.83317 13.1928 6.69269 13.4428 6.44265C13.6929 6.1926 13.8333 5.85346 13.8333 5.49984C13.8333 5.0265 13.4733 4.3505 12.8373 3.63584C12.7286 3.5133 12.6161 3.39413 12.5 3.2785Z" fill="#EA5C2B"/>
</g>
</svg>
