<svg width="36" height="35" viewBox="0 0 36 35" fill="none" xmlns="http://www.w3.org/2000/svg">
<g id="codicon:account">
<path id="Vector" d="M35.5 17.4825C35.5 7.83125 27.66 0 18 0C8.34 0 0.5 7.83125 0.5 17.4825C0.5 22.7981 2.915 27.5887 6.695 30.8044C6.73 30.8394 6.765 30.8394 6.765 30.8744C7.08 31.1194 7.395 31.3644 7.745 31.6094C7.92 31.7144 8.06 31.8522 8.235 31.9922C11.1282 33.9505 14.5413 34.9981 18.035 35C21.5287 34.9981 24.9418 33.9505 27.835 31.9922C28.01 31.8872 28.15 31.7494 28.325 31.6422C28.64 31.3994 28.99 31.1544 29.305 30.9094C29.34 30.8744 29.375 30.8744 29.375 30.8394C33.085 27.5866 35.5 22.7981 35.5 17.4825ZM18 32.7972C14.71 32.7972 11.7 31.7472 9.215 29.9994C9.25 29.7194 9.32 29.4416 9.39 29.1616C9.59924 28.403 9.90508 27.6744 10.3 26.9937C10.685 26.3288 11.14 25.7338 11.7 25.2087C12.225 24.6838 12.855 24.1959 13.485 23.8109C14.15 23.4259 14.85 23.1459 15.62 22.9359C16.3962 22.728 17.1964 22.6229 18 22.6231C20.386 22.6051 22.6846 23.5204 24.405 25.1737C25.21 25.9788 25.84 26.923 26.295 28.0066C26.54 28.6366 26.715 29.3008 26.82 29.9994C24.2369 31.8153 21.1575 32.7922 18 32.7972ZM12.645 16.6097C12.3372 15.9034 12.1822 15.1401 12.19 14.3697C12.19 13.6019 12.33 12.8319 12.645 12.1319C12.96 11.4319 13.38 10.8041 13.905 10.2791C14.43 9.75406 15.06 9.33625 15.76 9.02125C16.46 8.70625 17.23 8.56625 18 8.56625C18.805 8.56625 19.54 8.70625 20.24 9.02125C20.94 9.33625 21.57 9.75625 22.095 10.2791C22.62 10.8041 23.04 11.4341 23.355 12.1319C23.67 12.8319 23.81 13.6019 23.81 14.3697C23.81 15.1747 23.67 15.9097 23.355 16.6075C23.0527 17.2981 22.6256 17.927 22.095 18.4625C21.5593 18.9923 20.9304 19.4187 20.24 19.7203C18.7935 20.3135 17.1715 20.3135 15.725 19.7203C15.0346 19.4187 14.4057 18.9923 13.87 18.4625C13.339 17.9346 12.922 17.3054 12.645 16.6097ZM28.885 28.2166C28.885 28.1466 28.85 28.1116 28.85 28.0416C28.5064 26.9463 27.999 25.9093 27.345 24.9659C26.6905 24.0156 25.8868 23.1772 24.965 22.4831C24.2608 21.9531 23.4973 21.5068 22.69 21.1531C23.0556 20.9086 23.3956 20.6279 23.705 20.3153C24.2268 19.8002 24.6851 19.2244 25.07 18.6003C25.8478 17.3279 26.2483 15.8608 26.225 14.3697C26.2364 13.2661 26.022 12.1718 25.595 11.1541C25.1739 10.1733 24.5679 9.28281 23.81 8.53125C23.0514 7.7898 22.1612 7.19632 21.185 6.78125C20.1658 6.35437 19.0699 6.14071 17.965 6.15344C16.8599 6.1414 15.7641 6.3558 14.745 6.78344C13.7581 7.19344 12.865 7.80002 12.12 8.56625C11.3747 9.32087 10.7807 10.2112 10.37 11.1891C9.94295 12.2068 9.72856 13.3011 9.74 14.4047C9.74 15.1747 9.845 15.909 10.055 16.6075C10.265 17.3425 10.545 18.0075 10.93 18.6353C11.28 19.2653 11.77 19.8253 12.295 20.3503C12.61 20.6653 12.96 20.9446 13.345 21.1881C12.5341 21.5491 11.7701 22.0075 11.07 22.5531C10.16 23.2531 9.355 24.0909 8.69 25.0009C8.02997 25.9408 7.52208 26.9787 7.185 28.0766C7.15 28.1466 7.15 28.2166 7.15 28.2516C4.385 25.4538 2.67 21.6781 2.67 17.4825C2.67 9.05625 9.565 2.16781 18 2.16781C26.435 2.16781 33.33 9.05625 33.33 17.4825C33.3254 21.5074 31.7273 25.3667 28.885 28.2166Z" fill="#FF7F3F"/>
</g>
</svg>
