<svg width="32" height="33" viewBox="0 0 32 33" fill="none" xmlns="http://www.w3.org/2000/svg">
<g id="material-symbols:lock-outline">
<path id="Vector" d="M8.00016 29.833C7.26683 29.833 6.63927 29.5721 6.1175 29.0503C5.59572 28.5286 5.33438 27.9006 5.3335 27.1663V13.833C5.3335 13.0997 5.59483 12.4721 6.1175 11.9503C6.64016 11.4286 7.26772 11.1672 8.00016 11.1663H9.3335V8.49968C9.3335 6.65523 9.98372 5.08323 11.2842 3.78368C12.5846 2.48412 14.1566 1.8339 16.0002 1.83301C17.8437 1.83212 19.4162 2.48234 20.7175 3.78368C22.0188 5.08501 22.6686 6.65701 22.6668 8.49968V11.1663H24.0002C24.7335 11.1663 25.3615 11.4277 25.8842 11.9503C26.4068 12.473 26.6677 13.1006 26.6668 13.833V27.1663C26.6668 27.8997 26.4059 28.5277 25.8842 29.0503C25.3624 29.573 24.7344 29.8339 24.0002 29.833H8.00016ZM8.00016 27.1663H24.0002V13.833H8.00016V27.1663ZM16.0002 23.1663C16.7335 23.1663 17.3615 22.9055 17.8842 22.3837C18.4068 21.8619 18.6677 21.2339 18.6668 20.4997C18.6659 19.7655 18.4051 19.1379 17.8842 18.617C17.3633 18.0961 16.7353 17.8348 16.0002 17.833C15.2651 17.8312 14.6375 18.0926 14.1175 18.617C13.5975 19.1415 13.3362 19.769 13.3335 20.4997C13.3308 21.2303 13.5922 21.8583 14.1175 22.3837C14.6428 22.909 15.2704 23.1699 16.0002 23.1663ZM12.0002 11.1663H20.0002V8.49968C20.0002 7.38856 19.6113 6.44412 18.8335 5.66634C18.0557 4.88856 17.1113 4.49968 16.0002 4.49968C14.8891 4.49968 13.9446 4.88856 13.1668 5.66634C12.3891 6.44412 12.0002 7.38856 12.0002 8.49968V11.1663Z" fill="#EA5C2B"/>
</g>
</svg>
