<svg width="35" height="35" viewBox="0 0 35 35" fill="none" xmlns="http://www.w3.org/2000/svg">
<g id="material-symbols:error-outline">
<path id="Vector" d="M17.4998 24.7917C17.913 24.7917 18.2596 24.6517 18.5396 24.3717C18.8196 24.0917 18.9591 23.7456 18.9582 23.3334C18.9572 22.9212 18.8172 22.5751 18.5382 22.2951C18.2591 22.0151 17.913 21.8751 17.4998 21.8751C17.0866 21.8751 16.7405 22.0151 16.4615 22.2951C16.1825 22.5751 16.0425 22.9212 16.0415 23.3334C16.0405 23.7456 16.1805 24.0922 16.4615 24.3732C16.7425 24.6542 17.0886 24.7937 17.4998 24.7917ZM16.0415 18.9584H18.9582V10.2084H16.0415V18.9584ZM17.4998 32.0834C15.4825 32.0834 13.5866 31.7004 11.8123 30.9342C10.038 30.1681 8.49463 29.1293 7.18213 27.8178C5.86963 26.5063 4.83081 24.9629 4.06567 23.1876C3.30053 21.4123 2.91748 19.5165 2.91651 17.5001C2.91553 15.4837 3.29859 13.5879 4.06567 11.8126C4.83276 10.0373 5.87158 8.4939 7.18213 7.18237C8.49269 5.87085 10.0361 4.83203 11.8123 4.06591C13.5886 3.2998 15.4844 2.91675 17.4998 2.91675C19.5153 2.91675 21.4111 3.2998 23.1873 4.06591C24.9636 4.83203 26.507 5.87085 27.8176 7.18237C29.1281 8.4939 30.1674 10.0373 30.9355 11.8126C31.7035 13.5879 32.0861 15.4837 32.0832 17.5001C32.0803 19.5165 31.6972 21.4123 30.934 23.1876C30.1708 24.9629 29.132 26.5063 27.8176 27.8178C26.5031 29.1293 24.9597 30.1686 23.1873 30.9357C21.415 31.7028 19.5191 32.0854 17.4998 32.0834ZM17.4998 29.1667C20.7568 29.1667 23.5155 28.0365 25.7759 25.7761C28.0363 23.5157 29.1665 20.757 29.1665 17.5001C29.1665 14.2431 28.0363 11.4845 25.7759 9.22404C23.5155 6.96362 20.7568 5.83341 17.4998 5.83341C14.2429 5.83341 11.4842 6.96362 9.2238 9.22404C6.96338 11.4845 5.83317 14.2431 5.83317 17.5001C5.83317 20.757 6.96338 23.5157 9.2238 25.7761C11.4842 28.0365 14.2429 29.1667 17.4998 29.1667Z" fill="#F24822"/>
</g>
</svg>
