<svg width="33" height="33" viewBox="0 0 33 33" fill="none" xmlns="http://www.w3.org/2000/svg">
<g id="line-md:phone">
<path id="Vector" d="M11.1663 4.5C11.833 4.5 14.4997 10.5 14.4997 11.1667C14.4997 12.5 12.4997 13.8333 11.833 15.1667C11.1663 16.5 12.4997 17.8333 13.833 19.1667C14.353 19.6867 16.4997 21.8333 17.833 21.1667C19.1663 20.5 20.4997 18.5 21.833 18.5C22.4997 18.5 28.4997 21.1667 28.4997 21.8333C28.4997 24.5 26.4997 26.5 24.4997 27.1667C22.4997 27.8333 21.1663 27.8333 18.4997 27.1667C15.833 26.5 13.833 25.8333 10.4997 22.5C7.16634 19.1667 6.49967 17.1667 5.83301 14.5C5.16634 11.8333 5.16634 10.5 5.83301 8.5C6.49967 6.5 8.49967 4.5 11.1663 4.5Z" stroke="#EA5C2B" stroke-width="2.66667" stroke-linecap="round" stroke-linejoin="round"/>
</g>
</svg>
