<svg width="22" height="20" viewBox="0 0 22 20" fill="none" xmlns="http://www.w3.org/2000/svg">
<g id="Group">
<path id="Vector" d="M13 7H17M13 10.5H16" stroke="#EA5C2B" stroke-width="1.5" stroke-linecap="round" stroke-linejoin="round"/>
<path id="Vector_2" d="M16 1H6C3.23858 1 1 3.23858 1 6V14C1 16.7614 3.23858 19 6 19H16C18.7614 19 21 16.7614 21 14V6C21 3.23858 18.7614 1 16 1Z" stroke="#EA5C2B" stroke-width="1.5" stroke-linecap="round" stroke-linejoin="round"/>
<path id="Vector_3" d="M4 14C5.208 11.419 9.712 11.25 11 14M9.5 7C9.5 7.53043 9.28929 8.03914 8.91421 8.41421C8.53914 8.78929 8.03043 9 7.5 9C6.96957 9 6.46086 8.78929 6.08579 8.41421C5.71071 8.03914 5.5 7.53043 5.5 7C5.5 6.46957 5.71071 5.96086 6.08579 5.58579C6.46086 5.21071 6.96957 5 7.5 5C8.03043 5 8.53914 5.21071 8.91421 5.58579C9.28929 5.96086 9.5 6.46957 9.5 7Z" stroke="#EA5C2B" stroke-width="1.5" stroke-linecap="round" stroke-linejoin="round"/>
</g>
</svg>
