<svg width="18" height="18" viewBox="0 0 18 18" fill="none" xmlns="http://www.w3.org/2000/svg">
<g id="clarity:eye-hide-line" clip-path="url(#clip0_642_1569)">
<path id="Vector" d="M12.5948 10.2003C12.7382 9.81653 12.811 9.41 12.8098 9.00031C12.8098 8.09062 12.4485 7.21819 11.8052 6.57494C11.162 5.93169 10.2895 5.57031 9.37982 5.57031C8.97518 5.57089 8.57388 5.6437 8.19482 5.78531L8.99982 6.61531C9.12224 6.59616 9.24592 6.58613 9.36982 6.58531C10.013 6.58397 10.6307 6.83718 11.0878 7.28966C11.545 7.74214 11.8045 8.35712 11.8098 9.00031C11.809 9.12422 11.799 9.24789 11.7798 9.37031L12.5948 10.2003Z" fill="black" fill-opacity="0.5"/>
<path id="Vector_2" d="M17.1452 8.76465C15.4602 5.64965 12.5052 3.76465 9.23523 3.76465C8.3449 3.76657 7.46053 3.91003 6.61523 4.18965L7.42023 4.99965C8.01318 4.84651 8.62284 4.76758 9.23523 4.76465C12.0502 4.76465 14.6102 6.33465 16.1352 8.97965C15.5753 9.9606 14.8338 10.826 13.9502 11.5296L14.6602 12.2396C15.6836 11.4146 16.5332 10.395 17.1602 9.23965L17.2902 8.99965L17.1452 8.76465Z" fill="black" fill-opacity="0.5"/>
<path id="Vector_3" d="M2.43494 2.88953L4.66494 5.11953C3.25511 6.02674 2.10302 7.28215 1.31994 8.76453L1.18994 8.99953L1.31994 9.23953C3.00494 12.3545 5.95994 14.2395 9.22994 14.2395C10.5063 14.2398 11.7662 13.9509 12.9149 13.3945L15.4149 15.8945L16.2899 15.1445L3.28994 2.14453L2.43494 2.88953ZM7.30994 7.76453L10.6349 11.0895C10.2594 11.3223 9.8268 11.4469 9.38494 11.4495C9.06391 11.4495 8.74604 11.3861 8.44963 11.2628C8.15322 11.1394 7.88412 10.9587 7.65781 10.731C7.4315 10.5033 7.25246 10.2331 7.13097 9.93597C7.00949 9.63881 6.94796 9.32056 6.94994 8.99953C6.95532 8.56278 7.07979 8.13577 7.30994 7.76453ZM6.58494 7.03953C6.11716 7.69923 5.8979 8.50318 5.966 9.30903C6.03409 10.1149 6.38515 10.8706 6.957 11.4425C7.52884 12.0143 8.2846 12.3654 9.09045 12.4335C9.89629 12.5016 10.7002 12.2823 11.3599 11.8145L12.1599 12.6145C11.2339 13.0105 10.2371 13.2146 9.22994 13.2145C6.41494 13.2145 3.85494 11.6445 2.32994 8.99953C3.06198 7.70378 4.11595 6.61881 5.38994 5.84953L6.58494 7.03953Z" fill="black" fill-opacity="0.5"/>
</g>
<defs>
<clipPath id="clip0_642_1569">
<rect width="18" height="18" fill="white"/>
</clipPath>
</defs>
</svg>
