<svg width="40" height="40" viewBox="0 0 40 40" fill="none" xmlns="http://www.w3.org/2000/svg">
<g id="material-symbols:account-circle">
<path id="Vector" d="M7.10769 28.9023C8.67692 27.7023 10.4308 26.7565 12.3692 26.0648C14.3077 25.3731 16.3385 25.0266 18.4615 25.0254C20.5846 25.0242 22.6154 25.3706 24.5538 26.0648C26.4923 26.7589 28.2461 27.7048 29.8154 28.9023C30.8923 27.6408 31.7311 26.21 32.3317 24.61C32.9323 23.01 33.232 21.3023 33.2308 19.4869C33.2308 15.3946 31.7926 11.9097 28.9163 9.03216C26.04 6.15462 22.5551 4.71647 18.4615 4.7177C14.368 4.71893 10.8831 6.1577 8.00677 9.034C5.13046 11.9103 3.69231 15.3946 3.69231 19.4869C3.69231 21.3023 3.99261 23.01 4.59323 24.61C5.19384 26.21 6.032 27.6408 7.10769 28.9023ZM18.4615 21.3331C16.6461 21.3331 15.1151 20.7103 13.8683 19.4648C12.6215 18.2192 11.9988 16.6882 12 14.8715C12.0012 13.0549 12.6246 11.5238 13.8701 10.2783C15.1157 9.03277 16.6461 8.41 18.4615 8.41C20.2769 8.41 21.808 9.03339 23.0548 10.2802C24.3015 11.5269 24.9243 13.0574 24.9231 14.8715C24.9218 16.6857 24.2991 18.2168 23.0548 19.4648C21.8104 20.7128 20.2794 21.3355 18.4615 21.3331ZM18.4615 37.9485C15.9077 37.9485 13.5077 37.4635 11.2615 36.4937C9.01538 35.5238 7.06154 34.2088 5.4 32.5485C3.73846 30.8882 2.42339 28.9343 1.45477 26.6869C0.486156 24.4395 0.00123311 22.0395 2.3369e-06 19.4869C-0.00122843 16.9343 0.483694 14.5343 1.45477 12.2869C2.42585 10.0395 3.74092 8.0857 5.4 6.42539C7.05907 4.76508 9.01292 3.45001 11.2615 2.48016C13.5101 1.51031 15.9101 1.02539 18.4615 1.02539C21.0129 1.02539 23.4129 1.51031 25.6615 2.48016C27.9101 3.45001 29.864 4.76508 31.5231 6.42539C33.1821 8.0857 34.4978 10.0395 35.4701 12.2869C36.4424 14.5343 36.9267 16.9343 36.9231 19.4869C36.9194 22.0395 36.4344 24.4395 35.4683 26.6869C34.5021 28.9343 33.1871 30.8882 31.5231 32.5485C29.8591 34.2088 27.9052 35.5245 25.6615 36.4955C23.4178 37.4666 21.0178 37.9509 18.4615 37.9485Z" fill="#FF7F3F"/>
</g>
</svg>
