<svg width="40" height="39" viewBox="0 0 40 39" fill="none" xmlns="http://www.w3.org/2000/svg">
<g id="Group">
<path id="Vector" fill-rule="evenodd" clip-rule="evenodd" d="M20 0C31.046 0 40 8.73015 40 19.5C40.0069 24.0004 38.4106 28.3634 35.484 31.8435L35.524 31.8864L35.26 32.1048C33.3843 34.2676 31.0469 36.0051 28.4112 37.196C25.7755 38.387 22.905 39.0026 20 39C14.1 39 8.80001 36.5098 5.14001 32.5513L4.74001 32.1028L4.47601 31.8883L4.51601 31.8415C1.58983 28.362 -0.00640465 23.9997 1.93142e-05 19.5C1.93142e-05 8.73015 8.95401 0 20 0ZM20 29.25C16.28 29.25 12.918 30.4044 10.414 31.9917C13.1792 34.0137 16.5435 35.1046 20 35.1C23.4565 35.1046 26.8208 34.0137 29.586 31.9917C26.7246 30.2044 23.3982 29.253 20 29.25ZM20 3.9C16.989 3.89992 14.0392 4.72819 11.4895 6.28963C8.93972 7.85106 6.89362 10.0823 5.58633 12.7268C4.27904 15.3713 3.76362 18.3219 4.09932 21.2393C4.43501 24.1566 5.60819 26.9224 7.48401 29.2188C10.726 26.9509 15.15 25.35 20 25.35C24.85 25.35 29.274 26.9509 32.516 29.2188C34.3918 26.9224 35.565 24.1566 35.9007 21.2393C36.2364 18.3219 35.721 15.3713 34.4137 12.7268C33.1064 10.0823 31.0603 7.85106 28.5105 6.28963C25.9608 4.72819 23.0109 3.89992 20 3.9ZM20 7.8C22.1217 7.8 24.1566 8.62178 25.6568 10.0846C27.1571 11.5473 28 13.5313 28 15.6C28 17.6687 27.1571 19.6526 25.6568 21.1154C24.1566 22.5782 22.1217 23.4 20 23.4C17.8783 23.4 15.8434 22.5782 14.3431 21.1154C12.8429 19.6526 12 17.6687 12 15.6C12 13.5313 12.8429 11.5473 14.3431 10.0846C15.8434 8.62178 17.8783 7.8 20 7.8ZM20 11.7C18.9391 11.7 17.9217 12.1109 17.1716 12.8423C16.4214 13.5737 16 14.5657 16 15.6C16 16.6343 16.4214 17.6263 17.1716 18.3577C17.9217 19.0891 18.9391 19.5 20 19.5C21.0609 19.5 22.0783 19.0891 22.8284 18.3577C23.5786 17.6263 24 16.6343 24 15.6C24 14.5657 23.5786 13.5737 22.8284 12.8423C22.0783 12.1109 21.0609 11.7 20 11.7Z" fill="#FF7F3F"/>
</g>
</svg>
