<svg width="35" height="35" viewBox="0 0 35 35" fill="none" xmlns="http://www.w3.org/2000/svg">
<g id="ic:round-search">
<path id="Vector" d="M22.2535 20.0994H21.1193L20.7173 19.7118C21.6145 18.6694 22.2703 17.4416 22.6376 16.1162C23.0049 14.7909 23.0748 13.4007 22.8421 12.0452C22.1673 8.05393 18.8365 4.86668 14.8166 4.37854C13.4033 4.19975 11.9678 4.34663 10.62 4.80794C9.27226 5.26926 8.04787 6.03278 7.04057 7.04008C6.03327 8.04738 5.26974 9.27177 4.80843 10.6196C4.34711 11.9673 4.20023 13.4028 4.37903 14.8161C4.86716 18.836 8.05441 22.1668 12.0457 22.8416C13.4012 23.0743 14.7914 23.0044 16.1167 22.6371C17.4421 22.2698 18.6699 21.614 19.7123 20.7168L20.0999 21.1188V22.253L26.2016 28.3547C26.7903 28.9433 27.7522 28.9433 28.3408 28.3547C28.9295 27.7661 28.9295 26.8041 28.3408 26.2155L22.2535 20.0994ZM13.6393 20.0994C10.0644 20.0994 7.17864 17.2137 7.17864 13.6388C7.17864 10.0639 10.0644 7.17815 13.6393 7.17815C17.2142 7.17815 20.0999 10.0639 20.0999 13.6388C20.0999 17.2137 17.2142 20.0994 13.6393 20.0994Z" fill="#FF7F3F"/>
</g>
</svg>
