<svg width="48" height="48" viewBox="0 0 48 48" fill="none" xmlns="http://www.w3.org/2000/svg">
<g id="mdi:cart-outline">
<path id="Vector" d="M33.9951 35.9975C35.0558 35.9975 36.0731 36.4189 36.8231 37.1689C37.5731 37.919 37.9945 38.9362 37.9945 39.997C37.9945 41.0577 37.5731 42.0749 36.8231 42.825C36.0731 43.575 35.0558 43.9964 33.9951 43.9964C32.9343 43.9964 31.9171 43.575 31.167 42.825C30.417 42.0749 29.9956 41.0577 29.9956 39.997C29.9956 37.7773 31.7754 35.9975 33.9951 35.9975ZM1.99951 4.00195H8.5386L10.4183 8.0014H39.9942C40.5246 8.0014 41.0332 8.21208 41.4083 8.5871C41.7833 8.96212 41.994 9.47076 41.994 10.0011C41.994 10.3411 41.894 10.681 41.754 11.001L34.595 23.9392C33.9151 25.159 32.5953 25.9989 31.0955 25.9989H16.1975L14.3978 29.2584L14.3378 29.4984C14.3378 29.631 14.3905 29.7582 14.4842 29.8519C14.578 29.9457 14.7051 29.9983 14.8377 29.9983H37.9945V33.9978H13.9978C12.9371 33.9978 11.9199 33.5764 11.1698 32.8264C10.4198 32.0763 9.9984 31.0591 9.9984 29.9983C9.9984 29.2984 10.1784 28.6385 10.4783 28.0786L13.198 23.1793L5.99896 8.0014H1.99951V4.00195ZM13.9978 35.9975C15.0586 35.9975 16.0758 36.4189 16.8259 37.1689C17.5759 37.919 17.9973 38.9362 17.9973 39.997C17.9973 41.0577 17.5759 42.0749 16.8259 42.825C16.0758 43.575 15.0586 43.9964 13.9978 43.9964C12.9371 43.9964 11.9199 43.575 11.1698 42.825C10.4198 42.0749 9.9984 41.0577 9.9984 39.997C9.9984 37.7773 11.7782 35.9975 13.9978 35.9975ZM31.9953 21.9995L37.5546 12.0008H12.2781L16.9974 21.9995H31.9953Z" fill="#FF7F3F"/>
</g>
</svg>
