<svg width="29" height="29" viewBox="0 0 29 29" fill="none" xmlns="http://www.w3.org/2000/svg">
<g id="ri:bowl-line">
<path id="Vector" d="M9.6665 1.81283C9.6665 1.49236 9.5392 1.18501 9.31259 0.958405C9.08598 0.731798 8.77864 0.604492 8.45817 0.604492C8.1377 0.604492 7.83036 0.731798 7.60375 0.958405C7.37714 1.18501 7.24984 1.49236 7.24984 1.81283V3.04291C7.25467 3.09608 7.25588 3.11903 6.99971 3.3752L6.97555 3.39937C6.65292 3.72078 6.0415 4.32978 6.0415 5.43783V6.64616C6.0415 6.96663 6.16881 7.27397 6.39542 7.50058C6.62202 7.72719 6.92937 7.85449 7.24984 7.85449C7.57031 7.85449 7.87765 7.72719 8.10426 7.50058C8.33086 7.27397 8.45817 6.96663 8.45817 6.64616V5.41608C8.45334 5.36291 8.45213 5.33995 8.7083 5.08378L8.73246 5.05962C9.05509 4.7382 9.6665 4.1292 9.6665 3.02116V1.81283ZM22.9582 1.81283C22.9582 1.49236 22.8309 1.18501 22.6043 0.958405C22.3777 0.731798 22.0703 0.604492 21.7498 0.604492C21.4294 0.604492 21.122 0.731798 20.8954 0.958405C20.6688 1.18501 20.5415 1.49236 20.5415 1.81283V3.04291C20.5463 3.09608 20.5475 3.11903 20.2914 3.3752L20.2672 3.39937C19.9446 3.72078 19.3332 4.32978 19.3332 5.43783V6.64616C19.3332 6.96663 19.4605 7.27397 19.6871 7.50058C19.9137 7.72719 20.221 7.85449 20.5415 7.85449C20.862 7.85449 21.1693 7.72719 21.3959 7.50058C21.6225 7.27397 21.7498 6.96663 21.7498 6.64616V5.41608C21.745 5.36291 21.7438 5.33995 22 5.08378L22.0241 5.05962C22.3468 4.7382 22.9582 4.1292 22.9582 3.02116V1.81283ZM15.104 0.604492C15.4245 0.604492 15.7318 0.731798 15.9584 0.958405C16.185 1.18501 16.3123 1.49236 16.3123 1.81283V3.02116C16.3123 4.12799 15.7009 4.73699 15.3783 5.05962L15.3541 5.08378C15.098 5.33995 15.1004 5.36291 15.1028 5.41608L15.104 5.43783V6.64616C15.104 6.96663 14.9767 7.27397 14.7501 7.50058C14.5235 7.72719 14.2161 7.85449 13.8957 7.85449C13.5752 7.85449 13.2679 7.72719 13.0413 7.50058C12.8146 7.27397 12.6873 6.96663 12.6873 6.64616V5.43783C12.6873 4.33099 13.2988 3.72199 13.6214 3.39937L13.6455 3.3752C13.9017 3.11903 13.8993 3.09608 13.8969 3.04291L13.8957 3.02116V1.81283C13.8957 1.49236 14.023 1.18501 14.2496 0.958405C14.4762 0.731798 14.7835 0.604492 15.104 0.604492ZM4.83317 12.0837H24.1665C24.1665 14.6474 23.1481 17.1062 21.3352 18.919C19.5224 20.7319 17.0636 21.7503 14.4998 21.7503C11.9361 21.7503 9.47732 20.7319 7.66447 18.919C5.85162 17.1062 4.83317 14.6474 4.83317 12.0837ZM3.62484 9.66699C3.30437 9.66699 2.99702 9.7943 2.77042 10.0209C2.54381 10.2475 2.4165 10.5549 2.4165 10.8753V12.0837C2.4165 17.0378 5.39867 21.2972 9.6665 23.1617V24.167C9.6665 24.4875 9.79381 24.7948 10.0204 25.0214C10.247 25.248 10.5544 25.3753 10.8748 25.3753H18.1248C18.4453 25.3753 18.7527 25.248 18.9793 25.0214C19.2059 24.7948 19.3332 24.4875 19.3332 24.167V23.1617C23.601 21.2972 26.5832 17.039 26.5832 12.0837V10.8753C26.5832 10.5549 26.4559 10.2475 26.2293 10.0209C26.0027 9.7943 25.6953 9.66699 25.3748 9.66699H3.62484Z" fill="white"/>
</g>
</svg>
