<svg width="148" height="169" viewBox="0 0 148 169" fill="none" xmlns="http://www.w3.org/2000/svg">
<g id="&#225;&#186;&#163;nh c&#195;&#180;ng th&#225;&#187;&#169;c">
<path id="path12" d="M134.419 60.1249H142.981V82.3733H134.419V60.1249ZM142.981 100.022V122.27H134.419V100.022H142.981ZM11.5572 168.621H123.311C126.371 168.623 129.162 167.532 131.165 165.778C133.172 164.027 134.42 161.587 134.419 158.913V126.146H145.198C145.781 126.146 146.352 125.939 146.765 125.578C147.177 125.217 147.413 124.718 147.413 124.208V98.0844C147.413 97.5748 147.177 97.0758 146.765 96.7156C146.352 96.3545 145.781 96.1477 145.198 96.1477H134.419V86.2486H145.198C145.781 86.2486 146.352 86.0419 146.765 85.6807C147.177 85.3196 147.413 84.8206 147.413 84.311V58.1872C147.413 57.6775 147.177 57.1786 146.765 56.8184C146.352 56.4573 145.781 56.2505 145.198 56.2505H132.203C131.62 56.2505 131.049 56.4573 130.636 56.8174C130.224 57.1786 129.987 57.6775 129.987 58.1872V59.4249V84.311V98.0844V124.208V158.913C129.986 160.53 129.243 161.976 128.032 163.038C126.817 164.097 125.161 164.746 123.311 164.747H11.5572C9.70672 164.746 8.0517 164.097 6.83646 163.038C5.62465 161.976 4.88216 160.529 4.88116 158.913V146.39C4.88116 145.32 3.8888 144.453 2.66489 144.453C1.44099 144.453 0.448731 145.32 0.448731 146.39V158.913C0.447621 161.587 1.69585 164.027 3.70267 165.778C5.70561 167.532 8.49691 168.623 11.5572 168.621Z" fill="#EA5C2B"/>
<path id="path14" d="M142.982 22.7692V45.0185H134.419V22.7692H142.982ZM25.1724 3.87486H123.311C125.161 3.87583 126.817 4.52528 128.032 5.58344C129.243 6.64547 129.986 8.09194 129.987 9.70926V20.8325V46.3485V46.9553C129.987 47.4659 130.224 47.9649 130.636 48.326C131.049 48.6862 131.62 48.8929 132.203 48.8929H145.198C145.781 48.8929 146.352 48.6862 146.765 48.325C147.177 47.9649 147.414 47.4659 147.414 46.9553V20.8325C147.414 20.3218 147.177 19.8229 146.765 19.4627C146.352 19.1016 145.781 18.8948 145.198 18.8948H134.419V9.70926C134.421 7.03476 133.172 4.59517 131.166 2.84388C129.162 1.08968 126.371 -0.000495911 123.311 0.000473022H25.1724C23.9483 0.000473022 22.9561 0.867382 22.9561 1.93718C22.9561 3.00698 23.9483 3.87486 25.1724 3.87486Z" fill="#EA5C2B"/>
<path id="path16" d="M129.987 53.1281V53.6125C129.987 54.6823 130.979 55.5502 132.203 55.5502C133.428 55.5502 134.419 54.6823 134.419 53.6125V53.1281C134.419 52.0583 133.428 51.1914 132.203 51.1914C130.979 51.1914 129.987 52.0583 129.987 53.1281Z" fill="#EA5C2B"/>
<path id="path18" d="M17.9696 3.87439H18.5237C19.7475 3.87439 20.7399 3.00651 20.7399 1.93671C20.7399 0.86691 19.7475 1.43051e-06 18.5237 1.43051e-06H17.9696C16.7454 1.43051e-06 15.7534 0.86691 15.7534 1.93671C15.7534 3.00651 16.7454 3.87439 17.9696 3.87439Z" fill="#EA5C2B"/>
<path id="path20" d="M2.66489 141.546C3.8888 141.546 4.88116 140.679 4.88116 139.61V139.125C4.88116 138.055 3.8888 137.188 2.66489 137.188C1.44099 137.188 0.44873 138.055 0.44873 139.125V139.61C0.44873 140.679 1.44099 141.546 2.66489 141.546Z" fill="#EA5C2B"/>
<path id="path22" d="M2.66489 135.25C3.8888 135.25 4.88116 134.382 4.88116 133.313V9.70879C4.88216 8.24097 5.49328 6.91682 6.51185 5.8878C7.53231 4.86072 8.94823 4.15105 10.5492 3.9404C11.6816 3.79089 12.4721 2.91527 12.4212 1.93672C12.4175 1.86974 12.4212 1.80371 12.4096 1.73575C12.227 0.677597 11.0978 -0.0504913 9.88739 0.108719C7.21303 0.462082 4.85207 1.6474 3.16463 3.34822C1.47541 5.04709 0.447621 7.28281 0.448731 9.70879V133.313C0.448731 134.382 1.44065 135.25 2.66489 135.25Z" fill="#EA5C2B"/>
<path id="path24" d="M16.0194 149.943C17.2432 149.943 18.2355 149.075 18.2355 148.005V14.7769C18.2355 13.7061 17.2432 12.8392 16.0194 12.8392C14.7951 12.8392 13.8032 13.7061 13.8032 14.7769V148.005C13.8032 149.075 14.7951 149.943 16.0194 149.943Z" fill="#EA5C2B"/>
<path id="path26" d="M46.8606 112.302C47.0807 112.639 47.3442 112.895 47.6121 113.108C48.1177 113.502 48.6528 113.766 49.2434 114.007C50.2741 114.42 51.4976 114.742 52.9501 115.032C55.1235 115.462 57.7975 115.8 60.8412 116.038C63.8832 116.273 67.2892 116.405 70.8895 116.405C77.1351 116.403 82.7821 116.012 86.9888 115.355C88.0415 115.19 89.0066 115.009 89.8783 114.807C90.5324 114.655 91.1332 114.493 91.6863 114.314C92.5158 114.04 93.2321 113.749 93.894 113.306C94.2238 113.082 94.5481 112.812 94.8279 112.432C95.1056 112.06 95.3244 111.544 95.321 110.991V92.4195C99.4266 91.808 103.107 90.0926 105.93 87.6355C109.223 84.7717 111.37 80.8867 111.705 76.5744C111.787 75.5066 110.864 74.5834 109.642 74.5105C109.596 74.5076 109.55 74.5144 109.504 74.5144C108.343 74.5096 107.361 75.2862 107.282 76.3123C107.023 79.6586 105.362 82.6593 102.803 84.8892C100.241 87.1171 96.798 88.5549 92.9656 88.7675C91.7973 88.8325 90.8889 89.6781 90.8889 90.7013V110.398C90.8278 110.428 90.7579 110.458 90.679 110.489C90.0993 110.725 89.1076 111.005 87.8483 111.253C85.9527 111.629 83.4406 111.954 80.5466 112.177C77.6504 112.402 74.3655 112.529 70.8895 112.529C64.8657 112.531 59.4049 112.143 55.571 111.542C54.6145 111.393 53.7606 111.23 53.0353 111.061C52.4916 110.935 52.0198 110.806 51.636 110.682C51.32 110.582 51.0708 110.48 50.8898 110.397V90.7013C50.8898 89.6781 49.9813 88.8325 48.8134 88.7675C44.8067 88.5452 41.2259 86.9841 38.6337 84.5814C36.044 82.1758 34.4628 78.9558 34.4619 75.391C34.4628 71.6827 36.1753 68.3432 38.9537 65.9104C41.7361 63.4815 45.5561 61.9845 49.7985 61.9836C51.7747 61.9845 53.6542 62.3136 55.3892 62.9078C56.3674 63.2427 57.476 62.934 58.0518 62.1651C59.4223 60.3371 61.2916 58.8159 63.4861 57.7548C65.6817 56.6947 68.1965 56.0919 70.8895 56.0909C73.5825 56.0919 76.0968 56.6947 78.2923 57.7548C80.4878 58.8159 82.3568 60.3371 83.7272 62.1651C84.3024 62.934 85.4118 63.2427 86.3891 62.9078C88.1237 62.3136 90.005 61.9845 91.9806 61.9836C96.2328 61.9845 100.063 63.4893 102.847 65.9298C103.677 66.6569 104.998 66.6812 105.87 66.0143C105.907 65.9861 105.946 65.9648 105.981 65.9347C106.848 65.1804 106.85 63.9533 105.988 63.1951C102.414 60.0566 97.4466 58.1082 91.9806 58.1092C90.0472 58.1092 88.177 58.3567 86.4102 58.8111C84.781 57.0054 82.7566 55.4861 80.4378 54.3649C77.6093 52.9961 74.3455 52.2165 70.8895 52.2165C67.4347 52.2165 64.1706 52.9961 61.3414 54.3649C59.0224 55.4861 56.9983 57.0054 55.3686 58.8111C53.6021 58.3567 51.7317 58.1092 49.7985 58.1092C44.3463 58.1082 39.3899 60.0469 35.8198 63.1708C32.2455 66.2929 30.0282 70.6255 30.0293 75.391C30.0282 79.9712 32.0768 84.1514 35.4084 87.2385C38.2843 89.9081 42.1343 91.7769 46.4575 92.4205V110.991C46.4547 111.48 46.6267 111.947 46.8606 112.302Z" fill="#EA5C2B"/>
<path id="path28" d="M106.082 70.1109C106.147 70.24 106.208 70.3711 106.267 70.5031C106.695 71.4593 107.898 71.9418 109.002 71.6331C109.047 71.6205 109.094 71.6156 109.138 71.6001C110.279 71.2098 110.84 70.0857 110.394 69.0897C110.318 68.9188 110.239 68.7499 110.157 68.5829C109.674 67.5995 108.371 67.1442 107.246 67.5665C107.201 67.583 107.163 67.6082 107.119 67.6277C106.087 68.0859 105.619 69.1663 106.082 70.1109Z" fill="#EA5C2B"/>
</g>
</svg>
