<svg width="198" height="198" viewBox="0 0 198 198" fill="none" xmlns="http://www.w3.org/2000/svg">
<g id="&#225;&#186;&#163;nh kho&#225;&#186;&#163;nh kh&#225;&#186;&#175;c">
<path id="Vector" d="M105.319 151.986V163.76H117.051V151.986H105.319Z" stroke="#EA5C2B" stroke-width="2.64" stroke-miterlimit="10"/>
<path id="Vector_2" d="M105.319 151.986V163.76H117.051V151.986H105.319Z" stroke="#EA5C2B" stroke-width="3.02" stroke-miterlimit="10"/>
<path id="Vector_3" d="M90.9028 73.7939C89.6215 69.2792 87.1394 64.8625 83.7207 61.0282C81.5948 58.6411 79.9745 57.2342 78.7105 56.3981L78.5726 56.3059C76.4409 54.7895 71.7582 51.4625 65.7885 50.7533H65.7827C65.0473 50.6611 64.2946 50.6149 63.5247 50.6149C62.0251 50.6149 60.5427 50.8052 59.1178 51.1685C53.1193 52.7137 49.7811 56.9401 47.3449 60.0191C46.9944 60.4631 46.552 61.0166 46.1498 61.4952C45.9143 61.1954 45.6787 60.8783 45.4661 60.6015C44.903 59.8519 44.248 58.9928 43.4723 58.0933C41.6625 56.0003 39.1803 53.7458 35.5836 52.3851C34.6872 52.0449 33.7564 51.7796 32.8084 51.5894C31.5501 51.3241 30.2516 51.1973 28.9186 51.1973C24.1325 51.1973 19.0993 52.806 13.5375 56.1214L12.7848 56.5654L12.1757 57.1938C6.59096 62.9886 3.27571 69.7174 2.59773 76.648C1.55776 87.2112 6.65991 95.935 12.8193 103.338C15.3818 106.417 18.1225 109.26 20.6793 111.918C22.3513 113.654 24.098 115.332 25.9136 116.929C29.6138 120.221 33.607 123.225 37.8473 125.924C39.4446 126.944 41.0707 127.913 42.7369 128.841L45.8855 130.6L49.0399 128.864C62.8237 121.27 74.1542 112.201 81.8074 102.647C90.1501 92.2333 93.293 82.2525 90.9028 73.7939ZM45.9028 123.133C42.3864 121.167 39.2665 119.126 36.5258 117.119C31.8719 113.706 28.3038 110.396 25.701 107.726C25.5919 107.611 25.4769 107.496 25.3678 107.38C20.4897 102.312 15.3129 96.9325 12.1125 90.936C9.87173 86.7269 8.59619 82.2121 9.07883 77.2881C9.79704 69.9596 14.1293 64.5742 16.8585 61.7431C19.4383 60.2036 22.5869 58.6757 25.8619 58.0414C28.3268 57.5629 30.8664 57.5917 33.291 58.5027C36.1926 59.604 38.0197 61.6278 39.5481 63.5998C41.5763 66.206 43.0816 68.7199 45.9028 68.8064C47.6379 68.8641 48.9882 67.9761 50.2637 66.6672C50.2695 66.6615 50.2752 66.6499 50.2867 66.6384C53.0791 63.7554 55.498 58.8544 60.7381 57.4994C66.9146 55.908 72.7924 60.2094 74.9528 61.7431C74.9528 61.7431 82.1636 66.8517 84.6343 75.5813C88.231 88.2894 72.8729 108.274 45.9028 123.133Z" stroke="#EA5C2B" stroke-width="3.02" stroke-miterlimit="10"/>
<path id="Vector_4" d="M195.537 110.321C195.537 157.4 157.507 195.559 110.599 195.559C71.5115 195.559 38.5831 169.058 28.6948 132.981C33.0788 137.156 38.1637 140.592 43.7599 143.095C55.8546 167.888 81.2389 184.961 110.599 184.961C151.675 184.961 184.977 151.542 184.977 110.321C184.977 69.1005 151.675 35.6871 110.599 35.6871C99.625 35.6871 89.2024 38.0741 79.8312 42.3525C75.2691 41.0782 70.46 40.3978 65.49 40.3978C64.2605 40.3978 63.0424 40.4382 61.8358 40.5247C74.097 31.8816 88.7427 26.4097 104.583 25.2969V12.8656H91.6787V1.67969H127.101V12.8656H115.15V25.2046C126.779 25.8216 137.793 28.7853 147.722 33.6402L153.582 23.7631L162.092 29.3561L156.386 38.5124C179.932 53.6709 195.537 80.1653 195.537 110.321Z" stroke="#EA5C2B" stroke-width="3.02" stroke-miterlimit="10"/>
<path id="Vector_5" d="M150.939 110.506V123.133H120.292C118.424 123.133 116.637 122.77 114.977 122.107C108.915 119.691 104.583 113.25 104.583 105.685V66.604H116.402C116.35 66.95 116.321 67.3132 116.321 67.6765V103.956C116.321 105.91 117.091 107.663 118.309 108.862C119.349 109.889 120.717 110.517 122.222 110.517H150.611C150.721 110.517 150.83 110.511 150.939 110.511V110.506Z" stroke="#EA5C2B" stroke-width="3.09" stroke-miterlimit="10"/>
<path id="Vector_6" d="M117.051 151.986H105.319V163.76H117.051V151.986Z" stroke="#EA5C2B" stroke-width="2.94" stroke-miterlimit="10"/>
</g>
</svg>
