<svg width="196" height="166" viewBox="0 0 196 166" fill="none" xmlns="http://www.w3.org/2000/svg">
<g id="&#225;&#186;&#163;nh gi&#225;&#187;&#143; h&#195;&#160;ng">
<path id="Vector" d="M183.175 73.0939C190.134 75.282 190.909 76.445 190.461 83.6532C190.381 84.9674 190.281 86.275 190.134 87.5826C189.593 92.5633 186.701 95.3624 181.539 95.2507C178.807 95.1916 177.959 96.2955 177.418 98.6216C173.13 117.059 168.749 135.471 164.395 153.895C162.471 162.017 157.67 165.808 149.275 165.808C113.551 165.808 77.8346 165.808 42.1112 165.808C33.5961 165.808 28.8477 162.175 26.8976 154.053C22.1692 134.649 17.768 115.134 12.9194 95.7698C12.5722 95.6253 12.3651 95.4544 12.1714 95.4676C4.1973 95.7896 0.697757 92.491 0.844684 84.468C0.86472 83.2721 0.637651 82.0696 0.597579 80.8672C0.464009 76.3859 2.8616 73.8627 7.36291 73.7378C8.6719 73.6984 9.98757 73.7378 11.7507 73.7378C8.19105 56.2397 0.784578 28.6882 7.6167 12.0443C10.5018 5.66404 17.7881 4.3433 22.2026 9.75109C29.8762 19.3314 32.1469 32.0525 35.426 43.5186C41.3232 43.8997 46.8129 44.2545 52.503 44.6159C53.6183 40.6011 50.7666 38.0911 48.8365 34.6151C50.0119 34.8648 51.1873 35.1211 52.6499 35.4299C55.3814 27.6697 60.6708 23.1622 69.3996 24.1084C71.7171 24.3515 72.3582 25.3502 72.0377 27.5843C70.722 37.3617 64.6178 40.8377 55.1143 41.0348C55.2879 42.3753 55.4415 43.4923 55.6219 44.9116C57.9794 44.6225 60.0497 44.3859 62.1201 44.1034C73.9878 42.5001 81.1872 48.1576 81.8217 60.0048C82.0554 64.3087 81.3675 68.6652 81.087 73.107C85.201 74.6775 86.1427 74.1124 85.9223 69.6311C85.0407 51.811 84.099 33.9909 83.1974 16.1708C82.9503 11.269 83.5314 10.4936 88.2865 9.3437C93.6961 8.04268 99.079 8.14124 104.435 9.71167C107.187 10.5199 108.342 12.1429 108.175 15.0538C107.147 33.1958 106.205 51.3444 105.303 69.4931C105.237 70.8204 105.53 73.291 105.904 73.337C108.275 73.6393 110.726 73.5079 113.124 73.2385C113.518 73.1925 114.052 71.7337 113.999 70.9649C113.705 66.6413 113.431 62.298 112.79 58.0138C112.389 55.3264 111.154 52.7769 110.653 50.096C109.05 41.5671 111.14 34.05 117.358 27.7486C120.964 24.0952 123.242 19.7979 123.529 14.6398C123.576 13.8513 123.422 12.9117 123.008 12.2612C122.42 11.3412 120.924 10.671 120.844 9.81023C120.631 7.44473 120.691 4.9741 121.218 2.67431C121.399 1.87267 123.248 0.985605 124.377 0.939609C128.818 0.735913 133.273 0.834476 137.728 0.854188C140.219 0.860759 141.541 2.2472 141.314 4.57985C141.047 7.34617 142.95 10.8484 138.809 12.5568C138.435 12.7145 138.476 14.1798 138.556 15.0209C138.963 19.5351 140.653 23.5958 143.885 26.7893C152.42 35.2328 153.582 44.9707 149.929 55.8849C147.405 63.4282 147.291 66.2142 148.547 70.6167C152.861 61.3321 156.701 52.2972 160.541 42.8746C163.747 34.786 169.43 30.5741 179.054 30.6529C178.179 27.8734 177.331 25.37 176.623 22.8336C176.416 22.0977 176.603 21.25 176.603 20.455C177.398 20.639 178.393 20.5864 178.954 21.0464C183.295 24.5617 188.25 26.5067 193.794 27.2032C194.488 27.2886 195.089 28.0771 195.73 28.5437C195.203 29.0365 194.762 29.6804 194.141 30.0024C191.817 31.2311 189.439 32.3613 186.768 33.6821C192.157 39.6615 194.662 45.4636 191.476 53.1646C188.785 59.8471 185.719 66.3719 183.148 73.1005L183.175 73.0939ZM15.671 95.5004C19.7382 114.589 24.5668 133.421 28.9078 152.443C30.8713 160.788 34.2105 163.436 42.8258 163.436C78.2086 163.436 113.591 163.436 148.967 163.436C156.688 163.436 160.388 160.552 162.137 153.166C166.639 133.874 171.294 114.871 175.608 95.5004H15.671ZM105.156 75.8996C104.936 78.5477 104.796 80.7161 104.569 82.8713C104.088 87.3526 100.375 90.6972 95.8332 90.8089C89.8159 90.96 85.949 85.6508 86.5234 79.9933C86.8706 76.6487 85.3479 75.8339 82.0755 75.8536C59.0413 75.9851 36.0071 75.9194 12.9662 75.9128C2.74138 75.9128 2.18039 76.5173 3.27566 86.597C3.78991 91.3017 5.53968 92.9115 10.4083 92.9115C67.2759 92.9312 124.143 92.9312 181.011 92.9247C187.683 93.0758 188.063 88.6076 188.104 83.121C188.371 76.7604 187.563 75.9128 181.031 75.9128C155.699 75.8996 130.495 75.9062 105.15 75.9062L105.156 75.8996ZM145.334 73.4881C145.588 69.1185 145.541 64.9724 146.156 60.9247C146.677 57.4947 148.059 54.2028 148.901 50.8122C150.183 45.6738 149.983 40.5683 147.545 35.7979C147.004 34.74 145.281 33.6492 144.072 33.6229C135.41 33.4455 126.741 33.5835 118.079 33.5046C116.089 33.4849 115.047 34.2669 114.319 35.995C112.242 40.9231 111.721 46.0155 113.277 51.075C115.475 58.2307 117.411 65.3535 116.423 72.9296C116.403 73.0808 116.657 73.2713 116.817 73.4881H145.321H145.334ZM53.999 73.7181C61.0047 73.7181 68.0105 73.7838 75.0163 73.6458C76.0982 73.6261 77.8546 72.8902 78.1218 72.1017C80.4726 65.1038 80.6863 58.1584 76.7594 51.5087C74.3284 47.3954 70.7487 45.2139 65.9602 46.0024C58.0862 47.3034 50.3058 47.3165 42.4318 46.0024C38.1442 45.2861 34.6046 46.9354 32.1536 50.6414C27.6589 57.4553 27.7925 64.7029 30.2368 72.0623C30.504 72.8573 32.2471 73.613 33.3156 73.6393C40.2078 73.7773 47.1001 73.7116 53.999 73.7181ZM105.05 28.6685C105.31 24.1938 105.51 19.7125 105.851 15.2377C106.005 13.2402 105.25 11.8998 103.246 11.8012C98.5313 11.5712 93.7962 11.3938 89.0745 11.5121C86.2963 11.5844 85.2811 13.1942 85.4815 16.1511C86.8105 38.0911 87.632 60.0639 89.0278 82.0039C89.2615 85.8807 91.9931 88.4565 95.5928 88.4959C100.408 88.5288 102.518 84.3497 102.452 79.783C103.32 62.7448 104.181 45.7067 105.043 28.6685H105.05ZM150.19 73.2779C151.205 73.5013 151.619 73.6656 152.033 73.6656C160.708 73.6918 169.384 73.7707 178.052 73.5998C179.101 73.5801 180.604 72.3645 181.078 71.3395C183.923 65.1695 186.594 58.9206 189.206 52.6455C192.391 45.0036 189.379 37.2632 182.16 34.234C174.773 31.1326 166.846 34.4508 163.513 42.0796C158.938 52.6192 154.771 62.5083 150.196 73.2713L150.19 73.2779ZM7.2427 28.3925C8.27119 28.5108 9.01251 28.6094 9.7605 28.6751C12.0312 28.8788 15.1768 28.3005 15.691 31.0209C16.0984 33.1695 14.8495 35.6927 14.0281 37.9465C13.6875 38.873 12.659 39.8324 11.7106 40.2135C8.06416 41.6919 8.24448 44.2742 8.88562 47.4348C9.31972 49.5638 10.2948 49.8792 12.0913 49.5178C14.0548 49.1235 16.0049 48.6635 17.9884 48.4139C21.2475 47.9999 22.8905 49.5769 22.4831 52.79C21.9889 56.6734 19.6714 59.7683 16.2988 61.2335C12.2316 63.0077 11.8442 65.3666 13.2333 68.882C13.7943 70.3539 13.7075 73.0085 15.4506 73.5801C19.4844 73.705 23.5182 73.6524 27.7457 73.6524C25.662 63.6648 24.7805 54.7021 32.5075 46.528C33.0952 45.9038 33.2021 44.4254 32.9349 43.5055C30.7444 35.8242 28.6674 28.0969 26.0227 20.5667C24.8539 17.2353 22.837 14.0156 20.5263 11.3018C17.1336 7.31989 12.3317 8.06239 9.92078 12.662C7.35624 17.5572 7.18259 22.8862 7.2427 28.4057V28.3925ZM144.54 30.9157C138.596 25.4028 136.038 19.2788 135.751 12.018C133.166 12.018 130.956 12.0969 128.752 11.9917C126.781 11.8998 126 12.6291 125.907 14.6201C125.679 19.719 123.663 24.1544 120.31 28.0246C119.622 28.8196 119.028 29.687 118.093 30.9092H144.533L144.54 30.9157ZM69.5332 26.9338C61.6125 25.2451 55.1076 30.4295 55.3414 38.0714C63.2754 39.5038 68.665 35.3642 69.5332 26.9338ZM131.203 9.77081C131.203 9.77081 131.203 9.75766 131.203 9.75109C133.086 9.75109 134.976 9.6591 136.853 9.77081C139.397 9.9285 139.083 8.16752 139.043 6.69566C139.003 5.18437 139.624 3.17369 136.899 3.18026C133.019 3.1934 129.139 3.11455 125.265 3.21969C124.551 3.2394 123.476 3.76507 123.215 4.3433C121.786 7.52358 123.349 9.73795 126.882 9.77081C128.324 9.78395 129.76 9.77081 131.203 9.77081ZM11.4702 61.0824C15.7311 59.4003 18.6964 57.2122 19.9452 53.2566C20.4996 51.4956 19.9319 50.3982 17.8482 50.7662C15.2569 51.2196 12.6857 51.765 9.78722 52.3366C10.3415 55.2344 10.8491 57.8561 11.4702 61.089V61.0824ZM7.91055 39.3855C11.2365 38.4459 12.8727 36.3432 13.5472 33.6558C13.7075 33.0184 12.3117 31.3166 11.5904 31.2968C10.1545 31.2443 7.66345 29.9038 7.4297 32.7687C7.25606 34.8648 7.71688 37.0069 7.91055 39.3921V39.3855ZM180.971 25.6722L179.922 26.0139C180.971 28.0246 181.565 31.0537 183.195 31.7568C184.704 32.4073 187.322 30.5675 190.227 29.549C186.36 27.926 183.662 26.8024 180.964 25.6722H180.971Z" fill="#EA5C2B"/>
<path id="Vector_2" d="M114.827 130.319C114.827 125.076 114.76 119.839 114.847 114.602C114.92 109.917 117.866 106.999 121.919 107.394C126.06 107.801 128.317 111.053 127.716 115.699C126.427 125.654 125.159 135.615 123.876 145.577C123.669 148.652 122.467 151.845 118.74 151.438C115.909 151.188 114.74 149.296 114.713 146.7C114.66 141.24 114.7 135.786 114.7 130.326C114.747 130.326 114.787 130.326 114.834 130.326L114.827 130.319ZM117.151 130.109C117.118 130.109 117.078 130.109 117.044 130.109C117.044 135.346 116.937 140.589 117.131 145.82C117.171 146.956 118.306 148.054 118.934 149.164C119.756 148.205 121.165 147.324 121.312 146.273C122.781 135.898 124.083 125.503 125.339 115.101C125.74 111.77 124.25 109.838 121.539 109.766C118.794 109.693 117.191 111.441 117.158 114.72C117.111 119.852 117.144 124.977 117.144 130.109H117.151Z" fill="#EA5C2B"/>
<path id="Vector_3" d="M77.0531 130.293C77.0531 135.536 77.0464 140.773 77.0531 146.017C77.0531 148.823 76.1916 151.03 72.9992 151.444C70.2677 151.799 68.4111 149.992 67.9703 146.575C66.6012 136.075 65.2588 125.581 63.9699 115.075C63.4489 110.85 65.8599 107.768 69.7668 107.407C73.7272 107.039 76.7993 109.877 76.8928 114.253C76.9997 119.602 76.9195 124.951 76.9195 130.299C76.9663 130.299 77.0063 130.299 77.0531 130.299V130.293ZM74.6755 130.089C74.6355 130.089 74.5954 130.089 74.5553 130.089C74.5553 124.721 74.5754 119.359 74.5486 113.991C74.5353 111.52 73.1862 110.048 70.7352 109.825C68.4578 109.614 66.8483 110.685 66.3875 112.985C66.2205 113.826 66.3007 114.74 66.4142 115.6C67.7032 125.811 68.9587 136.029 70.4146 146.22C70.5682 147.292 71.9373 148.198 72.7388 149.184C73.3866 148.073 74.542 146.989 74.582 145.852C74.7824 140.602 74.6689 135.346 74.6689 130.089H74.6755Z" fill="#EA5C2B"/>
<path id="Vector_4" d="M101.75 118.248C101.283 127.513 100.829 136.785 100.328 146.05C100.134 149.657 98.3578 151.694 95.5127 151.517C92.1601 151.313 91.1383 149.125 90.9847 146.142C90.4571 135.569 89.7959 124.997 89.3218 114.418C89.1348 110.278 91.7995 107.505 95.5728 107.459C99.4264 107.413 101.998 110.337 101.904 114.648C101.877 115.85 101.904 117.046 101.904 118.248C101.857 118.248 101.804 118.248 101.757 118.248H101.75ZM99.2794 119.287C99.3529 119.287 99.4197 119.287 99.4931 119.287C99.4931 117.539 99.4931 115.791 99.4931 114.043C99.4931 111.592 98.3177 109.976 95.7866 109.903C93.1018 109.825 91.6526 111.375 91.7728 114.03C92.267 124.727 92.7545 135.425 93.4424 146.109C93.5092 147.186 94.8716 148.185 95.633 149.217C96.3876 148.08 97.7233 146.976 97.8101 145.793C98.4446 136.969 98.8253 128.124 99.2861 119.287H99.2794Z" fill="#EA5C2B"/>
<path id="Vector_5" d="M152.58 114.444C150.096 125.049 147.558 136.338 145.034 147.048C144.205 150.537 142.088 152.114 139.23 151.529C136.485 150.971 135.396 148.947 135.824 145.438C137.053 135.234 138.241 125.023 139.444 114.812C140.111 109.134 143.678 106.283 148.226 107.814C151.238 108.826 152.634 110.961 152.58 114.437V114.444ZM150.276 114.017C150.149 111.441 148.86 109.949 146.383 109.838C143.471 109.706 142.275 111.572 141.968 114.155C140.706 124.674 139.397 135.188 138.288 145.721C138.168 146.838 139.21 148.073 139.717 149.256C140.706 148.329 142.282 147.554 142.576 146.45C145.361 135.74 147.758 124.76 150.276 114.017Z" fill="#EA5C2B"/>
<path id="Vector_6" d="M56.1089 146.602C55.9753 149.559 54.6797 151.274 52.1419 151.569C49.3102 151.898 47.507 150.426 46.8658 147.666C44.9291 139.354 42.9923 131.042 41.0622 122.73C40.4211 119.957 39.6463 117.204 39.2323 114.398C38.7247 110.962 40.9821 108.143 44.4348 107.505C47.7006 106.901 51.287 108.925 51.7411 112.217C53.3507 123.801 54.7064 135.418 56.1089 146.602ZM53.6646 147.325C52.2754 135.563 50.9865 124.609 49.6842 113.656C49.2768 111.067 47.1263 109.174 44.4749 109.983C42.4179 110.508 41.2692 111.947 41.5564 114.135C43.8271 125.03 46.5586 135.859 49.1899 146.681C49.4504 147.706 50.9598 148.429 51.8881 149.296C52.6027 148.494 53.3239 147.699 53.6579 147.325H53.6646Z" fill="#EA5C2B"/>
<path id="Vector_7" d="M35.0986 63.1848C33.449 58.3487 36.3808 52.4612 40.2811 51.9947C38.6048 55.6086 36.9953 59.0846 35.0986 63.1848Z" fill="#EA5C2B"/>
<path id="Vector_8" d="M99.1656 82.3061C97.4826 83.502 96.561 84.665 95.6193 84.6781C94.8245 84.6913 94.0098 83.3705 93.2017 82.6412C95.9198 79.3492 95.2186 79.6383 99.1656 82.2995V82.3061Z" fill="#EA5C2B"/>
<path id="Vector_9" d="M177.478 38.1627C176.376 38.9577 175.995 39.4308 175.541 39.5228C171.32 40.3311 169.791 43.5508 168.449 47.0004C167.701 48.9323 166.892 50.8444 165.931 52.6776C165.684 53.1442 164.769 53.269 164.154 53.5516C164.061 52.9733 163.713 52.29 163.914 51.8234C165.396 48.3146 166.585 44.5824 168.696 41.4612C169.958 39.5951 172.663 38.6292 174.82 37.4399C175.254 37.2033 176.156 37.775 177.478 38.1627Z" fill="#EA5C2B"/>
</g>
</svg>
