<svg width="114" height="153" viewBox="0 0 114 153" fill="none" xmlns="http://www.w3.org/2000/svg">
<g id="g8">
<path id="path12" d="M25.7305 21.5257C28.3125 31.2881 34.3653 38.3419 41.7857 46.3431C49.8561 55.0464 57.7349 63.8423 57.1586 76.4178C57.1984 77.2844 57.197 78.1305 57.1586 78.9619V102.653C58.0724 108.474 52.0417 103.816 47.1193 109.94C44.5225 113.17 39.6385 112.775 34.722 114.534C30.6234 119.648 27.4268 124.894 25.7305 131.311H89.7305C87.7954 123.996 83.9135 118.202 78.966 112.39C74.7879 112.92 70.903 115.61 68.632 112.784C63.7081 106.66 57.393 108.474 58.3052 102.653V79.0515C58.264 78.1922 58.261 77.3153 58.3023 76.4178C57.7261 63.8423 65.6048 55.0464 73.6752 46.3431C76.2794 43.536 78.714 40.8449 80.8893 38.1127C58.3892 38.5049 61.9897 19.0667 25.7305 21.5257Z" fill="#EA5C2B"/>
<path id="path14" d="M16.6053 13.1187C17.5585 31.3135 27.5691 42.1199 35.9905 51.2063C43.4483 59.2525 49.7985 66.109 49.1859 75.8108C49.7985 85.5125 43.4483 92.369 35.9905 100.415C27.5691 109.502 17.5584 120.307 16.6053 138.502H98.8566C97.9033 120.307 87.8925 109.502 79.471 100.415C72.0132 92.369 65.663 85.5125 66.2756 75.8108C65.663 66.109 72.0132 59.2525 79.471 51.2063C87.8925 42.1199 97.9033 31.3135 98.8566 13.1187H16.6053ZM31.0034 55.8066C21.2849 45.3196 9.62788 32.7405 9.73115 9.99373L9.73101 9.68901L9.75965 6.31055H105.702L105.73 9.68901V9.99373C105.834 32.7405 94.1766 45.3196 84.4566 55.8066C78.0329 62.7379 72.57 68.6348 73.0914 75.5588V76.0628C72.57 82.9867 78.0329 88.8836 84.4566 95.8149C94.1766 106.302 105.834 118.881 105.73 141.628V141.933L105.702 145.311H9.75965L9.73101 141.933L9.73115 141.628C9.62788 118.881 21.2849 106.302 31.0034 95.8149C37.4286 88.8836 42.8915 82.9867 42.3701 76.0628V75.5588C42.8915 68.6348 37.4286 62.7379 31.0034 55.8066Z" fill="#EA5C2B"/>
<path id="path16" fill-rule="evenodd" clip-rule="evenodd" d="M7.23553 0.310547H107.226C110.803 0.310547 113.73 3.23575 113.73 6.81053C113.73 10.3853 110.803 13.3105 107.226 13.3105H7.23553C3.65777 13.3105 0.730469 10.3853 0.730469 6.81053C0.730469 3.23575 3.65777 0.310547 7.23553 0.310547Z" fill="#EA5C2B"/>
<path id="path18" fill-rule="evenodd" clip-rule="evenodd" d="M7.23553 139.311H107.226C110.803 139.311 113.73 142.236 113.73 145.811C113.73 149.386 110.803 152.311 107.226 152.311H7.23553C3.65777 152.311 0.730469 149.386 0.730469 145.811C0.730469 142.236 3.65777 139.311 7.23553 139.311Z" fill="#EA5C2B"/>
</g>
</svg>
