<svg width="226" height="203" viewBox="0 0 226 203" fill="none" xmlns="http://www.w3.org/2000/svg">
<g id="g8">
<g id="g10">
<path id="path12" fill-rule="evenodd" clip-rule="evenodd" d="M204.705 187.351H23.0752C23.0752 137.196 63.7348 96.5363 113.89 96.5363C164.046 96.5363 204.705 137.196 204.705 187.351Z" fill="#EA5C2B"/>
<path id="path14" d="M44.8891 145.373C44.8891 145.373 29.0493 162.593 31.8111 181.52H72.7806L36.36 176.646C36.36 176.646 34.4917 158.857 44.8891 145.373Z" fill="white"/>
<path id="path16" d="M225.544 202.559H0.456055V194.029H225.544V202.559Z" fill="#EA5C2B"/>
<path id="path18" d="M108.735 87.2933C108.735 90.1193 111.026 92.4108 113.852 92.4108C116.679 92.4108 118.97 90.1193 118.97 87.2933C118.97 84.4673 116.679 82.1758 113.852 82.1758C111.026 82.1758 108.735 84.4673 108.735 87.2933Z" fill="#EA5C2B"/>
<path id="path20" d="M111.453 106.274L111.416 88.4379L116.289 88.4282L116.327 106.263L111.453 106.274Z" fill="#EA5C2B"/>
<path id="path22" d="M81.0114 27.8196C81.0114 27.8196 73.6308 40.3095 76.1595 48.9288C78.689 57.5481 81.6824 59.8193 76.7273 67.4062C76.7273 67.4062 85.7593 60.6966 82.9211 52.3868C80.0821 44.0778 77.0368 37.0579 81.0114 27.8196Z" fill="#EA5C2B"/>
<path id="path24" d="M84.3663 0.621349C84.3663 0.621349 90.2149 10.044 87.1281 21.335C84.0414 32.6259 80.3861 34.5754 85.2599 43.7544C85.2599 43.7544 82.0643 36.4023 89.565 22.5534C94.845 12.8058 84.3663 0.621349 84.3663 0.621349Z" fill="#EA5C2B"/>
<path id="path26" d="M139.034 39.9367C139.034 39.9367 132.373 46.029 135.297 55.6953C138.221 65.3617 132.048 76.8151 132.048 76.8151C132.048 76.8151 140.008 64.5494 137.49 55.8578C134.972 47.1662 139.034 39.9367 139.034 39.9367Z" fill="#EA5C2B"/>
<path id="path28" d="M140.09 16.948C140.09 16.948 145.451 21.2532 143.745 28.6451C142.039 36.037 137.572 44.8098 141.308 54.07C141.308 54.07 139.786 46.6732 144.081 36.6031C148.375 26.5331 144.72 19.9535 140.09 16.948Z" fill="#EA5C2B"/>
<path id="path30" d="M104.836 42.1296C104.836 42.1296 101.749 49.2339 103.942 61.156C106.136 73.0781 101.018 81.4448 101.018 81.4448C101.018 81.4448 106.897 73.9993 106.598 67.4059C106.298 60.8124 102.805 50.5775 104.836 42.1296Z" fill="#EA5C2B"/>
</g>
</g>
</svg>
