<svg width="32" height="33" viewBox="0 0 32 33" fill="none" xmlns="http://www.w3.org/2000/svg">
<g id="material-symbols:fork-spoon-rounded">
<path id="Vector" d="M9.33333 29.4997C8.95556 29.4997 8.63911 29.3717 8.384 29.1157C8.12889 28.8597 8.00089 28.5432 8 28.1663V17.2997C6.8 16.9886 5.83333 16.3552 5.1 15.3997C4.36667 14.4441 4 13.3663 4 12.1663V4.16635C4 3.78857 4.128 3.47212 4.384 3.21701C4.64 2.9619 4.95644 2.8339 5.33333 2.83301C5.71022 2.83212 6.02711 2.96012 6.284 3.21701C6.54089 3.4739 6.66844 3.79035 6.66667 4.16635V10.833H8V4.16635C8 3.78857 8.128 3.47212 8.384 3.21701C8.64 2.9619 8.95644 2.8339 9.33333 2.83301C9.71022 2.83212 10.0271 2.96012 10.284 3.21701C10.5409 3.4739 10.6684 3.79035 10.6667 4.16635V10.833H12V4.16635C12 3.78857 12.128 3.47212 12.384 3.21701C12.64 2.9619 12.9564 2.8339 13.3333 2.83301C13.7102 2.83212 14.0271 2.96012 14.284 3.21701C14.5409 3.4739 14.6684 3.79035 14.6667 4.16635V12.1663C14.6667 13.3663 14.3 14.4441 13.5667 15.3997C12.8333 16.3552 11.8667 16.9886 10.6667 17.2997V28.1663C10.6667 28.5441 10.5387 28.861 10.2827 29.117C10.0267 29.373 9.71022 29.5006 9.33333 29.4997ZM22.6667 29.4997C22.2889 29.4997 21.9724 29.3717 21.7173 29.1157C21.4622 28.8597 21.3342 28.5432 21.3333 28.1663V16.7997C20.1333 16.3997 19.1667 15.561 18.4333 14.2837C17.7 13.0063 17.3333 11.5561 17.3333 9.93301C17.3333 7.95523 17.8556 6.27746 18.9 4.89968C19.9444 3.5219 21.2 2.83301 22.6667 2.83301C24.1333 2.83301 25.3889 3.52723 26.4333 4.91568C27.4778 6.30412 28 7.98768 28 9.96635C28 11.5886 27.6333 13.033 26.9 14.2997C26.1667 15.5663 25.2 16.3997 24 16.7997V28.1663C24 28.5441 23.872 28.861 23.616 29.117C23.36 29.373 23.0436 29.5006 22.6667 29.4997Z" fill="#EA5C2B"/>
</g>
</svg>
