<svg width="20" height="21" viewBox="0 0 20 21" fill="none" xmlns="http://www.w3.org/2000/svg">
<path id="Vector" d="M16.9554 17.7248V19.6921C16.9554 19.9332 16.8655 20.166 16.7027 20.3462C16.5399 20.5264 16.3157 20.6416 16.0724 20.6698L15.9554 20.6767H3.95541C3.6902 20.6767 3.43584 20.5729 3.24831 20.3883C3.06077 20.2036 2.95541 19.9532 2.95541 19.6921V17.7287C2.95541 17.4676 3.06077 17.2172 3.24831 17.0325C3.43584 16.8479 3.6902 16.7441 3.95541 16.7441L15.9554 16.7402C16.2206 16.7402 16.475 16.8439 16.6625 17.0286C16.8501 17.2132 16.9554 17.4637 16.9554 17.7248ZM9.95541 0.984375C10.9076 0.984197 11.84 1.2517 12.643 1.75544C13.446 2.25917 14.0862 2.97819 14.4884 3.82794L14.5484 3.96284L14.6844 3.95397C15.7827 3.90505 16.8668 4.21393 17.7689 4.83281C18.6709 5.45168 19.3406 6.34605 19.6744 7.37748L19.7374 7.58721C20.0446 8.70356 19.9427 9.89075 19.4498 10.9406C18.9568 11.9904 18.1042 12.8358 17.0414 13.3285L16.9544 13.3649V14.771C16.9544 15.0321 16.8491 15.2825 16.6615 15.4672C16.474 15.6518 16.2196 15.7556 15.9544 15.7556L3.95441 15.7595C3.70948 15.7595 3.47308 15.6709 3.29004 15.5107C3.10701 15.3504 2.99007 15.1296 2.96141 14.8901L2.95441 14.7749V13.3639L2.83141 13.3098C2.21607 13.0182 1.66791 12.6056 1.22075 12.0974C0.773579 11.5892 0.436881 10.9962 0.231413 10.355L0.167413 10.1354C-0.0369549 9.37746 -0.0544781 8.58242 0.116302 7.81647C0.287083 7.05052 0.641226 6.33582 1.14925 5.73188C1.65727 5.12794 2.30446 4.65222 3.03696 4.34434C3.76945 4.03646 4.56604 3.90533 5.36041 3.96185L5.42641 3.82204C5.81281 3.00838 6.41792 2.31431 7.17622 1.81499C7.93452 1.31567 8.81711 1.03014 9.72841 0.989298L9.95541 0.984375Z" fill="#EA5C2B"/>
</svg>
