<svg width="23" height="20" viewBox="0 0 23 20" fill="none" xmlns="http://www.w3.org/2000/svg">
<path id="people" d="M6.90069 9.03529C8.12081 9.03529 9.29095 8.55933 10.1537 7.71211C11.0165 6.86488 11.5012 5.7158 11.5012 4.51765C11.5012 3.31949 11.0165 2.17041 10.1537 1.32319C9.29095 0.475965 8.12081 0 6.90069 0C5.68057 0 4.51043 0.475965 3.64767 1.32319C2.78492 2.17041 2.30023 3.31949 2.30023 4.51765C2.30023 5.7158 2.78492 6.86488 3.64767 7.71211C4.51043 8.55933 5.68057 9.03529 6.90069 9.03529ZM17.2517 9.03529C18.1668 9.03529 19.0444 8.67832 19.6915 8.0429C20.3386 7.40749 20.7021 6.54567 20.7021 5.64706C20.7021 4.74844 20.3386 3.88663 19.6915 3.25121C19.0444 2.6158 18.1668 2.25882 17.2517 2.25882C16.3366 2.25882 15.459 2.6158 14.812 3.25121C14.1649 3.88663 13.8014 4.74844 13.8014 5.64706C13.8014 6.54567 14.1649 7.40749 14.812 8.0429C15.459 8.67832 16.3366 9.03529 17.2517 9.03529ZM2.87529 11.2941C1.28813 11.2941 0 12.5591 0 14.1176C0 14.1176 0 19.2 6.90069 19.2C12.3706 19.2 13.5047 16.006 13.7393 14.6824C13.8014 14.3368 13.8014 14.1176 13.8014 14.1176C13.8014 12.5591 12.5133 11.2941 10.9261 11.2941H2.87529ZM16.0924 14.9082C16.0878 14.9986 16.0786 15.1055 16.0648 15.229C15.9379 16.1603 15.6084 17.054 15.0987 17.8492C15.7083 17.987 16.419 18.0706 17.2494 18.0706C23 18.0706 23 14.1176 23 14.1176C23 12.5591 21.7119 11.2941 20.1247 11.2941H15.2275C15.7796 12.1028 16.0993 13.0718 16.0993 14.1176V14.6824L16.0924 14.9082Z" fill="#EA5C2B"/>
</svg>
