<svg width="32" height="33" viewBox="0 0 32 33" fill="none" xmlns="http://www.w3.org/2000/svg">
<g id="ic:outline-tips-and-updates">
<path id="Vector" d="M9.33333 26.8327H14.6667C14.6667 28.2994 13.4667 29.4993 12 29.4993C10.5333 29.4993 9.33333 28.2994 9.33333 26.8327ZM6.66667 25.4993H17.3333V22.8327H6.66667V25.4993ZM22 12.8327C22 17.926 18.4533 20.646 16.9733 21.4993H7.02667C5.54667 20.646 2 17.926 2 12.8327C2 7.31268 6.48 2.83268 12 2.83268C17.52 2.83268 22 7.31268 22 12.8327ZM19.3333 12.8327C19.3333 8.79268 16.04 5.49935 12 5.49935C7.96 5.49935 4.66667 8.79268 4.66667 12.8327C4.66667 16.126 6.65333 18.0194 7.8 18.8327H16.2C17.3467 18.0194 19.3333 16.126 19.3333 12.8327ZM28.4933 9.99268L26.6667 10.8327L28.4933 11.6727L29.3333 13.4993L30.1733 11.6727L32 10.8327L30.1733 9.99268L29.3333 8.16602L28.4933 9.99268ZM25.3333 8.16602L26.5867 5.41935L29.3333 4.16602L26.5867 2.91268L25.3333 0.166016L24.08 2.91268L21.3333 4.16602L24.08 5.41935L25.3333 8.16602Z" fill="#EA5C2B"/>
</g>
</svg>
