<svg width="32" height="33" viewBox="0 0 32 33" fill="none" xmlns="http://www.w3.org/2000/svg">
<g id="ph:knife-fill">
<path id="Vector" d="M29.4999 6.29069C29.4983 5.67403 29.3143 5.07164 28.971 4.55934C28.6278 4.04705 28.1406 3.64776 27.5709 3.41176C27.0012 3.17575 26.3744 3.11357 25.7694 3.23305C25.1645 3.35252 24.6084 3.64832 24.1712 4.08319L17.8949 10.3582L2.2924 25.9657C2.16624 26.0919 2.07617 26.2496 2.03154 26.4224C1.9869 26.5953 1.98932 26.7768 2.03856 26.9484C2.08779 27.12 2.18204 27.2752 2.31152 27.398C2.441 27.5209 2.601 27.6068 2.7749 27.6469C4.25869 27.9909 5.77678 28.1649 7.2999 28.1657C11.4187 28.1657 15.5387 26.8907 19.4174 24.3869C23.3874 21.8244 25.6912 18.9094 25.7924 18.7869C25.9431 18.5946 26.0181 18.3538 26.0034 18.1099C25.9887 17.866 25.8851 17.636 25.7124 17.4632L22.6637 14.4157L28.5862 8.49194C28.8759 8.20329 29.1058 7.86024 29.2626 7.48248C29.4195 7.10472 29.5001 6.6997 29.4999 6.29069ZM18.2787 22.7407C13.9749 25.5032 9.53615 26.6057 5.05865 26.0282L18.2499 12.8332L23.6362 18.2207C22.0504 19.9497 20.25 21.4687 18.2787 22.7407Z" fill="#EA5C2B"/>
</g>
</svg>
