<svg width="24" height="24" viewBox="0 0 24 24" fill="none" xmlns="http://www.w3.org/2000/svg">
<g id="timer">
<path id="Vector" d="M10 2C9.71667 2 9.47933 1.904 9.288 1.712C9.09667 1.52 9.00067 1.28267 9 1C8.99933 0.717333 9.09533 0.48 9.288 0.288C9.48067 0.096 9.718 0 10 0H14C14.2833 0 14.521 0.096 14.713 0.288C14.905 0.48 15.0007 0.717333 15 1C14.9993 1.28267 14.9033 1.52033 14.712 1.713C14.5207 1.90567 14.2833 2.00133 14 2H10ZM12 13C12.2833 13 12.521 12.904 12.713 12.712C12.905 12.52 13.0007 12.2827 13 12V8C13 7.71667 12.904 7.47933 12.712 7.288C12.52 7.09667 12.2827 7.00067 12 7C11.7173 6.99933 11.48 7.09533 11.288 7.288C11.096 7.48067 11 7.718 11 8V12C11 12.2833 11.096 12.521 11.288 12.713C11.48 12.905 11.7173 13.0007 12 13ZM12 21C10.7667 21 9.604 20.7627 8.512 20.288C7.42 19.8133 6.466 19.1673 5.65 18.35C4.834 17.5327 4.18833 16.5783 3.713 15.487C3.23767 14.3957 3 13.2333 3 12C3 10.7667 3.23767 9.604 3.713 8.512C4.18833 7.42 4.834 6.466 5.65 5.65C6.466 4.834 7.42033 4.18833 8.513 3.713C9.60567 3.23767 10.768 3 12 3C13.0333 3 14.025 3.16667 14.975 3.5C15.925 3.83333 16.8167 4.31667 17.65 4.95L18.35 4.25C18.5333 4.06667 18.7667 3.975 19.05 3.975C19.3333 3.975 19.5667 4.06667 19.75 4.25C19.9333 4.43333 20.025 4.66667 20.025 4.95C20.025 5.23333 19.9333 5.46667 19.75 5.65L19.05 6.35C19.6833 7.18333 20.1667 8.075 20.5 9.025C20.8333 9.975 21 10.9667 21 12C21 13.2333 20.7623 14.396 20.287 15.488C19.8117 16.58 19.166 17.534 18.35 18.35C17.534 19.166 16.5797 19.812 15.487 20.288C14.3943 20.764 13.232 21.0013 12 21Z" fill="#EA5C2B"/>
</g>
</svg>
